<?xml version="1.0" encoding="UTF-8" standalone="no"?>
<!-- Created with Inkscape (http://www.inkscape.org/) -->

<svg
   version="1.1"
   id="svg1"
   width="861.66504"
   height="776.22906"
   viewBox="0 0 861.66503 776.22905"
   sodipodi:docname="add_posts.svg"
   inkscape:version="1.3 (0e150ed6c4, 2023-07-21)"
   xmlns:inkscape="http://www.inkscape.org/namespaces/inkscape"
   xmlns:sodipodi="http://sodipodi.sourceforge.net/DTD/sodipodi-0.dtd"
   xmlns="http://www.w3.org/2000/svg"
   xmlns:svg="http://www.w3.org/2000/svg">
  <defs
     id="defs1">
    <rect
       x="388.73294"
       y="481.28842"
       width="1511.1783"
       height="826.26788"
       id="rect5" />
    <rect
       x="382.00165"
       y="501.48233"
       width="1315.9705"
       height="745.49219"
       id="rect4" />
  </defs>
  <sodipodi:namedview
     id="namedview1"
     pagecolor="#505050"
     bordercolor="#ffffff"
     borderopacity="1"
     inkscape:showpageshadow="0"
     inkscape:pageopacity="0"
     inkscape:pagecheckerboard="1"
     inkscape:deskcolor="#505050"
     inkscape:zoom="0.42018992"
     inkscape:cx="781.78934"
     inkscape:cy="558.08097"
     inkscape:window-width="2560"
     inkscape:window-height="1494"
     inkscape:window-x="-11"
     inkscape:window-y="-11"
     inkscape:window-maximized="1"
     inkscape:current-layer="g1" />
  <g
     inkscape:groupmode="layer"
     inkscape:label="Image"
     id="g1"
     transform="translate(-41.758722,-48.729663)">
    <path
       style="fill:#f7f3d7;stroke-width:0.666833"
       d="m 729.28859,761.6479 c -3.39758,-4.18321 -2.48883,-4.53343 11.12897,-4.28938 22.98795,0.41201 41.25857,-0.99228 67.53023,-5.19026 11.51185,-1.83951 13.36175,-1.32585 5.18974,1.44093 -14.52338,4.91717 -31.88341,7.14478 -65.26641,8.37493 -8.19892,0.30213 -15.40405,0.75645 -16.0114,1.00962 -0.7555,0.31492 -1.56742,-0.11008 -2.57113,-1.34584 z m -589.26755,-0.5131 c -6.12889,-2.58504 -9.51113,-11.06688 -6.76962,-16.97664 6.00739,-12.94982 25.60627,-9.26563 25.53681,4.80039 -0.0463,9.36625 -10.04643,15.8544 -18.76719,12.17625 z m 574.12385,-9.95639 c -21.36423,-2.37817 -53.12794,-9.3622 -63.68147,-14.00197 -1.58242,-0.69562 -6.07136,-2.49287 -9.97556,-3.9939 -8.41784,-3.23618 -18.57323,-7.91248 -27.26363,-12.55404 -3.46158,-1.84881 -8.31701,-4.33642 -10.78971,-5.52796 -8.02426,-3.86663 -11.51032,-9.21198 -10.54648,-16.17123 1.20024,-8.66671 13.22648,-13.15466 22.49599,-8.3951 2.23604,1.14815 5.28526,2.68887 6.77598,3.4238 1.49072,0.73501 3.47271,1.85577 4.40438,2.49082 1.86056,1.26798 20.01704,10.13909 25.41,12.41508 1.86342,0.78636 4.60768,1.97282 6.09841,2.63657 5.87388,2.61522 7.83378,3.32162 18.29518,6.59368 5.96288,1.86503 13.12848,4.10728 15.92357,4.98278 12.70487,3.97924 33.78414,7.3156 52.1981,8.26166 19.39529,0.99641 21.86885,0.197 15.3637,-4.96543 -6.44576,-5.11526 -16.27476,-17.65443 -20.10604,-25.64979 -3.73228,-7.78882 -4.62499,-9.96143 -7.01868,-17.08224 -4.38743,-13.05122 -6.51133,-25.95127 -6.96908,-42.32746 -0.39887,-14.26959 -0.52379,-15.09347 -2.28747,-15.09347 -3.49563,0 -2.51491,33.60165 1.40763,48.22625 5.54614,20.67813 13.95128,37.42733 24.20845,48.24091 1.88299,1.98512 3.21432,3.78915 2.95849,4.00885 -2.58891,2.22364 -57.3188,-6.20567 -64.40122,-9.91891 -0.61236,-0.32105 -4.07333,-1.47472 -7.691,-2.56361 -3.61763,-1.08889 -7.12421,-2.26717 -7.7924,-2.61839 -0.66818,-0.35131 -3.65419,-1.50838 -6.63563,-2.57144 -2.98144,-1.06302 -6.79294,-2.47904 -8.47001,-3.14666 -3.34519,-1.33176 -25.62474,-12.1509 -30.492,-14.80725 -17.48212,-9.5409 -24.37311,-9.9506 -33.04908,-1.96482 -8.64254,7.95492 -6.77629,24.31633 3.23158,28.33109 3.7611,1.50877 1.39459,2.19965 -26.08445,7.61465 -20.97618,4.1336 -25.81039,4.79008 -58.27359,7.91401 -34.04558,3.27614 -95.97416,0.66536 -129.42154,-5.45618 -30.56048,-5.59314 -37.84694,-7.31443 -59.62878,-14.08607 -2.23608,-0.69514 -5.13282,-1.57224 -6.4372,-1.94916 -1.30437,-0.37679 -2.98143,-0.92002 -3.72679,-1.20706 -0.74536,-0.2871 -2.57488,-0.87772 -4.0656,-1.31251 -1.49072,-0.43479 -3.32024,-1.05332 -4.0656,-1.37441 -0.74536,-0.32109 -7.19279,-2.78926 -14.32763,-5.4847 -44.88725,-16.95807 -85.92527,-43.0943 -119.13551,-75.87459 -13.25163,-13.08014 -40.34119,-47.25502 -40.34119,-50.89256 0,-0.2854 -0.41464,-0.98515 -0.92142,-1.55494 -2.55865,-2.87683 -16.85068,-30.34582 -20.85469,-40.08224 -4.89313,-11.89847 -7.12716,-17.69322 -8.728418,-22.64026 -0.817779,-2.52652 -2.355822,-7.10381 -3.417866,-10.17174 -4.843378,-13.99106 -10.144929,-38.12395 -12.614297,-57.42091 -1.369045,-10.69841 -1.59164,-49.888 -0.335466,-59.06153 3.679545,-26.87085 8.281527,-47.18436 15.164318,-66.9364 10.408739,-29.87074 29.673219,-63.53469 48.537559,-84.81756 1.52027,-1.71518 3.4069,-3.85677 4.19252,-4.7591 8.41884,-9.66955 18.69107,-19.72727 31.84975,-31.18464 5.01569,-4.3672 19.1312,-15.16434 24.33801,-18.61645 13.67702,-9.06789 25.01379,-16.01694 33.57755,-20.5819 5.33756,-2.8452 30.3087,-14.68418 32.18006,-15.25678 0.92844,-0.28408 3.52026,-1.33568 5.7596,-2.33689 8.09845,-3.62082 16.53643,-6.6922 33.20832,-12.08766 4.09947,-1.32669 7.97573,-2.67983 8.6139,-3.00697 10.78653,-5.52938 78.79046,-17.86003 111.66004,-20.24648 5.40386,-0.39234 13.71869,-1.00823 18.47739,-1.36863 11.05871,-0.83756 36.85675,-0.84293 49.77697,-0.0104 5.50462,0.35471 14.88712,0.95535 20.85001,1.33475 17.9313,1.14094 30.36325,2.9863 60.30637,8.95174 7.70208,1.53445 9.97256,2.0914 19.65037,4.82027 2.23608,0.63051 7.11482,1.96232 10.84162,2.95958 6.58763,1.76281 18.13831,5.6875 27.7816,9.43964 2.60874,1.01506 8.85959,3.40502 13.89076,5.31105 12.91491,4.89271 36.64497,16.40841 50.4812,24.49748 8.67911,5.07407 32.19511,20.57357 33.54118,22.1071 0.18635,0.2123 1.40602,1.09089 2.71039,1.95244 12.91409,8.52981 40.1746,34.5483 52.26637,49.8851 5.29578,6.71702 12.1056,16.09084 12.1056,16.66356 0,0.22743 1.18906,2.10818 2.64239,4.17946 2.30491,3.28505 4.72473,7.43819 12.90039,22.14065 1.00354,1.80466 2.98749,5.93897 4.40873,9.18735 1.42133,3.24838 3.11357,7.08738 3.76063,8.53111 4.78203,10.67055 12.34055,36.93129 14.82729,51.51478 5.0347,29.52646 4.77239,67.00376 -0.67162,95.96207 -5.1817,27.56221 -20.89835,67.33732 -35.46525,89.75361 -18.13474,27.90674 -42.26494,55.74399 -62.03518,71.56561 -21.5718,17.2632 -23.88602,37.78359 -8.59728,76.23346 11.6742,29.35937 46.20291,56.75436 71.76656,56.93923 1.15376,0.009 13.18949,6.36102 13.7675,7.26673 0.37822,0.59271 -11.38846,2.62231 -30.38286,5.24065 -18.87067,2.60131 -60.95712,3.44124 -77.90472,1.55477 z M 117.11082,437.00273 c -0.21051,-1.14193 -0.43637,-4.57123 -0.50192,-7.62065 -0.15914,-7.4037 -2.60554,-11.01057 -4.9627,-7.31682 -0.86902,1.36177 0.96087,16.78531 2.08733,17.59353 1.90977,1.37016 3.83969,-0.14759 3.37729,-2.65606 z m -1.64854,-39.97409 c 0.79818,-0.61359 1.17981,-2.63939 1.51439,-8.03894 2.12301,-34.26166 9.62548,-66.26137 21.38629,-91.21725 3.06923,-6.51276 9.00889,-18.01328 10.84567,-20.99965 1.10997,-1.80466 2.22643,-3.72416 2.48104,-4.26556 8.41871,-17.90139 40.20928,-51.73321 67.76977,-72.1212 8.82538,-6.5286 10.50598,-8.67513 7.1529,-9.13598 -1.58874,-0.21836 -6.88637,2.94851 -13.43346,8.03038 -1.89976,1.47459 -4.6332,3.567 -6.07432,4.6498 -13.90127,10.44483 -46.872,44.08562 -47.0787,48.03547 -0.0151,0.28943 -0.9299,1.54865 -2.03279,2.79828 -1.1029,1.24963 -2.00527,2.62773 -2.00527,3.06245 0,0.43472 -0.28523,0.88884 -0.63385,1.00915 -1.85853,0.64139 -16.37884,26.35964 -21.24241,37.62438 -13.89007,32.17146 -19.24024,54.34336 -21.50194,89.10731 -0.82131,12.62411 -0.47417,14.01881 2.85268,11.46136 z m -28.68553,93.02191 c -0.742878,-1.12584 -6.548433,-24.63442 -7.616895,-30.84325 -7.495666,-43.55741 -5.459792,-96.90267 5.334543,-139.77895 5.897104,-23.42392 8.494561,-30.14703 17.240502,-44.62427 1.09023,-1.80466 2.57026,-4.31478 3.28896,-5.57804 8.95055,-15.73225 12.30031,-21.07805 20.88474,-33.32936 12.65671,-18.0631 36.29723,-42.63623 53.45639,-55.56523 5.21752,-3.93127 11.46838,-8.67207 13.8908,-10.5351 33.6575,-25.88534 101.17189,-55.09097 151.10473,-65.36547 34.72874,-7.145991 42.80442,-8.517205 59.28998,-10.067136 5.96287,-0.560614 14.63885,-1.45852 19.27994,-1.995347 19.18563,-2.219159 90.99076,-2.651345 98.72915,-0.594232 1.63342,0.434212 2.2419,1.992356 2.25556,5.775981 l 0.01,2.555614 -5.25143,-0.416878 c -74.05816,-5.879091 -151.54007,3.843638 -220.05385,27.613198 -4.10132,1.42288 -8.52266,3.05076 -9.8252,3.6175 -1.30253,0.56675 -5.56989,2.27671 -9.48303,3.79993 -57.61312,22.42623 -108.86527,59.62977 -142.94185,103.76038 -8.98348,11.63399 -8.59696,11.09252 -14.35896,20.11462 -4.34666,6.80598 -16.5566,29.49083 -18.2615,33.92803 -0.27736,0.72186 -1.25956,2.93667 -2.18268,4.92179 -3.305848,7.10916 -4.049048,9.0289 -8.383782,21.6559 -6.611991,19.26062 -10.419346,36.20679 -13.711881,61.03025 -3.791238,28.58332 -1.09967,70.49361 6.481871,100.92901 1.521287,6.10701 1.940946,10.68296 0.824579,8.99106 z M 47.233046,275.95839 c -5.189431,-1.15253 -7.270754,-8.45418 -3.672638,-12.88425 6.135042,-7.55358 18.500505,1.17833 13.106764,9.25538 -1.611318,2.41293 -6.478809,4.28523 -9.434126,3.62887 z m -1.0164,-34.29439 c -1.623461,-1.57229 -1.810492,-5.37147 -0.334788,-6.80065 3.591732,-3.47851 9.143585,-1.33568 9.143585,3.52911 0,4.24395 -5.64137,6.33911 -8.808797,3.27154 z m 2.059816,-31.13984 c -1.275887,-1.48889 -0.580195,-3.31272 1.263615,-3.31272 2.137427,0 3.348223,1.82151 2.144508,3.22618 -1.109943,1.29524 -2.345451,1.32661 -3.408123,0.0865 z M 802.92144,156.62177 c -0.95675,-0.92659 -0.48075,-3.23276 1.27463,-6.17503 0.96898,-1.62419 3.74224,-6.79207 6.16276,-11.48418 8.11244,-15.72572 16.27614,-19.9259 24.49254,-12.60129 7.8877,7.0316 3.73433,16.40042 -9.78251,22.06619 -3.70006,1.55094 -9.31916,3.99036 -12.48695,5.42093 -6.15984,2.78179 -8.85337,3.55507 -9.66047,2.77338 z M 61.276185,136.55076 c -2.975429,-2.88163 0.186597,-3.89018 11.526576,-3.67649 l 9.665472,0.18213 v 1.96872 1.96872 l -10.181051,0.18035 c -7.345122,0.13012 -10.412229,-0.0435 -11.010997,-0.62343 z M 47.141936,121.2508 c -1.340204,-3.38244 -0.628385,-3.45525 33.440122,-3.42045 28.745712,0.0293 28.900502,0.0429 28.541252,2.5036 l -0.22869,1.56639 -30.680003,0.17076 c -26.84704,0.14942 -30.729057,0.0469 -31.072681,-0.8203 z m 87.527424,-4.59962 c -8.48065,-2.92535 -8.88499,-14.86787 -0.63435,-18.736019 3.69342,-1.731595 6.70904,-1.44819 10.50968,0.987673 10.92614,7.002636 2.56035,22.037966 -9.87533,17.748346 z M 391.1149,50.042141 c 0,-0.874983 0.45174,-1.312478 1.3552,-1.312478 0.90346,0 1.3552,0.437495 1.3552,1.312478 0,0.874984 -0.45174,1.312479 -1.3552,1.312479 -0.90346,0 -1.3552,-0.437495 -1.3552,-1.312479 z"
       id="path4"
       sodipodi:nodetypes="sssssssssssssssssssssssssssssssscsssssssssssssssscsssssssssssssssssssssssssssssssssssssssssssssssssssssssssssssssssscsssssssssssccsssssssssssccssssssssssssssssssscscccscssscsssssssssss" />
    <path
       style="fill:#1e2b2f;stroke-width:0.666833"
       d="m 327.73695,824.12722 c -3.78219,-2.71953 -0.96169,-3.33206 15.34222,-3.33206 h 15.17215 v 1.96868 1.96873 l -14.59078,0.17648 c -11.94274,0.14444 -14.83266,0 -15.92359,-0.78183 z M 216.39644,806.47718 c -1.23076,-1.43616 1.70531,-5.01044 4.13273,-5.03104 1.80769,-0.0152 1.43534,2.13781 -0.71467,4.13272 -2.1764,2.01938 -2.40574,2.07968 -3.41806,0.89832 z m 19.17853,-1.4019 c -1.8978,-1.83803 -2.10021,-2.86174 -0.67085,-3.39297 1.38867,-0.51605 5.10604,2.20378 5.10604,3.73589 0,1.81103 -2.40298,1.6252 -4.43519,-0.34292 z m 464.86417,1.2085 c -22.71786,-0.95184 -67.39458,-9.82316 -73.85834,-14.66568 -0.37266,-0.27922 -2.50713,-1.11802 -4.74321,-1.86412 -2.23608,-0.74601 -6.28432,-2.40939 -8.99607,-3.69641 -2.71182,-1.28693 -5.05369,-2.33995 -5.20417,-2.33995 -0.15048,0 -2.24991,-0.88593 -4.66547,-1.96869 -5.51209,-2.47091 -9.58725,-2.55395 -16.41363,-0.33461 -8.68536,2.82365 -35.27516,8.82745 -52.4698,11.84737 -58.04964,10.19531 -130.08852,8.98237 -190.40553,-3.20592 -17.46489,-3.52911 -47.4086,-11.4942 -54.54677,-14.50951 -1.11805,-0.47227 -3.70986,-1.37672 -5.7596,-2.00977 -3.63692,-1.12328 -19.32273,-6.94264 -22.02199,-8.17005 -0.74536,-0.33897 -4.86178,-2.13778 -9.1476,-3.99751 -17.47714,-7.58343 -42.03198,-20.77278 -56.36633,-30.27651 -24.73559,-16.3998 -53.43772,-41.32048 -70.54504,-61.25091 -2.15985,-2.51634 -4.8205,-5.60866 -5.91253,-6.87194 C 40.305802,571.49324 20.691953,429.72772 72.012569,320.58392 c 0.719434,-1.53003 1.308066,-2.96073 1.308066,-3.17933 0,-0.72043 7.845419,-15.62143 13.964254,-26.52265 0.506482,-0.90233 2.419149,-5.18429 4.250376,-9.51547 1.831227,-4.33118 4.030864,-9.49906 4.888087,-11.48419 1.671198,-3.87011 9.499458,-18.96975 12.077828,-23.29649 0.86034,-1.44372 2.34668,-3.95384 3.30297,-5.57803 0.95628,-1.6242 2.85429,-4.57727 4.21777,-6.56239 1.3635,-1.98513 2.9816,-4.34759 3.59581,-5.24992 1.10518,-1.62365 7.4514,-10.6142 9.72768,-13.78102 0.64859,-0.90233 2.04035,-2.67418 3.09279,-3.93744 1.05245,-1.26326 2.13667,-2.59214 2.40938,-2.95308 7.58235,-10.03524 31.44285,-34.02752 42.09492,-42.32743 1.62126,-1.26326 4.25179,-3.33041 5.84561,-4.59367 6.16961,-4.89001 8.16714,-6.37968 10.12888,-7.55366 1.11803,-0.66908 2.7951,-1.85932 3.7268,-2.64497 3.30285,-2.78512 21.23991,-14.20437 28.31682,-18.0273 1.00999,-0.5456 5.34294,-2.89031 9.62876,-5.21048 7.85179,-4.25064 12.97645,-6.76754 25.40999,-12.47976 82.43722,-37.873333 198.80586,-51.985522 297.80506,-36.115229 4.28581,0.68705 9.31702,1.55893 11.1804,1.937506 1.86343,0.378585 6.4372,1.264626 10.164,1.96899 3.7268,0.704364 8.14814,1.56447 9.82521,1.911346 3.28188,0.678811 16.69863,4.169905 21.6832,5.642056 1.67702,0.495304 6.25084,1.832383 10.16399,2.971285 3.91311,1.138902 7.72461,2.33824 8.46997,2.665198 0.74536,0.326953 3.7292,1.330396 6.63059,2.229864 2.90149,0.899471 6.25559,2.052044 7.45361,2.561274 1.19806,0.50922 4.1602,1.58576 6.58259,2.39231 14.44372,4.80902 49.48536,21.53811 64.71079,30.89329 18.62671,11.44512 28.65079,18.24036 40.99478,27.78997 8.36436,6.47092 9.52725,7.43372 18.25831,15.11708 29.48259,25.9448 55.89478,57.7739 73.49381,88.56685 6.77073,11.84666 15.28687,27.83998 15.30122,28.73554 0.007,0.25449 0.90649,2.32164 2.00538,4.59367 10.57296,21.86046 20.19939,55.19029 23.7181,82.12033 6.86203,52.51785 0.39896,100.08379 -20.61165,151.69436 -4.05151,9.95221 -12.64096,26.13196 -20.46357,38.54704 -1.98755,3.15428 -3.61367,6.00893 -3.61367,6.34368 0,0.33465 -0.22865,0.70697 -0.50818,0.82732 -0.51701,0.22252 -4.91261,6.2701 -4.91261,6.75881 0,0.42635 -6.01131,8.84019 -9.39302,13.14709 -2.87344,3.65949 -5.45962,6.77072 -12.54596,15.09291 -8.11013,9.52446 -22.41629,23.30704 -35.6216,34.3181 -5.38444,4.48964 -10.29061,8.79302 -10.90258,9.56299 -10.89805,13.71184 17.14047,57.78954 50.01329,78.62285 14.15085,8.96824 14.2255,9.58221 1.50989,12.41426 -9.26055,2.06264 -15.34508,3.21683 -20.328,3.85619 -3.16779,0.40649 -9.41863,1.29755 -13.8908,1.98008 -7.90074,1.20585 -36.81297,2.49869 -52.85276,2.36343 -7.81157,-0.0659 -7.60591,-0.35627 -4.60851,6.50524 6.13514,14.04433 12.51899,24.54968 20.13869,33.14008 4.38963,4.94891 4.46898,5.88876 0.58896,6.97678 -6.05671,1.69824 -34.65041,3.10779 -49.99915,2.4646 z m 86.0552,-55.64429 c 35.09098,-4.36833 38.37943,-5.39722 31.00222,-9.69999 -8.49367,-4.95395 -24.82042,-19.66029 -31.9195,-28.7514 -0.98623,-1.26293 -2.34686,-2.88714 -3.02366,-3.60932 -5.07461,-5.41479 -14.06028,-21.45515 -17.48525,-31.21327 -5.15978,-14.70047 -2.578,-20.36482 16.03784,-35.18668 7.80682,-6.2158 27.20811,-25.0473 34.40227,-33.39183 1.19563,-1.38685 8.7438,-10.94201 11.7766,-14.90799 1.04406,-1.36524 2.5843,-3.32741 3.42284,-4.36025 0.83853,-1.03293 1.52459,-2.20456 1.52459,-2.60361 0,-0.39909 0.2287,-0.7261 0.50822,-0.72675 0.27949,0 1.40981,-1.40337 2.51178,-3.11714 1.10198,-1.71377 2.20722,-3.26358 2.45609,-3.44406 0.24883,-0.18048 1.03437,-1.36167 1.74551,-2.62496 0.71123,-1.26324 2.06795,-3.47806 3.01505,-4.92178 0.94706,-1.44372 2.45195,-3.95385 3.34414,-5.57805 0.89219,-1.6242 1.9816,-3.39601 2.42074,-3.93741 1.02949,-1.2692 9.74725,-18.01092 9.74725,-18.7188 0,-0.29531 0.40392,-1.00319 0.89758,-1.57298 0.49371,-0.56984 2.06791,-3.98911 3.49815,-7.59839 1.43037,-3.60932 2.82026,-6.85772 3.0887,-7.21864 2.69327,-3.62146 12.60378,-37.07128 15.84601,-53.48352 21.14988,-107.05985 -22.7573,-219.0314 -117.23125,-298.96218 -7.65969,-6.48058 -12.11051,-10.00264 -15.18247,-12.01439 -1.31003,-0.85789 -2.53431,-1.77378 -2.72066,-2.03534 -0.55562,-0.77988 -16.84667,-11.87887 -23.04595,-15.70102 -3.16358,-1.95052 -6.97173,-4.33628 -8.46241,-5.30166 -1.49072,-0.9654 -5.60714,-3.35301 -9.14763,-5.30581 -3.54045,-1.95282 -7.35195,-4.06435 -8.46997,-4.69231 -3.64754,-2.04866 -24.9646,-12.1751 -29.28998,-13.91388 -2.3203,-0.93277 -5.82688,-2.4034 -7.79239,-3.26807 -8.15596,-3.58807 -17.15664,-6.94413 -32.37159,-12.07033 -72.66958,-24.483687 -176.03959,-30.232237 -256.1327,-14.243887 -12.359,2.467128 -26.49591,5.420857 -29.81439,6.229344 -1.67706,0.408586 -4.87872,1.157055 -7.11479,1.663263 -2.23608,0.506218 -6.04758,1.503561 -8.47,2.216329 -2.42242,0.712769 -8.61661,2.504264 -13.76487,3.981091 -5.14825,1.47685 -9.87451,2.96241 -10.5028,3.30125 -0.62827,0.33886 -3.27676,1.33131 -5.88552,2.20545 -6.06394,2.03191 -18.74844,6.73364 -22.69959,8.41399 -11.44215,4.86616 -29.32643,13.37476 -36.59038,17.40819 -14.00029,7.77389 -25.56759,14.84664 -35.23519,21.54432 -4.34569,3.01068 -3.301,2.25239 -11.85799,8.6072 -12.12899,9.00753 -33.73318,28.62763 -41.11281,37.33706 -17.40497,20.54135 -26.39034,32.84171 -35.63931,48.78781 -3.71509,6.40517 -13.466582,25.66003 -15.155915,29.92618 -0.714616,1.80466 -1.566087,3.87182 -1.892158,4.59368 -4.234537,9.37455 -11.559726,34.59887 -15.014081,51.70101 -9.073214,44.9206 -8.316328,102.25173 1.864558,141.2333 1.319709,5.05305 2.690624,10.36861 3.046473,11.81233 0.355854,1.44372 0.934438,2.90549 1.285744,3.24836 1.102897,1.07646 0.720547,-3.71375 -0.735426,-9.21359 -6.891442,-26.03201 -10.056966,-74.63668 -6.556658,-100.67365 4.60786,-34.27549 12.179267,-62.22895 23.245733,-85.82273 0.89379,-1.90558 1.62508,-3.59435 1.62508,-3.75281 0,-1.3868 11.4275,-22.55645 16.1682,-29.95192 0.61083,-0.95288 2.08522,-3.32359 3.27643,-5.26823 1.92872,-3.14864 11.69805,-16.74311 13.66978,-19.02212 0.42014,-0.48562 3.86622,-4.57428 7.65795,-9.08593 6.98008,-8.30533 26.18914,-27.52895 32.62625,-32.65096 1.92993,-1.53564 4.43933,-3.63673 5.57644,-4.66906 6.30357,-5.72275 28.72038,-21.45102 41.9765,-29.45189 10.77011,-6.50041 35.15536,-18.64439 47.09318,-23.45264 2.42242,-0.97569 5.31916,-2.1487 6.4372,-2.60669 1.11804,-0.45799 3.40494,-1.35589 5.082,-1.99533 1.67706,-0.63944 3.99524,-1.55867 5.15152,-2.04273 2.03441,-0.85169 13.65059,-4.95044 21.27487,-7.50681 23.43973,-7.85918 62.69681,-16.5848 94.52516,-21.00998 28.89744,-4.017688 99.89256,-5.314293 116.35771,-2.12507 1.45059,0.28098 1.88342,0.73799 1.88342,1.98867 v 1.62387 l -6.2678,-0.37982 c -14.80886,-0.89738 -60.58756,-1.20709 -69.8955,-0.47287 -41.27035,3.25549 -51.15939,4.46669 -75.95782,9.30326 -14.86038,2.8983 -49.35356,11.30998 -50.81998,12.39321 -0.37268,0.2753 -1.59236,0.70509 -2.7104,0.95508 -5.0732,1.13438 -31.46513,10.61713 -39.30671,14.1231 -2.23934,1.00121 -4.83116,2.0537 -5.7596,2.33887 -0.92844,0.28516 -5.33542,2.24717 -9.79329,4.36002 -4.45787,2.11285 -8.47265,3.84154 -8.92173,3.84154 -0.44907,0 -0.91814,0.22148 -1.04238,0.49218 -0.12422,0.2707 -1.90292,1.30323 -3.95266,2.2945 -2.04974,0.99129 -4.64156,2.32533 -5.7596,2.96455 -1.11803,0.63922 -4.92953,2.74646 -8.46999,4.68276 -27.24325,14.8995 -61.30308,41.73651 -80.03786,63.06481 -2.37781,2.70698 -4.48868,5.06944 -4.6908,5.24991 -1.0958,0.97839 -10.22416,11.95834 -12.27543,14.76538 -4.17663,5.71545 -11.41187,16.15274 -11.41187,16.46234 0,0.16381 -0.81715,1.54703 -1.8159,3.07382 -7.30136,11.16161 -15.88713,27.95244 -21.55302,42.15033 -9.317196,23.34755 -13.190118,38.25268 -19.102901,73.51848 -1.551861,9.25578 -1.779787,52.88586 -0.334154,63.96364 2.524939,19.34851 8.230127,45.48348 12.559083,57.53225 0.885758,2.46526 2.14628,6.25419 2.801156,8.41979 7.006026,23.16796 26.172316,60.9233 41.189426,81.13842 5.98733,8.05979 13.28094,17.55887 14.03721,18.28183 0.18878,0.18049 2.96911,3.28119 6.17852,6.89051 17.82927,20.05095 43.61302,41.66988 64.97014,54.47566 3.54046,2.12287 7.35196,4.50756 8.47,5.29918 1.11804,0.79167 3.70986,2.26887 5.7596,3.28271 2.04974,1.0138 3.87925,2.00603 4.0656,2.20486 1.12755,1.20324 27.84324,14.42446 36.25158,17.94044 5.98654,2.50321 26.2251,9.85756 32.86359,11.94203 3.16777,0.99466 6.28906,2.0682 6.9362,2.38569 0.64713,0.31748 1.64226,0.57723 2.21139,0.57723 0.56914,0 1.56426,0.27248 2.2114,0.60544 0.64713,0.33305 3.4635,1.2498 6.2586,2.03734 2.7951,0.78749 6.45414,1.83164 8.1312,2.3203 70.25185,20.468 169.58688,21.50597 251.33935,2.62631 9.88782,-2.28343 9.65551,-2.1113 5.77944,-4.28243 -9.91212,-5.55218 -11.22666,-19.72024 -2.56808,-27.67955 7.76065,-7.13399 16.23323,-7.03312 29.36358,0.34961 35.58982,20.01091 75.20471,33.19948 109.43233,36.43201 21.71781,2.05112 22.1876,1.95125 16.69829,-3.5498 -4.47486,-4.48446 -11.75751,-15.15095 -14.40233,-21.09431 -0.77989,-1.7526 -2.11221,-4.66308 -2.96071,-6.46776 -8.98989,-19.12111 -15.2346,-75.37841 -7.53999,-67.92637 0.39392,0.38148 0.7077,2.08921 0.69736,3.79484 -0.25549,41.91289 13.7291,80.77133 34.37758,95.52371 3.41458,2.43961 3.59258,4.73621 0.40318,5.20118 -10.54366,1.53685 -57.57015,-4.33664 -66.32178,-8.28345 -1.25684,-0.56679 -3.65732,-1.32685 -5.33439,-1.68903 -7.753,-1.67437 -27.1502,-8.61584 -37.60677,-13.45796 -7.52326,-3.48372 -21.72554,-10.37988 -22.36077,-10.85754 -0.62401,-0.46927 -2.56609,-1.50837 -12.3349,-6.59985 -10.59762,-5.52344 -22.36173,-0.77431 -23.11653,9.33203 -0.54227,7.2603 1.88569,10.84684 10.38022,15.3333 35.51239,18.75632 53.34952,25.51096 84.69996,32.07494 6.76733,1.41689 14.60777,2.62491 27.7816,4.28038 8.25471,1.03732 61.67313,0.37996 71.82557,-0.88389 z m 18.40814,-146.5127 c -1.09881,-1.06415 -0.18918,-2.99483 3.44445,-7.3106 5.199,-6.17511 9.65585,-12.3096 17.73277,-24.40763 6.29572,-9.43016 16.61503,-28.38379 20.00817,-36.74937 0.65875,-1.6242 1.60942,-3.71588 2.1126,-4.6482 2.47543,-4.58682 11.37615,-30.84688 13.43849,-39.64798 0.59205,-2.52652 1.97577,-8.43267 3.07496,-13.12479 2.98375,-12.73639 5.21475,-31.13079 5.85015,-48.23356 0.4577,-12.32019 0.60018,-13.12479 2.32421,-13.12479 3.86124,0 1.75351,37.48708 -3.44993,61.35835 -2.6853,12.31921 -7.96761,30.74213 -11.85242,41.33753 -9.36289,25.53617 -26.94945,56.77753 -42.8162,76.06046 -6.72477,8.17262 -8.56267,9.75408 -9.86725,8.49058 z M 113.34104,438.61182 c -0.39985,-0.72363 -0.92601,-4.89987 -1.16922,-9.28053 l -0.44222,-7.96494 1.97051,0.21765 c 1.92592,0.21274 1.98231,0.32904 2.49196,5.13946 1.08646,10.25466 -0.37839,16.36287 -2.85103,11.88836 z m -0.71962,-47.17424 c 0,-22.46515 8.10345,-64.11096 15.7397,-80.89054 0.56937,-1.25112 1.56839,-3.7513 2.22003,-5.55596 2.03592,-5.63827 11.2243,-24.40218 15.10342,-30.84324 1.08686,-1.80466 2.66449,-4.46243 3.50587,-5.90616 10.70328,-18.366 39.41443,-50.56621 55.71303,-62.48343 1.37504,-1.0054 5.96516,-4.39184 10.20026,-7.52543 9.08072,-6.71888 10.866,-7.65254 12.35078,-6.45914 1.60023,1.28621 1.44559,1.47246 -5.23133,6.30069 -22.87758,16.54324 -42.23457,35.12688 -57.83496,55.52427 -6.16452,8.06007 -16.39975,23.60457 -17.6355,26.78347 -0.21045,0.5414 -1.16844,2.4609 -2.12885,4.26556 -2.5454,4.78291 -2.57123,4.83452 -4.92705,9.84358 -2.87745,6.11814 -8.80754,20.50182 -9.46939,22.96838 -0.29054,1.08279 -1.48603,4.92179 -2.65664,8.53111 -4.55656,14.04912 -8.06506,32.50992 -9.85285,51.8429 -1.71818,18.58028 -1.79541,18.99628 -3.57192,19.24064 -1.48318,0.204 -1.5246,0.0509 -1.5246,-5.6367 z m 105.0339,395.5674 c -2.30306,-2.3877 -2.42438,-2.8167 -1.09816,-3.88263 1.05652,-0.84924 5.15782,1.95481 5.15782,3.52632 0,2.31278 -2.00298,2.48856 -4.05966,0.35631 z m 17.38579,1.52507 c -1.49195,-1.44494 1.18649,-5.46866 3.64026,-5.46866 1.9564,0 1.67495,2.26099 -0.52768,4.23898 -1.96469,1.76438 -2.38788,1.93156 -3.11258,1.22968 z M 85.178631,756.13893 c -8.952834,-4.68982 -10.45739,-17.16698 -2.802591,-23.24178 4.691654,-3.72328 35.3705,-17.42839 39.01336,-17.42839 2.87414,0 2.19254,1.57103 -11.28816,26.01818 -8.06178,14.61995 -16.035176,19.30755 -24.922609,14.65199 z M 64.173039,697.78881 c -8.661879,-5.40765 -10.098648,-14.78316 -3.239144,-21.13688 6.432434,-5.95814 11.458789,-5.26957 32.608078,4.46743 4.972519,2.28934 9.270367,4.16237 9.550777,4.16237 6.98882,0 2.20553,4.08355 -9.105322,7.77322 -19.51907,6.36737 -25.640865,7.33939 -29.814389,4.73386 z m 768.163341,-23.8674 c -2.79231,-1.02128 -5.51758,-5.13313 -5.51884,-8.32688 0,-7.51543 9.71082,-11.75251 15.17809,-6.62046 7.81413,7.33499 0.49492,18.66118 -9.65925,14.94734 z m 26.99989,-14.56116 c -2.13326,-2.48935 0.0481,-2.95305 13.8908,-2.95305 13.84297,0 16.0241,0.4637 13.8908,2.95305 -0.69636,0.81262 -3.11988,0.98436 -13.8908,0.98436 -10.77092,0 -13.1944,-0.17174 -13.8908,-0.98436 z m 0.50822,-11.53155 c -0.65218,-0.37078 -1.1858,-1.09197 -1.1858,-1.60272 0,-2.26212 41.47188,-3.46619 44.49284,-1.29176 4.04751,2.91331 -38.29539,5.74336 -43.30704,2.89448 z m 0.65923,-442.3466 c -1.69181,-0.91692 -1.47141,-3.09512 0.35718,-3.5302 8.67345,-2.06366 31.7868,0.59633 28.12191,3.23641 -1.43811,1.03605 -26.6301,1.29593 -28.47909,0.29379 z M 842.0575,180.04904 c -6.07876,-2.56956 -5.75627,-13.66518 0.45814,-15.76323 9.75225,-3.29249 16.68758,7.56809 9.13767,14.30944 -1.91055,1.70592 -7.12903,2.49654 -9.59581,1.45379 z m 19.96603,-2.0822 c -1.5612,-2.82515 -0.0694,-3.23925 11.66989,-3.23925 10.7541,0 13.42445,0.45688 13.42445,2.29684 0,2.74764 -23.60688,3.63419 -25.09434,0.94241 z m 32.55512,0.37842 c -1.42168,-1.65894 -0.30166,-2.96143 2.54643,-2.96143 3.14953,0 4.43882,1.00709 3.48924,2.72549 -0.82711,1.49673 -4.82148,1.65288 -6.03567,0.23594 z M 199.85389,125.3937 c -5.51902,-4.88039 -17.64572,-19.79876 -19.90963,-24.49302 -6.64762,-13.783959 12.35387,-25.809998 21.80982,-13.80342 5.02113,6.375521 3.21294,42.8179 -1.90019,38.29644 z M 709.59156,97.558468 c -8.68593,-3.647984 -10.49453,-14.394353 -3.39611,-20.179008 10.03374,-8.176695 25.19069,2.532948 20.08382,14.190889 -2.48726,5.678027 -10.54309,8.568741 -16.68771,5.988119 z m 8.41749,-3.902684 c 4.99525,-2.522799 6.14319,-8.21877 2.49273,-12.368792 -6.5695,-7.468553 -18.6837,2.115192 -12.53782,9.918881 2.74035,3.479511 6.29146,4.345604 10.04509,2.449911 z m -481.63267,3.370414 c -11.08182,-3.994785 -12.64658,-20.506517 -2.56676,-27.085164 15.04806,-9.821211 32.98961,8.11372 22.25276,22.244538 -3.65447,4.809677 -13.23605,7.165709 -19.686,4.840626 z"
       id="path2"
       sodipodi:nodetypes="cscccscscsssssssssssssssssscsssssssssssssssssssssssssssssssssssscsssssssssscssssssssssssssssssssssssssssscssssssssssssssssssssssssssssssssssssssssssssssssscsssssssssssssssssssssssssssssssssssscssssssssscssssssssssssssssssssssssssscssssssssssssssssssssssssssssssssssssssssscsssssssssssssssssssssssssssssssssssssssssss" />
    <text
       xml:space="preserve"
       id="text4"
       style="font-style:normal;font-variant:normal;font-weight:normal;font-stretch:normal;font-size:33.3333px;font-family:'Bauhaus 93';-inkscape-font-specification:'Bauhaus 93, ';white-space:pre;shape-inside:url(#rect4);display:inline;opacity:0.35;fill:#63a537" />
    <text
       xml:space="preserve"
       id="text5"
       style="font-style:normal;font-variant:normal;font-weight:bold;font-stretch:normal;font-size:101.333px;font-family:'Roboto Condensed';-inkscape-font-specification:'Roboto Condensed, Bold';font-variant-ligatures:normal;font-variant-caps:normal;font-variant-numeric:normal;font-variant-east-asian:normal;white-space:pre;shape-inside:url(#rect5);display:inline;opacity:0.35;fill:#000000"
       transform="matrix(0.43478998,0,0,0.43478998,0.9204876,42.907693)"><tspan
         x="388.73242"
         y="569.95544"
         id="tspan14">This posts <tspan
   style="font-weight:normal;-inkscape-font-specification:'Roboto Condensed, Normal'"
   id="tspan6">reflects perspectives, </tspan></tspan><tspan
         x="388.73242"
         y="696.6217"
         id="tspan16"><tspan
           style="font-weight:normal;-inkscape-font-specification:'Roboto Condensed, Normal'"
           id="tspan15">which are constantly evolving and </tspan></tspan><tspan
         x="388.73242"
         y="823.28796"
         id="tspan18"><tspan
           dx="0 0 0 0 0 0 0 0 0 0 0 0 0 0 0 0 0 0 0 0 0 0 0 0 0 0 0 0 0 0 0 -0.00010490417"
           style="font-weight:normal;-inkscape-font-specification:'Roboto Condensed, Normal'"
           id="tspan17">changing. All articles are mostly </tspan></tspan><tspan
         x="388.73242"
         y="949.95422"
         id="tspan20"><tspan
           style="font-weight:normal;-inkscape-font-specification:'Roboto Condensed, Normal'"
           id="tspan19">incomplete, are explorations of </tspan></tspan><tspan
         x="388.73242"
         y="1076.6205"
         id="tspan22"><tspan
           style="font-weight:normal;-inkscape-font-specification:'Roboto Condensed, Normal'"
           id="tspan21">complex topics, I am always open to </tspan></tspan><tspan
         x="388.73242"
         y="1203.2867"
         id="tspan24"><tspan
           style="font-weight:normal;-inkscape-font-specification:'Roboto Condensed, Normal'"
           id="tspan23">debate.</tspan></tspan></text>
  </g>
</svg>
