<?xml version="1.0" encoding="UTF-8" standalone="no"?>
<!-- Created with Inkscape (http://www.inkscape.org/) -->

<svg
   width="1046.5955"
   height="254.29308"
   viewBox="0 0 1046.5955 254.29308"
   version="1.1"
   id="svg1"
   inkscape:version="1.3 (0e150ed6c4, 2023-07-21)"
   sodipodi:docname="bubble_posts.svg"
   xmlns:inkscape="http://www.inkscape.org/namespaces/inkscape"
   xmlns:sodipodi="http://sodipodi.sourceforge.net/DTD/sodipodi-0.dtd"
   xmlns="http://www.w3.org/2000/svg"
   xmlns:svg="http://www.w3.org/2000/svg">
  <sodipodi:namedview
     id="namedview1"
     pagecolor="#505050"
     bordercolor="#ffffff"
     borderopacity="1"
     inkscape:showpageshadow="0"
     inkscape:pageopacity="0"
     inkscape:pagecheckerboard="1"
     inkscape:deskcolor="#505050"
     inkscape:document-units="px"
     inkscape:zoom="1.3484043"
     inkscape:cx="530.25641"
     inkscape:cy="208.76529"
     inkscape:window-width="2560"
     inkscape:window-height="1494"
     inkscape:window-x="-11"
     inkscape:window-y="-11"
     inkscape:window-maximized="1"
     inkscape:current-layer="layer2" />
  <defs
     id="defs1">
    <inkscape:path-effect
       effect="fillet_chamfer"
       id="path-effect3"
       is_visible="true"
       lpeversion="1"
       nodesatellites_param="F,0,0,1,0,0,0,1 @ F,0,0,1,0,0,0,1 @ F,0,0,1,0,0,0,1 @ F,0,0,1,0,0,0,1 @ F,0,0,1,0,0,0,1 @ F,0,0,1,0,0,0,1 @ F,0,0,1,0,0,0,1 @ F,0,0,1,0,0,0,1"
       radius="0"
       unit="px"
       method="auto"
       mode="F"
       chamfer_steps="1"
       flexible="false"
       use_knot_distance="true"
       apply_no_radius="true"
       apply_with_radius="true"
       only_selected="false"
       hide_knots="false" />
    <inkscape:path-effect
       effect="fillet_chamfer"
       id="path-effect2"
       is_visible="true"
       lpeversion="1"
       nodesatellites_param="F,0,0,1,0,0,0,1 @ F,0,0,1,0,0,0,1 @ F,0,0,1,0,0,0,1 @ F,0,0,1,0,0,0,1"
       radius="0"
       unit="px"
       method="auto"
       mode="F"
       chamfer_steps="1"
       flexible="false"
       use_knot_distance="true"
       apply_no_radius="true"
       apply_with_radius="true"
       only_selected="false"
       hide_knots="false" />
  </defs>
  <g
     inkscape:label="Layer 1"
     inkscape:groupmode="layer"
     id="layer1"
     style="display:inline"
     transform="translate(-34.114398,-38.560355)">
    <a
       id="a2"
       transform="translate(11.12426,-11.12426)">
      <path
         id="rect1"
         d="M 35.114399,50.429981 H 1062.4793 c 0.554,0 1,0.446 1,1 V 269.69034 c 0,0.554 -83.65543,34.07171 -83.31953,33.63116 l 31.66473,-41.53057 C 1012.1604,261.35038 22.958866,248.73655 22.990139,248.18344 L 34.114399,51.429981 c 0.03127,-0.553117 0.446,-1 1,-1 z"
         style="opacity:0.8;fill:#ff6600"
         sodipodi:nodetypes="sssssssss" />
    </a>
  </g>
  <g
     inkscape:label="Layer 1 copy"
     inkscape:groupmode="layer"
     id="g9"
     style="display:inline;opacity:0.2;fill:#b3b3b3"
     transform="translate(-34.114398,-38.560355)">
    <a
       id="a9"
       transform="translate(11.12426,-11.12426)"
       style="fill:#b3b3b3">
      <path
         id="path9"
         d="M 35.114399,50.429981 H 1062.4793 c 0.554,0 1,0.446 1,1 V 269.69034 c 0,0.554 -83.65543,34.07171 -83.31953,33.63116 l 31.66473,-41.53057 C 1012.1604,261.35038 22.958866,248.73655 22.990139,248.18344 L 34.114399,51.429981 c 0.03127,-0.553117 0.446,-1 1,-1 z"
         style="opacity:0.8;fill:#b3b3b3"
         sodipodi:nodetypes="sssssssss" />
    </a>
  </g>
  <g
     inkscape:groupmode="layer"
     id="layer2"
     inkscape:label="Layer 2"
     transform="translate(-34.114398,-38.560355)">
    <path
       id="rect1-9"
       d="M 51.64497,39.260355 H 1079.0099 c 0.554,0 1,0.446 1,1 V 258.52071 c 0,0.554 -83.65546,34.07171 -83.31956,33.63116 L 1028.3551,250.6213 C 1028.691,250.18075 39.48944,237.56692 39.52071,237.01381 L 50.64497,40.260355 c 0.0313,-0.55312 0.446,-1 1,-1 z"
       style="opacity:0.8;mix-blend-mode:darken;fill:none;stroke:#000000;stroke-width:1.4;stroke-dasharray:none;stroke-opacity:1"
       sodipodi:nodetypes="sssssssss" />
  </g>
</svg>
