<?xml version="1.0" encoding="UTF-8"?><svg id="a" xmlns="http://www.w3.org/2000/svg" xmlns:xlink="http://www.w3.org/1999/xlink" viewBox="0 0 627.9 314.5"><path d="m296.265,20.243c8.856,0,17.607,0,26.776.313,5.001,24.38,9.793,48.447,14.482,72.409,1.354,7.189,3.438,14.378,3.647,21.567.521,16.774.208,33.652.208,50.426-6.668,0-13.232.208-19.9.104-1.042,0-2.188-1.042-3.021-1.98-3.021-3.751-5.939-7.606-8.96-11.565-3.126,4.063-5.939,7.918-8.96,11.46-.938,1.146-2.5,1.98-3.855,1.98-5.939.208-11.773.104-18.024-.313-.313-16.982-.313-33.548-.313-50.114,0-1.771.208-3.647.521-5.418,5.834-29.485,11.669-59.178,17.399-88.871Z" fill="#e89908"/><path d="m260.946,165.061c-4.897,0-9.793.104-14.69,0-1.042,0-2.292-.729-3.126-1.667-3.021-3.751-5.939-7.606-9.168-11.773-2.917,3.751-5.73,7.606-8.752,11.044-1.146,1.25-2.813,2.292-4.376,2.396-5.313.313-10.627.104-16.149-.313-.313-16.878-.313-33.34-.208-49.905,0-1.875.417-3.855,1.146-5.418,8.856-19.066,17.92-38.028,26.776-57.094,5.001-10.627,9.898-21.358,14.899-32.089,10.314,0,20.733-.104,31.256.208-4.376,23.963-8.96,47.717-13.753,71.367-2.605,12.607-4.48,25.213-3.959,38.34.521,11.669.104,23.338.104,34.902Z" fill="#e89908"/><path d="m341.17,20.138h28.755c.729,0,1.563.417,2.5,1.042,13.961,29.589,27.609,58.761,41.258,87.933.833,1.667,1.25,3.855,1.25,5.834.104,16.774.104,33.444.104,50.218-5.209,0-10.419.104-15.524,0-1.042,0-2.396-.729-3.126-1.667-3.126-3.751-6.147-7.71-9.273-11.877-2.605,3.438-5.313,6.564-7.71,10.002-1.875,2.813-4.063,4.063-7.085,3.542-.938-.208-1.875,0-3.126,0-.625,0-.833.104-1.042.104-2.709-.104-5.522-.104-8.543-.521-.313-16.982-.313-33.548-.313-50.218,0-1.459-.104-2.917-.313-4.272-1.771-9.273-3.647-18.649-5.522-27.922-4.168-20.733-8.231-41.466-12.294-62.199Z" fill="#e89908"/><path d="m390.97,20.243c10.523,0,21.046-.104,31.568-.104.521,0,1.146.313,1.98.833,19.274,29.693,38.34,58.969,57.302,88.35.938,1.459,1.563,3.647,1.563,5.522.104,16.67.104,33.444.104,50.114h-.313c-4.688,0-9.898,1.459-13.857-.417-3.855-1.875-6.46-7.293-9.689-11.148-.521-.625-1.042-1.146-1.563-1.771-3.021,3.855-5.834,7.71-8.856,11.252-.938,1.146-2.5,1.98-3.855,2.084-3.647.313-7.293.104-11.252-.313-.313-16.878-.208-33.34-.313-49.905,0-1.875-.417-3.855-1.146-5.418-5.939-12.919-12.086-25.838-18.128-38.757-7.918-16.67-15.732-33.548-23.546-50.322Z" fill="#e89908"/><path d="m195.413,20.243c10.835,0,21.671-.104,32.714.104-13.544,29.589-27.297,58.761-40.945,88.141-1.042,2.188-1.563,5.001-1.667,7.501-.104,16.357-.104,32.714-.104,49.072h-.313c-8.022,1.563-14.794-.417-19.274-9.377-.729-1.459-2.084-2.605-3.23-4.167-2.917,3.751-5.73,7.189-8.335,10.94-1.459,2.084-3.021,2.813-5.209,2.709-4.167-.208-8.335-.104-12.815-.417-.313-16.878-.313-33.34-.208-49.801,0-1.771.521-3.855,1.459-5.209,9.273-14.482,18.649-28.755,27.922-43.133,10.106-15.42,20.004-30.943,30.006-46.363Z" fill="#e89908"/><path d="m445.46,20.243c13.232,0,26.463,0,40.007.208,19.483,29.693,38.653,59.074,57.719,88.558,1.146,1.771,1.875,4.272,1.875,6.564.104,16.461.104,33.027.104,49.488-6.251,1.354-11.46-.313-15.107-7.189-1.25-2.292-3.126-4.063-4.897-6.251-2.709,3.542-5.522,6.772-7.918,10.314-1.667,2.5-3.542,3.647-6.251,3.23-1.771-.208-3.647-.104-5.73-.521-.313-16.878-.208-33.34-.313-49.801,0-1.875-.625-4.063-1.563-5.522-9.793-15.315-19.795-30.422-29.693-45.738-9.585-14.378-18.858-28.86-28.234-43.341Z" fill="#e89908"/><path d="m133.631,21.076c1.146-.313,2.292-.938,3.334-.938,12.19-.104,24.275,0,36.674.208-18.858,29.693-38.028,59.178-57.094,88.662-1.146,1.771-1.875,4.272-1.875,6.564-.208,16.461-.104,33.027-.104,49.488-5.626,1.25-10.314-.313-13.544-6.355-1.354-2.5-3.438-4.48-5.418-6.98-2.709,3.438-5.418,6.668-7.814,10.21-1.771,2.605-3.751,3.751-6.564,3.334-1.875-.313-3.855-.104-6.043-.521-.313-16.774-.313-33.131-.208-49.488,0-1.875.625-4.063,1.563-5.522,7.085-11.252,14.378-22.296,21.567-33.444,11.877-18.441,23.65-36.882,35.527-55.219Z" fill="#e89908"/><path d="m54.137,165.061c-6.668,1.459-12.086-.521-15.836-7.71-1.042-1.98-2.709-3.542-4.376-5.73-2.813,3.647-5.626,7.085-8.231,10.731-1.459,2.084-3.126,3.126-5.522,2.917s-4.897-.104-7.501-.104c-.104-1.25-.208-2.292-.208-3.334,0-14.899.104-29.797,0-44.696,0-3.751,1.146-6.46,3.438-8.752,16.67-16.253,30.631-35.423,41.987-57.198,4.167-8.022,7.71-16.461,11.356-24.9,1.875-4.272,4.272-6.251,8.439-6.251,11.669.208,23.442.104,35.319.417-18.754,29.589-37.611,58.865-56.677,88.037-1.563,2.396-2.292,4.793-2.292,7.918.208,16.149.104,32.402.104,48.655Z" fill="#e89908"/><path d="m192.913,268.727h421.537v8.543H19.13v-8.543h173.782Z" fill="#f16b07"/><path d="m507.034,20.138c11.356,0,22.608,0,33.965-.104,3.647,0,5.418,2.5,6.98,5.939,4.584,10.002,8.96,20.212,14.065,29.797,10.314,19.066,22.921,35.944,37.611,50.322,3.855,3.751,5.73,7.814,5.522,13.961-.417,13.544-.104,27.193-.104,40.737v3.959c-4.897.938-9.168.938-12.19-4.584-1.667-3.126-4.167-5.626-6.46-8.543-2.709,3.542-5.418,6.668-7.814,10.21-1.771,2.605-3.751,3.751-6.564,3.334-1.563-.208-3.23-.104-5.209-.417-.313-16.774-.208-33.131-.313-49.488,0-1.98-.625-4.272-1.667-5.834-11.356-17.712-22.921-35.319-34.381-52.927-7.814-12.086-15.628-24.171-23.442-36.361Z" fill="#e89908"/><path d="m218.23,268.31c-16.253.313-32.61.313-49.176.313.208-11.773.833-23.546,1.354-35.319.417-7.501,1.146-15.107,1.042-22.608,0-3.542-1.459-7.085-2.5-10.627-.729-2.396.104-3.23,2.396-3.23h44.279c2.188,0,3.126,1.042,2.292,3.021-4.688,11.148-1.875,22.608-1.563,33.86.521,11.461,1.25,22.921,1.875,34.59m-13.857-34.902c-6.98-5.001-15.211-5.001-21.254-.104-6.251,5.001-8.335,13.127-5.105,20.42,2.813,6.355,8.96,10.419,16.045,10.314,6.772-.104,12.919-4.272,15.524-10.627,2.813-7.189,1.146-13.961-5.209-20.004m2.813-13.648c-.104-.938-.104-1.98-.208-2.813h-26.359v9.064h24.9c.417,0,.833-.104,1.667-.208v-6.043Z" fill="#ffc002"/><path d="m159.261,268.518c-13.648.208-27.297.208-41.258.208.208-8.96.625-17.92,1.146-26.88.417-7.293,1.146-14.482,1.146-21.671,0-2.813-1.25-5.73-2.188-8.543-.625-2.084-.104-2.917,1.98-2.917h36.674c1.875,0,2.813.938,1.98,2.709-3.542,7.71-1.667,15.836-1.459,23.754.521,10.94,1.354,21.983,1.98,33.34m-22.713-32.402c-.521.104-1.146.208-1.667.417-8.022,2.084-12.502,10.002-10.21,18.024,2.188,7.606,10.523,11.981,18.233,9.585,6.564-2.084,10.835-9.168,9.689-16.045-1.25-7.397-7.501-12.19-16.045-11.981m13.232-6.668v-3.959h-22.192v7.501h22.192v-3.542Z" fill="#ffc002"/><path d="m279.283,268.414c-16.253.313-32.506.313-49.072.313.208-11.773.833-23.546,1.354-35.319.417-7.501,1.146-15.107,1.042-22.608,0-3.438-1.25-6.876-2.396-10.314-.833-2.605-.208-3.647,2.5-3.647h43.55c1.98,0,3.647.625,2.605,3.021-4.584,10.94-1.667,22.087-1.354,33.235.417,11.669,1.25,23.338,1.771,35.319m-24.38-38.757c-8.752.208-15.003,5.105-17.087,13.127-1.875,7.397,1.563,15.315,8.231,19.066,5.939,3.334,13.336,2.813,18.754-1.354,5.73-4.376,8.231-11.773,6.043-18.649-2.396-7.397-7.606-11.461-15.94-12.19m-7.501-13.023h-5.939v9.064h26.463v-9.064h-20.525Z" fill="#ffc002"/><path d="m373.884,194.963c3.959.521,6.043,3.855,7.085,6.668.729,1.98-1.667,5.105-2.605,7.71-.104.208-.313.313-.417.417-1.875,1.875-4.272,6.98-4.48,9.689-1.042,10.106-6.147,17.607-15.42,21.775-9.585,4.272-18.649,2.813-27.088-3.126-.313-.208-.521-.625-.938-1.146,4.584-5.105,9.064-10.21,13.544-15.315,6.772-7.606,13.544-15.211,20.212-22.921,2.292-2.605,4.793-4.376,8.752-3.855.313,1.354.313,2.5,0,3.542-1.771.417-3.23.833-4.897,1.354,1.459,2.605,2.813,4.793,3.959,6.98,1.25,2.5,2.292,2.709,4.167.729,1.98-2.084,1.875-3.334-.417-5.73-.625-2.292-1.042-4.48-1.459-6.772Z" fill="#0454bf"/><path d="m435.771,194.859c3.751.625,5.834,3.751,6.98,6.564.729,1.771-1.146,4.793-1.98,7.189-.104.417-.521.938-.938,1.146-4.272,1.875-4.48,5.209-4.688,9.377-.521,10.106-5.73,17.712-15.003,21.983-9.481,4.272-18.649,3.23-27.088-2.813-.417-.313-.833-.521-1.563-.938,4.688-5.313,9.064-10.314,13.44-15.211,6.98-7.814,13.961-15.628,20.837-23.546,2.188-2.5,4.793-4.167,8.439-3.647.313,1.354.313,2.5,0,3.647-1.771.417-3.23.833-4.793,1.25,1.667,3.021,2.917,5.522,4.48,8.022.313.521,1.354.938,1.875.833,2.813-.729,3.647-4.063,1.667-6.355-.104-.833.208-2.188.104-2.188-3.021-1.146-1.563-3.438-1.771-5.313Z" fill="#0454bf"/><path d="m497.449,194.859c3.751.625,5.105,3.959,7.189,6.46.417.521-.417,2.188-.625,3.334-.729,3.021-2.084,5.626-5.001,6.876-2.188.938-2.292,2.292-2.084,4.272,1.042,9.898-5.001,20.212-14.586,25.109-8.96,4.584-21.15,3.126-28.339-3.23-.104-.104-.208-.313-.417-.833,4.376-4.897,8.752-9.898,13.232-14.899,6.876-7.814,13.753-15.524,20.629-23.338,2.188-2.5,4.688-4.167,8.439-3.647.313,1.354.313,2.5,0,3.647-1.771.417-3.23.833-4.793,1.25,1.667,3.021,2.917,5.522,4.48,8.022.313.521,1.354.938,1.875.833,2.813-.729,3.647-4.063,1.667-6.355-.104-.938.104-2.292-.104-2.396-3.021-1.042-1.042-3.334-1.563-5.105Z" fill="#0454bf"/><path d="m434.416,196.942v-5.209c0-8.96.104-17.607.208-26.567.208-.417.417-.417.729-.521.208,8.752.208,17.503.313,26.567.313,3.021-1.25,6.355,1.667,7.918.208.104-.104,1.98-.208,3.23-3.23.521-1.667-3.647-2.709-5.418Z" fill="#2f2f2d"/><path d="m496.198,196.942v-5.209c0-8.96.104-17.607.208-26.567.208-.417.417-.417.729-.521.208,8.752.208,17.503.313,26.567.521,2.813-1.459,6.147,1.459,7.71.208.104,0,2.188,0,3.542-2.084-.625-2.5-3.021-2.709-5.522Z" fill="#2f2f2d"/><path d="m373.884,191.316c.417,3.647.833,6.876,1.042,10.523-.938-1.354-1.563-3.126-2.292-5.001v-5.105c0-8.96.104-17.607.208-26.567.208-.417.417-.417.833-.417.104,8.752.104,17.503.208,26.567Z" fill="#030303"/><path d="m204.582,233.512c6.147,5.939,7.814,12.711,4.897,19.795-2.5,6.355-8.647,10.523-15.524,10.627-7.085.104-13.232-3.855-16.045-10.314-3.126-7.293-1.146-15.42,5.105-20.42,6.147-4.897,14.378-4.793,21.567.313m-1.042,10.314c.625-2.605,0-4.793-2.292-6.251s-4.688-1.354-6.668.417c-3.334,3.021-6.668,6.251-9.689,9.689-1.98,2.292-1.875,5.313.208,7.501,1.98,2.084,4.897,2.605,7.085.625,3.959-3.542,7.397-7.606,11.356-11.981Z" fill="#fffdfb"/><path d="m207.186,220.072v5.834c-.833.104-1.25.208-1.667.208h-24.9v-9.064h26.359c0,.729.104,1.667.208,3.021Z" fill="#13646d"/><path d="m136.861,236.116c8.231-.208,14.482,4.584,15.732,11.877,1.146,6.876-3.126,13.961-9.689,16.045-7.71,2.5-16.045-1.875-18.233-9.585-2.292-8.022,2.188-15.94,10.21-18.024.521,0,1.146-.104,1.98-.313m-6.564,19.379c1.667,3.23,4.48,4.584,6.876,2.605,3.334-2.813,6.355-5.939,9.064-9.377.729-.938.417-3.751-.417-4.793-.833-1.146-3.542-2.188-4.584-1.563-4.688,2.5-8.439,6.251-10.94,11.148-.313.313-.104.938,0,1.98Z" fill="#fffdfb"/><path d="m149.78,229.657v3.23h-22.192v-7.501h22.192v4.272Z" fill="#13646d"/><path d="m255.216,229.657c8.022.729,13.336,4.793,15.628,12.19,2.292,6.98-.313,14.274-6.043,18.649-5.313,4.167-12.815,4.688-18.754,1.354-6.668-3.751-10.106-11.669-8.231-19.066,2.084-8.022,8.335-12.919,17.399-13.127m-5.209,13.544c-1.25,1.25-2.709,2.5-3.855,3.959-2.188,2.605-2.188,6.043-.208,8.127,2.084,2.084,5.626,2.292,8.127,0,3.126-2.813,6.147-5.834,8.96-9.064,2.396-2.709,2.292-5.834.104-8.022-1.98-2.084-5.522-2.084-8.127.104-1.667,1.459-3.126,3.021-5.001,4.897Z" fill="#fefcf9"/><path d="m247.715,216.633h20.212v9.064h-26.463v-9.064h6.251Z" fill="#13646d"/><path d="m203.435,244.034c-3.751,4.063-7.293,8.127-11.148,11.773-2.188,1.98-5.105,1.459-7.085-.625-2.188-2.292-2.188-5.209-.208-7.501,3.021-3.438,6.251-6.668,9.689-9.689,1.98-1.771,4.376-1.875,6.668-.417,2.188,1.563,2.813,3.647,2.084,6.46Z" fill="#bf6a40"/><path d="m130.297,255.286c0-.833-.208-1.459,0-1.875,2.5-4.793,6.147-8.647,10.94-11.148,1.042-.521,3.647.521,4.584,1.563.833,1.146,1.25,3.855.417,4.793-2.709,3.438-5.73,6.668-9.064,9.377-2.396,2.084-5.209.729-6.876-2.709Z" fill="#bf6a40"/><path d="m250.215,243.097c1.667-1.667,3.23-3.334,4.793-4.688,2.605-2.188,6.043-2.188,8.127-.104,2.188,2.292,2.292,5.313-.104,8.022-2.813,3.126-5.834,6.147-8.96,9.064-2.5,2.188-6.043,2.084-8.127,0s-2.084-5.522.208-8.127c1.25-1.459,2.605-2.709,4.063-4.167Z" fill="#bf6a40"/><path d="m111.543,268.414c-13.648.313-27.193.313-41.049.313.208-9.898.625-19.691,1.146-29.485.313-6.251.938-12.607.833-18.858,0-2.917-1.25-5.939-2.084-8.856-.625-1.98.104-2.709,1.98-2.709h36.986c1.771,0,2.605.833,1.98,2.5-3.959,9.273-1.563,18.858-1.25,28.339.417,9.377,1.042,18.962,1.459,28.755m-11.565-29.172c-5.834-4.167-12.711-4.167-17.816-.104-5.209,4.167-6.98,10.94-4.272,17.087,2.292,5.313,7.501,8.647,13.44,8.543,5.73-.104,10.835-3.542,12.919-8.856,2.396-6.043,1.042-11.669-4.272-16.67m2.396-11.46c-.104-.833-.104-1.667-.208-2.292h-21.983v7.606h20.837c.313,0,.729-.104,1.354-.104,0-1.667,0-3.126,0-5.209Z" fill="#ffc002"/><path d="m60.805,268.518c-13.648.208-27.297.208-41.258.208.208-8.96.625-17.92,1.146-26.88.417-7.293,1.146-14.482,1.146-21.671,0-2.813-1.25-5.73-2.188-8.543-.625-2.084-.104-2.917,1.98-2.917h36.674c1.875,0,2.813.938,1.98,2.709-3.542,7.71-1.667,15.836-1.459,23.754.521,10.94,1.25,21.983,1.98,33.34m-22.713-32.402c-.521.104-1.146.208-1.667.417-8.022,2.084-12.502,10.002-10.21,18.024,2.188,7.606,10.523,11.981,18.233,9.585,6.564-2.084,10.835-9.168,9.689-16.045-1.354-7.397-7.501-12.19-16.045-11.981m13.232-6.668v-3.959h-22.192v7.501h22.192v-3.542Z" fill="#ffc002"/><path d="m100.187,239.346c5.209,5.001,6.564,10.523,4.167,16.566-2.084,5.313-7.293,8.752-12.919,8.856-5.939.104-11.044-3.23-13.44-8.543-2.605-6.043-.938-12.815,4.272-17.087,5.001-4.167,11.981-4.063,17.92.208m-.938,8.543c.521-2.188,0-3.959-1.875-5.209s-3.959-1.146-5.522.313c-2.813,2.605-5.626,5.209-8.022,8.127-1.667,1.875-1.563,4.376.208,6.251,1.667,1.771,4.167,2.188,5.939.521,3.126-2.917,6.043-6.355,9.273-10.002Z" fill="#fffdfb"/><path d="m102.375,228.094v4.793c-.625.104-1.042.104-1.354.104h-20.837v-7.606h21.983c.104.833.104,1.563.208,2.709Z" fill="#13646d"/><path d="m38.301,236.116c8.231-.208,14.482,4.584,15.732,11.877,1.146,6.876-3.126,13.961-9.689,16.045-7.71,2.5-16.045-1.875-18.233-9.585-2.292-8.022,2.188-15.94,10.21-18.024.625,0,1.146-.104,1.98-.313m-6.46,19.379c1.667,3.23,4.48,4.584,6.876,2.605,3.334-2.813,6.355-5.939,9.064-9.377.729-.938.417-3.751-.417-4.793-.833-1.146-3.542-2.188-4.584-1.563-4.688,2.5-8.439,6.251-10.94,11.148-.313.313-.104.938,0,1.98Z" fill="#fffdfb"/><path d="m51.324,229.657v3.23h-22.192v-7.501h22.192v4.272Z" fill="#13646d"/><path d="m99.249,248.098c-3.126,3.438-6.043,6.772-9.273,9.793-1.875,1.667-4.272,1.25-5.939-.521-1.771-1.875-1.875-4.376-.208-6.251,2.5-2.917,5.209-5.522,8.022-8.127,1.563-1.459,3.647-1.563,5.522-.313,1.98,1.25,2.396,3.126,1.875,5.418Z" fill="#bf6a40"/><path d="m31.737,255.286c0-.833-.208-1.459,0-1.875,2.5-4.793,6.147-8.647,10.94-11.148,1.042-.521,3.647.521,4.584,1.563.833,1.146,1.25,3.855.417,4.793-2.709,3.438-5.73,6.668-9.064,9.377-2.396,2.084-5.209.729-6.876-2.709Z" fill="#bf6a40"/><image width="1456" height="679" transform="translate(177.183 27.533) scale(.174)" xlink:href="Brand.png"/></svg>