<?xml version="1.0" encoding="UTF-8"?><svg id="a" xmlns="http://www.w3.org/2000/svg" viewBox="0 0 627.9 532.229"><g id="b"><path d="m603.4,390.129c-1.1,10.4-3.8,20.3-11,28.2-2.6,2.8-5.9,4.9-9,7.2-4.5,3.4-7.5,7.9-9.5,13.2-1.8,4.9-3.4,10-5.3,14.8-3,7.4-8.3,12.5-15.9,15.2-3.9,1.4-7.9,2.8-11.6,4.6-5.3,2.5-9.1,6.9-12.1,11.8-5.8,9.4-14.3,15.1-25,17.3-6.1,1.3-12.3,1.7-18.5,2.4-6.1.7-12.3,1.2-18.4,1.8-4.3.4-8.6.9-12.9,1-9.4.2-17.3,4-24.7,9.5-3.8,2.8-7.5,5.8-12.3,6.8-1.1.3-2.3.5-3.4.5h-124.2c-8.2,0-14.8-3.2-19.9-9.9-3.3-4.3-8.3-6.4-13.6-7.2-4.9-.8-9.8-1-14.7-1.5-7.1-.6-14.3-1.2-21.4-1.8-4.4-.4-8.8-.6-13.1-1-10.2-1-20.5-1.2-30.2-5.1-4.5-1.8-8-4.9-11.6-7.9-3.2-2.6-6.4-5.4-9.7-7.8-3.2-2.3-7-3.3-10.9-3.3-9.8-.1-19.5,0-29.3-.1-3.1,0-6.2-.2-9.2-.7-5.9-.9-9.9-4.4-12.5-9.6-.7-1.4-1.4-2.8-2.1-4.2-2.2-4.7-5.8-7.5-10.7-9.3-9.7-3.5-19.3-7.1-28.8-11-5.8-2.3-8.5-7.3-9.2-13.2-.8-6.2-1.1-12.4-1.5-18.7-.4-6.8-.6-13.6-.8-20.6,11.7,2.2,23.3,3.8,35.1,2.6,8.8-.9,17.7-1.4,26.6-2,12.4-.9,24.7-.7,37,1.7,14.2,2.8,28.5,2.8,42.6-.2,8.7-1.8,17.2-2.7,25.9-.5,13.1,3.4,26.3,3,39.5.4,5.4-1,10.8-2.1,16.2-2.7,7.3-.8,14.2,1.7,21.2,3.4,7.9,2,15.7,3.1,23.8,1,7.5-1.9,15.1-3.8,22.8-5.2,6.6-1.2,13.4-1.4,20.1,0,8.3,1.7,16.5,3.9,24.9,5.4,8.3,1.6,16.6,1.6,24.6-1.6,7.7-3.1,15.7-4.4,23.9-3.6,3.1.3,6.1,1.4,9,2.2-.5.1-.9.2-1.3.4-.6.3-1.1.7-1.7,1.1.7.3,1.4.8,2,.8,2.1-.1,4.1-.4,6.3-.6,5,1.8,10.1,2.3,15.2,2.3-1,1.5-1.9,2.9-3.1,4-2.7,2.6-5.7,5-8.4,7.6-.5.4-.6,1.2-.9,1.8.2.1.4.2.6.3,6.3-5,12.6-9.9,19.1-14.9.9-.1,1.6-.1,2.2-.3,5.4-1.5,10.8-3.3,16.3-4.5,3.5-.7,7.1-.6,10.6-.7-11.4,9.1-22.7,18-33.9,26.9.1.2.2.4.4.6.8-.3,1.6-.6,2.3-1,7.1-4.4,14.2-8.9,21.4-13.1,5.3-3.1,7.2-1.9,7.1,4.2-.1,6.4-.5,12.8-.8,19.3,0,.7-.1,1.4,0,2.1.1.5.5,1,.8,1.4.4-.4.9-.7,1.1-1.1.2-.5.2-1.1.3-1.6,1.9-9.3,3.8-18.6,5.6-28,.9-4.6,3.6-7.6,7.9-9.2,5.2.9,10.2,1.8,15.2,2.6,7.1,1.1,14.1.9,21.3-.8,1.3,1,2.5,1.9,3.5,2.9,2.9,2.8,3.7,6.3,2.1,10-.6,1.3-1.3,2.6-2.2,3.8-2.5,3.6-5.1,7.2-7.6,10.8-1.8,2.5-3.6,5-5.3,7.6-.3.4-.1,1.2-.1,1.8.5-.2,1.1-.3,1.5-.6.8-.7,1.5-1.6,2.3-2.3,6.3-6.4,12.5-13,18.9-19.2,3.6-3.5,6-3.4,10.4-.6,2.5,1.6,4.9,3.2,7.4,4.8.4.3,1.1.1,1.6.2-.2-.6-.4-1.1-.6-1.7-.1-.2-.3-.3-.5-.5-7.4-6.4-14.9-12.8-22.2-19.4,2.2-.5,4.2-1.1,6.2-1.3,6.7-.4,13.1,1.4,19.5,3.3,3.3,1,6.7,1.9,10.1,2.9,1,.4,1.9.5,2.8.9,1.5.6,2.9,1.4,4.4,2,.4.2,1-.1,1.5-.2-.2-.5-.2-1-.5-1.3s-.8-.5-1-.8c4.5-.2,8.3-2.5,12-5m-352.5,50.6c-1.9-.9-3.8-1.8-5.7-2.5-.4-.2-1,.2-1.5.3.2.4.4.9.8,1.2.5.4,1.1.6,1.7.8,1.7.8,3.5,1.6,5.2,2.5-.1.2-.2.4-.3.6-1.6-.4-3.2-.9-4.9-1.2-1.1-.2-2.2-1.5-3.3.1,1,.6,1.9,1.3,2.9,1.7,1.4.5,2.9.8,4.3,1.2-2.8.1-5.3.9-7.3,2.8-.4.3-.4,1-.6,1.6.5-.1,1.1,0,1.6-.2,1-.5,1.8-1.2,2.8-1.6,2.9-1.3,5.1-.4,6,2.7.4,1.6.1,3.3.2,5,0,.6.3,1.2.5,1.8.4-.5,1.2-1,1.2-1.5.1-2.1.1-4.2.1-6.8.9.9,1.4,1.7,2.1,2.2.9.7,1.9,1.3,2.9,1.9-.6-1.1-1-2.2-1.7-3.2-1-1.3-2.2-2.5-3.2-3.8.2-.2.4-.4.7-.6,1.6,1.4,3.2,2.9,4.9,4.2.5.4,1.3.4,1.9.5-.3-.6-.4-1.4-.8-1.8-1.4-1.4-3-2.7-4.5-4.1-.4-.4-.7-.9-1.1-1.4.1-.2.3-.3.4-.5,2,.7,4,1.4,6.1,2,1,.3,2.1.1,3.2.1-.8-.6-1.6-1.4-2.5-1.8-2-.8-4-1.4-6-2.1,0-.2,0-.4.1-.6,1.5-.1,3,0,4.5-.2,1.3-.2,3.2.7,4.1-1.8-1.5,0-2.5-.1-3.6,0-4,.4-7.2-1-9.3-4.5-.4-.7-.9-1.4-1.5-2-.4-.4-1-.5-1.5-.7,0,.6,0,1.2.2,1.8s.7,1,1.1,1.5c1.1,1.5,2.2,3,3.3,4.5-.2.2-.4.4-.6.5-.5-.4-1.1-.7-1.5-1.1-1.2-1.1-2.4-2.2-3.7-3.2-.6-.4-1.4-.5-2.1-.7.3.7.5,1.5,1,2,1.3,1.4,2.8,2.6,4,4.1-.1.3-.2.3-.6.3m82.9-3.8c-.5.3-1.1.7-2,1.3.7-2,1.3-3.5,1.7-4.9.1-.4-.3-1-.5-1.5-.4.3-.9.6-1.1,1-.5,1.1-.8,2.3-1.3,3.5-.5,1.4-1.1,2.7-1.6,4.1-.2-.1-.4-.1-.6-.2.1-.7.1-1.3.3-2,.3-1.6.8-3.1,1.1-4.7.1-.8-.3-1.6-.4-2.4-.4.6-1,1.2-1.3,1.9-.3.9-.4,1.8-.6,2.7-.4,1.5-.8,3-1.2,4.5h-.7c-.3-1.5-.6-3.1-.9-4.6-.3-1.6-.7-3.2-1.1-4.8-.3,0-.7.1-1,.1-.9,3.1,1.2,6.2.7,10-1.4-2.3-2.4-4.1-3.6-5.8-.4-.6-1.2-.9-1.8-1.4.1.7,0,1.5.3,2.2.2.6.6,1.2,1,1.8,1.9,2.8,2.1,5.8.5,8.8-.5.9-.9,1.8-1.2,2.8-.2.7,0,1.4.1,2.2.5-.5,1.2-.9,1.5-1.5,1.1-2.1,2-4.2,3-6.3.3.1.6.2.8.3-.5,2-1,4-1.3,6.1-.1.9.1,1.8.2,2.7.5-.8,1.2-1.4,1.4-2.3.6-2,1-4.1,1.5-6.1.6,2.5.7,4.9,1,7.2.1.5.7,1,1,1.5.2-.5.6-1,.7-1.5.1-.7,0-1.4-.1-2.1-.1-1.8-.2-3.5-.4-5.3.2,0,.4-.1.6-.1.8,2.7,1.5,5.3,2.3,8,.3-.1.6-.2.9-.2,1-2.2-.7-4.1-.8-6.5.5.4.9.7,1.3,1,1.3.9,2.4,1.9,3.8,2.6.5.3,1.4,0,2.1-.1-.4-.5-.8-1.1-1.3-1.5s-1.1-.6-1.6-.9c-3.6-2.4-3.7-5.7-.2-8.2,1-.7,2.2-1,3.3-1.6.5-.3.8-.8,1.2-1.2-.6-.2-1.3-.6-1.7-.5-1.1.3-2.4,1-4,1.9m-46.6,7.8c1,4.1.6,5-3,6.7-1.4.7-1.9,1.8-1.5,3.2.4,1.5,1.6,2.1,3.1,1.7,3.1-.7,5.3-2.4,6.6-5.3,1.2-2.7.8-5.3-.1-7.9-.7-2.4-.8-4.5,1.1-6.4,1.2-1.2,1.2-2.7-.2-3.9-1.3-1.1-2.6-.6-3.7.4-3.4,3.2-3.9,7-2.3,11.5m60.4,11.5c-.2,1.1-.9,2.5-.4,3.3.4.8,2,1.2,3.1,1.2,3.6-.1,6.2-2,7.8-5.3.5-1,1-2.1,1.5-3.1,1.3-2.5,2.8-3.1,5.5-2.2,1.7.6,3.2.3,3.8-1.5.6-1.8-.4-2.9-2.1-3.5-4.8-1.8-9.8.1-11.8,4.7-1.4,3.3-3,6-7.4,6.4m-135.6-13.4c-.3,2.2-.5,4.4-.9,6.5-1,4.8,2,9.8,6.7,10.9,1.5.4,2.8,0,3.4-1.6.6-1.6-.2-2.7-1.6-3.4-3.3-1.6-3.8-2.6-3-6.2.2-.9.5-1.8.7-2.7.8-3.7-.3-6.9-3.1-9.4-1.2-1.1-2.5-1.2-3.7-.1-1.2,1.1-1,2.3-.2,3.6.5.8,1,1.4,1.7,2.4Z" fill="#e9e3d2"/><path d="m434.1,139.829c-.4-3.1-.8-6.3-1.4-9.3-.3-1.4-.6-3.4-1.6-4-5.5-3.2-6.4-8.3-5.7-13.9.4-3.1.2-5.9-1-8.8-1.4-3.2-.9-6.6,1-9.4,3.3-4.9,4.4-10.3,4.6-16,.1-3.2,1.6-6,4.1-8.1.9-.8,1.9-1.6,2.9-2.3,1.7-1.1,2.3-2.6,2-4.6-1-6.1,2.3-9.8,7-12.8.1-.1.3-.2.4-.2,3.8-1.3,5.4-3.9,5.7-8,.4-5.1,3.3-8.7,8.6-9.5,2.9-.5,4.5-1.9,5.4-4.6,1.8-5.1,5.7-7.2,10.9-7.5,1.5-.1,3.2-.5,4.3-1.3,4.8-3.5,10.1-4.2,15.7-2.7,2.6.7,4.9.7,7.3-.6,4.1-2.3,8.4-2.4,12.7-.2,2.6,1.4,5.1,1.5,7.8-.1,3.2-1.9,6.8-1.7,10.3-.3.9.3,1.8.6,2.5,1.1,2.8,2,5.6,2,8.9.9,5.3-1.7,10-.3,13.4,4.3,1.4,1.9,3.1,2.5,5.2,2,5.6-1.1,9.8,1.2,13.4,5.1.3.3.6.5.8.9,2.4,4.1,5.8,6.1,10.6,6.6,4.4.5,7.4,4.4,7.9,8.9.1.9.3,1.8.4,2.8.2,2,1.4,3,3.4,3.2,1.1.1,2.1.3,3.2.5,2.7.4,4.5,1.9,5.2,4.4.7,2.3,1,4.7,1.2,7.1.2,2.5,1.1,4.3,3.6,5.4,4.1,1.8,6.1,6.4,5.2,12.1-.4,2.4.2,4.1,1.8,5.9,2.7,2.8,2.9,6.5,2.3,10-.6,3.2-.8,6,.5,9.2,1.8,4.5,1.2,9.2-2.7,12.8-1.4,1.3-1.9,2.9-1.5,4.9.2.7.1,1.4.3,2.1,1,4.9-.4,9-4.7,11.7-2.6,1.7-3.7,3.9-3.9,6.9-.2,3.8-2.3,6.5-5.7,8.1-1.3.6-2.7.9-3.8,1.6-1.2.8-2.6,1.7-3.3,2.9-1.9,3.6-5,5.4-8.7,6.4-1.2.3-2.4.7-3.6.7-3.1.2-5.7,1.3-8,3.6-2.6,2.7-6.4,2.9-9.8,2.2-4.5-.9-8.7-.6-12.6,2-.5.3-1.1.4-2.1.8-3.1-.1-5.9-.3-8.8-.6-1.8-.8-3.5-1.4-5.3-2.1-1.3.3-2.5.7-3.7,1.1-5.2,1.9-10.3,3.4-15.7.2-1.4-.8-3.8-.6-5.5-.1-3.7,1.1-7.2,2.2-11.2,1.2-4.1-2.1-8.2-3.2-12.7-1.5-.8.3-1.7.2-2.5.1,1.6-1.5,3.2-2.9,4.9-4.1,4.7-3.4,7.5-7.6,5.8-13.7-1-3.4-1.9-6.7-.8-10.4,1.7-6.2-.5-11-6.2-13.9-2.4-1.2-4.2-2.7-5.3-5.2-1.5-3.4-6.1-5.6-9.7-4.3-4.1,1.4-7.8,1.3-11.9-.3-3.5-1.4-6.9-.8-10,1.7-1.2,1-2.8,1.7-4.3,1.8-8.5,1-14,5.1-15.4,14-.2,1.1-1.4,2.1-2.1,3.2m36.9-59c1.9-.8,3.9-1.4,5.6-2.4,1.4-.9,2.3-2.4,1.3-4.2-.8-1.4-3.5-1.9-5-.9-2.3,1.6-4.4,3.4-5.3,6.3.7.4,1.2.7,1.4,1.1-.7,0-1.4,0-2.1.1-4.6.4-8.3,4.3-8.5,8.9-.3,4.8,3,9,7.9,9.9,4.5.9,9.1-1.7,10.6-6.2,1.9-5.3-.5-9.9-5.9-12.6m85.7,45.5c2.1-.9,4.3-1.5,6.2-2.7.8-.6,1.5-2.8,1.1-3.5-.6-.9-2.4-1.6-3.7-1.5-2.7.1-6.1,4.1-6.4,7,.5.2,1.1.5,1.2.7h-1.2c-5.6.1-9.7,4.3-9.6,9.8.1,5.3,4.4,9.4,9.8,9.3,5.4-.1,9.5-4.5,9.3-10-.1-4.8-3-7.4-6.7-9.1m-38.7-81.7c-.6.1-1.2.2-1.8.3-4.8.9-7.8,4.9-7.7,9.9.2,4.8,3.7,8.5,8.6,9.1,4.5.6,8.9-2.5,10.2-7,1.3-4.8-.7-8.8-5.6-11.9,2-1.2,4.2-2.1,6-3.6,1.5-1.2.9-3.3-.8-4.2-1.9-.9-3.7-.3-5.1,1-1.8,1.7-4.5,3-3.8,6.4m59.1,38.5c.8,0,1.8.2,2.5-.1,1.8-.8,3.8-1.6,5.3-2.9.6-.5.6-2.5.1-3.4-.7-1.3-2.1-1.9-3.8-1.2-2.7,1.1-4.5,2.9-5.6,5.5-.2.6.2,1.4,0,2.2-.8.1-1.7.2-2.5.4-4.6,1-7.7,5.5-7.3,10.2.5,4.8,4.7,8.7,9.6,8.7,4.7,0,8.9-3.6,9.5-8.2.7-5.5-2.1-9.3-7.8-11.2m-54.4,1.9c2.6,0,5.1-.6,6.6-2.6.7-1,1-2.8.6-3.9-.6-1.4-2.2-1.7-3.8-1.1-2.8.9-4.4,3-5.8,5.4-.7,1.2-.3,1.8.4,2.3h-1.2c-5.1.4-8.9,4.5-9,9.5s3.8,9.2,8.8,9.6c5.1.4,9.3-2.8,10.2-8,1-5-1.7-9-6.8-11.2Z" fill="#259e7d"/><path d="m545.8,172.129c2.8.2,5.6.4,8.6.6-3.6,6.8-7.5,13.5-11.3,20.4-1,1.8-1.5,3.9-2,5.9-.3,1.1-.2,2.3-.2,3.5v102.4c0,10.4,0,20.4.1,30.4,0,5.2,1.3,10,4.5,14.1,5.2,6.8,10.6,13.5,16.2,20,2.3,2.7,5.3,4.7,7.9,7.1,0,.1.1.2-.1.2-1.2.1-2.2.1-3.2.1h-68.3c-8.4,0-16.9-.1-25.3-.2,0-.1,0-.3.1-.4,8.1-7,16.1-13.8,24-20.7,5.1-4.4,8-10,8.1-16.8.1-3.6.2-7.1.2-10.7,0-10.4-.1-20.7-.1-31.1,0-1,.1-2,.1-3,0-29,0-57.9.1-86.9,0-4.3-1.5-7.7-4.8-10.5-7.1-6-14-12.2-21-18.4,2.3-1.4,4.5-2.7,6.8-3.9,6,3.8,11.9,7.6,18.1,11.5v-13.3c3.9,1,7.4-.2,11.1-1.3,1.7-.5,4.1-.8,5.5.1,5.4,3.2,10.5,1.7,15.7-.2,1.1-.4,2.3-.7,3.7-.9.2,1.2.1,2.1.2,3,.1.7.4,1.5.9,1.8.3.2,1.3-.2,1.8-.6,1-.5,1.8-1.4,2.6-2.2Z" fill="#d8b57d"/><path d="m472.7,376.829c8.4,0,16.9.1,25.3.1h68.3c1,0,2-.1,3.3-.2.3-.1.3-.2.5-.1,5.2.1,10.2,0,15.4.1,3.3.1,6.3.1,9.7.1-.7-2.1-1.2-3.9-1.8-5.7-.7-2.1-1.4-4.3-1.9-6.4.3,0,.5-.1.7-.2.6.8,1.1,1.6,1.8,2.6,2.3-2.9,4.5-5.8,6.3-8-.8-2.3-1.3-3.9-1.6-5.7.4-.2.6-.2.7-.2.6,1.1,1.2,2.2,2.1,3.8,2.4-5,2.4-9.9,3.2-15,.6,0,1,.3,1.5.6-.7,4.9-1.4,9.7-2.1,14.8.2,0,.8,0,1.7.1.4.4.5.7.6,1-.5.3-1.1.9-1.6.8-2.3-.6-3.3,1-4.3,2.5-.7.9-1.4,1.9-2.2,2.7-3.8,3.3-3.4,7.1-1.6,11.1.3.6,1.4,1.1,2.1,1.1,3.9.1,7.9,0,11.8.1,3.5.1,5.8,2.2,5.9,5.2,0,3.1-2.3,5.4-6,5.5-2,.1-4,.1-6.5.1H41.8c-.7,0-1.4,0-2.1.1-1-.1-2-.1-3-.2-2.9-.5-4.8-2.9-4.6-5.7s2.3-4.8,5.2-4.9c6.3-.1,12.7-.1,19-.1,5.4,0,10.8,0,16.6-.1h32.1c.6.1,1,.1,1.4.1h136.9c.7,0,1.4-.1,2.1-.2,6,0,12.1.1,18.5.1,1,0,1.6,0,2.5.1,6,.1,11.8.1,17.8.3,1,.3,1.8.5,2.8.6,1.1-.2,2-.4,2.9-.4h68.2c.9,0,1.8-.2,2.9-.3,3.2,0,6.2-.1,9.3-.1,1.5-.1,2.9-.2,4.4-.2,3.4.1,6.5.1,9.9.2,1.6,0,3,0,4.6.1,26.1,0,52,.1,77.9.1.5,0,1.1-.1,1.8-.1,1.2,0,2.2-.1,3.4,0,.2-.2.3-.2.4-.2Z" fill="#a47d04"/><path d="m78.9,376.629h-5.6c-6.2-3.3-12.5-6.5-18.4-10.1-6.3-3.8-11.6-8.8-15.9-15.2-1.8,2.2-3.5,4.3-5.3,6.4-.2,0-.4,0-.6-.1.3-3.1.7-6.1.8-9.2,0-1.1-.3-2.4-.9-3.3-8.3-11.6-16.7-23.1-25-34.6-.5-.7-.9-1.4-1.6-2.6,13.3,5.3,25.9,10.4,37.5,18.2.6-1.2,1.1-2.3,1.6-3.4,3.5-7.7,7.3-15.2,13-21.6,1.7-1.9,3.5-3,6.2-2.8,4.1.2,8.2.1,12.6.1-2.4-15.1-4.1-30.1-2.8-45.7,7.4,8.1,13.1,17,18.4,26.6,1.1,2.1,2.2,3.8,3.2,5.6,3.1,7,6.2,14,9.4,21.3.6,1.6,1.2,2.9,1.7,4.2.5,1.6,1,3.2,1.4,5.1-4.4,11.6-7.5,23.2-9.8,34.4-1.5-9-3.1-18.5-4.7-27.9-.1-.7-.6-1.3-1-2-.4.1-.7.2-1.1.3,4,18.5,5.3,37.4,6.2,56.2-5.7,0-11.4.1-17.4-.1-.7-1.4-1.2-2.7-1.6-3.9-3.6-9.2-6.7-18.4-8-28.2-.1-.6-.9-1.1-1.3-1.8-1.2-8-2.3-15.9-3.5-24.4-3.6,5.5-6.8,10.4-10,15.3,4.4,3.3,8.6,6.4,12.8,9.7.2,1.6.3,2.9.6,4.3,1.9,10.2,5.1,19.8,9.1,29.2Z" fill="#259e7d"/><path d="m486.2,174.129c-2.2,1.3-4.4,2.6-6.8,3.9-2.2-.1-4.2-.4-6.2-.4-1.3,0-2.6.2-3.8.6-1.7.6-3.2,1.6-4.9,2.2-4.8,1.8-8.4,1.1-11.6-2.9-2.3-2.8-5.1-4.2-8.6-4.7-6.1-.9-9.3-4.5-9.5-10.7-.1-2.9-.8-5.4-2.8-7.6-2.7-3.1-2.8-6.2-.7-9.8.9-1.5,1.9-3,2.8-4.7.7-1.2,1.8-2.2,2-3.4,1.4-8.9,6.8-13,15.4-14,1.5-.2,3.1-.9,4.3-1.8,3.1-2.5,6.5-3.1,10-1.7,4,1.6,7.8,1.7,11.9.3,3.6-1.3,8.2.9,9.7,4.3,1.1,2.5,2.9,4,5.3,5.2,5.7,2.9,7.9,7.7,6.2,13.9-1,3.7-.1,7,.8,10.4,1.7,6-1.1,10.3-5.8,13.7-1.7,1.2-3.2,2.6-5,4.2-1,1.2-1.8,2.1-2.7,3Z" fill="#28b58e"/><path d="m472.1,376.729h-3.3c-.2-.1-.3-.3-.2-.4.2-5.3.4-10.5.4-15.6,0-.5-.9-1.1-1.6-1.3-.8-.2-1.7-.1-2.5-.3,0-1.1,0-2,.2-3q4-.1,4-3.9c0-3.7-.1-7.4,0-11.1,0-1.8-.8-2.5-2.5-2.5-2,0-4-.1-6-.4-.7-2.1-1.3-4-1.8-6,5-1.3,8.1-4.8,7.7-8.9-.1-1.1-1.1-2.6-2-2.9-.9-.3-2.7.6-3.1,1.4-1.5,3.2-3.8,4.8-7.2,5.4-.9.1-1.7.7-2.7,1-1.1-.5-2.3-.7-2.8-1.5-1.9-3-4.5-4.3-8-3.7-.5.1-1.3,0-1.6-.3-1.7-2.4-4.2-2.9-6.9-3.1.5-1.6.9-3.1,1.4-4.6,2.1-.5,4.2-1.1,6.3-1.4,2.2-.3,3.7-1.3,5-3.2,1.5-2.1,3.2-4.1,5.2-5.8,3.4-2.7,7.5-1.7,11.3-1.1,2.2.3,4.6.9,6.2-1.2,5.1-6.6,11.7-6.5,18.6-4.4,2.9.9,5.3.8,7.9-.9,3.3-2.2,6.9-1.9,10.5-.2.2,10.4.3,20.8.3,31.2,0,3.6-.2,7.1-.2,10.7-.1,6.9-3.1,12.4-8.1,16.8-7.9,6.9-16,13.7-24.1,20.7-.2.3-.3.4-.4.5Z" fill="#caefc5"/><path d="m39.8,387.929c.7-.2,1.4-.3,2.1-.3h415.2c.3,0,.6,0,1.1.2-1.2,1-2.5,2.3-4,2.5-6.8,1-13.6,1.6-20.4,2.4-3-.8-6.1-1.9-9.1-2.2-8.2-.8-16.2.6-23.9,3.6-8,3.2-16.3,3.1-24.6,1.6-8.3-1.6-16.6-3.7-24.9-5.4-6.7-1.4-13.5-1.2-20.1,0-7.7,1.4-15.2,3.3-22.8,5.2-8.1,2.1-15.9,1-23.8-1-7-1.8-13.8-4.3-21.2-3.4-5.4.6-10.8,1.7-16.2,2.7-13.2,2.6-26.4,2.9-39.5-.4-8.7-2.2-17.2-1.3-25.9.5-14.1,2.9-28.4,3-42.6.2-12.2-2.4-24.6-2.7-37-1.7-8.9.7-17.7,1.1-26.6,2-11.9,1.2-23.4-.3-35.2-2.8-.3-1.3-.5-2.4-.6-3.7Z" fill="#cab16a"/><path d="m104.8,376.729c-1.4,0-2.8.1-4.4-.1-.5-4.6-.8-9-1-13.4-.1-2.4-.2-4.8.2-7.1,2.1-12.9,5.7-25.4,10-37.8.3-.8,0-1.7,0-2.6,2.7-7.2,5.5-14.5,8.5-21.7.8.8,1.3,1.7,1.7,2.6,3.5,6.6,7.6,12.9,13.1,18.1,3.8,3.6,7.8,7,11.7,10.5-2.3,4.6-4.7,9.1-7.2,13.8-.6.6-1.1,1-1.4,1.5-4.1,7.6-8.2,15.1-12.4,22.7-.3.6-1,.9-1.5,1.2.7-1.4,1.6-2.5,1.9-3.8.2-1.2-.4-2.5-.7-3.8-1.4.5-3,.7-4,1.6-1,1-1.4,2.6-1.8,3.4-1.2-1.5-2.4-3.3-4-4.7-.5-.5-2.1-.6-2.5-.2-.6.5-.9,1.8-.8,2.7.6,2.9,2.1,5.3,4.8,6.7-3,.5-5.6,1.4-7.1,4-1.2,1.8-2,4.2-3.1,6.4Z" fill="#259e7d"/><path d="m119.7,292.029c5.2-.4,10.5-.1,15.4-1.4,4.2-1.1,7.3-.3,10.8,1.7,13.3,7.7,24.9,17.3,35.1,28.7,6.8,7.6,12.9,15.7,18,24.5.6,1.1,1.2,2.2,1.9,3.5-.6,0-1,0-1.3-.1-14.8-4.9-29.4-10.3-43.2-17.6-3.6-1.9-6.9-4.4-10.5-6.8-.5-.8-.8-1.5-1.3-2-4-3.7-8.2-7.3-12.1-11.1-5.6-5.5-9.5-12.3-12.8-19.4Z" fill="#259e7d"/><path d="m460.7,338.329c2.7.7,8.5-1.5,8.4,2.7-.1,3.7,0,7.4,0,11.1q0,3.8-4.2,3.9c-29.6-.1-58.8.2-88.3-.1-5.1-6.9-8-7-15.4-3.7-.2-3.6.1-7.4,0-11,0-1.9.8-2.7,2.6-2.7,32.1.2,64.8,1,96.9-.2m-2,10c.8-1.6.5-3-1.1-3.7-.9-.3-2.5-.2-3,.5-.6.7-.7,2.3-.3,3.3.5,1.5,2.3,1.5,4.4-.1m-86.4,1.2c1.1-.4,2.5-.6,3.1-1.4.9-1.2.5-2.7-.9-3.5-1.3-.8-2.6-.5-3.5.7-1.2,1.5-.8,3,1.3,4.2Z" fill="#dd8600"/><path d="m585.2,376.729c-5,0-10,.1-15.3,0-.2-.1-.4-.2-.4-.2-2.7-2.3-5.6-4.4-7.9-7.1-5.6-6.5-10.9-13.2-16.2-20-3.2-4.1-4.4-9-4.5-14.1v-30.2c5.2.8,8.4,4,10.8,8.5.6,1.2,1.8,2.6,3,2.8,5.8,1.4,8,5.2,8.1,10.8,0,2.1.9,3.1,3,3.3,6.5.8,8,5.5,9.2,11.9.4,2,1.2,3.9,1.6,6-2,.4-3.9.7-6.4,1,4.5,2.5,8.4,4.7,12.3,7.1-.3,1.9-.5,3.7-1,5.4-.8,2.7-.5,5,1.3,7.3,1.7,2.1,2.8,4.6,2.4,7.5Z" fill="#caefc5"/><path d="m105.1,376.729c.8-2.3,1.7-4.6,2.8-6.7,1.5-2.6,4.1-3.6,7.3-4,1.4,0,2.5.1,3.7.3.8.3,1.6.4,2.4.6.6.3,1.1.5,1.8.7,1.3.2,2.4.6,3.4.5,3.6-.6,7.2-1.5,11-2.2,2.2.2,4.1.3,6.2.6,2,.5,3.9,1.3,5.8,1.3,2.3-.1,4.7-.8,7.2-1.3,2.4-.2,4.5-.4,6.9-.6.9,0,1.7.1,2.5.3,1.7.5,3.2,1.2,4.8,1.3,2.8.3,5.5.2,8.3.3,2.9-.5,5.9-1,9.2-1.6h6.3c.1,0,.1.1.2.1,5.3,2.6,10.5,1.8,15.8,0,.9-.3,2-.3,3.3-.6,2-.1,3.6-.1,5.2,0,2.2.5,4.3,1.4,6.5,1.4,2.7,0,5.4-.8,8.5-1.4,1.7.1,3,.2,4.3.3,4.6,1.9,6.4,5.8,7.1,10.5-.7.2-1.4.3-2,.3H106.7c-.7,0-1,0-1.6-.1Z" fill="#639789"/><path d="m460.7,338.229c-.7.4-1.3.6-2,.6h-87.8c-.4,0-.8-.1-1.3-.3,1.7-5.9,4.1-7.8,10.2-8.4,1.7-1.2,3.2-2.2,4.6-3.3,1.7-.6,3.4-1.2,5.4-1.6.8.9,1.3,1.8,1.8,2.6,2.1-1.1,3.9-2.1,5.9-3.1-.3-.8-.6-1.7-.9-2.5,4.3-3.3,9-3.6,14-2,.7.2,1.7.3,2.4.1,3.4-1.2,6.7-1,10,.5-1.1,2.3-2.3,4.4-3.5,6.7,2.3.3,4,.5,5.6.6.5,0,1.3-.4,1.4-.8.8-3.4,3.5-5.3,5.9-7.5,2.7,0,5.2.5,6.9,2.9.2.3,1.1.4,1.6.3,3.5-.6,6.1.7,8,3.7.5.7,1.7,1,2.7,1.6-1.6,1.6-3.3,3.1-5.2,4.7,2.6,1.2,4.5,2.1,5.8,2.6,2.5-1.3,4.6-2.4,6.7-3.4.5,2,1.1,3.9,1.8,6Z" fill="#cab16a"/><path d="m118.7,248.029c-4.3-2.5-5.2-4.8-4.2-9.7,3-14.1,6.4-28,12.2-41.3.2-.6.5-1.1.8-1.7,2.2-4.1,3.6-4.8,8.5-3.8.7.2,1.2.4,1.7.5,4.4,2.2,5.6,4.2,4.2,9.7-2.7,10.9-5.8,21.8-8.8,32.6-.9,3.3-2.3,6.6-3.3,9.9-1.1,3.7-2.4,5.1-7.4,4.8-.5,0-1.1-.2-1.9-.3-.9-.3-1.3-.5-1.8-.7Z" fill="#aa4869"/><path d="m82.4,231.629c-4.3.2-7-1.9-9-5.6-4.7-8.8-9.8-17.4-14.5-26.2-1.6-2.9-2.8-6-3.8-9.2-.4-1.3-.4-3,.1-4.3.7-1.6.3-2.4-1.1-3.1-.4-.2-.6-.7-.9-1.1.4-.2.6-.3.6-.3,2.1,1.6,4.4,1.8,7.1,1.2,3.3-.7,6,1.1,8.1,3.6,6.4,7.7,11,16.5,14.9,25.6,1.4,3.2,2.6,6.6,3.5,10,.9,3.6.1,6.8-3.7,8.9-.6.4-.9.4-1.3.5Z" fill="#aa496a"/><path d="m137.2,365.829c-3.6.8-7.2,1.6-10.8,2.2-1,.2-2.1-.3-3.3-.6.3-.9.8-1.6,1.2-2.4,4.5-8.3,9.1-16.6,13.6-25,7.2,1.6,14.4,3.2,21.7,5.1-.9,1.2-1.9,2.1-2.9,3.1-3,2.8-5.9,5.5-9.1,8.3-4.3-.6-4.8,2.8-5.9,4.9-1.3-1.5-2.4-3.5-4-4.6-2-1.4-3.7-.3-3.2,2.1.3,1.8,1.5,3.4,2.3,5.1.3.6.3,1.2.4,1.8Z" fill="#259e7d"/><path d="m163.3,365.729c-2.2.2-4.3.4-6.9.6-3-1.4-5.6-2.9-8.2-4.5.1-1.5.2-2.9.5-4.3,1.3-.9,2.4-1.6,3.4-2.5,3.2-2.9,6.4-5.9,9.6-8.8,2.7,3.2,5.5,6.3,8,9.7-2.9.9-3.9,3.2-4.7,5.5-1-1.5-1.7-3.2-2.9-4.4-.7-.7-2.4-1.2-3.2-.8-.7.3-1.1,2.1-.9,3.1.5,3.2,2.7,5,5.3,6.4Z" fill="#29a07f"/><path d="m109.4,315.629c.2.9.4,1.8.2,2.6-4.3,12.3-7.8,24.9-10,37.8-.4,2.3-.3,4.8-.2,7.1.2,4.4.5,8.8.8,13.3-.5.2-1,.3-1.7.3-1.1-18.9-2.4-37.7-6.4-56.3.4-.1.7-.2,1.1-.3.3.7.9,1.3,1,2,1.6,9.4,3.2,18.9,4.7,27.9,2.3-11.3,5.3-22.9,9.8-34.3.2-.1.4-.1.7-.1Z" fill="#073b2d"/><path d="m606.5,358.529c-.3-.4-.4-.7-.6-1.1,1.6-3.7,2.9-7.6,8-7.5,5.9.1,10.2,2.8,12.1,8,.3.7.5,1.4.6,1.8-2.5.6-4.9,1.1-7.3,1.8-2.8.9-5.3.4-7.9-.8-1.5-.7-3.2-1.4-4.9-2.2Z" fill="#29a07f"/><path d="m582.6,356.329c-3.9-2.2-7.8-4.4-12.3-6.9,2.6-.3,4.4-.5,6.4-.8,1.2-.3,2.1-.5,3.1-.7,7.3-1.8,13.1,2.6,13.2,10.2,0,2-.5,4.1-.9,6.3-.3.2-.5.3-.9.2-2.9-2.9-5.8-5.6-8.6-8.3Z" fill="#29a07f"/><path d="m396.4,322.129c.4,1,.7,1.8,1,2.7-1.9,1-3.8,2-5.9,3.1-.5-.8-1-1.6-1.6-2.6-.5-3.2-.9-6.3-1.3-9.3-.4-2.9-1.8-5-4.7-6.1-.4-.2-1-.3-1.2-.6-.6-.9-1.7-2.1-1.4-2.8.4-.9,1.8-1.9,2.7-1.9,6.8.6,10,2.7,11,9.6.5,2.6.9,5.1,1.4,7.9Z" fill="#29a07f"/><path d="m118.6,248.229c.5,0,1,.2,1.6.5-1.1,5.3-2.6,10.4-3.7,15.6-3.2,15.3-6.2,30.5-9.4,46-.6-1.1-1.2-2.4-1.7-3.9.4-1.4.9-2.5,1.2-3.8,3.8-17.2,7.6-34.5,11.4-51.8.2-.7.4-1.6.6-2.6Z" fill="#b0b0ae"/><path d="m432.3,319.729c-2.4,2.3-5.2,4.2-6,7.6-.1.4-.9.8-1.4.8-1.7-.1-3.3-.4-5.6-.6,1.3-2.3,2.4-4.4,3.7-6.6,2.8-1.8,4.5-4,4.9-7.3.4-3.1,1.3-4.1,3.3-3.8,2.5.4,2.4,2.4,2.4,4.3v.9c-.3,1.6-.8,3-1.3,4.7Z" fill="#29a07f"/><path d="m581.6,387.729h22.2c.1.7,0,1.4-.2,2.3-3.9,2.7-7.7,5-12.7,5.4-2-1-3.9-2-5.5-3.3-1.5-1.3-2.6-3-3.8-4.4Z" fill="#cab16a"/><path d="m82.4,231.829c.3-.3.7-.3,1.3-.4,1.8,5.2,3.8,10.4,5,15.7,2.7,12,4.9,24,7.3,36.1.1.5.1.9.1,1.6-1.1-1.6-2.1-3.3-3.2-5.2-.1-2,0-3.9-.3-5.7-2.5-14.3-5.8-28.2-10.2-42.1Z" fill="#b0b0ae"/><path d="m163.5,365.729c-2.8-1.4-5-3.2-5.4-6.3-.1-1,.2-2.8.9-3.1.8-.4,2.5.1,3.2.8,1.2,1.2,1.9,2.8,2.9,4.4.8-2.3,1.8-4.6,4.7-5.4,1.9-.1,2.2,1,2.1,2.8-.7,3.8-2.7,6.1-6,7.1-.8-.2-1.5-.2-2.4-.3Z" fill="#fcfcfc"/><path d="m238.4,365.829c-1.4,0-2.7-.1-4.2-.3-2.4-1.7-4.6-3.4-4.9-6.5-.1-.9.3-2.1.9-2.6.5-.4,2.1-.3,2.5.1,1.5,1.6,2.7,3.4,3.6,4.6,1-1.2,2.3-3,3.9-4.5.4-.4,1.9-.6,2.3-.2.6.6,1,1.8.9,2.7-.4,3.1-2.3,5.1-5,6.7Z" fill="#fffefe"/><path d="m219.2,365.529c-1.8.1-3.4.1-5.2,0-2.5-1.9-4.5-4-4.5-7.2,0-2.1,1.2-3,2.9-1.8,1.6,1.1,2.9,2.7,4.3,4.1.7-.9,1.6-2.3,2.8-3.4.7-.6,2.3-1.2,2.8-.8.7.5,1.2,1.9,1.2,2.9-.1,2.8-2.2,4.4-4.3,6.2Z" fill="#fffefe"/><path d="m194.6,365.929c-2,.1-4,.1-6.2,0-2.2-1.9-4.1-3.9-4-7,.1-2.2,1.6-3.3,3.3-1.8,1.6,1.4,2.6,3.4,3.6,4.8.7-1,1.6-2.7,2.9-4,.7-.7,2.1-.7,3.2-1,.2,1.1,1,2.5.6,3.3-.8,1.9-2.2,3.7-3.4,5.7Z" fill="#fffefe"/><path d="m606.3,342.629c-.6-.2-1-.5-1.6-.7-.7-2.2-1.5-4.4-1.6-6.6,0-1.2.9-2.8,1.9-3.8,1.6-1.8,3.6-3.3,5.4-5,1.1,4.1,1.2,8.3-.5,12.4-.6,1.4-2.3,2.4-3.6,3.7Z" fill="#29a07f"/><path d="m119.5,291.929c3.5,7.2,7.4,13.9,13,19.5,3.9,3.8,8.1,7.4,12.1,11.1.5.5.8,1.2,1.2,1.9-.3.3-.6.4-1.1.5-4.1-3.5-8-6.9-11.8-10.4-5.5-5.2-9.6-11.4-13.1-18.1-.5-.9-1-1.7-1.6-2.7-.1-.8-.1-1.6-.1-2.3.4.1.8.3,1.4.5Z" fill="#073b2d"/><path d="m599.4,353.029c-.3.2-.4.2-.7.2-1.7-6-4.8-10.7-11.1-12.9,3.7-.7,7.4-1.7,10.6.8,2.6,2,3.3,6.1,2,9.8-.2.7-.5,1.3-.8,2.1Z" fill="#29a07f"/><path d="m137.9,340.029c-4.5,8.5-9,16.8-13.6,25.1-.4.7-.9,1.5-1.4,2.3-.6,0-1.1-.2-1.6-.6.2-1,.5-1.7.7-2.4h0c.5-.4,1.2-.8,1.5-1.3,4.1-7.5,8.2-15.1,12.4-22.7.3-.5.8-.9,1.3-1.4.3.2.5.6.7,1Z" fill="#073b2d"/><path d="m384.3,326.729c-1.4,1.2-2.8,2.2-4.4,3.3-.8-2.2-2.2-3.8-4.3-5-.9-.5-2-2.1-1.8-3,.3-1.7,2-1.9,3.6-1.6,3.7.7,5.5,3.2,6.9,6.3Z" fill="#29a07f"/><path d="m166,366.029c3.2-1.1,5.2-3.4,5.9-7,.5.2,1.2.4,1.6.9,1.9,2.4,3.7,4.9,5.6,7.6-2.7.1-5.5.1-8.2-.2-1.7-.1-3.3-.8-4.9-1.3Z" fill="#29a07f"/><path d="m161.8,346.029c-3.2,3.1-6.4,6.1-9.7,9-1,.9-2.2,1.7-3.5,2.4-.4-.3-.6-.6-.7-.8,3-2.8,5.9-5.5,8.9-8.3,1-.9,2-1.9,3.1-3,.9-.5,1.9-1.4,1.9.7Z" fill="#073b2d"/><path d="m137.7,191.929c-.5.1-1-.1-1.6-.3.2-1.1.4-2.2.9-3.2.2-.4.7-.6,1.1-.9.2.5.5,1.1.4,1.6-.1.8-.5,1.7-.8,2.8Z" fill="#b0b0ae"/><path d="m533.6,387.729c3.8,0,7.5,0,11.6.1,1.1.8,2,1.5,2.9,2.2,7.4,6.4,14.9,12.8,22.3,19.3.2.2.4.3.5.5.2.5.4,1.1.6,1.7-.5-.1-1.2.1-1.6-.2-2.5-1.5-5-3.2-7.4-4.8-4.3-2.8-6.7-2.9-10.4.6-6.4,6.2-12.6,12.8-18.9,19.2-.8.8-1.5,1.6-2.3,2.3-.4.3-1,.4-1.5.6,0-.6-.2-1.4.1-1.8,1.7-2.6,3.6-5.1,5.3-7.6,2.6-3.6,5.1-7.2,7.6-10.8.8-1.2,1.6-2.5,2.2-3.8,1.6-3.7.8-7.2-2.1-10-1.1-1-2.3-1.9-3.6-3-1.9-1.7-3.6-3.1-5.3-4.5Z" fill="#cab16a"/><path d="m492.8,387.729c4.2,0,8.4,0,12.7.1-.9,1-2,1.8-3,2.7-4.2,1.8-6.9,4.8-7.8,9.4-1.8,9.3-3.7,18.7-5.6,28-.1.5-.1,1.1-.3,1.6-.2.5-.7.8-1.1,1.1-.3-.5-.7-.9-.8-1.4-.1-.7,0-1.4,0-2.1.3-6.4.6-12.8.8-19.3.1-6.1-1.8-7.3-7.1-4.2-7.2,4.2-14.3,8.7-21.4,13.1-.7.4-1.5.7-2.3,1-.1-.2-.2-.4-.4-.6,11.3-8.9,22.5-17.9,34.1-27,.8-1,1.5-1.7,2.2-2.4Z" fill="#cab16a"/><path d="m334,436.829c1.5-.7,2.7-1.4,4.1-1.9.5-.2,1.1.3,1.7.5-.4.4-.7.9-1.2,1.2-1.1.6-2.3.9-3.3,1.6-3.6,2.5-3.4,5.8.2,8.2.5.3,1.1.5,1.6.9s.9,1,1.3,1.5c-.7,0-1.6.4-2.1.1-1.3-.7-2.5-1.7-3.8-2.6-.4-.3-.8-.6-1.3-1,.1,2.4,1.7,4.3.8,6.5-.3.1-.6.2-.9.2-.8-2.7-1.5-5.3-2.3-8-.2,0-.4.1-.6.1.1,1.8.2,3.5.4,5.3,0,.7.2,1.4.1,2.1-.1.5-.5,1-.7,1.5-.4-.5-1-1-1-1.5-.3-2.4-.4-4.8-1-7.2-.5,2-.9,4.1-1.5,6.1-.3.8-1,1.5-1.4,2.3-.1-.9-.4-1.8-.2-2.7.3-2,.9-4.1,1.3-6.1-.3-.1-.6-.2-.8-.3-1,2.1-1.9,4.3-3,6.3-.3.6-1,1-1.5,1.5,0-.7-.3-1.5-.1-2.2.2-1,.7-1.9,1.2-2.8,1.6-3.1,1.3-6-.5-8.8-.4-.6-.8-1.2-1-1.8-.2-.7-.2-1.4-.3-2.2.6.5,1.4.8,1.8,1.4,1.2,1.7,2.2,3.5,3.6,5.8.4-3.8-1.7-6.9-.7-10,.3,0,.7-.1,1-.1.4,1.6.7,3.2,1.1,4.8.3,1.5.6,3.1.9,4.6h.7c.4-1.5.8-3,1.2-4.5.2-.9.3-1.9.6-2.7.3-.7.8-1.3,1.3-1.9.2.8.5,1.6.4,2.4-.2,1.6-.7,3.2-1.1,4.7-.1.6-.2,1.3-.3,2,.2.1.4.1.6.2.5-1.4,1.1-2.7,1.6-4.1.4-1.2.8-2.4,1.3-3.5.2-.4.7-.6,1.1-1,.2.5.6,1.1.5,1.5-.4,1.5-1,2.9-1.7,4.9.6-.5,1.2-.9,1.9-1.3Z" fill="#ed820e"/><path d="m251.7,440.429c-1.4-1.3-2.9-2.6-4.2-3.9-.5-.5-.7-1.4-1-2,.7.2,1.5.3,2.1.7,1.3,1,2.4,2.2,3.7,3.2.5.4,1,.7,1.5,1.1.2-.2.4-.4.6-.5-1.1-1.5-2.2-3-3.3-4.5-.4-.5-.9-.9-1.1-1.5-.2-.5-.1-1.2-.2-1.8.5.2,1.1.3,1.5.7.6.6,1.1,1.3,1.5,2,2.1,3.5,5.3,4.9,9.3,4.5,1.1-.1,2.1,0,3.6,0-.9,2.5-2.7,1.6-4.1,1.8-1.5.2-3,.2-4.5.2,0,.2,0,.4-.1.6,2,.7,4.1,1.3,6,2.1.9.4,1.7,1.2,2.5,1.8-1.1,0-2.2.1-3.2-.1-2.1-.5-4.1-1.3-6.1-2-.1.2-.3.3-.4.5.3.5.6,1,1.1,1.4,1.5,1.4,3,2.7,4.5,4.1.4.4.6,1.2.8,1.8-.6-.2-1.4-.2-1.9-.5-1.7-1.3-3.2-2.8-4.9-4.2-.2.2-.4.4-.7.6,1.1,1.3,2.3,2.5,3.2,3.8.7,1,1.1,2.1,1.7,3.2-1-.6-2-1.2-2.9-1.9-.7-.5-1.2-1.3-2.1-2.2,0,2.6.1,4.7-.1,6.8,0,.5-.8,1-1.2,1.5-.2-.6-.4-1.2-.5-1.8-.1-1.7.2-3.4-.2-5-.9-3-3.1-3.9-6-2.7-1,.4-1.8,1.2-2.8,1.6-.5.2-1.1.1-1.6.2.2-.5.2-1.2.6-1.6,2-1.9,4.4-2.8,7.3-2.8-1.4-.4-2.9-.7-4.3-1.2-1-.4-1.9-1.1-2.9-1.7,1.1-1.5,2.2-.3,3.3-.1,1.6.3,3.2.8,4.9,1.2.1-.2.2-.4.3-.6-1.7-.8-3.5-1.6-5.2-2.5-.6-.3-1.2-.4-1.7-.8-.4-.3-.5-.8-.8-1.2.5-.1,1.1-.5,1.5-.3,1.9.8,3.8,1.7,6,2.7.5.1.7.2.9.2-.2-.5-.3-.7-.4-.9m3.2,5.4c0-.1.1-.2.1-.3-.1,0-.2.1-.1.3Z" fill="#ed820e"/><path d="m433.5,392.829c7-.8,13.8-1.5,20.6-2.5,1.5-.2,2.8-1.5,4.2-2.5,4-.2,7.9-.2,11.9,0-3,2.7-6.1,5.2-9.2,7.8-6.3,5-12.6,9.9-18.9,14.9-.2-.1-.4-.2-.6-.3.3-.6.5-1.4.9-1.8,2.8-2.6,5.7-5,8.4-7.6,1.2-1.1,2.1-2.6,3.2-4.2.2-2.6-1-3.4-3.1-3.3-4.1.4-8.2.7-12.3,1.1-2.1.2-4.1.6-6.2.7-.7,0-1.3-.5-2-.8.6-.4,1.1-.8,1.7-1.1.4-.3.8-.3,1.4-.4Z" fill="#cab16a"/><path d="m502.6,390.629c.9-1,2-1.8,3.1-2.8,9.2-.1,18.3-.1,27.7-.1,1.9,1.5,3.6,2.9,5.4,4.5-6.9,1.9-13.9,2.1-21,1-5.1-.8-10.1-1.7-15.2-2.6Z" fill="#cab16a"/><path d="m287.1,444.529c-1.5-4.4-1-8.1,2.4-11.2,1.1-1,2.4-1.6,3.7-.4,1.4,1.2,1.4,2.7.2,3.9-2,1.9-1.9,4-1.1,6.4.8,2.6,1.2,5.3.1,7.9-1.3,2.9-3.5,4.6-6.6,5.3-1.5.3-2.6-.3-3.1-1.7-.4-1.4.1-2.5,1.5-3.2,3.6-1.7,4-2.6,2.9-7Z" fill="#29a07f"/><path d="m347.8,456.129c4.2-.3,5.8-3,7.2-6.3,2-4.7,7-6.5,11.8-4.7,1.7.6,2.7,1.8,2.1,3.5-.6,1.8-2,2.1-3.8,1.5-2.7-.9-4.2-.3-5.5,2.2-.5,1-1,2.1-1.5,3.1-1.6,3.3-4.2,5.2-7.8,5.3-1.1,0-2.6-.4-3.1-1.2-.4-.7.2-2.1.6-3.4Z" fill="#29a07f"/><path d="m212,442.629c-.6-.8-1.2-1.5-1.7-2.2-.8-1.2-1-2.5.2-3.6s2.5-1.1,3.7.1c2.8,2.6,3.9,5.7,3.1,9.4-.2.9-.5,1.8-.7,2.7-.8,3.6-.3,4.6,3,6.2,1.4.7,2.2,1.7,1.6,3.4-.6,1.6-1.8,1.9-3.4,1.6-4.7-1.1-7.7-6.1-6.7-10.9.5-2.1.6-4.3.9-6.7Z" fill="#29a07f"/><path d="m461.3,395.529c2.9-2.6,6-5.1,9.2-7.8,7.4-.1,14.6-.2,22.1-.1-.5.7-1.1,1.5-2,2.3-3.7.3-7.3.1-10.8.9-5.5,1.2-10.9,3-16.3,4.5-.7.1-1.4.2-2.2.2Z" fill="#cab16a"/><path d="m581.3,387.629c1.5,1.5,2.6,3.1,4.1,4.4,1.6,1.3,3.5,2.3,5.4,3.4.6.3,1,.4,1.3.8.3.4.4.9.5,1.3-.5.1-1,.3-1.5.2-1.5-.6-2.9-1.4-4.4-2-.8-.3-1.8-.5-2.8-1-1.1-.7-1.9-1.2-2.8-1.7-3.7-1.8-7.5-3.6-11.2-5.4h11.4Z" fill="#cab16a"/><path d="m569.6,387.629c4,1.8,7.7,3.6,11.5,5.4.9.4,1.8.9,2.7,1.5-3.3-.8-6.6-1.7-9.9-2.7-6.4-2-12.7-3.8-19.5-3.3-2,.1-4.1.7-6.2,1.3-1-.6-1.8-1.3-2.8-2.1,7.9,0,16-.1,24.2-.1Z" fill="#cab16a"/><path d="m438.9,394.429c4-.5,8.1-.9,12.2-1.2,2.1-.2,3.3.7,3.1,3.1-5.2.5-10.3-.1-15.3-1.9Z" fill="#cab16a"/><path d="m522.2,85.029c5.6,2.2,8.3,6.2,7.4,11-.9,5.2-5.1,8.5-10.2,8-5.1-.4-8.9-4.6-8.8-9.6.1-5,4-9.1,9-9.5h1.5c.6.1.8.1,1.1.1Z" fill="#ea7c04"/><path d="m576.7,83.229c6.1,1.9,8.9,5.6,8.2,11.1-.6,4.7-4.8,8.3-9.5,8.2-4.9,0-9.1-3.9-9.6-8.7-.5-4.7,2.7-9.2,7.3-10.2.8-.2,1.7-.2,2.8-.4h.8Z" fill="#ea7c04"/><path d="m521.3,45.129c5.2,2.9,7.2,6.9,5.9,11.7-1.2,4.5-5.7,7.6-10.2,7-4.9-.6-8.4-4.3-8.6-9.1-.2-4.9,2.9-8.9,7.7-9.9.6-.1,1.2-.2,2.2-.3,1.2.3,2.1.4,3,.6Z" fill="#ea7c04"/><path d="m556.3,126.429c4.1,1.6,7,4.3,7.1,9,.2,5.5-3.9,9.9-9.3,10-5.4.1-9.7-4-9.8-9.3-.1-5.5,4-9.7,9.6-9.8.4,0,.8,0,1.5.1.6-.1.7-.1.9,0Z" fill="#ea7c04"/><path d="m470.6,80.829c5.8,2.6,8.1,7.3,6.3,12.6-1.5,4.4-6.1,7.1-10.6,6.2-4.9-1-8.2-5.1-7.9-9.9.3-4.6,4-8.5,8.5-8.9.7-.1,1.4,0,2.4,0,.7,0,1,0,1.3,0Z" fill="#ea7c04"/><path d="m521.5,45.029c-1.1-.1-1.9-.2-3-.4-1.2-3.3,1.5-4.7,3.2-6.4,1.3-1.4,3.1-1.9,5.1-1,1.7.8,2.3,2.9.8,4.2-1.7,1.4-3.9,2.3-6.1,3.6Z" fill="#197e64"/><path d="m522.5,85.029c-.5,0-.8,0-1.2-.1-1.2-.5-1.6-1.1-.9-2.3,1.4-2.4,3-4.5,5.8-5.4,1.6-.5,3.3-.3,3.8,1.1.4,1.1.1,3-.6,3.9-1.7,2.2-4.2,2.8-6.9,2.8Z" fill="#197e64"/><path d="m576.9,83.129c-.2,0-.4.1-.4.1,0,0-.2,0-.3-.1-.2-.8-.7-1.6-.4-2.2,1.1-2.5,2.9-4.4,5.6-5.5,1.7-.7,3.1-.1,3.8,1.2.5.9.5,2.9-.1,3.4-1.5,1.3-3.4,2.1-5.3,2.9-.9.4-1.8.2-2.9.2Z" fill="#197e64"/><path d="m470.8,80.829c-.5,0-.8,0-1.2-.1-.7-.4-1.3-.7-2-1.1.9-2.9,3-4.8,5.3-6.3,1.5-1.1,4.2-.5,5,.9,1,1.8.1,3.3-1.3,4.2-1.7,1-3.7,1.6-5.8,2.4Z" fill="#197e64"/><path d="m556.5,126.329c-.4,0-.6,0-.9-.1-.7-.3-1.2-.5-1.8-.8.4-2.9,3.8-6.8,6.4-7,1.3-.1,3.1.6,3.7,1.5.5.7-.2,2.9-1.1,3.5-1.7,1.4-4,2.1-6.3,2.9Z" fill="#197e64"/><path d="m569.6,376.529c0-.1.1,0,.2,0v.2c-.1,0-.1-.1-.2-.2Z" fill="#fefad9"/><path d="m472.2,376.829c-.1-.2,0-.3.3-.3.1,0,.1.2.1.3h-.4Z" fill="#ed966c"/><path d="m79.1,376.729c-4.2-9.5-7.3-19.1-9.3-29.2-.3-1.4-.4-2.7-.5-4.3.3-.3.4-.3.6-.4.5.5,1.3,1,1.3,1.6,1.4,9.8,4.5,19.1,8,28.2.5,1.2.9,2.5,1.4,3.8-.3.3-.8.3-1.5.3Z" fill="#073b2d"/><path d="m389.2,376.929c.1-.2.4-.3,1.1-.4h78.2s.1.2.1.3c-.5.1-1.1.2-1.6.2-25.8,0-51.7-.1-77.8-.1Z" fill="#ed966c"/><path d="m363.6,374.729c4.1-1.8,8.2-2.1,12.6.3-.7.5-1.1.9-1.6,1.4-1.4.2-2.8.3-4.5.3-1.2-.3-2.1-.4-3.1-.7-1.2-.4-2.3-.8-3.4-1.3Z" fill="#fcfcfc"/><path d="m468.2,375.929c-26.1.2-52,.2-78.2.2-38.5.7-27.5,1.7-28.9-17.1,29.4-.4,76.6-.2,105.9,0,3.5,1.4.6,12.9,1.2,16.9m-12.7-12.4c-3.5.6-2.2,4.5.3,5.2,3.7.7,3.9-5.7-.3-5.2Z" fill="#dd8600"/><path d="m458.9,332.229c-2.2,1.2-4.3,2.2-6.9,3.5-1.2-.6-3.2-1.4-5.8-2.6,1.9-1.7,3.6-3.1,5.4-4.7.9-.5,1.7-1,2.6-1.2,3.4-.6,5.7-2.2,7.2-5.4.4-.8,2.3-1.7,3.1-1.4.9.3,1.8,1.8,2,2.9.5,4.1-2.7,7.6-7.6,8.9Z" fill="#29a07f"/><path d="m118.7,366.229c-1.1-.1-2.2-.2-3.4-.3-3-1.3-4.6-3.6-5.1-6.6-.2-.8.2-2.1.8-2.7.5-.4,2-.3,2.5.2,1.5,1.5,2.8,3.3,4,4.7.4-.8.8-2.5,1.8-3.4s2.6-1.1,4-1.6c.3,1.3.9,2.6.7,3.8-.2,1.3-1.2,2.4-1.9,3.8q0,.2-.2.2c-1.2.7-2.2,1.3-3.2,1.9Z" fill="#fcfcfc"/><path d="m458.6,348.429c-2,1.5-3.7,1.5-4.4-.1-.4-.9-.2-2.5.3-3.3.5-.6,2.2-.8,3-.5,1.6.7,2,2.2,1.1,3.9Z" fill="#fde6ec"/><path d="m372.1,349.429c-1.9-1.1-2.2-2.6-1.1-4.1.8-1.2,2.1-1.5,3.5-.7,1.4.9,1.9,2.3.9,3.5-.7.8-2.1.9-3.3,1.3Z" fill="#fde6ec"/><path d="m147.7,356.629c.3.3.5.5.7.9,0,1.5-.2,2.8-.4,4.4-1.6,1.6-3.1,3-4.6,4.4-1.9-.2-3.9-.3-6-.5-.3-.6-.3-1.2-.5-1.8-.8-1.7-2-3.3-2.3-5.1-.4-2.3,1.3-3.5,3.2-2.1,1.6,1.2,2.7,3.1,4,4.6,1.1-2,1.6-5.5,5.9-4.8Z" fill="#fcfcfc"/><path d="m143.6,366.429c1.4-1.5,2.8-2.9,4.5-4.3,2.8,1.3,5.4,2.8,8.1,4.2-2.2.5-4.5,1.3-6.8,1.4-1.9.1-3.8-.7-5.8-1.3Z" fill="#fbfcdc"/><path d="m118.9,366.329c.9-.7,1.9-1.3,3-2,0,.7-.2,1.5-.6,2.3-.9.1-1.6,0-2.4-.3Z" fill="#259e7d"/><path d="m251.6,440.529c.2.1.4.3.5.5-.2,0-.4,0-.7-.1-.1-.2,0-.2.2-.4Z" fill="#e9e3d2"/><path d="m254.8,445.729c0-.1.1-.2.2-.2-.1.1-.1.2-.2.2Z" fill="#e9e3d2"/><path d="m456.1,363.929c2.1,0,3.1,1.1,3,2.9-.1,1.5-1.3,2.7-2.8,2.3-1-.3-2.1-1.5-2.4-2.5-.5-1.3.5-2.4,2.2-2.7Z" fill="#fde6ec"/><path d="m505.9,439.429c1.5-.7,2.7-1.4,4.1-1.9.5-.2,1.1.3,1.7.5-.4.4-.7.9-1.2,1.2-1.1.6-2.3.9-3.3,1.6-3.6,2.5-3.4,5.8.2,8.2.5.3,1.1.5,1.6.9s.9,1,1.3,1.5c-.7,0-1.6.4-2.1.1-1.3-.7-2.5-1.7-3.8-2.6-.4-.3-.8-.6-1.3-1,.1,2.4,1.7,4.3.8,6.5-.3.1-.6.2-.9.2-.8-2.7-1.5-5.3-2.3-8-.2,0-.4.1-.6.1.1,1.8.2,3.5.4,5.3,0,.7.2,1.4.1,2.1-.1.5-.5,1-.7,1.5-.4-.5-1-1-1-1.5-.3-2.4-.4-4.8-1-7.2-.5,2-.9,4.1-1.5,6.1-.3.8-1,1.5-1.4,2.3-.1-.9-.4-1.8-.2-2.7.3-2,.9-4.1,1.3-6.1-.3-.1-.6-.2-.8-.3-1,2.1-1.9,4.3-3,6.3-.3.6-1,1-1.5,1.5,0-.7-.3-1.5-.1-2.2.2-1,.7-1.9,1.2-2.8,1.6-3.1,1.3-6-.5-8.8-.4-.6-.8-1.2-1-1.8-.2-.7-.2-1.4-.3-2.2.6.5,1.4.8,1.8,1.4,1.2,1.7,2.2,3.5,3.6,5.8.4-3.8-1.7-6.9-.7-10,.3,0,.7-.1,1-.1.4,1.6.7,3.2,1.1,4.8.3,1.5.6,3.1.9,4.6h.7c.4-1.5.8-3,1.2-4.5.2-.9.3-1.9.6-2.7.3-.7.8-1.3,1.3-1.9.2.8.5,1.6.4,2.4-.2,1.6-.7,3.2-1.1,4.7-.1.6-.2,1.3-.3,2,.2.1.4.1.6.2.5-1.4,1.1-2.7,1.6-4.1.4-1.2.8-2.4,1.3-3.5.2-.4.7-.6,1.1-1,.2.5.6,1.1.5,1.5-.4,1.5-1,2.9-1.7,4.9.7-.5,1.2-.9,1.9-1.3Z" fill="#ed820e"/><path d="m423.6,443.029c-1.4-1.3-2.9-2.6-4.2-3.9-.5-.5-.7-1.4-1-2,.7.2,1.5.3,2.1.7,1.3,1,2.4,2.2,3.7,3.2.5.4,1,.7,1.5,1.1.2-.2.4-.4.6-.5-1.1-1.5-2.2-3-3.3-4.5-.4-.5-.9-.9-1.1-1.5-.2-.5-.1-1.2-.2-1.8.5.2,1.1.3,1.5.7.6.6,1.1,1.3,1.5,2,2.1,3.5,5.3,4.9,9.3,4.5,1.1-.1,2.1,0,3.6,0-.9,2.5-2.7,1.6-4.1,1.8-1.5.2-3,.2-4.5.2,0,.2,0,.4-.1.6,2,.7,4.1,1.3,6,2.1.9.4,1.7,1.2,2.5,1.8-1.1,0-2.2.1-3.2-.1-2.1-.5-4.1-1.3-6.1-2-.1.2-.3.3-.4.5.3.5.6,1,1.1,1.4,1.5,1.4,3,2.7,4.5,4.1.4.4.6,1.2.8,1.8-.6-.2-1.4-.2-1.9-.5-1.7-1.3-3.2-2.8-4.9-4.2-.2.2-.4.4-.7.6,1.1,1.3,2.3,2.5,3.2,3.8.7,1,1.1,2.1,1.7,3.2-1-.6-2-1.2-2.9-1.9-.7-.5-1.2-1.3-2.1-2.2,0,2.6.1,4.7-.1,6.8,0,.5-.8,1-1.2,1.5-.2-.6-.4-1.2-.5-1.8-.1-1.7.2-3.4-.2-5-.9-3-3.1-3.9-6-2.7-1,.4-1.8,1.2-2.8,1.6-.5.2-1.1.1-1.6.2.2-.5.2-1.2.6-1.6,2-1.9,4.4-2.8,7.3-2.8-1.4-.4-2.9-.7-4.3-1.2-1-.4-1.9-1.1-2.9-1.7,1-1.5,2.2-.3,3.3-.1,1.6.3,3.2.8,4.9,1.2l.3-.6c-1.7-.8-3.5-1.6-5.2-2.5-.6-.3-1.2-.4-1.7-.8-.4-.3-.5-.8-.8-1.2.5-.1,1.1-.5,1.5-.3,1.9.8,3.8,1.7,6,2.7.5.1.7.2.9.2-.2-.5-.3-.7-.4-.9m3.2,5.4c0-.1.1-.2.1-.3-.1.1-.2.1-.1.3Z" fill="#ed820e"/><path d="m459,447.229c-1.5-4.4-1-8.1,2.4-11.2,1.1-1,2.4-1.6,3.7-.4,1.4,1.2,1.4,2.7.2,3.9-2,1.9-1.9,4-1.1,6.4.8,2.6,1.2,5.3.1,7.9-1.3,2.9-3.5,4.6-6.6,5.3-1.5.3-2.6-.3-3.1-1.7-.4-1.4.1-2.5,1.5-3.2,3.6-1.8,4-2.7,2.9-7Z" fill="#29a07f"/><path d="m519.7,458.729c4.2-.3,5.8-3,7.2-6.3,2-4.7,7-6.5,11.8-4.7,1.7.6,2.7,1.8,2.1,3.5-.6,1.8-2,2.1-3.8,1.5-2.7-.9-4.2-.3-5.5,2.2-.5,1-1,2.1-1.5,3.1-1.6,3.3-4.2,5.2-7.8,5.3-1.1,0-2.6-.4-3.1-1.2-.4-.7.3-2.1.6-3.4Z" fill="#29a07f"/><path d="m148.3,440.329c-1,.3-1.8.6-2.6.8-1.4.3-2.7,0-3.2-1.5-.6-1.5-.1-2.7,1.4-3.4,3.4-1.7,6.7-1.5,9.9.6.8.5,1.5,1.1,2.3,1.6,3,2.1,4.1,2,6.9-.5,1.2-1.1,2.4-1.4,3.7-.3,1.3,1.1,1.1,2.4.2,3.7-2.8,4-8.5,4.9-12.6,2.3-1.9-1.2-3.9-2.2-6-3.3Z" fill="#29a07f"/><path d="m423.5,443.129c.2.1.4.3.5.5-.2,0-.4,0-.7-.1-.1-.1,0-.2.2-.4Z" fill="#e9e3d2"/><path d="m100.8,429.329c0-.1.1-.2.2-.2,0,.1-.1.2-.2.2Z" fill="#e9e3d2"/></g><path d="m479.2,70.529c.5.2,1.1.4,1.7.8,0,6.7.4,13.1-.1,19.5-.4,5.1.8,9.1,5.3,11.7.5.3.8.8,1.2,1.1,5.1,4.5,10.2,9,15.3,13.6,0,.8,0,1.4-.1,2-.5,5.7-1,11.3-1.5,17.1-.1.9-.4,1.7-.4,2.4,0,5.1,0,10.1-.1,15.3-.3,5.9-.6,11.6-.7,17.3-.2,5-.3,10-.4,14.9-.3,10.7-.6,21.4-.8,32.2-.1,5.1-.3,10.2-.4,15.4-.2,6.9-.3,13.7-.4,20.6-.1,3.6-.3,7.2-.4,10.8-.3,12.1-.6,24.2-.8,36.3,0,.5,0,.9-.3,1.5-6.9.2-13.5.2-20.3,0-.6-6.1-1.1-12-1.5-17.9-.5-6.5-.8-13-1.3-19.4-.6-8.1-1.4-16.2-2-24.4-.6-7.2-1.1-14.5-1.7-21.7-.7-9.3-1.4-18.6-2.1-27.9-.5-6.5-.8-13-1.3-19.4-.1-.7-.8-1.3-1.2-1.9-.4.6-1.1,1.1-1.2,1.7-1.7,8.2-3.4,16.4-5.1,24.6-3,14.6-5.9,29.2-8.9,43.9-3.3,15.8-6.5,31.7-9.8,47.5-1.1,5.1-2.2,10.1-3.5,15.1-7,0-13.8,0-20.6-.2.6-6.2,1.1-12.3,1.7-18.3.4-4.3.9-8.5,1.3-12.8.5-5.2,1.1-10.4,1.6-15.6.5-4.7.9-9.3,1.4-14,.6-6.5,1.3-12.9,2-19.4.5-4.7.9-9.5,1.3-14.2.5-5.3,1.1-10.6,1.6-15.9.5-4.7.9-9.5,1.3-14.2.6-6.3,1.3-12.6,2-18.9.5-5.2,1.1-10.4,1.6-15.6.2-2.4.5-4.8.3-7.2-.2-3-.7-5.9-1.1-8.8-.5-3.8-1.1-7.6-1.5-11.5,1.6-1.6,3.1-3,4.6-4.4,4.5-4.4,9.1-8.8,13.6-13.2.6-.6,1.2-1.6,1.2-2.5.1-8,0-16,0-23.9.4-.3.8-.7,1.3-.7.1,7.9.1,15.6,0,23.2,0,1.6.4,2.1,2.1,2.1,8.5-.1,16.9,0,25.4,0,.6,0,1.2-.1,2-.1-.3-9-.3-17.8-.3-26.6m-24.6,40.8c-1.7-.3-2.6.3-2.4,2.2.1,1.1,0,2.2,0,3.3.1,4.6,3.5,8.1,8.2,8.2h7.3c3.8,0,6.9-2.2,7.9-5.9.4-1.6.4-3.4.4-5.1.1-2.8,0-2.8-2.6-2.8-6.2.1-12.3.1-18.8.1Z" fill="#b5b29c"/><path d="m219.1,151.329c4.1,23.2,8.1,46.4,12.2,69.7,3.4,19.6,6.8,39.2,10.2,58.8,3,17,6,34.1,9,51.1,1.1,6.2,2.1,12.4,2.9,18.8-4.4.2-8.6.2-12.9.1-.3-.8-.6-1.4-.8-2.1-10.7-35.6-21.3-71.2-32-106.8-4.3-14.5-8.6-29-13-43.4-.2-.8-1.1-1.4-1.6-2.1-.5.8-1.3,1.6-1.4,2.4-.5,4.2-.8,8.4-1.2,12.6-1.3,14.1-2.7,28.3-4,42.4-1.2,12.8-2.3,25.5-3.5,38.3-1.5,16.2-3,32.4-4.5,48.7-.3,3.4-.8,6.9-1.3,10.3-4.7-.1-9.1-.1-13.6-.2,0-.6-.1-1.1-.2-1.9-.3-7-.5-13.7-.8-20.5-.3-7.3-.7-14.5-1.1-21.8-.8-17.7-1.5-35.5-2.2-53.2-.5-12.2-1.1-24.4-1.7-36.6-.5-10.5-1-21-1.5-31.6,0-.6,0-1.1.3-1.9.9-2.2,1.5-4.3,2.4-6.2,4.1-8.7,10.2-15.9,16.8-22.7.6-.7,1.1-1.5,1.9-2.3h29.4c4,0,8.1.1,12.2.1Z" fill="#4185bc"/><path d="m502.6,117.129c-5.1-4.5-10.2-9-15.3-13.5-.4-.4-.8-.9-1.2-1.1-4.5-2.7-5.7-6.6-5.3-11.7.5-6.3.1-12.8.1-19.3,1.6.5,3.2,1.2,4.9,1.9.9.4,1.6.9,2.3,1.3,13.7,6.9,27.3,13.9,41,20.8,6,3,10.6,7.2,12.2,14.1,2,8.4-1.1,16.2-8.6,21.3-2.8-4.1-5.5-8.1-8-12.2,3.3-3.7,3.2-6.8-.6-8.9-6.2-3.4-12.6-6.4-18.9-9.6-.2-.1-.4,0-1,0-.5,5.6-1.1,11.2-1.6,16.9Z" fill="#9abed2"/><path d="m436.2,303.429c-.7,5-1.6,9.9-2.5,14.9-1.7,8.6-3.5,17.2-5.2,25.8-.1.5-.1,1-.1,1.6-1.2,6.1-2.5,11.9-3.7,17.8-.9,4.3-1.7,8.7-2.6,13.2-12.5,0-25,0-37.6-.2.1-2.3,1.4-3,3.4-3.2,2.6-.3,5.1-.8,7.9-1.1,2.6-.4,5-.6,7.3-1.1,3.1-.7,5.4-2.7,5.8-6,.6-4.6.9-9.2,1.5-13.9,1.8-16,3.5-31.9,5.2-47.8h20.6Z" fill="#16281e"/><path d="m476.8,320.629c-.3-5.7-.6-11.3-.9-17,6.7-.2,13.3-.2,20.2-.2,0,10.1-.1,20.2-.3,30.4-.1,4-.2,8-.3,12-.1,5.9-.3,11.8-.4,17.7-.1,4.2,2.6,7.2,6.8,7.8,5.1.7,10.3,1.4,15.4,2.1,2.1.3,3,1.2,2.9,3.2h-39.6c-1.2-18.8-2.5-37.3-3.8-56Z" fill="#16281e"/><path d="m395.5,372.129c-2.6.4-5.1.8-7.7,1.1-1.9.2-3.3,1-3.6,3.2-3.5.1-7,.1-10.7,0-1.9-3.7-4.4-6.5-8.4-7.2-3.8-.6-7.4,0-10.4,3-.2-.1-.3-.3-.5-.4v-31.2c0-3.1.8-3.9,3.9-3.9h13.7c.2,0,.3.1.3.3-.1,4.3-.1,8.4-.1,12.4,0,3.8-.7,3.4,3.6,3.5.1,0,.3.1.4,0,.5-.4,1.3-.9,1.3-1.3.1-4.9,0-9.8,0-14.8,0,0,.1-.1.3-.1h13.9c2.9,0,3.7.8,3.7,3.7,0,4.4.1,8.9.1,13.5.2,6.2.2,12.2.2,18.2Z" fill="#24513a"/><path d="m524.7,118.729c2.6,4,5.3,8,8,12.1-5.1,3.5-10.3,7-15.6,10.3-2.1,1.3-3,2.7-2.9,5.2.2,3,.2,6.1-2.4,8.6-4.7,2.8-6.9,2.6-11.1-.7-.1-5.1-.2-10.2-.1-15.3,0-.7.2-1.5.5-2.5,1.9-3.3,4.3-5.7,7.3-7.5,3.1-1.9,6.2-3.9,9.2-5.9,2.4-1.4,4.7-2.9,7.1-4.3Z" fill="#d2ab99"/><path d="m486.1,45.929c-.1-.1-.3-.1-.4-.2-2-1.9-3.9-3.6-5.9-5.4-5.6-5-11.1-9.9-16.7-14.9-1.6-1.2-3.1-2.3-4.6-3.4-1.7-1.7-3.3-3.5-5-5.1-2.3-2.1-4.8-4-7.1-6.1-.5-.4-.6-1.2-.9-1.8.2-.2.4-.3.6-.5,1.5,1.3,3.1,2.5,4.6,3.8,2.3,2,4.5,4.1,6.9,6,.5.4,1.6.7,2.2.4,4.6-1.7,9.2-2.8,14.4-1.8,4.5,1.3,8.4,3.4,11.3,6.9,4.7,5.6,5.9,12,3.6,18.9-.7,2.3-.1,3.6,1.6,4.9,4,3.3,7.9,6.8,11.8,10.2.4.4.5,1.1.7,1.7-.6-.1-1.4,0-1.8-.4-5.1-4.2-10.1-8.7-15.3-13.2Z" fill="#fcc7b4"/><path d="m238.8,375.629c-1.4-10.7-2.6-21.3-3.7-32-.6-6-1.2-12-1.9-18.4,5.2-.4,10.5-.4,16-.4,2.8,8.3,5.2,16.7,7.9,24.9,1.3,3.9,2.9,7.8,4.7,11.2,3,5.9,7.7,6,11.9,7.4,1.9.6,3.7,1.9,5.7,3.1.2,1.3.3,2.5.4,4.2-7.8,0-15.5,0-23.5-.2-3.8-2.9-7.2-5.6-11.1-8.8v8.9c-2,.1-4.1.2-6.4.1Z" fill="#16281e"/><path d="m179.8,327.129c.2,4.1.2,8.2.2,12.7-.5,10.8-1.4,20.7-1,31.3.2,3.6-.6,5.1-3,4.6-.7-.2-1.5,0-2.5,0-.1-2.3-.2-4.3-.3-6.7-.8.9-1.7,1.4-2.1,2.3-2.2,4.6-5.4,4.7-8.7,4.5-3.7-.2-7.4-.1-11.2-.1-.6-4.3,1.2-5.3,3-6.2.8-.4,1.7-.3,2.5-.6,4.3-1.3,4.9-2.1,5.4-8.9.6-11.1,1.2-21.7,1.1-32.9,5.5-.2,10.9-.1,16.6,0Z" fill="#16281e"/><path d="m354.2,363.929c.2,2.6.2,5.2.2,7.8.2.1.3.3.5.4,3-2.9,6.6-3.6,10.4-3,4,.7,6.5,3.5,8.2,7.2-13.9.1-27.8.1-41.8.1.4-7.8,11.7-14.2,22.5-12.5Z" fill="#448c47"/><path d="m250.3,375.729c-.2-1.3-.2-2.6-.2-4.6,3.2,1.6,5.9,3,8.7,4.5-2.7.1-5.5.1-8.5.1Z" fill="#e3e9ee"/><path d="m219.1,151.129c-4.1.1-8.2.1-12.3.1h-29.5c-.3,0-.5-.1-.5-.2-.2-.5-.2-1-.5-1.3-4.9-6.8-8.8-14.2-12.3-21.8-1.6-3.7-3.4-7.2-5.1-11,.8-3.1,1.6-6.1,2.5-9h-.2c-1.7.7-3.4,1.3-4.8,2.3-5.9,4.1-11.8,8.2-17.6,12.4-.4.3-.6.7-1,1.1-5.3-.1-10.4-.3-15.5-.4.2-5,2.4-9.2,6.2-12.2,7.1-5.6,14.2-11.3,22.3-15.5,7-3.6,14.4-5.5,22.1-6.6,8.4-1.1,16.8-1.2,25.3-1.2.4,0,.8.1,1.5.4,2.1.8,4.1,1.4,5.9,2.1,6,2.4,10.9,6.2,14.8,11.4,5.1,6.8,7,14.5,6.9,22.8-.2,1.1-.3,2.3-.7,3.4-2.3,7.3-4.6,14.5-6.9,21.7-.2.4-.3.9-.6,1.5m-10.4-44.2h-8.5c-1.2,0-1.8.4-1.7,1.7.1.7-.2,1.5.1,2.1.2.5.9,1.3,1.3,1.3,5.2.1,10.4.1,15.6,0,.5,0,1.1-.8,1.3-1.3.2-.6,0-1.4.1-2.1.1-1.3-.4-1.7-1.7-1.7-2.1.1-4.1,0-6.5,0Z" fill="#99bed2"/><path d="m448.2,72.629c.2,8,.2,15.9.1,23.9,0,.8-.6,1.8-1.2,2.5-4.5,4.4-9,8.8-13.6,13.2-1.5,1.4-3,2.9-4.6,4.6-2.5,6.1-5.4,11.6-9.3,16.5-4.2-2.6-8.4-5-12.5-7.5,4.9-9.3,9.6-18.7,14.8-27.9,6.2-11,14.7-19.8,26.3-25.3Z" fill="#9abed2"/><path d="m479.8,40.529c1.9,1.7,3.8,3.4,5.8,5.3-1.8,8.3-9.9,16.8-21.7,16-9.1-.6-16.8-8-18.4-17.3-1.7-9.9,4.4-19.4,12.8-22.4,1.7,1.1,3.2,2.1,4.8,3.5,2.2,5.2,5.7,9,10.1,11.8,2,1.3,4.4,2.1,6.6,3.1m-15.9,5.1c.1-.7.2-1.3.3-1.9-1.9.9-3.5,1.7-5.1,2.6-.2.1-.6.6-.5.7.2.3.6.8.8.7,1.6-.2,3.5,0,4.5-2.1m-7-9.7c-.5-.4-1-.8-1.6-1.3-.2.6-.4,1.1-.5,1.7.7,0,1.4-.1,2.1-.4Z" fill="#d2aa98"/><path d="m219.9,45.329c2.7,9.6-1.9,20-10.2,24.8-9.2,5.4-20.3,4-27.9-3.6-5.2-5.2-6.9-11.7-6-19,12.3,4.7,22.3,1.3,30.8-8.2,3.3,4.6,7.6,6.8,13.3,6m-20.1,14c1.5.5,2.9,1,4.4,1.4.3.1.8-.4,1.3-.7-.4-.3-.7-.7-1.1-.9-1.3-.5-2.6-.9-3.8-1.2-.4-.1-.8,0-1.3,0,.1.4.2.8.5,1.4m2.8-11.6c-.7,0-1.5,0-2.2.1-.1,0-.2,1.1,0,1.4.3.4,1.3.7,1.5.5.4-.4.6-1.1.7-2m9.6,1.2c-.5-.5-.9-1.1-1.5-1.5-.2-.1-1,.5-1.1.9s.3,1.4.4,1.4c.7-.1,1.4-.3,2.2-.8Z" fill="#e4c8bd"/><path d="m242.3,115.729c1.7.3,2.7-.5,3-2.1.7-3.1,1.5-6.2,1.9-9.3,1.1-8.4,1.7-16.9,3-25.2.7-4.7,3.1-8.9,7.6-11.3,3.4-1.8,7.2-.9,10.1,2.6,1.9,2.3,1.8,6.8-.5,9-2,1.9-2.8,4.1-3,6.6-.6,5-.8,10-1.3,15-.7,6.9-1.1,13.8-4.3,20.1-3.4,6.6-8.6,10.1-16.3,9.8-.2-5.2-.2-10.2-.2-15.2Z" fill="#e4c8be"/><path d="m372.3,336.729v-2.8c0-56,0-112.1.2-168.2,1.8,0,3.4.1,5.1.4v170.6s-.1.1-.3.1c-1.8,0-3.4.1-5,.1.1-.1,0-.1,0-.2Z" fill="#16281e"/><path d="m377.5,165.929c-1.6-.1-3.3-.2-5-.4-1.2-1-2.3-2-3.5-3.2-.3-1.9-.5-3.5-.6-5.1.9-6.2,4.3-10.6,10-13.1,6.9-3,14-5.7,20.1-10.3,3.1-2.3,5.7-5.3,8.6-8,4.3,2.4,8.4,4.9,12.6,7.6-1.8,2.5-3.5,4.8-5.6,6.9-5.5,5.4-11.9,9.4-18.7,12.8-2.8,1.4-5.7,2.7-8.7,4.1-1.3.7-2.7,1.1-3.4,2-.7.8-.6,2.2-1,3.4-1.8,1.1-3.3,2.2-4.8,3.3Z" fill="#d2aa98"/><path d="m479.1,70.529c.2,8.8.2,17.6.2,26.5-.8.1-1.4.1-2,.1h-25.4c-1.7,0-2.1-.5-2.1-2.1.1-7.6,0-15.3.1-23.1,9.5-3.8,19.2-4.2,29.2-1.4Z" fill="#9abed2"/><path d="m122.3,123.429c5.1,0,10.2.1,15.6.4,1.8,2.3,3.2,4.6,5.1,6.5,3.2,3,6.6,5.9,10.1,8.5,3.9,3,8.1,5.8,12.2,8.8.5,1.3.9,2.5,1.2,3.8-2.3,3.8-4.5,7.4-6.7,11.1-2.5-1.7-5.1-3.3-7.5-5.1-8-5.9-16.1-11.7-22.9-19-3.9-4.2-6.9-8.9-7.1-15Z" fill="#e4c8be"/><path d="m219.9,45.229c-5.6,1-9.9-1.3-13.3-5.8-8.5,9.5-18.4,12.9-30.7,8,1.2-6.8,4.6-12.3,10.6-15.9,12.7-7.8,29.2-1.1,33.4,13.7Z" fill="#bd4f21"/><path d="m242.1,115.729c.1,5,.2,10,.2,15.2-5.8,0-10.5-2.7-14.9-6.4,0-8.4-1.9-16.1-7-22.9-3.9-5.2-8.8-9-14.8-11.4-1.9-.7-3.8-1.3-5.8-2,9.2.4,17.4,3.6,24,10.1,4.4,4.4,8.5,9.2,12.9,13.6,1.5,1.6,3.5,2.6,5.4,3.8Z" fill="#86adc1"/><path d="m169.8,32.829c-5.7.7-10.6-2.9-11.5-8.3-.9-5.2,2.5-10.1,7.8-11.3,5.2-1.2,10.2,1.8,11.7,7.1,1.8,6.5-3,11.9-8,12.5Z" fill="#bd4f21"/><path d="m159.8,162.629c2.2-3.8,4.4-7.5,6.9-11.2,3.6-.2,6.9-.2,10.2-.3,0,0,.2.1.3.1-.5.8-.9,1.6-1.6,2.3-6.6,6.9-12.8,14-16.8,22.7-.9,1.9-1.4,4-2.3,6.1.1-6.6,1.1-13.2,3.3-19.7Z" fill="#1168ad"/><path d="m363,62.929c3-1.1,4.4-3.4,5.2-6.7.9,3.9,3,6.3,7,7.3-4.4.5-5.9,3.2-6.9,7.1-.9-4.1-3.1-6.4-7.2-7.1.8-.2,1.3-.3,1.9-.6Z" fill="#498f4c"/><path d="m264.8,92.429c-.9-3.4-3.2-5.1-6.7-5.7,3.9-.9,6.1-3.1,7-7.2,1.1,4,3.3,6.2,6.9,7.1-4.1.5-6,3.1-6.8,7.1-.2-.7-.3-.9-.4-1.3Z" fill="#498f4c"/><path d="m265.6,16.129c-3.8.5-4.8,3.4-6.1,6.7-.8-4-2.9-6.2-7-6.9,4-1,6.1-3.3,7-7.3.9,3.7,2.9,6,6.3,7,.1,0,.1.1.1.1,0,.2-.1.3-.3.4Z" fill="#9abed2"/><path d="m368.2,157.229c.4,1.7.5,3.3.7,5.1-1.8.2-3.6.2-5.4.1-1.6,0-2.8-.8-3-2.5-.1-1.6,1-2.7,2.9-2.7,1.6-.1,3.1,0,4.8,0Z" fill="#2b5641"/><path d="m360.3,215.329c1.8.7,2.8,2,2.2,3.6-.4,1-1.6,2-2.7,2.3-1.5.5-2.6-.5-3.2-2-.8-2.1.8-3.9,3.7-3.9Z" fill="#29553f"/><path d="m292,155.529c-.6-2.4.1-3.9,1.9-4.4,1.6-.5,3.4.6,3.8,2.3.4,1.6-.6,3.5-2.3,3.6-1.1,0-2.2-.9-3.4-1.5Z" fill="#29553f"/><path d="m353.3,205.529c1.6,1.3,2.1,2.9.8,4.2-.7.8-2.3,1.3-3.4,1.2-1.7-.2-2.5-2.1-2.1-3.7.7-1.8,2.3-2.5,4.7-1.7Z" fill="#29553f"/><path d="m239.5,267.729c-1-1.7-.9-3.2.6-4.1.9-.5,2.6-.8,3.4-.3.9.6,1.6,2.2,1.5,3.2-.4,2.5-3.1,3.1-5.5,1.2Z" fill="#29553f"/><path d="m354.7,291.429c-.7,1.6-1.9,2.7-3.5,2.1-1-.3-2.2-1.4-2.4-2.4-.2-.9.5-2.4,1.3-3.1.6-.5,2.4-.6,3-.1.9.8,1.1,2.2,1.6,3.5Z" fill="#2b5641"/><path d="m280.6,259.129c-2.4-.5-3.5-1.8-3.1-3.6.4-1.7,1.9-2.7,3.5-2.4,1.7.3,3.1,2,2.4,3.6-.5,1-1.8,1.6-2.8,2.4Z" fill="#29553f"/><path d="m308.4,129.729c1.1,1.7,1.1,3.2-.3,4.4-1.3,1.1-2.7,1-4,0-1.2-1-1.4-2.3-.7-3.7.9-1.9,2.9-2.2,5-.7Z" fill="#29553f"/><path d="m454.8,111.329h18.5q2.7,0,2.6,2.8c0,1.7,0,3.5-.4,5.1-1,3.7-4,5.8-7.9,5.9h-7.3c-4.6,0-8.1-3.6-8.2-8.2,0-1.1.1-2.2,0-3.3-.2-2.1.7-2.6,2.7-2.3Z" fill="#dd6b47"/><path d="m372.4,336.829c1.7-.2,3.4-.3,5.3-.2.2,5,.3,10,.3,15,0,.5-.9.9-1.4,1.3-.1.1-.3,0-.4,0-4.5,0-3.8.4-3.8-3.5-.2-4.2-.1-8.3,0-12.6Z" fill="#16281e"/><path d="m486.1,45.929c-3-1.2-6.3-2.2-9.1-4-6.1-3.9-10.9-9.2-13.9-16.2,7.6,6.6,15.3,13.3,23,20.2Z" fill="#342b28"/><path d="m165.3,147.629c-1.8-5.3-3.7-10.4-5.3-15.7-1.4-4.7-2.1-9.6-1-14.7,1.7,3.4,3.5,7,5.2,10.7,3.4,7.7,7.4,15,12.3,21.8.2.3.3.7.5,1.3-3.3.2-6.6.2-10.1.3-.7-1.2-1.2-2.4-1.6-3.7Z" fill="#86adc1"/><path d="m208.9,106.929c2.2,0,4.2.1,6.2,0,1.3,0,1.8.4,1.7,1.7-.1.7.2,1.5-.1,2.1-.2.5-.9,1.3-1.3,1.3-5.2.1-10.4.1-15.6,0-.5,0-1.1-.8-1.3-1.3-.2-.6,0-1.4-.1-2.1-.1-1.3.5-1.7,1.7-1.7,2.9.1,5.8,0,8.8,0Z" fill="#89a389"/><path d="m463.8,45.729c-1,2-2.8,1.8-4.4,2.1-.2,0-.7-.4-.8-.7-.1-.1.2-.6.5-.7,1.6-.8,3.3-1.6,5.1-2.6,0,.5-.2,1.1-.4,1.9Z" fill="#d68561"/><path d="m456.9,36.029c-.7.2-1.4.3-2.1.3.2-.6.4-1.1.5-1.7.6.5,1.1.9,1.6,1.4Z" fill="#16281e"/><path d="m199.7,59.229c-.2-.5-.3-.9-.4-1.3.4,0,.9-.1,1.3,0,1.3.4,2.6.8,3.8,1.2.4.2.8.6,1.1.9-.4.2-.9.7-1.3.7-1.5-.4-2.9-.9-4.5-1.5Z" fill="#bd4f21"/><path d="m202.6,47.829c-.2.8-.3,1.5-.7,1.9-.2.2-1.2-.2-1.5-.5s-.1-1.4,0-1.4c.7-.2,1.5-.1,2.2,0Z" fill="#342b28"/><path d="m212.1,49.029c-.8.3-1.5.6-2.2.6-.1,0-.5-1-.4-1.4s1-1,1.1-.9c.7.4,1.1,1.1,1.5,1.7Z" fill="#342b28"/><path d="m386.6,157.129c1.8.3,3,1.2,2.7,3-.3,1.9-1.7,2.3-3.4,2.3h-3.5c.1-1.1.1-2.5.7-3.3.9-.9,2.2-1.3,3.5-2Z" fill="#2b5641"/><path d="m347,280.429c-3.2-2.6-3.1-5.8,0-7,1.6-.6,3.1-.3,3.9.9.7,1,1.1,2.6.8,3.7-.3,1.5-1.5,2.6-3.3,2.5-.4,0-.9,0-1.4-.1Z" fill="#217724"/><path d="m355.5,276.129c.7-1.8,2.2-1.8,3.3-1.2.6.3,1.2,1.8,1,2.5s-1.4,1.7-2.2,1.7c-1.5,0-2.5-1-2.1-3Z" fill="#217724"/><path d="m341.2,277.129c-.6,1.7-1.7,2.8-3.3,1.8-.7-.5-1.1-1.8-1.1-2.8,0-.5,1.2-1.2,1.9-1.3,1.5-.2,2.3.7,2.5,2.3Z" fill="#217724"/><path d="m293.2,263.929c-1.5-2.9-.5-5.7,2.1-5.9,1.9-.2,3.5.3,4.2,2.2.5,1.6.3,3.2-1.2,4.3-1.5,1-3.5.8-5.1-.6Z" fill="#217724"/><path d="m291.6,254.429c.1,1.6-.7,2.7-2.1,2.7-.8,0-2.1-.8-2.3-1.5-.2-.7.4-2.1,1-2.5,1.5-1.2,2.6-.2,3.4,1.3Z" fill="#e51c1c"/><path d="m303.5,266.129c.6,1,1.3,1.9,1.3,2.9,0,.5-1,1.4-1.7,1.5s-1.7-.4-2.2-1c-.4-.4-.5-1.7-.2-2,.6-.8,1.7-1.1,2.8-1.4Z" fill="#217724"/><path d="m264.1,281.729c.1-2.9,1.2-4.1,3.5-4.1,2.1,0,3.8,1.5,3.9,3.5.1,1.7-1.5,3.6-3.3,3.9-1.7.4-3.5-1-4.1-3.3Z" fill="#217724"/><path d="m260.5,290.129c-1.6-.5-2.2-1.6-1.5-2.9.4-.8,1.6-1.5,2.5-1.5,1.2,0,2,1.1,1.8,2.5-.1,1.7-1.2,2-2.8,1.9Z" fill="#e51c1c"/><path d="m276.1,276.229c-1.2.1-2.3.4-3.2.1-.5-.2-.8-1.5-.7-2.1.3-1.3,1.2-2.2,2.7-1.8,1.7.4,2.1,1.7,1.2,3.8Z" fill="#217724"/><path d="m360.2,213.029c.9-1.7,2.1-2.9,4-2.4,1,.3,2.2.9,2.7,1.8.9,1.4,1,3.4-.6,4.3-1.2.7-3.1,1-4.4.6-1.6-.6-2.2-2.3-1.7-4.3Z" fill="#217724"/><path d="m356.7,208.429c-1.2-1.2-1.5-2.5-.3-3.5,1-.9,2.5-1,3.2.3.4.7.4,1.8.1,2.6-.4,1.2-1.6,1.4-3,.6Z" fill="#217724"/><path d="m371.6,222.129c-.4,1.8-1.7,2.1-2.9,1.6-.8-.4-1.6-1.8-1.5-2.5.2-.8,1.5-1.8,2.3-1.8,1.5-.1,2.2,1.1,2.1,2.7Z" fill="#e51c1c"/><path d="m366.2,254.529c-1.7-1.2-2.5-2.6-1.8-4.5.6-1.7,1.8-2.5,3.7-2.4,1.8.2,2.9,1.2,3.3,2.9.7,2.6-1.7,4.5-5.2,4Z" fill="#217724"/><path d="m356.7,251.229c0-1.2-.1-2.4.4-3.2.2-.4,1.8-.4,2.4,0,1.2.7,1.7,1.9.8,3.1-1,1.2-2.2,1.6-3.6.1Z" fill="#e51c1c"/><path d="m354,272.529c-.8-.8-1.8-1.6-2-2.5-.1-.5,1-1.7,1.7-1.9.7-.1,1.9.5,2.4,1.1,1,1.2.1,2.6-2.1,3.3Z" fill="#e51c1c"/><path d="m312.3,192.229c-1.6.1-2.7-.7-2.7-2.1,0-.8.8-2.1,1.5-2.3s2.1.4,2.5,1c1.2,1.5.2,2.6-1.3,3.4Z" fill="#cc2f2f"/><path d="m262.4,239.329c3.7,1.2,4.7,4,2.4,6.2-1.2,1.2-2.6,1.7-4.3.8-1.6-.8-2.2-2.1-1.9-3.7.3-2.1,1.4-3.4,3.8-3.3Z" fill="#217724"/><path d="m256.6,250.029c-2,1.5-4,1-4-.8,0-.8.5-2,1.1-2.4.6-.3,2.1-.1,2.5.4.5.5.3,1.7.4,2.8Z" fill="#e51c1c"/><path d="m290.4,208.229c-.1,2.3-1.2,3.7-2.6,3-.8-.3-1.7-1.3-1.7-2-.1-.7.7-1.9,1.4-2.2,1-.6,2.2-.4,2.9,1.2Z" fill="#cc2f2f"/><path d="m247.6,220.129c-1.7,1.5-2.9,1.6-3.9.2-.9-1.3-.4-2.5.8-3.1.6-.3,1.9-.3,2.2,0,.6.7.7,1.9.9,2.9Z" fill="#e51c1c"/><path d="m245.6,185.429c-1.7-1.3-2-3.1-1.2-4.6.5-.9,2-1.7,3.1-1.9,2.2-.4,3.7,1.1,3.7,3.3.1,2.3-1.4,3.8-3.7,3.7-.6,0-1.1-.2-1.9-.5Z" fill="#217724"/><path d="m251.6,191.429c-.5-1.5-.6-2.9.9-3.5.7-.3,1.9,0,2.5.5,1,.8.9,1.9.1,2.9-1.1,1.4-2.2,1-3.5.1Z" fill="#217724"/><path d="m242.9,176.829c-1.7.8-2.7,0-3-1.3-.2-.8.4-2.1,1-2.5.7-.4,2.2-.2,2.7.4,1,1,.9,2.4-.7,3.4Z" fill="#e51c1c"/><path d="m355.9,164.329c2.1,0,3.5,1,4,2.9.4,1.7.1,3.4-1.8,4.2-1.7.8-3.3.6-4.6-.8-1.7-1.9-.7-4.8,2.4-6.3Z" fill="#217724"/><path d="m348.2,176.129c-1.5-.7-1.9-1.9-1.3-3.1.3-.6,1.5-1.2,2.3-1.1.7.1,1.7.9,2,1.6.4,1.5-.9,2.7-3,2.6Z" fill="#217724"/><path d="m361.6,162.629c.2-1.6,1-2.6,2.4-2.4.8.1,1.9,1,2,1.7.1.8-.5,2.1-1.1,2.5-1.6.9-2.7-.1-3.3-1.8Z" fill="#217724"/></svg>