<?xml version="1.0" encoding="UTF-8"?><svg xmlns="http://www.w3.org/2000/svg" xmlns:xlink="http://www.w3.org/1999/xlink" viewBox="0 0 620.274 884.964"><g id="a"><path d="m597.125,750.657c-1.116,10.398-3.777,20.268-11.018,28.183-2.568,2.807-5.931,4.907-9.012,7.221-4.546,3.413-7.531,7.916-9.455,13.177-1.804,4.931-3.379,9.95-5.328,14.821-2.974,7.431-8.306,12.493-15.911,15.188-3.929,1.393-7.866,2.837-11.622,4.63-5.315,2.537-9.053,6.866-12.098,11.806-5.802,9.415-14.296,15.108-24.966,17.317-6.079,1.259-12.33,1.72-18.519,2.41-6.118.683-12.252,1.231-18.384,1.783-4.297.387-8.599.87-12.906.977-9.377.234-17.307,3.984-24.658,9.462-3.768,2.808-7.513,5.756-12.266,6.817-1.12.25-2.275.489-3.414.49-41.386.024-82.771.033-124.157.009-8.241-.005-14.813-3.228-19.931-9.881-3.322-4.319-8.329-6.389-13.623-7.223-4.857-.765-9.794-1.046-14.701-1.479-7.133-.629-14.271-1.215-21.408-1.795-4.378-.356-8.766-.597-13.138-1.017-10.179-.978-20.481-1.204-30.189-5.075-4.482-1.787-7.977-4.934-11.618-7.911-3.224-2.635-6.373-5.377-9.734-7.826-3.202-2.334-6.996-3.295-10.923-3.329-9.764-.085-19.53.018-29.295-.064-3.077-.026-6.177-.216-9.22-.654-5.906-.85-9.86-4.414-12.491-9.61-.7-1.382-1.43-2.752-2.077-4.158-2.168-4.711-5.814-7.519-10.692-9.264-9.674-3.46-19.27-7.148-28.811-10.96-5.84-2.333-8.507-7.329-9.245-13.22-.774-6.183-1.083-12.43-1.454-18.657-.404-6.779-.645-13.567-.776-20.565,11.714,2.245,23.292,3.793,35.149,2.576,8.835-.907,17.715-1.373,26.576-2.03,12.389-.919,24.711-.686,36.955,1.75,14.196,2.824,28.468,2.756,42.596-.182,8.681-1.805,17.165-2.747,25.898-.514,13.107,3.352,26.304,2.995,39.515.423,5.373-1.046,10.762-2.118,16.195-2.724,7.315-.816,14.213,1.678,21.163,3.445,7.877,2.003,15.72,3.108,23.804,1.037,7.543-1.932,15.114-3.849,22.774-5.199,6.625-1.168,13.411-1.377,20.081.021,8.308,1.741,16.538,3.878,24.877,5.443,8.281,1.554,16.578,1.648,24.626-1.581,7.662-3.073,15.655-4.399,23.868-3.628,3.092.29,6.102,1.446,8.971,2.236-.545.137-.945.184-1.269.365-.577.323-1.108.726-1.659,1.096.676.287,1.366.844,2.025.809,2.074-.11,4.136-.442,6.342-.602,5.037,1.759,10.08,2.337,15.239,2.254-1.033,1.461-1.946,2.89-3.139,4.022-2.748,2.606-5.656,5.043-8.438,7.614-.466.431-.626,1.192-.928,1.801.19.105.38.21.569.314,6.287-4.968,12.574-9.935,19.061-14.886.884-.079,1.589-.1,2.249-.285,5.424-1.515,10.783-3.321,16.277-4.502,3.454-.743,7.107-.564,10.558-.689-11.385,9.055-22.657,18-33.93,26.945l.352.608c.765-.346,1.577-.616,2.289-1.05,7.139-4.352,14.182-8.867,21.414-13.058,5.286-3.064,7.216-1.863,7.096,4.188-.127,6.426-.494,12.848-.754,19.272-.028.697-.149,1.415-.022,2.085.097.511.517.961.793,1.438.39-.376.896-.69,1.136-1.145.239-.455.197-1.054.303-1.585,1.866-9.327,3.766-18.647,5.593-27.982.897-4.585,3.598-7.584,7.947-9.236,5.151.942,10.155,1.805,15.177,2.556,7.086,1.06,14.139.946,21.26-.811,1.279.994,2.468,1.87,3.534,2.876,2.923,2.759,3.691,6.272,2.117,9.963-.572,1.342-1.345,2.621-2.177,3.826-2.508,3.632-5.088,7.214-7.643,10.814-1.793,2.526-3.629,5.022-5.35,7.596-.286.428-.077,1.188-.097,1.794.516-.192,1.134-.266,1.527-.602.819-.702,1.512-1.551,2.27-2.326,6.283-6.421,12.452-12.96,18.902-19.209,3.643-3.529,6.046-3.436,10.38-.633,2.47,1.597,4.923,3.223,7.427,4.764.418.257,1.064.145,1.604.204-.207-.556-.388-1.124-.636-1.661-.088-.191-.344-.303-.52-.455-7.447-6.421-14.894-12.842-22.211-19.386,2.16-.518,4.176-1.131,6.224-1.266,6.741-.443,13.13,1.363,19.488,3.315,3.312,1.017,6.668,1.888,10.127,2.944,1.003.371,1.915.548,2.758.892,1.5.612,2.939,1.376,4.447,1.964.401.156.963-.097,1.45-.163-.17-.454-.248-.984-.538-1.342-.273-.337-.768-.494-1.027-.833,4.802-.468,8.652-2.751,12.395-5.29m-352.506,50.656c-1.904-.855-3.788-1.76-5.728-2.523-.401-.158-1.009.211-1.521.336.247.418.407.946.763,1.227.473.374,1.098.555,1.657.818,1.736.818,3.471,1.636,5.207,2.454-.088.216-.177.432-.265.648-1.621-.407-3.228-.885-4.867-1.194-1.062-.2-2.202-1.464-3.252.052.964.572,1.874,1.287,2.907,1.68,1.39.53,2.875.812,4.319,1.2-2.85.058-5.268.94-7.288,2.816-.36.334-.387,1.028-.567,1.555.54-.052,1.147.035,1.606-.186.967-.467,1.807-1.209,2.787-1.637,2.885-1.262,5.132-.362,5.985,2.669.438,1.557.122,3.319.225,4.983.038.614.302,1.214.462,1.821.43-.496,1.195-.969,1.23-1.491.142-2.098.059-4.212.059-6.79.889.941,1.439,1.674,2.134,2.223.91.719,1.935,1.293,2.91,1.93-.552-1.061-.987-2.209-1.685-3.163-.98-1.341-2.156-2.54-3.248-3.799.22-.195.44-.39.66-.585,1.609,1.415,3.178,2.881,4.854,4.213.475.378,1.261.363,1.905.529-.261-.622-.37-1.398-.812-1.839-1.423-1.42-2.988-2.698-4.457-4.074-.421-.395-.704-.937-1.05-1.412.134-.155.268-.31.402-.465,2.027.678,4.029,1.449,6.09,1.995.998.264,2.108.105,3.167.137-.822-.618-1.563-1.431-2.484-1.812-1.957-.811-4.007-1.396-6.018-2.074l.06-.598c1.49-.069,2.992-.043,4.466-.237,1.335-.175,3.19.669,4.071-1.804-1.474,0-2.548-.088-3.603.016-4.045.397-7.176-.995-9.304-4.528-.437-.726-.942-1.44-1.545-2.027-.364-.354-.978-.451-1.48-.664.045.597-.036,1.242.17,1.778.213.557.705,1.007,1.071,1.506,1.094,1.493,2.187,2.988,3.28,4.482-.185.176-.371.351-.556.527-.51-.36-1.055-.68-1.524-1.087-1.229-1.065-2.37-2.24-3.659-3.222-.56-.427-1.397-.49-2.109-.718.34.692.538,1.522,1.049,2.048,1.344,1.387,2.823,2.641,4.045,4.142-.063.069-.126.139-.517.147m82.902-3.882c-.549.349-1.097.699-2.01,1.28.724-2.026,1.32-3.461,1.719-4.95.116-.432-.331-1.014-.52-1.528-.383.315-.937.555-1.116.96-.499,1.127-.823,2.33-1.253,3.489-.508,1.366-1.055,2.718-1.585,4.076-.192-.062-.384-.123-.576-.185.09-.658.137-1.325.28-1.972.349-1.586.846-3.147,1.071-4.749.106-.756-.275-1.581-.435-2.375-.429.627-.985,1.204-1.255,1.893-.334.854-.404,1.807-.633,2.705-.384,1.504-.805,2.999-1.21,4.498-.238-.012-.477-.023-.715-.035-.306-1.539-.595-3.082-.923-4.617-.341-1.601-.719-3.194-1.081-4.79-.332.037-.664.074-.996.111-.926,3.12,1.169,6.228.732,10.049-1.421-2.311-2.441-4.099-3.603-5.788-.408-.593-1.166-.945-1.764-1.408.076.728.044,1.491.26,2.175.205.648.645,1.23,1.027,1.811,1.871,2.85,2.122,5.782.545,8.849-.459.892-.937,1.806-1.181,2.767-.171.675.04,1.446.08,2.175.501-.479,1.173-.871,1.471-1.454,1.064-2.075,2.001-4.216,2.987-6.332.279.084.559.169.838.253-.46,2.029-1.004,4.044-1.341,6.093-.143.868.149,1.807.243,2.714.497-.752,1.198-1.442,1.449-2.268.612-2.01,1.014-4.083,1.501-6.13.571,2.465.688,4.863.965,7.241.062.534.683,1.003,1.047,1.502.242-.495.615-.969.694-1.489.103-.676-.014-1.389-.058-2.084-.113-1.766-.239-3.531-.36-5.297.216-.03.432-.06.648-.091.767,2.661,1.534,5.322,2.3,7.983.297-.08.594-.159.891-.239.956-2.163-.68-4.129-.771-6.502.525.391.906.686,1.297.964,1.252.891,2.449,1.886,3.792,2.608.534.287,1.396-.034,2.109-.078-.433-.498-.813-1.06-1.315-1.474-.469-.386-1.093-.577-1.604-.919-3.628-2.431-3.73-5.717-.179-8.195.992-.692,2.245-1,3.32-1.589.474-.26.806-.78,1.203-1.182-.582-.178-1.259-.639-1.726-.481-1.374.467-2.665,1.18-4.256,2.002m-46.689,7.876c1.013,4.137.624,5.048-3,6.735-1.432.666-1.946,1.79-1.534,3.213.425,1.47,1.552,2.089,3.07,1.748,3.055-.687,5.269-2.405,6.555-5.323,1.177-2.67.762-5.306-.051-7.921-.735-2.364-.818-4.466,1.149-6.396,1.2-1.178,1.209-2.694-.154-3.879-1.318-1.145-2.578-.631-3.709.41-3.378,3.111-3.84,6.867-2.324,11.412m60.476,11.493c-.187,1.125-.868,2.542-.424,3.293.448.757,2.026,1.208,3.088,1.172,3.632-.125,6.229-2.01,7.799-5.297.499-1.046,1.002-2.09,1.536-3.119,1.293-2.492,2.792-3.12,5.498-2.199,1.745.595,3.177.291,3.772-1.505.587-1.772-.36-2.885-2.076-3.528-4.768-1.788-9.78.054-11.8,4.73-1.426,3.302-3.065,6.045-7.393,6.452m-135.591-13.442c-.297,2.184-.473,4.394-.916,6.548-.993,4.83,1.988,9.799,6.688,10.922,1.532.366,2.792.046,3.373-1.581.582-1.628-.191-2.671-1.61-3.36-3.313-1.61-3.812-2.631-2.974-6.194.212-.903.486-1.792.682-2.698.807-3.738-.293-6.862-3.077-9.438-1.23-1.138-2.524-1.167-3.728-.066-1.162,1.063-1.036,2.34-.197,3.555.481.698,1.058,1.329,1.758,2.311Z" fill="#e9e3d2"/><path d="m427.816,500.373c-.44-3.116-.777-6.251-1.366-9.338-.27-1.417-.64-3.411-1.637-3.994-5.548-3.242-6.362-8.297-5.691-13.878.371-3.085.239-5.889-1.028-8.804-1.371-3.155-.916-6.572.954-9.364,3.29-4.914,4.363-10.299,4.601-16.044.134-3.219,1.584-5.955,4.067-8.074.942-.804,1.875-1.635,2.899-2.324,1.665-1.119,2.322-2.599,2.003-4.563-.983-6.054,2.347-9.768,6.959-12.779.129-.084.269-.16.414-.21,3.803-1.309,5.387-3.897,5.69-7.985.378-5.111,3.298-8.667,8.608-9.542,2.853-.47,4.492-1.869,5.426-4.591,1.757-5.117,5.712-7.179,10.907-7.507,1.469-.093,3.156-.459,4.302-1.3,4.825-3.54,10.076-4.225,15.668-2.699,2.597.709,4.908.716,7.334-.624,4.137-2.285,8.411-2.38,12.669-.174,2.63,1.363,5.061,1.52,7.848-.112,3.219-1.885,6.846-1.689,10.336-.308.863.342,1.79.616,2.54,1.135,2.827,1.957,5.582,2.005,8.902.912,5.254-1.729,10-.327,13.393,4.271,1.396,1.891,3.068,2.469,5.234,2.028,5.556-1.13,9.789,1.173,13.396,5.125.261.286.573.544.765.872,2.387,4.061,5.779,6.101,10.608,6.649,4.448.505,7.382,4.41,7.913,8.871.11.922.29,1.836.394,2.759.228,2.026,1.429,2.969,3.378,3.166,1.076.109,2.143.309,3.216.451,2.67.352,4.47,1.902,5.182,4.383.656,2.284,1.026,4.682,1.229,7.054.217,2.539,1.065,4.338,3.559,5.436,4.102,1.807,6.116,6.417,5.195,12.067-.393,2.412.161,4.137,1.815,5.856,2.721,2.828,2.914,6.461,2.293,10.032-.551,3.165-.807,5.993.46,9.227,1.781,4.545,1.219,9.169-2.668,12.831-1.403,1.321-1.946,2.929-1.463,4.855.168.671.138,1.39.282,2.07,1.044,4.935-.413,8.969-4.654,11.686-2.626,1.682-3.694,3.882-3.876,6.878-.23,3.798-2.266,6.515-5.686,8.149-1.254.599-2.683.884-3.84,1.616-1.233.78-2.611,1.716-3.275,2.938-1.939,3.567-5.036,5.353-8.709,6.433-1.184.348-2.409.655-3.633.746-3.124.232-5.701,1.252-7.982,3.614-2.64,2.733-6.385,2.897-9.83,2.241-4.536-.864-8.686-.584-12.603,1.967-.506.329-1.147.449-2.087.754-3.145-.112-5.929-.313-8.828-.617-1.796-.752-3.476-1.402-5.339-2.079-1.346.344-2.523.678-3.672,1.091-5.223,1.88-10.334,3.392-15.75.174-1.386-.824-3.79-.561-5.513-.062-3.652,1.057-7.209,2.237-11.221,1.205-4.147-2.132-8.23-3.222-12.673-1.508-.754.291-1.663.178-2.457.095,1.644-1.468,3.188-2.858,4.857-4.075,4.688-3.416,7.455-7.629,5.755-13.673-.963-3.422-1.879-6.715-.846-10.388,1.743-6.198-.474-11.01-6.159-13.935-2.351-1.21-4.165-2.689-5.294-5.208-1.544-3.444-6.104-5.563-9.72-4.312-4.092,1.415-7.833,1.325-11.854-.314-3.466-1.413-6.904-.806-9.99,1.677-1.186.954-2.825,1.672-4.332,1.846-8.547.986-13.999,5.142-15.378,14.002-.179,1.15-1.308,2.152-1.997,3.223m36.891-59.026c1.887-.786,3.906-1.36,5.619-2.426,1.389-.865,2.313-2.405,1.285-4.184-.791-1.369-3.474-1.942-5.024-.886-2.282,1.554-4.371,3.385-5.256,6.334.654.371,1.232.698,1.4,1.074-.695.015-1.393-.011-2.084.053-4.554.422-8.276,4.317-8.545,8.918-.282,4.838,2.995,8.967,7.891,9.942,4.549.905,9.105-1.746,10.62-6.18,1.818-5.32-.504-9.95-5.906-12.644m85.694,45.552c2.088-.872,4.349-1.488,6.186-2.73.843-.57,1.531-2.826,1.077-3.506-.632-.945-2.43-1.607-3.683-1.539-2.688.146-6.084,4.108-6.439,6.983.542.234,1.091.471,1.227.744-.387-.008-.774-.028-1.16-.021-5.594.105-9.659,4.259-9.574,9.777.082,5.293,4.427,9.433,9.803,9.34,5.401-.094,9.502-4.474,9.314-10.021-.161-4.737-3.036-7.371-6.75-9.027m-38.75-81.75c-.611.088-1.228.15-1.834.269-4.753.929-7.849,4.913-7.674,9.86.169,4.778,3.684,8.513,8.584,9.121,4.486.557,8.913-2.511,10.162-7.042,1.32-4.791-.707-8.8-5.574-11.878,2.013-1.184,4.216-2.143,5.981-3.623,1.486-1.246.9-3.312-.835-4.158-1.922-.937-3.73-.349-5.062,1.004-1.714,1.741-4.457,3.089-3.748,6.447m59.14,38.538c.845-.019,1.796.207,2.515-.104,1.849-.799,3.792-1.607,5.287-2.889.617-.529.609-2.506.125-3.424-.678-1.288-2.069-1.876-3.769-1.19-2.658,1.073-4.488,2.939-5.6,5.485-.241.551.205,1.401-.038,2.181-.841.12-1.696.181-2.522.37-4.562,1.042-7.745,5.53-7.282,10.223.477,4.841,4.699,8.672,9.587,8.698,4.721.026,8.855-3.566,9.474-8.232.718-5.408-2.104-9.198-7.778-11.119m-54.446,1.863c2.56-.019,5.061-.561,6.64-2.628.732-.959,1.043-2.838.614-3.936-.552-1.412-2.211-1.669-3.817-1.133-2.761.922-4.371,2.979-5.762,5.373-.696,1.197-.282,1.76.364,2.294-.386.008-.775-.005-1.159.028-5.053.438-8.909,4.517-9.004,9.518-.094,4.968,3.778,9.184,8.831,9.615,5.117.437,9.312-2.846,10.243-8.015.879-4.881-1.778-8.857-6.95-11.115Z" fill="#259e7d"/><path d="m539.513,532.717c2.784.201,5.569.402,8.575.596-3.621,6.787-7.533,13.543-11.262,20.399-.972,1.787-1.48,3.857-1.994,5.851-.284,1.1-.178,2.31-.178,3.471,0,34,.009,68,.016,102.427.021,10.408.041,20.389.067,30.369.013,5.175,1.305,10.037,4.46,14.13,5.233,6.788,10.6,13.485,16.176,19.993,2.283,2.665,5.257,4.739,7.935,7.146.018.065.092.177-.136.231-1.233.081-2.238.131-3.243.132-22.76.004-45.52.012-68.281,0-8.435-.005-16.871-.058-25.289-.18.017-.091-.011-.276.085-.398,8.079-6.983,16.095-13.807,24.035-20.718,5.08-4.421,8.016-9.95,8.147-16.809.068-3.559.234-7.118.233-10.677-.004-10.373-.069-20.746-.11-31.12.042-1.003.12-2.006.121-3.009.026-28.962.012-57.924.096-86.885.013-4.348-1.467-7.679-4.828-10.501-7.112-5.972-14.036-12.167-20.961-18.433,2.268-1.449,4.461-2.735,6.793-3.933,6.01,3.826,11.879,7.564,18.092,11.52v-13.301c3.854.957,7.411-.223,11.063-1.279,1.723-.499,4.127-.761,5.513.062,5.416,3.218,10.527,1.706,15.75-.174,1.149-.413,2.326-.747,3.668-.877.178,1.16.067,2.097.215,2.992.111.669.408,1.512.908,1.84.331.217,1.262-.217,1.76-.582.921-.674,1.723-1.512,2.574-2.282Z" fill="#d8b57d"/><path d="m466.343,737.373c8.435.031,16.871.085,25.306.089,22.76.013,45.52.005,68.281,0,1.005,0,2.01-.051,3.286-.158.271-.081.269-.182.473-.081,5.213.071,10.221.042,15.442.076,3.259.064,6.305.064,9.671.064-.662-2.098-1.233-3.907-1.805-5.716-.677-2.142-1.355-4.285-1.922-6.423.323-.048.535-.101.748-.154.57.822,1.141,1.643,1.797,2.589,2.262-2.901,4.509-5.782,6.255-8.022-.754-2.263-1.303-3.911-1.642-5.716.388-.166.564-.176.741-.186.617,1.12,1.234,2.241,2.117,3.843,2.368-5.008,2.38-9.945,3.209-14.972.639.042,1.048.3,1.458.559-.697,4.869-1.394,9.737-2.12,14.8.168,0,.797,0,1.72.055.398.359.503.664.608.969-.525.298-1.139.944-1.562.837-2.342-.592-3.269.998-4.341,2.508-.67.944-1.351,1.928-2.213,2.679-3.751,3.265-3.372,7.127-1.615,11.117.26.591,1.366,1.117,2.097,1.141,3.943.129,7.893.035,11.838.125,3.539.08,5.838,2.19,5.885,5.228.049,3.118-2.348,5.353-5.951,5.481-2.009.071-4.021.052-6.46.093-7.753.024-15.078.028-22.62.01-3.987-.008-7.756.005-11.732.01-8.249-.002-16.291.005-24.551-.006-3.98-.008-7.743.002-11.713.002-9.334-.002-18.461.007-27.805-.002-4.402-.004-8.586.009-12.992.005-7.478-.008-14.734.001-22.216-.011-4.131-.005-8.036.012-12.163.01-.532-.023-.842-.032-1.152-.032-138.386,0-276.771,0-415.157.001-.697,0-1.393.037-2.09.056-.998-.078-2.008-.084-2.992-.248-2.947-.491-4.842-2.862-4.625-5.7.213-2.778,2.259-4.822,5.212-4.871,6.333-.105,12.669-.075,19.004-.097,5.408-.019,10.815-.034,16.615-.095,2.232-.035,4.071-.025,6.091.05.689.025,1.197-.015,1.909.006,5.925.019,11.646-.024,17.546,0,.674.021,1.169-.026,1.868-.005,1.616.031,3.03-.004,4.655.025.599.082.985.115,1.372.115,45.639.003,91.279.003,136.918-.005.69,0,1.38-.118,2.069-.181,6.033.043,12.066.085,18.471.131,1,.002,1.629,0,2.468.054,6.011.099,11.812.142,17.779.275.973.282,1.782.476,2.767.587,1.08-.193,1.983-.399,2.885-.4,22.73-.018,45.46-.01,68.19-.028.901,0,1.802-.208,2.919-.307,3.192-.026,6.168-.063,9.348-.096,1.55-.094,2.896-.192,4.448-.196,3.364.106,6.521.117,9.886.155,1.592.028,2.976.029,4.582.068,26.114.045,52.005.053,77.897.054.536,0,1.071-.086,1.799-.14,1.21-.031,2.228-.053,3.384-.034.233.033.328.024.423.015Z" fill="#a47d04"/><path d="m72.579,737.217c-1.839-.01-3.679-.02-5.646-.037-6.236-3.348-12.469-6.483-18.418-10.087-6.276-3.803-11.597-8.772-15.907-15.219-1.813,2.207-3.545,4.314-5.276,6.422-.186-.022-.373-.045-.559-.067.288-3.074.682-6.144.809-9.225.046-1.099-.269-2.429-.9-3.309-8.3-11.576-16.688-23.088-25.043-34.623-.472-.652-.857-1.368-1.639-2.629,13.28,5.298,25.894,10.358,37.516,18.22.571-1.226,1.084-2.297,1.571-3.379,3.473-7.719,7.324-15.204,13.023-21.584,1.681-1.882,3.514-2.961,6.233-2.795,4.072.248,8.17.065,12.567.065-2.375-15.1-4.14-30.116-2.844-45.653,7.367,8.075,13.058,17.021,18.416,26.577,1.146,2.061,2.185,3.823,3.224,5.586,3.108,7.001,6.215,14.003,9.393,21.33.627,1.629,1.185,2.932,1.742,4.235.499,1.586.998,3.173,1.447,5.1-4.436,11.555-7.502,23.153-9.757,34.436-1.508-9.046-3.065-18.477-4.68-27.898-.12-.703-.647-1.336-.984-2.002l-1.052.343c3.992,18.537,5.263,37.351,6.221,56.196-5.722.043-11.443.086-17.404-.086-.708-1.441-1.172-2.668-1.648-3.891-3.564-9.156-6.681-18.435-8.038-28.225-.081-.587-.874-1.075-1.342-1.793-1.153-8.041-2.298-15.899-3.541-24.425-3.614,5.534-6.794,10.403-9.977,15.277,4.401,3.29,8.589,6.421,12.788,9.739.207,1.559.345,2.942.606,4.301,1.931,10.043,5.114,19.697,9.099,29.099Z" fill="#259e7d"/><path d="m479.83,534.711c-2.193,1.286-4.385,2.572-6.753,3.911-2.174-.118-4.171-.396-6.171-.421-1.266-.016-2.6.164-3.791.578-1.67.579-3.196,1.564-4.854,2.189-4.806,1.812-8.392,1.064-11.646-2.898-2.321-2.826-5.063-4.237-8.629-4.746-6.089-.868-9.301-4.501-9.522-10.67-.105-2.916-.81-5.357-2.79-7.603-2.708-3.071-2.807-6.247-.715-9.847.888-1.529,1.863-3.008,2.828-4.67.719-1.231,1.848-2.233,2.027-3.384,1.379-8.86,6.831-13.017,15.378-14.002,1.508-.174,3.146-.892,4.332-1.846,3.087-2.483,6.524-3.09,9.99-1.677,4.021,1.639,7.762,1.729,11.854.314,3.616-1.25,8.176.868,9.72,4.312,1.129,2.519,2.943,3.998,5.294,5.208,5.684,2.925,7.902,7.737,6.159,13.935-1.033,3.673-.117,6.966.846,10.388,1.701,6.045-1.067,10.257-5.755,13.673-1.669,1.217-3.213,2.607-4.962,4.176-1.045,1.199-1.942,2.139-2.839,3.079Z" fill="#28b58e"/><path d="m465.782,737.317c-1.018.022-2.036.045-3.265-.026-.211-.093-.34-.256-.228-.417.22-5.308.37-10.455.365-15.602,0-.46-.949-1.125-1.575-1.325-.778-.249-1.68-.112-2.532-.337-.001-1.107.002-2.019.204-2.953q4.017-.085,4.017-3.91c0-3.696-.062-7.394.026-11.088.043-1.809-.753-2.513-2.451-2.543-1.995-.036-3.99-.13-5.98-.393-.651-2.09-1.307-3.986-1.824-5.987,4.979-1.267,8.127-4.771,7.674-8.881-.119-1.076-1.078-2.636-1.962-2.888-.878-.251-2.744.584-3.138,1.428-1.487,3.181-3.842,4.818-7.203,5.369-.879.144-1.689.706-2.703,1.035-1.06-.503-2.307-.737-2.773-1.469-1.923-3.016-4.463-4.309-8.009-3.675-.497.089-1.315-.005-1.552-.33-1.745-2.386-4.194-2.942-6.867-3.069.497-1.633.939-3.098,1.382-4.563,2.103-.467,4.189-1.062,6.315-1.366,2.223-.317,3.72-1.337,5.027-3.202,1.48-2.113,3.233-4.149,5.241-5.751,3.43-2.736,7.45-1.676,11.33-1.067,2.23.35,4.635.859,6.247-1.242,5.052-6.584,11.659-6.474,18.628-4.353,2.891.88,5.283.79,7.867-.942,3.282-2.2,6.875-1.906,10.546-.242.202,10.406.267,20.779.271,31.153.001,3.559-.165,7.117-.233,10.677-.131,6.859-3.067,12.388-8.147,16.809-7.94,6.911-15.956,13.735-24.147,20.735-.368.174-.482.266-.55.416Z" fill="#caefc5"/><path d="m33.455,748.442c.696-.22,1.392-.256,2.089-.256,138.386-.002,276.771-.002,415.157-.001.31,0,.62.009,1.063.169-1.244.975-2.546,2.313-4.01,2.524-6.789.98-13.623,1.648-20.441,2.427-3.048-.761-6.058-1.917-9.15-2.207-8.214-.771-16.206.554-23.868,3.628-8.049,3.228-16.345,3.135-24.626,1.581-8.339-1.565-16.569-3.702-24.877-5.443-6.67-1.398-13.456-1.189-20.081-.021-7.66,1.35-15.231,3.267-22.774,5.199-8.084,2.071-15.927.965-23.804-1.037-6.95-1.767-13.848-4.261-21.163-3.445-5.433.606-10.822,1.678-16.195,2.724-13.211,2.572-26.408,2.929-39.515-.423-8.733-2.233-17.217-1.291-25.898.514-14.128,2.938-28.4,3.007-42.596.182-12.243-2.436-24.566-2.669-36.955-1.75-8.86.657-17.741,1.123-26.576,2.03-11.857,1.217-23.435-.33-35.154-2.788-.332-1.134-.479-2.271-.626-3.608Z" fill="#cab16a"/><path d="m98.525,737.243c-1.413.035-2.826.071-4.446-.148-.484-4.64-.833-9.023-1.012-13.413-.097-2.378-.18-4.813.205-7.144,2.127-12.894,5.665-25.426,9.96-37.757.268-.769-.016-1.73-.044-2.601,2.737-7.239,5.475-14.477,8.477-21.749.758.835,1.274,1.692,1.742,2.575,3.524,6.638,7.581,12.903,13.119,18.062,3.825,3.563,7.777,6.988,11.673,10.475-2.332,4.558-4.663,9.116-7.233,13.845-.628.614-1.118,1.002-1.393,1.507-4.127,7.556-8.213,15.136-12.361,22.681-.305.556-1.011.891-1.519,1.165.663-1.378,1.648-2.535,1.87-3.824.204-1.186-.413-2.514-.668-3.779-1.359.505-3.021.688-3.993,1.604-1.04.98-1.431,2.65-1.82,3.441-1.195-1.471-2.445-3.251-3.972-4.749-.488-.479-2.053-.597-2.51-.189-.594.53-.919,1.814-.758,2.658.562,2.94,2.11,5.273,4.831,6.662-2.997.46-5.604,1.42-7.089,4.046-1.194,2.112-2.052,4.415-3.058,6.633Z" fill="#259e7d"/><path d="m113.338,652.612c5.164-.385,10.511-.072,15.435-1.369,4.218-1.111,7.337-.277,10.783,1.709,13.275,7.653,24.899,17.299,35.138,28.656,6.812,7.557,12.891,15.658,18.013,24.46.618,1.061,1.184,2.152,1.908,3.473-.626-.035-.992.019-1.306-.084-14.785-4.891-29.389-10.253-43.181-17.56-3.608-1.912-6.927-4.37-10.515-6.815-.534-.833-.833-1.535-1.344-2.008-4.013-3.713-8.188-7.261-12.081-11.095-5.621-5.536-9.478-12.306-12.85-19.367Z" fill="#259e7d"/><path d="m454.358,698.918c2.686.672,8.465-1.472,8.436,2.741-.088,3.695-.026,7.392-.026,11.088q0,3.825-4.236,3.887c-29.565-.081-58.793.176-88.304-.081-5.053-6.948-7.965-6.998-15.385-3.744-.164-3.613.138-7.403.003-11.036-.033-1.887.751-2.694,2.591-2.673,32.169.222,64.826.972,96.921-.182m-2.02,9.927c.804-1.58.464-3.037-1.097-3.671-.859-.349-2.544-.156-3.033.453-.597.744-.721,2.336-.348,3.285.629,1.597,2.387,1.569,4.477-.067m-86.41,1.184c1.056-.428,2.482-.571,3.082-1.351.942-1.224.46-2.663-.936-3.527-1.319-.816-2.622-.539-3.457.666-1.104,1.591-.752,3.046,1.311,4.213Z" fill="#dd8600"/><path d="m578.918,737.237c-5.009.03-10.017.059-15.255-.04-.229-.128-.374-.161-.374-.161-2.66-2.343-5.633-4.416-7.917-7.081-5.576-6.508-10.943-13.205-16.176-19.993-3.155-4.093-4.447-8.956-4.46-14.13-.026-9.98-.046-19.961-.022-30.155,5.179.76,8.396,4.018,10.768,8.472.626,1.176,1.837,2.55,3.019,2.834,5.793,1.391,8.045,5.233,8.115,10.78.026,2.053.884,3.058,2.972,3.33,6.478.843,8.045,5.5,9.18,11.866.352,1.972,1.171,3.861,1.614,6.004-2.009.445-3.855.674-6.412.991,4.493,2.532,8.389,4.728,12.263,7.135-.348,1.933-.536,3.696-1.03,5.368-.798,2.7-.506,5.036,1.278,7.327,1.664,2.137,2.808,4.584,2.438,7.453Z" fill="#caefc5"/><path d="m98.737,737.307c.795-2.283,1.652-4.586,2.846-6.698,1.485-2.626,4.092-3.585,7.268-4.043,1.397-.012,2.484.087,3.692.324.843.25,1.566.362,2.373.588.607.288,1.131.462,1.849.677,1.251.196,2.355.629,3.353.454,3.607-.63,7.178-1.464,10.976-2.212,2.156.175,4.098.339,6.178.611,2.012.527,3.898,1.328,5.757,1.271,2.346-.072,4.67-.844,7.218-1.342,2.377-.232,4.538-.436,6.882-.642.918.05,1.655.103,2.52.267,1.673.529,3.197,1.167,4.767,1.316,2.756.262,5.541.224,8.314.312,2.936-.507,5.873-1.015,9.181-1.588,2.349-.029,4.326.007,6.303.044.071.028.145.052.214.085,5.256,2.563,10.503,1.761,15.772.016.932-.309,1.956-.341,3.305-.581,1.967-.065,3.567-.05,5.167-.035,2.173.508,4.349,1.434,6.518,1.418,2.712-.02,5.418-.816,8.462-1.357,1.659.062,2.983.205,4.306.349,4.585,1.934,6.361,5.79,7.114,10.529-.665.229-1.355.347-2.045.347-45.639.008-91.279.008-136.918.005-.387,0-.774-.033-1.372-.115Z" fill="#639789"/><path d="m454.363,698.723c-.656.353-1.306.648-1.957.648-29.266.023-58.532.02-87.798.012-.379,0-.757-.108-1.281-.292,1.746-5.946,4.084-7.832,10.173-8.361,1.731-1.19,3.157-2.222,4.584-3.254,1.707-.59,3.415-1.181,5.376-1.648.762.944,1.271,1.764,1.769,2.567,2.08-1.096,3.94-2.077,5.853-3.085-.303-.814-.617-1.658-.931-2.502,4.3-3.259,9.001-3.637,14.023-2.039.741.236,1.696.317,2.401.059,3.367-1.232,6.652-.978,9.997.48-1.096,2.339-2.253,4.43-3.517,6.717,2.301.276,3.959.543,5.626.631.456.024,1.276-.411,1.36-.77.808-3.436,3.523-5.312,5.91-7.464,2.727-.042,5.176.515,6.922,2.901.238.325,1.055.419,1.552.33,3.545-.634,6.086.659,8.009,3.675.466.731,1.713.965,2.681,1.575-1.613,1.617-3.307,3.087-5.218,4.746,2.597,1.181,4.536,2.063,5.766,2.622,2.529-1.288,4.634-2.36,6.738-3.431.656,1.896,1.311,3.791,1.962,5.882Z" fill="#cab16a"/><path d="m112.369,608.577c-4.265-2.545-5.218-4.759-4.171-9.655,3.007-14.064,6.35-28.028,12.161-41.266.248-.565.478-1.142.768-1.686,2.186-4.096,3.621-4.78,8.49-3.849.746.227,1.209.359,1.672.491,4.446,2.216,5.591,4.19,4.226,9.661-2.725,10.924-5.77,21.769-8.789,32.618-.93,3.343-2.306,6.56-3.292,9.89-1.086,3.668-2.401,5.081-7.449,4.83-.535-.027-1.064-.172-1.909-.349-.779-.286-1.244-.486-1.709-.686Z" fill="#aa4869"/><path d="m76.089,592.207c-4.302.21-7.02-1.898-9.022-5.609-4.735-8.777-9.756-17.4-14.49-26.178-1.565-2.901-2.767-6.032-3.808-9.166-.429-1.292-.382-3.029.136-4.279.678-1.634.277-2.379-1.076-3.116-.371-.202-.57-.718-.89-1.147.39-.172.591-.321.649-.277,2.15,1.601,4.371,1.817,7.056,1.249,3.308-.7,6.015,1.13,8.078,3.617,6.379,7.689,10.957,16.462,14.934,25.552,1.418,3.242,2.586,6.629,3.489,10.049.948,3.591.103,6.773-3.685,8.908-.638.225-1.005.311-1.371.396Z" fill="#aa496a"/><path d="m130.881,726.389c-3.584.757-7.155,1.592-10.762,2.222-.998.174-2.102-.259-3.266-.585.328-.899.79-1.612,1.196-2.356,4.54-8.318,9.072-16.64,13.606-24.962,7.189,1.615,14.378,3.231,21.683,5.075-.881,1.185-1.871,2.15-2.879,3.095-2.958,2.773-5.922,5.539-9.059,8.267-4.279-.623-4.846,2.842-5.936,4.943-1.288-1.549-2.363-3.475-3.985-4.63-1.97-1.402-3.676-.284-3.228,2.06.342,1.789,1.549,3.405,2.301,5.129.23.528.227,1.158.33,1.742Z" fill="#259e7d"/><path d="m156.948,726.299c-2.162.204-4.324.407-6.855.591-2.98-1.441-5.59-2.862-8.245-4.466.093-1.542.231-2.9.54-4.282,1.26-.861,2.411-1.63,3.429-2.548,3.237-2.916,6.424-5.887,9.63-8.837,2.727,3.172,5.454,6.344,8.021,9.689-2.887.945-3.919,3.199-4.693,5.535-.975-1.526-1.706-3.186-2.91-4.361-.721-.704-2.449-1.174-3.231-.778-.686.347-1.063,2.105-.916,3.146.437,3.081,2.64,4.905,5.231,6.312Z" fill="#29a07f"/><path d="m103.05,676.193c.165.859.449,1.82.182,2.589-4.295,12.331-7.833,24.863-9.96,37.757-.384,2.331-.302,4.766-.205,7.144.179,4.39.528,8.773.809,13.346-.493.234-.988.28-1.662.26-1.136-18.912-2.407-37.725-6.399-56.263l1.052-.343c.338.666.864,1.299.984,2.002,1.614,9.421,3.172,18.852,4.68,27.898,2.255-11.283,5.321-22.881,9.768-34.254.246-.148.429-.135.751-.135Z" fill="#073b2d"/><path d="m600.13,719.066c-.268-.38-.373-.685-.575-1.066,1.566-3.671,2.949-7.57,7.977-7.509,5.937.071,10.159,2.849,12.142,8.006.268.697.465,1.421.6,1.841-2.526.627-4.928,1.111-7.257,1.83-2.78.858-5.337.366-7.869-.819-1.61-.754-3.236-1.473-5.018-2.283Z" fill="#29a07f"/><path d="m576.255,716.877c-3.896-2.196-7.793-4.392-12.286-6.924,2.557-.317,4.403-.546,6.441-.829,1.164-.279,2.139-.491,3.108-.73,7.254-1.789,13.118,2.637,13.229,10.159.03,2.046-.53,4.101-.872,6.336-.266.236-.478.289-.899.236-3.046-2.819-5.884-5.533-8.722-8.247Z" fill="#29a07f"/><path d="m390.04,682.654c.426.999.74,1.843,1.043,2.657-1.913,1.008-3.773,1.989-5.853,3.085-.498-.803-1.006-1.623-1.591-2.614-.495-3.215-.938-6.256-1.326-9.303-.374-2.94-1.801-5.029-4.654-6.051-.433-.155-.997-.282-1.222-.612-.605-.886-1.688-2.149-1.423-2.757.386-.884,1.843-1.94,2.746-1.857,6.787.625,9.992,2.698,10.994,9.551.378,2.585.783,5.165,1.288,7.902Z" fill="#29a07f"/><path d="m112.324,608.781c.51-.004.975.196,1.571.482-1.143,5.256-2.576,10.394-3.663,15.603-3.18,15.253-6.222,30.536-9.355,45.993-.594-1.116-1.151-2.419-1.723-3.885.382-1.358.888-2.529,1.159-3.752,3.824-17.246,7.617-34.499,11.417-51.751.183-.829.366-1.658.594-2.691Z" fill="#b0b0ae"/><path d="m426.006,680.256c-2.442,2.32-5.157,4.196-5.965,7.632-.084.358-.904.794-1.36.77-1.667-.088-3.325-.355-5.626-.631,1.265-2.287,2.421-4.378,3.664-6.612,2.823-1.761,4.548-3.995,4.928-7.282.356-3.085,1.282-4.069,3.264-3.791,2.539.356,2.427,2.374,2.446,4.253.002.231-.005.462.012.895-.423,1.667-.865,3.132-1.362,4.766Z" fill="#29a07f"/><path d="m575.243,748.231c7.324-.004,14.649-.008,22.198.026.119.734.013,1.429-.204,2.262-3.854,2.677-7.705,4.96-12.66,5.393-2.039-1.046-3.929-1.992-5.492-3.321-1.46-1.242-2.575-2.89-3.842-4.36Z" fill="#cab16a"/><path d="m76.122,592.376c.334-.254.701-.339,1.257-.429,1.811,5.217,3.801,10.356,4.98,15.675,2.653,11.974,4.907,24.036,7.311,36.064.09.451.056.926.058,1.592-1.061-1.56-2.1-3.323-3.171-5.239-.118-2.01-.003-3.901-.321-5.716-2.482-14.136-5.712-28.097-10.113-41.948Z" fill="#b0b0ae"/><path d="m157.129,726.296c-2.773-1.405-4.975-3.229-5.413-6.309-.148-1.041.23-2.798.916-3.146.783-.397,2.51.074,3.231.778,1.204,1.175,1.935,2.835,2.91,4.361.774-2.335,1.806-4.59,4.699-5.377,1.938-.105,2.158,1.022,2.067,2.769-.714,3.762-2.655,6.06-6.019,7.079-.737-.053-1.474-.105-2.392-.155Z" fill="#fcfcfc"/><path d="m232.044,726.397c-1.409,0-2.733-.142-4.231-.288-2.406-1.697-4.641-3.447-4.888-6.505-.071-.876.276-2.104.893-2.618.493-.411,2.053-.335,2.5.134,1.508,1.582,2.73,3.436,3.612,4.596.972-1.167,2.301-2.951,3.857-4.509.444-.445,1.941-.594,2.259-.245.589.647.978,1.79.897,2.676-.283,3.096-2.198,5.142-4.898,6.76Z" fill="#fffefe"/><path d="m212.832,726.037c-1.76.08-3.36.065-5.165.047-2.468-1.923-4.528-3.96-4.467-7.247.039-2.118,1.174-2.977,2.922-1.822,1.628,1.075,2.876,2.723,4.262,4.089.708-.903,1.567-2.33,2.755-3.387.688-.612,2.271-1.151,2.797-.784.727.507,1.159,1.9,1.152,2.91-.018,2.847-2.153,4.446-4.256,6.193Z" fill="#fffefe"/><path d="m188.28,726.481c-2.042.129-4.019.093-6.207.036-2.238-1.945-4.147-3.914-4.001-7.036.104-2.225,1.649-3.255,3.295-1.807,1.579,1.389,2.615,3.395,3.613,4.754.678-.995,1.562-2.73,2.87-4.043.706-.708,2.135-.696,3.238-1.008.248,1.119,1.003,2.452.64,3.314-.84,1.996-2.222,3.764-3.449,5.79Z" fill="#fffefe"/><path d="m599.934,703.148c-.586-.239-.995-.497-1.555-.738-.681-2.19-1.531-4.385-1.616-6.609-.048-1.248.944-2.751,1.871-3.773,1.639-1.807,3.587-3.334,5.385-4.96,1.061,4.067,1.232,8.323-.453,12.363-.608,1.459-2.273,2.477-3.632,3.717Z" fill="#29a07f"/><path d="m113.199,652.513c3.511,7.16,7.368,13.93,12.989,19.466,3.893,3.834,8.067,7.382,12.081,11.095.511.473.81,1.175,1.194,1.926-.323.267-.632.38-1.102.517-4.057-3.462-8.01-6.887-11.834-10.45-5.538-5.159-9.594-11.424-13.119-18.062-.468-.882-.984-1.739-1.616-2.692-.119-.837-.101-1.59-.082-2.343.45.148.901.296,1.49.543Z" fill="#073b2d"/><path d="m593.058,713.574c-.26.173-.437.183-.701.188-1.748-5.963-4.794-10.745-11.093-12.917,3.691-.739,7.357-1.733,10.636.787,2.594,1.994,3.32,6.098,2.035,9.848-.225.657-.527,1.288-.876,2.095Z" fill="#29a07f"/><path d="m131.623,700.574c-4.502,8.456-9.034,16.778-13.574,25.096-.406.744-.868,1.457-1.392,2.314-.61-.043-1.134-.217-1.61-.617.25-.964.452-1.702.65-2.447-.004-.006-.015-.016-.015-.016.519-.438,1.224-.774,1.53-1.329,4.148-7.545,8.233-15.125,12.361-22.681.276-.505.765-.894,1.307-1.36.338.286.525.595.743,1.039Z" fill="#073b2d"/><path d="m378.014,687.318c-1.356,1.191-2.782,2.223-4.358,3.307-.849-2.187-2.188-3.802-4.264-5.027-.915-.54-1.958-2.115-1.782-2.985.333-1.651,2.016-1.854,3.607-1.573,3.538.625,5.383,3.093,6.797,6.279Z" fill="#29a07f"/><path d="m159.65,726.563c3.236-1.131,5.177-3.429,5.895-7.002.526.171,1.196.415,1.562.893,1.873,2.444,3.667,4.948,5.557,7.584-2.705.065-5.49.103-8.246-.159-1.57-.149-3.094-.787-4.767-1.316Z" fill="#29a07f"/><path d="m155.479,706.589c-3.239,3.118-6.426,6.089-9.663,9.005-1.018.917-2.169,1.687-3.519,2.431-.414-.342-.569-.591-.723-.84,2.962-2.768,5.927-5.534,8.884-8.307,1.008-.945,1.998-1.91,3.055-3.003.929-.545,1.974-1.451,1.966.714Z" fill="#073b2d"/><path d="m131.364,552.43c-.538.051-1.001-.081-1.559-.323.21-1.139.44-2.199.858-3.179.165-.388.748-.597,1.14-.888.16.522.512,1.074.438,1.561-.136.902-.521,1.767-.877,2.83Z" fill="#b0b0ae"/><path d="m527.237,748.226c3.763-.01,7.526-.02,11.581.12,1.146.838,1.999,1.527,2.853,2.215,7.447,6.421,14.893,12.842,22.34,19.263.176.152.432.264.52.455.249.537.429,1.105.636,1.661-.54-.059-1.186.054-1.604-.204-2.505-1.541-4.957-3.167-7.427-4.764-4.334-2.803-6.738-2.896-10.38.633-6.45,6.249-12.618,12.788-18.902,19.209-.759.775-1.451,1.624-2.27,2.326-.393.336-1.011.41-1.527.602.02-.606-.189-1.366.097-1.794,1.72-2.574,3.557-5.07,5.35-7.596,2.555-3.599,5.135-7.182,7.643-10.814.832-1.204,1.605-2.484,2.177-3.826,1.574-3.691.806-7.204-2.117-9.963-1.066-1.007-2.255-1.883-3.62-3.006-1.938-1.631-3.644-3.074-5.35-4.516Z" fill="#cab16a"/><path d="m486.453,748.235c4.184-.013,8.369-.027,12.676.099-.929.981-1.981,1.822-3.032,2.664-4.21,1.782-6.911,4.78-7.808,9.365-1.827,9.335-3.727,18.655-5.593,27.982-.106.531-.063,1.13-.303,1.585-.239.455-.746.769-1.136,1.145-.276-.477-.696-.927-.793-1.438-.127-.67-.006-1.388.022-2.085.26-6.424.627-12.846.754-19.272.12-6.051-1.81-7.251-7.096-4.188-7.232,4.191-14.275,8.706-21.414,13.058-.712.434-1.524.704-2.289,1.05l-.352-.608c11.272-8.945,22.545-17.891,34.062-27.006.93-.897,1.616-1.624,2.301-2.351Z" fill="#cab16a"/><path d="m327.656,797.329c1.457-.719,2.748-1.432,4.122-1.899.467-.159,1.145.303,1.726.481-.397.402-.728.922-1.203,1.182-1.076.589-2.328.897-3.32,1.589-3.551,2.478-3.449,5.764.179,8.195.511.343,1.136.533,1.604.919.502.414.882.976,1.315,1.474-.713.044-1.574.366-2.109.078-1.343-.722-2.54-1.717-3.792-2.608-.392-.279-.772-.573-1.297-.964.091,2.373,1.726,4.338.771,6.502-.297.08-.594.159-.891.239-.767-2.661-1.534-5.322-2.3-7.983-.216.03-.432.06-.648.091.121,1.766.247,3.531.36,5.297.045.695.161,1.408.058,2.084-.079.519-.452.994-.694,1.489-.364-.499-.985-.968-1.047-1.502-.277-2.379-.393-4.776-.965-7.241-.487,2.048-.89,4.121-1.501,6.13-.252.827-.953,1.516-1.449,2.268-.094-.907-.385-1.846-.243-2.714.337-2.049.881-4.064,1.341-6.093-.279-.084-.559-.169-.838-.253-.985,2.116-1.922,4.256-2.987,6.332-.299.583-.971.975-1.471,1.454-.04-.728-.251-1.5-.08-2.175.244-.961.722-1.875,1.181-2.767,1.577-3.067,1.326-5.999-.545-8.849-.382-.581-.822-1.164-1.027-1.811-.216-.684-.184-1.446-.26-2.175.598.462,1.356.815,1.764,1.408,1.162,1.69,2.182,3.478,3.603,5.788.437-3.821-1.658-6.929-.732-10.049.332-.037.664-.074.996-.111.362,1.596.74,3.19,1.081,4.79.327,1.535.617,3.078.923,4.617.238.012.477.023.715.035.405-1.499.826-2.994,1.21-4.498.23-.899.3-1.852.633-2.705.269-.689.826-1.266,1.255-1.893.16.794.541,1.619.435,2.375-.225,1.601-.722,3.163-1.071,4.749-.142.646-.189,1.314-.28,1.972.192.062.384.123.576.185.53-1.358,1.077-2.71,1.585-4.076.431-1.159.754-2.362,1.253-3.489.18-.405.733-.645,1.116-.96.189.513.635,1.096.52,1.528-.399,1.488-.994,2.924-1.719,4.95.913-.581,1.462-.931,2.144-1.382Z" fill="#ed820e"/><path d="m245.34,800.973c-1.425-1.307-2.905-2.562-4.249-3.949-.511-.527-.709-1.357-1.049-2.048.711.228,1.549.291,2.109.718,1.289.983,2.43,2.157,3.659,3.222.469.407,1.014.727,1.524,1.087.185-.176.371-.351.556-.527-1.093-1.494-2.186-2.989-3.28-4.482-.366-.5-.858-.949-1.071-1.506-.205-.536-.125-1.181-.17-1.778.502.213,1.116.31,1.48.664.603.586,1.107,1.301,1.545,2.027,2.128,3.533,5.258,4.925,9.304,4.528,1.055-.104,2.129-.016,3.603-.016-.881,2.473-2.737,1.629-4.071,1.804-1.473.194-2.976.167-4.466.237l-.06.598c2.012.678,4.061,1.264,6.018,2.074.92.381,1.661,1.195,2.484,1.812-1.059-.032-2.169.127-3.167-.137-2.062-.545-4.064-1.316-6.09-1.995-.134.155-.268.31-.402.465.346.475.629,1.018,1.05,1.412,1.469,1.376,3.034,2.654,4.457,4.074.442.441.551,1.216.812,1.839-.644-.165-1.43-.151-1.905-.529-1.676-1.332-3.244-2.798-4.854-4.213-.22.195-.44.39-.66.585,1.092,1.259,2.268,2.458,3.248,3.799.698.955,1.133,2.102,1.685,3.163-.975-.637-2-1.211-2.91-1.93-.695-.549-1.245-1.282-2.134-2.223,0,2.578.084,4.691-.059,6.79-.035.522-.801.995-1.23,1.491-.161-.607-.424-1.207-.462-1.821-.103-1.664.214-3.426-.225-4.983-.853-3.03-3.1-3.93-5.985-2.669-.98.428-1.82,1.17-2.787,1.637-.458.221-1.066.134-1.606.186.181-.527.207-1.221.567-1.555,2.019-1.876,4.438-2.758,7.288-2.816-1.444-.388-2.929-.67-4.319-1.2-1.032-.393-1.942-1.109-2.907-1.68,1.05-1.516,2.19-.252,3.252-.052,1.639.309,3.246.787,4.867,1.194.088-.216.177-.432.265-.648-1.736-.818-3.471-1.636-5.207-2.454-.56-.264-1.184-.445-1.657-.818-.356-.281-.516-.809-.763-1.227.513-.126,1.12-.494,1.521-.336,1.94.764,3.824,1.669,5.982,2.655.462.143.671.154.879.166-.137-.212-.275-.425-.412-.637m3.196,5.403c.031-.096.063-.191.094-.287-.098.033-.197.066-.094.287Z" fill="#ed820e"/><path d="m427.133,753.334c6.997-.809,13.831-1.476,20.621-2.456,1.465-.211,2.767-1.549,4.232-2.505,3.993-.154,7.898-.171,11.934-.028-2.974,2.693-6.079,5.227-9.184,7.761-6.287,4.968-12.574,9.935-18.861,14.903-.19-.105-.38-.21-.569-.314.302-.609.462-1.37.928-1.801,2.782-2.571,5.69-5.008,8.438-7.614,1.194-1.132,2.106-2.561,3.161-4.214.194-2.61-1.001-3.44-3.07-3.263-4.112.351-8.221.742-12.331,1.116-2.067.246-4.129.578-6.202.688-.659.035-1.349-.523-2.025-.809.551-.37,1.082-.774,1.659-1.096.325-.181.724-.229,1.269-.365Z" fill="#cab16a"/><path d="m496.236,751.127c.913-.971,1.964-1.813,3.111-2.776,9.222-.13,18.349-.139,27.683-.137,1.913,1.454,3.619,2.896,5.411,4.469-6.889,1.945-13.942,2.059-21.028.999-5.021-.751-10.026-1.614-15.177-2.556Z" fill="#cab16a"/><path d="m280.787,805.117c-1.469-4.356-1.007-8.111,2.37-11.222,1.131-1.042,2.391-1.555,3.709-.41,1.364,1.185,1.355,2.701.154,3.879-1.967,1.93-1.884,4.032-1.149,6.396.814,2.615,1.228,5.251.051,7.921-1.286,2.918-3.5,4.636-6.555,5.323-1.518.341-2.645-.278-3.07-1.748-.412-1.424.102-2.547,1.534-3.213,3.624-1.687,4.013-2.597,2.954-6.925Z" fill="#29a07f"/><path d="m341.457,816.695c4.178-.303,5.817-3.046,7.243-6.348,2.02-4.676,7.032-6.517,11.8-4.73,1.716.643,2.663,1.757,2.076,3.528-.595,1.795-2.027,2.099-3.772,1.505-2.706-.922-4.205-.293-5.498,2.199-.534,1.028-1.037,2.073-1.536,3.119-1.57,3.287-4.167,5.173-7.799,5.297-1.062.037-2.64-.415-3.088-1.172-.444-.751.237-2.168.573-3.397Z" fill="#29a07f"/><path d="m205.633,803.197c-.617-.822-1.194-1.453-1.675-2.151-.838-1.216-.965-2.493.197-3.555,1.204-1.101,2.498-1.072,3.728.066,2.784,2.575,3.883,5.699,3.077,9.438-.195.906-.469,1.795-.682,2.698-.838,3.563-.339,4.585,2.974,6.194,1.418.689,2.191,1.732,1.61,3.36-.581,1.627-1.841,1.947-3.373,1.581-4.701-1.123-7.681-6.092-6.688-10.922.443-2.154.619-4.364.832-6.708Z" fill="#29a07f"/><path d="m454.936,756.123c2.906-2.551,6.011-5.086,9.212-7.757,7.351-.147,14.607-.156,22.085-.148-.464.745-1.149,1.471-1.967,2.259-3.696.296-7.349.116-10.803.859-5.494,1.181-10.854,2.987-16.277,4.502-.66.184-1.365.205-2.249.285Z" fill="#cab16a"/><path d="m575.026,748.209c1.484,1.491,2.599,3.14,4.059,4.382,1.564,1.329,3.453,2.275,5.354,3.424.551.272,1.047.429,1.319.766.29.358.367.887.538,1.342-.488.065-1.049.319-1.45.163-1.508-.587-2.948-1.351-4.447-1.964-.843-.344-1.754-.521-2.814-1.048-1.065-.74-1.938-1.234-2.839-1.668-3.743-1.803-7.495-3.587-11.244-5.378,3.769-.014,7.539-.027,11.526-.019Z" fill="#cab16a"/><path d="m563.293,748.219c3.955,1.801,7.707,3.585,11.451,5.388.901.434,1.774.927,2.716,1.549-3.279-.782-6.636-1.653-9.948-2.67-6.359-1.952-12.747-3.758-19.488-3.315-2.048.135-4.064.748-6.224,1.266-.983-.565-1.836-1.253-2.765-2.073,7.967-.14,16.009-.147,24.258-.144Z" fill="#cab16a"/><path d="m432.572,755.003c3.97-.459,8.079-.851,12.191-1.201,2.069-.176,3.264.654,3.063,3.096-5.174.443-10.217-.136-15.254-1.895Z" fill="#cab16a"/><path d="m515.91,445.616c5.605,2.193,8.263,6.169,7.384,11.05-.931,5.169-5.126,8.452-10.243,8.015-5.053-.431-8.925-4.647-8.831-9.615.095-5.001,3.951-9.08,9.004-9.518.384-.033.773-.02,1.494-.009.621.038.906.057,1.192.076Z" fill="#ea7c04"/><path d="m570.336,443.751c6.127,1.857,8.95,5.647,8.232,11.055-.619,4.666-4.753,8.257-9.474,8.232-4.887-.027-9.109-3.857-9.587-8.698-.463-4.693,2.72-9.181,7.282-10.223.826-.189,1.68-.25,2.811-.355.29.015.515.047.515.047l.22-.058Z" fill="#ea7c04"/><path d="m514.96,405.635c5.221,2.922,7.249,6.931,5.929,11.722-1.249,4.531-5.676,7.599-10.162,7.042-4.899-.608-8.415-4.343-8.584-9.121-.175-4.947,2.921-8.93,7.674-9.86.606-.118,1.222-.18,2.177-.253,1.218.167,2.092.319,2.966.47Z" fill="#ea7c04"/><path d="m550.005,486.929c4.11,1.628,6.985,4.262,7.146,8.998.188,5.547-3.913,9.927-9.314,10.021-5.376.093-9.721-4.047-9.803-9.34-.085-5.518,3.98-9.672,9.574-9.777.386-.007.773.013,1.499.051.525.036.712.041.898.047Z" fill="#ea7c04"/><path d="m464.303,441.409c5.805,2.632,8.127,7.262,6.309,12.582-1.515,4.434-6.071,7.085-10.62,6.18-4.896-.975-8.173-5.103-7.891-9.942.268-4.601,3.991-8.496,8.545-8.918.69-.064,1.389-.037,2.432-.036.641.056.933.094,1.226.133Z" fill="#ea7c04"/><path d="m515.138,405.557c-1.052-.074-1.926-.225-2.96-.433-1.237-3.332,1.507-4.681,3.221-6.422,1.332-1.353,3.14-1.941,5.062-1.004,1.735.846,2.321,2.912.835,4.158-1.765,1.48-3.968,2.438-6.158,3.701Z" fill="#197e64"/><path d="m516.127,445.583c-.503.014-.788-.005-1.211-.072-1.179-.526-1.593-1.088-.897-2.285,1.392-2.395,3.002-4.451,5.762-5.373,1.606-.537,3.266-.279,3.817,1.133.429,1.098.118,2.977-.614,3.936-1.578,2.067-4.079,2.61-6.857,2.661Z" fill="#197e64"/><path d="m570.563,443.719c-.227.032-.447.09-.447.09,0,0-.226-.032-.329-.081-.233-.761-.678-1.611-.438-2.162,1.113-2.546,2.942-4.412,5.6-5.485,1.7-.686,3.09-.098,3.769,1.19.484.918.491,2.895-.125,3.424-1.495,1.282-3.438,2.09-5.287,2.889-.719.311-1.67.085-2.742.135Z" fill="#197e64"/><path d="m464.505,441.378c-.494-.008-.787-.046-1.223-.126-.721-.369-1.299-.696-1.953-1.067.885-2.949,2.975-4.78,5.256-6.334,1.55-1.056,4.233-.483,5.024.886,1.028,1.78.104,3.319-1.285,4.184-1.712,1.067-3.732,1.64-5.82,2.457Z" fill="#197e64"/><path d="m550.203,486.914c-.384.009-.57.003-.889-.05-.682-.285-1.231-.522-1.773-.756.355-2.875,3.751-6.838,6.439-6.983,1.253-.068,3.051.593,3.683,1.539.455.68-.233,2.936-1.077,3.506-1.837,1.243-4.098,1.858-6.384,2.745Z" fill="#197e64"/><path d="m563.308,737.101c-.018-.065.126-.032.151-.005.025.027.027.129-.016.155-.043.027-.117-.086-.135-.151Z" fill="#fefad9"/><path d="m465.92,737.359c-.07-.191.044-.284.317-.336.112-.017.139.168.123.259-.112.1-.207.109-.44.076Z" fill="#ed966c"/><path d="m72.759,737.282c-4.166-9.467-7.349-19.121-9.28-29.164-.261-1.359-.399-2.742-.48-4.327.28-.269.446-.325.612-.381.461.534,1.254,1.022,1.335,1.609,1.357,9.79,4.474,19.069,8.038,28.225.476,1.223.939,2.45,1.445,3.829-.472.193-.981.234-1.67.209Z" fill="#073b2d"/><path d="m382.84,737.478c.102-.184.427-.331,1.125-.447,26.32.022,52.267.013,78.213.004,0,0,.129.162.148.264-.517.148-1.052.234-1.588.233-25.892-.001-51.784-.01-77.897-.055Z" fill="#ed966c"/><path d="m357.308,735.313c4.138-1.834,8.228-2.097,12.565.328-.664.549-1.109.916-1.631,1.402-1.423.216-2.769.315-4.456.314-1.213-.27-2.085-.442-3.121-.667-1.228-.495-2.293-.936-3.357-1.378Z" fill="#fcfcfc"/><path d="m461.869,736.454c-26.058.17-52.004.179-78.188.176-38.504.745-27.472,1.727-28.888-17.07,29.367-.428,76.569-.182,105.865-.034,3.521,1.465.632,12.957,1.211,16.927m-12.735-12.38c-3.482.575-2.182,4.509.328,5.231,3.67.65,3.937-5.718-.328-5.231Z" fill="#dd8600"/><path d="m452.54,692.736c-2.243,1.177-4.348,2.249-6.877,3.537-1.23-.559-3.169-1.441-5.766-2.622,1.911-1.659,3.605-3.129,5.391-4.705.934-.476,1.744-1.038,2.623-1.182,3.361-.551,5.716-2.188,7.203-5.369.395-.844,2.26-1.68,3.138-1.428.884.253,1.843,1.812,1.962,2.888.454,4.111-2.694,7.615-7.674,8.881Z" fill="#29a07f"/><path d="m112.423,726.752c-1.087-.099-2.175-.198-3.441-.299-3.03-1.278-4.577-3.611-5.14-6.551-.161-.844.163-2.128.758-2.658.457-.407,2.021-.29,2.51.189,1.527,1.498,2.777,3.278,3.972,4.749.39-.791.78-2.461,1.82-3.441.972-.916,2.635-1.098,3.993-1.604.255,1.265.872,2.593.668,3.779-.222,1.288-1.207,2.445-1.87,3.824-.011.164,0,.174-.154.19-1.142.618-2.129,1.22-3.116,1.822Z" fill="#fcfcfc"/><path d="m452.233,708.987c-1.986,1.495-3.744,1.523-4.373-.075-.374-.949-.249-2.54.348-3.285.489-.609,2.174-.802,3.033-.453,1.561.634,1.901,2.091.992,3.812Z" fill="#fde6ec"/><path d="m365.757,709.959c-1.892-1.096-2.244-2.552-1.14-4.142.836-1.205,2.139-1.482,3.457-.666,1.396.864,1.878,2.304.936,3.527-.6.779-2.026.922-3.253,1.28Z" fill="#fde6ec"/><path d="m141.399,717.145c.329.289.484.538.728.904-.048,1.475-.187,2.833-.427,4.447-1.59,1.639-3.078,3.023-4.566,4.408-1.942-.165-3.884-.33-6.04-.504-.318-.593-.314-1.223-.545-1.752-.752-1.724-1.959-3.34-2.301-5.129-.448-2.344,1.258-3.462,3.228-2.06,1.623,1.155,2.697,3.081,3.985,4.63,1.09-2.101,1.657-5.567,5.936-4.943Z" fill="#fcfcfc"/><path d="m137.273,727.01c1.35-1.491,2.838-2.876,4.473-4.331,2.757,1.349,5.367,2.77,8.132,4.239-2.179.519-4.503,1.291-6.848,1.363-1.86.057-3.745-.744-5.757-1.271Z" fill="#fbfcdc"/><path d="m112.543,726.891c.867-.74,1.854-1.342,2.999-1.954-.044.729-.246,1.467-.58,2.317-.854,0-1.577-.112-2.42-.363Z" fill="#259e7d"/><path d="m245.238,801.07c.239.116.377.328.514.541-.208-.012-.417-.023-.715-.136-.027-.17.036-.239.201-.405Z" fill="#e9e3d2"/><path d="m248.435,806.283c-.002-.127.096-.16.195-.193-.031.096-.063.191-.195.193Z" fill="#e9e3d2"/><path d="m449.74,724.474c2.086.036,3.083,1.149,2.957,2.911-.11,1.537-1.296,2.738-2.815,2.34-.994-.26-2.138-1.465-2.441-2.477-.414-1.387.618-2.427,2.299-2.774Z" fill="#fde6ec"/><path d="m499.563,799.952c1.457-.719,2.748-1.432,4.122-1.899.467-.159,1.145.303,1.726.481-.397.402-.728.922-1.203,1.182-1.076.589-2.328.897-3.32,1.589-3.551,2.478-3.449,5.764.179,8.195.511.343,1.136.533,1.604.919.502.414.882.976,1.315,1.474-.713.044-1.574.366-2.109.078-1.343-.722-2.54-1.717-3.792-2.608-.392-.279-.772-.573-1.297-.964.091,2.373,1.726,4.338.771,6.502-.297.08-.594.159-.891.239-.767-2.661-1.534-5.322-2.3-7.983-.216.03-.432.06-.648.091.121,1.766.247,3.531.36,5.297.045.695.161,1.408.058,2.084-.079.519-.452.994-.694,1.489-.364-.499-.985-.968-1.047-1.502-.277-2.379-.393-4.776-.965-7.241-.487,2.048-.89,4.121-1.501,6.13-.252.827-.953,1.516-1.449,2.268-.094-.907-.385-1.846-.243-2.714.337-2.049.881-4.064,1.341-6.093-.279-.084-.559-.169-.838-.253-.985,2.116-1.922,4.256-2.987,6.332-.299.583-.971.975-1.471,1.454-.04-.728-.251-1.5-.08-2.175.244-.961.722-1.875,1.181-2.767,1.577-3.067,1.326-5.999-.545-8.849-.382-.581-.822-1.164-1.027-1.811-.216-.684-.184-1.446-.26-2.175.598.462,1.356.815,1.764,1.408,1.162,1.69,2.182,3.478,3.603,5.788.437-3.821-1.658-6.929-.732-10.049.332-.037.664-.074.996-.111.362,1.596.74,3.19,1.081,4.79.327,1.535.617,3.078.923,4.617.238.012.477.023.715.035.405-1.499.826-2.994,1.21-4.498.23-.899.3-1.852.633-2.705.269-.689.826-1.266,1.255-1.893.16.794.541,1.619.435,2.375-.225,1.601-.722,3.163-1.071,4.749-.142.646-.189,1.314-.28,1.972.192.062.384.123.576.185.53-1.358,1.077-2.71,1.585-4.076.431-1.159.754-2.362,1.253-3.489.18-.405.733-.645,1.116-.96.189.513.635,1.096.52,1.528-.399,1.488-.994,2.924-1.719,4.95.913-.581,1.462-.931,2.144-1.382Z" fill="#ed820e"/><path d="m417.247,803.596c-1.425-1.307-2.905-2.562-4.249-3.949-.511-.527-.709-1.357-1.049-2.048.711.228,1.549.291,2.109.718,1.289.983,2.43,2.157,3.659,3.222.469.407,1.014.727,1.524,1.087.185-.176.371-.351.556-.527-1.093-1.494-2.186-2.989-3.28-4.482-.366-.5-.858-.949-1.071-1.506-.205-.536-.125-1.181-.17-1.778.502.213,1.116.31,1.48.664.603.586,1.107,1.301,1.545,2.027,2.128,3.533,5.258,4.925,9.304,4.528,1.055-.104,2.129-.016,3.603-.016-.881,2.473-2.737,1.629-4.071,1.804-1.473.194-2.976.167-4.466.237l-.06.598c2.012.678,4.061,1.264,6.018,2.074.92.381,1.661,1.195,2.484,1.812-1.059-.032-2.169.127-3.167-.137-2.062-.545-4.064-1.316-6.09-1.995-.134.155-.268.31-.402.465.346.475.629,1.018,1.05,1.412,1.469,1.376,3.034,2.654,4.457,4.074.442.441.551,1.216.812,1.839-.644-.165-1.43-.151-1.905-.529-1.676-1.332-3.244-2.798-4.854-4.213-.22.195-.44.39-.66.585,1.092,1.259,2.268,2.458,3.248,3.799.698.955,1.133,2.102,1.685,3.163-.975-.637-2-1.211-2.91-1.93-.695-.549-1.245-1.282-2.134-2.223,0,2.578.084,4.691-.059,6.79-.035.522-.801.995-1.23,1.491-.161-.607-.424-1.207-.462-1.821-.103-1.664.214-3.426-.225-4.983-.853-3.03-3.1-3.93-5.985-2.669-.98.428-1.82,1.17-2.787,1.637-.458.221-1.066.134-1.606.186.181-.527.207-1.221.567-1.555,2.019-1.876,4.438-2.758,7.288-2.816-1.444-.388-2.929-.67-4.319-1.2-1.032-.393-1.942-1.109-2.907-1.68,1.05-1.516,2.19-.252,3.252-.052,1.639.309,3.246.787,4.867,1.194.088-.216.177-.432.265-.648-1.736-.818-3.471-1.636-5.207-2.454-.56-.264-1.184-.445-1.657-.818-.356-.281-.516-.809-.763-1.227.513-.126,1.12-.494,1.521-.336,1.94.764,3.824,1.669,5.982,2.655.462.143.671.154.879.166-.137-.212-.275-.425-.412-.637m3.196,5.403c.031-.096.063-.191.094-.287-.098.033-.197.066-.094.287Z" fill="#ed820e"/><path d="m452.694,807.74c-1.469-4.356-1.007-8.111,2.37-11.222,1.131-1.042,2.391-1.555,3.709-.41,1.364,1.185,1.355,2.701.154,3.879-1.967,1.93-1.884,4.032-1.149,6.396.814,2.615,1.228,5.251.051,7.921-1.286,2.918-3.5,4.636-6.555,5.323-1.518.341-2.645-.278-3.07-1.748-.412-1.424.102-2.547,1.534-3.213,3.624-1.687,4.013-2.597,2.954-6.925Z" fill="#29a07f"/><path d="m513.364,819.318c4.178-.303,5.817-3.046,7.243-6.348,2.02-4.676,7.032-6.517,11.8-4.73,1.716.643,2.663,1.757,2.076,3.528-.595,1.795-2.027,2.099-3.772,1.505-2.706-.922-4.205-.293-5.498,2.199-.534,1.028-1.037,2.073-1.536,3.119-1.57,3.287-4.167,5.173-7.799,5.297-1.062.037-2.64-.415-3.088-1.172-.444-.751.237-2.168.573-3.397Z" fill="#29a07f"/><path d="m141.995,800.914c-.99.276-1.788.584-2.612.778-1.437.339-2.673-.007-3.241-1.476-.588-1.522-.091-2.717,1.417-3.449,3.411-1.657,6.721-1.547,9.911.564.773.511,1.502,1.09,2.265,1.615,3.015,2.076,4.148,1.982,6.851-.519,1.157-1.071,2.41-1.412,3.715-.279,1.305,1.133,1.144,2.423.247,3.717-2.755,3.971-8.467,4.942-12.606,2.262-1.846-1.196-3.84-2.162-5.947-3.213Z" fill="#29a07f"/><path d="m417.145,803.693c.239.116.377.328.514.541-.208-.012-.417-.023-.715-.136-.027-.17.036-.239.201-.405Z" fill="#e9e3d2"/><path d="m94.481,789.838c-.002-.127.096-.16.195-.193-.031.096-.063.191-.195.193Z" fill="#e9e3d2"/></g><g id="b"><path d="m472.908,431.053c.537.177,1.075.354,1.654.849.039,6.7.379,13.106-.077,19.455-.367,5.118.791,9.053,5.31,11.74.465.277.803.761,1.219,1.128,5.086,4.488,10.175,8.971,15.273,13.638-.026.799-.045,1.417-.1,2.032-.51,5.658-1.027,11.316-1.543,17.149-.134.919-.38,1.663-.383,2.408-.023,5.056.004,10.113-.103,15.309-.327,5.872-.553,11.603-.74,17.335-.162,4.979-.285,9.96-.416,14.94-.282,10.723-.557,21.445-.839,32.168-.134,5.119-.29,10.237-.41,15.356-.16,6.852-.277,13.705-.448,20.557-.09,3.594-.292,7.185-.378,10.779-.29,12.109-.55,24.218-.822,36.328-.02.461-.041.921-.266,1.545-6.873.166-13.541.169-20.32.037-.583-6.053-1.09-11.969-1.52-17.891-.471-6.478-.819-12.965-1.316-19.441-.623-8.123-1.364-16.237-2.017-24.358-.58-7.228-1.113-14.46-1.659-21.691-.703-9.298-1.42-18.595-2.09-27.895-.466-6.478-.831-12.964-1.337-19.44-.052-.666-.756-1.282-1.157-1.921-.413.578-1.068,1.104-1.203,1.741-1.733,8.176-3.398,16.366-5.069,24.555-2.984,14.618-5.943,29.241-8.945,43.855-3.252,15.833-6.528,31.66-9.823,47.484-1.053,5.056-2.199,10.093-3.499,15.132-7.004-.003-13.811,0-20.627-.181.559-6.23,1.116-12.278,1.698-18.323.41-4.259.854-8.514,1.284-12.771.527-5.216,1.064-10.431,1.58-15.648.462-4.671.888-9.345,1.356-14.015.646-6.452,1.332-12.901,1.97-19.354.469-4.74.872-9.486,1.333-14.226.514-5.287,1.073-10.569,1.59-15.856.463-4.74.87-9.486,1.348-14.225.637-6.314,1.327-12.623,1.98-18.936.539-5.215,1.092-10.429,1.568-15.65.219-2.4.473-4.827.344-7.222-.159-2.953-.683-5.887-1.08-8.826-.515-3.812-1.061-7.619-1.53-11.547,1.567-1.556,3.078-2.985,4.573-4.431,4.537-4.389,9.092-8.76,13.571-13.206.622-.617,1.208-1.62,1.216-2.45.074-7.98.02-15.962.002-23.943.404-.341.809-.682,1.301-.722.085,7.931.126,15.562.046,23.192-.017,1.627.426,2.135,2.094,2.12,8.462-.081,16.926-.035,25.389-.043.605,0,1.209-.08,2.015-.137v-26.483m-24.656,40.783c-1.739-.267-2.629.286-2.377,2.23.142,1.092.015,2.218.027,3.329.05,4.631,3.547,8.147,8.168,8.192,2.43.024,4.86.017,7.29.001,3.839-.025,6.873-2.151,7.874-5.856.441-1.631.357-3.421.392-5.141.055-2.751.013-2.754-2.644-2.755-6.109-.001-12.219,0-18.73,0Z" fill="#b5b29c"/><path d="m212.736,511.883c4.054,23.217,8.114,46.433,12.16,69.651,3.413,19.586,6.801,39.177,10.218,58.762,2.975,17.049,5.985,34.093,8.959,51.142,1.082,6.204,2.105,12.419,2.944,18.81-4.419.181-8.627.181-12.932.069-.318-.768-.559-1.418-.757-2.081-10.664-35.598-21.326-71.197-31.985-106.797-4.335-14.479-8.65-28.964-13.035-43.427-.242-.797-1.053-1.422-1.599-2.127-.472.798-1.262,1.559-1.361,2.402-.494,4.197-.79,8.418-1.187,12.627-1.335,14.145-2.704,28.287-4.019,42.434-1.187,12.768-2.306,25.543-3.483,38.312-1.495,16.221-3.008,32.44-4.539,48.657-.325,3.441-.76,6.872-1.344,10.286-4.652-.081-9.104-.14-13.556-.199-.037-.571-.075-1.143-.155-1.881-.302-6.951-.53-13.737-.828-20.519-.32-7.27-.743-14.535-1.057-21.804-.767-17.728-1.483-35.458-2.249-53.186-.527-12.187-1.089-24.372-1.661-36.557-.494-10.521-1.026-21.041-1.532-31.561-.026-.551.033-1.106.277-1.895.931-2.245,1.475-4.33,2.371-6.25,4.063-8.702,10.237-15.862,16.82-22.713.645-.672,1.126-1.501,1.879-2.282,9.94-.014,19.684-.013,29.428.013,4.074.011,8.148.075,12.222.115Z" fill="#4185bc"/><path d="m496.278,477.682c-5.088-4.485-10.178-8.969-15.263-13.456-.416-.367-.754-.852-1.219-1.128-4.519-2.686-5.677-6.622-5.31-11.74.456-6.349.116-12.755.131-19.334,1.585.492,3.158,1.182,4.88,1.89.866.438,1.564.895,2.303,1.27,13.664,6.931,27.32,13.878,41.008,20.763,6.029,3.033,10.6,7.249,12.225,14.081,1.99,8.369-1.076,16.23-8.585,21.289-2.838-4.093-5.47-8.084-8.026-12.186,3.316-3.69,3.228-6.754-.628-8.854-6.208-3.38-12.604-6.413-18.928-9.58-.163-.082-.404-.01-1-.01-.528,5.647-1.058,11.322-1.588,16.996Z" fill="#9abed2"/><path d="m429.887,663.938c-.705,4.955-1.552,9.915-2.519,14.851-1.686,8.599-3.45,17.183-5.168,25.777-.094.471-.065.967-.102,1.629-1.238,6.053-2.482,11.925-3.69,17.804-.888,4.322-1.73,8.653-2.639,13.213-12.549,0-24.999,0-37.612-.179.092-2.261,1.429-2.991,3.36-3.211,2.571-.293,5.124-.752,7.871-1.131,2.566-.352,4.979-.566,7.316-1.108,3.146-.73,5.39-2.674,5.831-5.98.61-4.569.941-9.175,1.484-13.904,1.811-16.012,3.53-31.885,5.249-47.757,6.807-.003,13.615-.006,20.619-.003Z" fill="#16281e"/><path d="m470.489,681.163c-.299-5.733-.584-11.287-.863-17.031,6.674-.193,13.342-.196,20.202-.19.046,10.128-.082,20.247-.253,30.366-.068,4.015-.248,8.029-.35,12.044-.15,5.887-.312,11.774-.4,17.662-.063,4.237,2.562,7.202,6.785,7.784,5.132.707,10.267,1.389,15.401,2.08,2.127.286,3.03,1.232,2.934,3.197h-39.574c-1.294-18.652-2.581-37.192-3.882-55.912Z" fill="#16281e"/><path d="m389.2,732.683c-2.561.388-5.113.847-7.685,1.139-1.931.22-3.268.95-3.557,3.179-3.493.147-6.951.148-10.668.005-1.902-3.716-4.368-6.502-8.367-7.192-3.763-.649-7.395.021-10.391,2.955l-.461-.43c0-2.597,0-5.194,0-7.791.008-2.591.017-5.181-.02-7.963-.025-5.246-.005-10.302.014-15.357.012-3.129.796-3.919,3.949-3.928,4.504-.012,9.009-.008,13.737.009.224.02.293.103.251.279-.057,4.264-.106,8.353-.077,12.442.028,3.814-.681,3.428,3.601,3.457.139,0,.329.057.407-.013.475-.421,1.316-.867,1.321-1.313.054-4.916-.023-9.833-.031-14.792.034-.042.093-.132.288-.107,4.771.028,9.348.02,13.924.039,2.924.012,3.709.801,3.733,3.706.037,4.435.063,8.871.055,13.498-.035,6.187-.031,12.183-.027,18.178Z" fill="#24513a"/><path d="m518.345,479.242c2.632,3.991,5.264,7.981,7.964,12.107-5.139,3.54-10.285,7.046-15.584,10.3-2.073,1.273-3.023,2.674-2.87,5.151.187,3.034.16,6.14-2.361,8.65-4.667,2.796-6.865,2.641-11.102-.735-.125-5.149-.153-10.206-.129-15.262.003-.745.249-1.489.495-2.493,1.878-3.308,4.3-5.655,7.344-7.457,3.141-1.86,6.156-3.933,9.24-5.89,2.323-1.475,4.669-2.914,7.004-4.369Z" fill="#d2ab99"/><path d="m479.782,406.52c-.127-.051-.319-.078-.447-.22-2.039-1.851-3.949-3.561-5.909-5.406-5.585-5.002-11.121-9.869-16.715-14.871-1.564-1.222-3.071-2.31-4.577-3.397-1.67-1.698-3.267-3.476-5.027-5.074-2.299-2.087-4.757-4-7.077-6.066-.456-.406-.595-1.17-.879-1.768.204-.164.409-.327.613-.491,1.536,1.279,3.091,2.536,4.604,3.841,2.302,1.986,4.533,4.058,6.893,5.97.521.422,1.578.653,2.183.425,4.599-1.728,9.247-2.811,14.359-1.778,4.514,1.296,8.36,3.409,11.301,6.916,4.697,5.599,5.906,11.967,3.628,18.858-.749,2.266-.078,3.559,1.568,4.934,3.982,3.328,7.884,6.753,11.768,10.195.41.363.491,1.099.725,1.662-.592-.118-1.354-.039-1.751-.383-5.075-4.397-10.097-8.855-15.26-13.348Z" fill="#fcc7b4"/><path d="m232.51,736.219c-1.389-10.668-2.555-21.322-3.696-31.983-.641-5.993-1.239-11.997-1.875-18.357,5.231-.36,10.481-.36,15.979-.361,2.782,8.3,5.212,16.685,7.894,24.866,1.295,3.949,2.879,7.75,4.66,11.199,3.047,5.903,7.68,5.97,11.948,7.382,1.887.624,3.683,1.939,5.682,3.08.245,1.332.328,2.524.445,4.201-7.811,0-15.487,0-23.519-.214-3.763-2.912-7.169-5.61-11.146-8.759v8.943c-2.046.005-4.093.01-6.372.004Z" fill="#16281e"/><path d="m173.497,687.692c.216,4.135.188,8.228.162,12.689-.517,10.751-1.413,20.705-.952,31.26.165,3.606-.581,5.121-2.957,4.566-.735-.172-1.501-.027-2.531-.027-.099-2.308-.185-4.32-.288-6.732-.836.873-1.689,1.362-2.146,2.308-2.246,4.641-5.36,4.689-8.67,4.478-3.717-.236-7.444-.054-11.215-.054-.62-4.307,1.151-5.336,2.973-6.175.801-.369,1.675-.34,2.504-.589,4.25-1.276,4.939-2.136,5.367-8.863.602-11.059,1.16-21.692,1.129-32.867,5.472-.259,10.926-.147,16.625.006Z" fill="#16281e"/><path d="m347.89,724.513c.184,2.631.184,5.228.184,7.825l.461.43c2.996-2.933,6.627-3.603,10.391-2.955,3.999.689,6.465,3.476,8.173,7.171-13.881.124-27.826.124-41.776.124.458-7.975,11.719-14.29,22.568-12.596Z" fill="#448c47"/><path d="m243.971,736.24c-.201-1.311-.201-2.612-.201-4.561,3.188,1.603,5.918,2.976,8.741,4.459-2.718.111-5.528.112-8.539.102Z" fill="#e3e9ee"/><path d="m212.811,511.716c-4.148.127-8.222.063-12.297.052-9.744-.026-19.488-.027-29.52-.041-.288-.003-.472-.058-.476-.208-.153-.526-.232-.953-.461-1.272-4.897-6.824-8.849-14.173-12.268-21.832-1.63-3.652-3.429-7.228-5.149-11.005.822-3.119,1.642-6.072,2.525-9.045.017-.011-.029-.002-.228.017-1.71.747-3.398,1.294-4.802,2.256-5.924,4.06-11.768,8.237-17.622,12.399-.361.257-.556.749-1.018,1.14-5.299-.125-10.409-.259-15.518-.393.203-5.023,2.417-9.18,6.243-12.181,7.123-5.587,14.183-11.307,22.31-15.471,6.973-3.573,14.376-5.548,22.131-6.586,8.402-1.125,16.818-1.231,25.257-1.157.411.004.821.088,1.462.367,2.131.849,4.069,1.371,5.924,2.102,6.007,2.364,10.903,6.21,14.761,11.374,5.05,6.76,7.009,14.459,6.863,22.788-.213,1.133-.314,2.301-.658,3.393-2.287,7.259-4.627,14.501-6.949,21.748-.148.462-.291.926-.511,1.555m-10.431-44.205c-2.842,0-5.684.04-8.524-.017-1.232-.025-1.824.375-1.708,1.667.062.688-.163,1.452.067,2.058.207.544.852,1.303,1.315,1.311,5.196.093,10.395.093,15.592,0,.468-.008,1.119-.755,1.328-1.296.232-.604.006-1.37.068-2.058.114-1.276-.439-1.725-1.691-1.683-2.008.068-4.019.017-6.445.017Z" fill="#99bed2"/><path d="m441.922,433.143c.158,7.965.212,15.946.138,23.926-.008.83-.594,1.833-1.216,2.45-4.479,4.447-9.034,8.817-13.571,13.206-1.495,1.446-3.006,2.876-4.614,4.579-2.474,6.092-5.39,11.614-9.297,16.528-4.23-2.58-8.367-5.05-12.504-7.52,4.897-9.306,9.557-18.746,14.751-27.883,6.21-10.924,14.64-19.756,26.312-25.287Z" fill="#9abed2"/><path d="m473.475,401.03c1.911,1.71,3.822,3.419,5.763,5.271-1.756,8.259-9.912,16.844-21.709,16.023-9.101-.633-16.828-7.988-18.382-17.295-1.654-9.909,4.371-19.406,12.838-22.366,1.656,1.052,3.162,2.14,4.755,3.501,2.171,5.2,5.669,8.964,10.079,11.815,2.029,1.311,4.426,2.052,6.656,3.052m-15.877,5.149c.118-.662.237-1.323.332-1.857-1.861.919-3.519,1.716-5.15,2.566-.241.126-.554.599-.484.739.158.32.583.794.81.749,1.572-.31,3.428-.072,4.492-2.198m-6.998-9.702c-.523-.418-1.047-.836-1.57-1.255-.183.57-.366,1.14-.549,1.71.676-.061,1.352-.121,2.119-.455Z" fill="#d2aa98"/><path d="m213.567,405.901c2.683,9.623-1.924,19.955-10.228,24.815-9.187,5.377-20.317,4.04-27.857-3.551-5.161-5.195-6.881-11.691-6.027-19.048,12.306,4.74,22.283,1.259,30.752-8.198,3.385,4.53,7.701,6.791,13.36,5.982m-20.077,13.943c1.47.482,2.924,1.029,4.421,1.4.349.086.845-.425,1.274-.662-.375-.301-.706-.722-1.134-.881-1.261-.469-2.552-.863-3.849-1.222-.389-.108-.835-.006-1.255,0,.1.4.2.801.543,1.366m2.774-11.607c-.731.011-1.477-.047-2.179.102-.113.024-.238,1.147.015,1.443.316.369,1.335.701,1.493.531.423-.454.548-1.186.671-2.076m9.597,1.22c-.486-.52-.911-1.138-1.495-1.499-.166-.103-1.028.47-1.145.861-.124.415.269,1.414.414,1.41.717-.021,1.426-.29,2.226-.772Z" fill="#e4c8bd"/><path d="m235.938,476.304c1.692.302,2.695-.543,3.047-2.074.709-3.084,1.492-6.17,1.894-9.301,1.08-8.404,1.722-16.872,3.042-25.235.746-4.728,3.06-8.877,7.616-11.326,3.405-1.83,7.21-.903,10.087,2.607,1.888,2.303,1.844,6.779-.53,8.984-2.021,1.877-2.751,4.148-3.026,6.615-.557,5.003-.819,10.038-1.34,15.045-.713,6.852-1.084,13.772-4.324,20.11-3.376,6.602-8.565,10.127-16.269,9.796-.193-5.206-.195-10.213-.197-15.221Z" fill="#e4c8be"/><path d="m365.948,697.284c-.013-.947.018-1.849.018-2.751.009-56.033.015-112.067.198-168.248,1.803-.04,3.429.067,5.071.366.022,56.089.028,111.986.036,167.884,0,.901.032,1.802.048,2.702,0,0-.059.09-.267.075-1.807.023-3.407.061-5.006.1,0,0-.069-.083-.099-.128Z" fill="#16281e"/><path d="m371.219,526.46c-1.626-.108-3.252-.215-5.037-.366-1.228-1.002-2.297-1.961-3.478-3.154-.282-1.866-.454-3.499-.625-5.131.882-6.229,4.278-10.609,9.996-13.061,6.949-2.979,14.03-5.737,20.094-10.338,3.061-2.323,5.654-5.263,8.574-8.01,4.252,2.383,8.389,4.853,12.556,7.562-1.824,2.458-3.516,4.841-5.565,6.864-5.454,5.385-11.866,9.432-18.732,12.779-2.84,1.384-5.705,2.717-8.709,4.11-1.273.672-2.66,1.086-3.437,2.012-.667.794-.635,2.174-1.034,3.375-1.616,1.173-3.11,2.266-4.605,3.359Z" fill="#d2aa98"/><path d="m472.748,431.04c.16,8.801.16,17.589.16,26.497-.806.057-1.41.137-2.015.137-8.463.008-16.927-.038-25.389.043-1.668.016-2.111-.493-2.094-2.12.08-7.63.039-15.261.05-23.081,9.571-3.848,19.279-4.229,29.288-1.477Z" fill="#9abed2"/><path d="m115.965,483.964c5.121-.046,10.23.088,15.555.369,1.826,2.272,3.196,4.648,5.1,6.465,3.192,3.046,6.632,5.856,10.139,8.542,3.937,3.015,8.065,5.783,12.18,8.787.48,1.324.89,2.519,1.225,3.832-2.273,3.766-4.473,7.413-6.673,11.061-2.509-1.681-5.092-3.261-7.513-5.061-7.977-5.932-16.123-11.69-22.935-19.001-3.862-4.144-6.856-8.859-7.079-14.994Z" fill="#e4c8be"/><path d="m213.531,405.738c-5.622.972-9.939-1.289-13.324-5.819-8.47,9.457-18.447,12.938-30.732,7.998,1.195-6.848,4.606-12.251,10.609-15.886,12.787-7.743,29.336-1.032,33.447,13.707Z" fill="#bd4f21"/><path d="m235.79,476.274c.15,5.037.152,10.045.157,15.249-5.819.029-10.511-2.686-14.899-6.431.025-8.401-1.933-16.1-6.983-22.86-3.858-5.164-8.755-9.01-14.761-11.374-1.856-.73-3.793-1.252-5.787-1.997,9.194.361,17.38,3.577,24.023,10.139,4.436,4.382,8.483,9.157,12.875,13.588,1.473,1.486,3.47,2.453,5.376,3.687Z" fill="#86adc1"/><path d="m163.462,393.386c-5.741.672-10.564-2.876-11.464-8.294-.863-5.201,2.517-10.092,7.801-11.286,5.216-1.179,10.221,1.819,11.678,7.121,1.77,6.442-2.959,11.889-8.016,12.459Z" fill="#bd4f21"/><path d="m153.482,523.174c2.209-3.803,4.409-7.45,6.866-11.235,3.563-.182,6.869-.226,10.174-.27,0,0,.184.055.276.083-.465.784-.946,1.614-1.592,2.285-6.584,6.851-12.757,14.011-16.82,22.713-.896,1.92-1.44,4.004-2.278,6.105.132-6.608,1.161-13.172,3.374-19.681Z" fill="#1168ad"/><path d="m356.719,423.518c3.004-1.131,4.385-3.433,5.165-6.689.918,3.947,3.009,6.262,6.974,7.332-4.406.464-5.921,3.238-6.896,7.114-.892-4.144-3.142-6.408-7.201-7.112.795-.264,1.305-.433,1.958-.646Z" fill="#498f4c"/><path d="m258.479,452.932c-.925-3.4-3.173-5.095-6.74-5.737,3.904-.884,6.128-3.141,7.033-7.152,1.087,3.969,3.273,6.223,6.947,7.144-4.107.523-5.961,3.12-6.824,7.086-.209-.679-.289-.938-.417-1.342Z" fill="#498f4c"/><path d="m259.304,376.7c-3.824.452-4.825,3.421-6.065,6.714-.793-3.971-2.897-6.193-7.024-6.862,4.009-1.008,6.117-3.305,7.012-7.266.916,3.696,2.883,6.032,6.269,6.995.051.015.128.116.116.145-.039.095-.113.176-.309.274Z" fill="#9abed2"/><path d="m361.894,517.785c.357,1.657.529,3.289.69,5.083-1.807.161-3.604.197-5.399.149-1.635-.044-2.813-.775-2.975-2.528-.144-1.563,1.042-2.665,2.94-2.743,1.517-.062,3.038.005,4.744.039Z" fill="#2b5641"/><path d="m353.966,575.889c1.81.658,2.781,1.962,2.181,3.563-.377,1.005-1.63,2.008-2.7,2.346-1.48.468-2.638-.532-3.169-2.002-.78-2.16.813-3.916,3.688-3.907Z" fill="#29553f"/><path d="m285.668,516.043c-.587-2.424.119-3.944,1.915-4.436,1.644-.451,3.396.618,3.815,2.328.383,1.559-.638,3.508-2.272,3.569-1.109.042-2.253-.845-3.459-1.461Z" fill="#29553f"/><path d="m347.015,566.068c1.551,1.283,2.052,2.872.824,4.242-.715.798-2.257,1.308-3.357,1.205-1.659-.155-2.544-2.088-2.078-3.661.572-1.928,2.21-2.611,4.61-1.786Z" fill="#29553f"/><path d="m233.145,628.272c-1.024-1.659-.907-3.238.551-4.144.884-.549,2.594-.767,3.351-.261.861.575,1.566,2.166,1.468,3.236-.227,2.469-2.977,3.059-5.37,1.169Z" fill="#29553f"/><path d="m348.352,651.999c-.718,1.633-1.893,2.672-3.456,2.143-1.006-.341-2.225-1.445-2.418-2.396-.19-.94.531-2.435,1.337-3.09.642-.522,2.371-.573,2.975-.067.846.71,1.095,2.131,1.562,3.409Z" fill="#2b5641"/><path d="m274.238,619.666c-2.418-.465-3.524-1.822-3.134-3.635.359-1.667,1.893-2.727,3.533-2.44,1.728.302,3.097,2.044,2.42,3.628-.431,1.008-1.737,1.642-2.819,2.447Z" fill="#29553f"/><path d="m302.112,490.225c1.121,1.665,1.075,3.164-.346,4.378-1.257,1.074-2.695,1.047-3.957-.039-1.182-1.018-1.429-2.336-.721-3.744.9-1.79,2.86-2.057,5.024-.595Z" fill="#29553f"/><path d="m448.453,471.836c6.31,0,12.42,0,18.529,0,2.656,0,2.699.004,2.644,2.755-.034,1.72.049,3.51-.392,5.141-1.001,3.706-4.035,5.831-7.874,5.856-2.43.016-4.86.022-7.29-.001-4.621-.045-8.117-3.561-8.168-8.192-.012-1.111.114-2.237-.027-3.329-.252-1.944.638-2.496,2.578-2.23Z" fill="#dd6b47"/><path d="m366.036,697.352c1.725-.217,3.406-.256,5.269-.237.226,5.04.308,10.023.251,15.004-.005.451-.889.903-1.388,1.33-.082.07-.282.014-.428.013-4.501-.03-3.756.361-3.785-3.503-.031-4.143.021-8.286.081-12.607Z" fill="#16281e"/><path d="m479.782,406.52c-3.015-1.197-6.329-2.224-9.132-4.04-6.096-3.95-10.932-9.165-13.852-16.182,7.613,6.549,15.265,13.292,22.985,20.222Z" fill="#342b28"/><path d="m158.939,508.126c-1.819-5.301-3.711-10.43-5.273-15.657-1.414-4.731-2.073-9.597-1.047-14.719,1.742,3.437,3.54,7.013,5.17,10.665,3.419,7.659,7.371,15.008,12.268,21.832.229.319.308.746.461,1.272-3.302.194-6.607.238-10.097.301-.593-1.176-1.003-2.37-1.483-3.694Z" fill="#86adc1"/><path d="m202.588,467.512c2.218,0,4.23.051,6.237-.017,1.251-.042,1.805.406,1.691,1.683-.062.688.165,1.454-.068,2.058-.208.541-.86,1.288-1.328,1.296-5.196.092-10.395.092-15.592,0-.463-.008-1.108-.767-1.315-1.311-.23-.606-.005-1.371-.067-2.058-.116-1.293.476-1.693,1.708-1.667,2.84.058,5.683.018,8.732.017Z" fill="#89a389"/><path d="m155.093,468.376c.043-.012.089-.021.072-.011-.063.02-.07.014-.072.011Z" fill="#e2e9ee"/><path d="m457.502,406.308c-.968,1.998-2.824,1.76-4.396,2.07-.227.045-.652-.429-.81-.749-.069-.141.243-.614.484-.739,1.631-.85,3.288-1.647,5.15-2.566-.095.533-.214,1.195-.427,1.985Z" fill="#d68561"/><path d="m450.554,396.614c-.721.197-1.397.258-2.074.318.183-.57.366-1.14.549-1.71.523.418,1.047.836,1.525,1.391Z" fill="#16281e"/><path d="m193.369,419.761c-.221-.483-.322-.883-.422-1.283.42-.006.866-.107,1.255,0,1.297.36,2.588.753,3.849,1.222.428.159.759.58,1.134.881-.429.236-.925.748-1.274.662-1.498-.371-2.952-.917-4.543-1.482Z" fill="#bd4f21"/><path d="m196.325,408.371c-.183.756-.308,1.487-.731,1.942-.158.17-1.177-.162-1.493-.531-.253-.296-.127-1.419-.015-1.443.702-.148,1.448-.091,2.239.032Z" fill="#342b28"/><path d="m205.817,409.607c-.756.332-1.465.601-2.182.621-.146.004-.539-.994-.414-1.41.117-.391.979-.963,1.145-.861.584.361,1.009.979,1.451,1.649Z" fill="#342b28"/><path d="m380.295,517.715c1.828.31,2.98,1.168,2.698,3.05-.284,1.894-1.734,2.268-3.37,2.265-1.098-.002-2.196-.001-3.486-.005.085-1.124.054-2.504.721-3.298.777-.926,2.165-1.34,3.437-2.012Z" fill="#2b5641"/><path d="m340.648,640.987c-3.228-2.644-3.132-5.81.022-7.04,1.562-.609,3.066-.334,3.901.917.673,1.009,1.072,2.58.82,3.733-.32,1.463-1.503,2.639-3.346,2.506-.413-.03-.828-.041-1.397-.117Z" fill="#217724"/><path d="m349.192,636.711c.714-1.829,2.181-1.805,3.313-1.204.638.338,1.18,1.807.968,2.534-.215.737-1.432,1.69-2.173,1.659-1.503-.062-2.522-1.061-2.108-2.99Z" fill="#217724"/><path d="m334.85,637.669c-.649,1.689-1.699,2.797-3.31,1.758-.701-.452-1.077-1.844-1.057-2.797.01-.473,1.213-1.224,1.942-1.314,1.448-.178,2.263.753,2.425,2.352Z" fill="#217724"/><path d="m286.838,624.506c-1.504-2.9-.472-5.666,2.061-5.916,1.877-.185,3.526.255,4.163,2.24.516,1.608.289,3.174-1.207,4.266-1.392,1.016-3.398.8-5.017-.59Z" fill="#217724"/><path d="m285.277,614.989c.093,1.637-.675,2.7-2.055,2.672-.813-.017-2.057-.83-2.281-1.544-.221-.702.356-2.075,1.016-2.55,1.457-1.048,2.54-.089,3.32,1.422Z" fill="#e51c1c"/><path d="m297.154,626.641c.57.991,1.259,1.907,1.301,2.85.022.499-1.046,1.412-1.69,1.478-.727.075-1.72-.42-2.238-.992-.389-.43-.535-1.721-.218-2.017.709-.663,1.775-.945,2.845-1.318Z" fill="#217724"/><path d="m257.812,642.254c.147-2.859,1.238-4.067,3.531-4.081,2.085-.013,3.768,1.489,3.938,3.514.142,1.692-1.485,3.614-3.329,3.935-1.824.317-3.554-1.019-4.14-3.367Z" fill="#217724"/><path d="m254.197,650.68c-1.636-.486-2.196-1.635-1.511-2.856.423-.755,1.645-1.512,2.478-1.48,1.213.046,1.98,1.076,1.837,2.497-.168,1.659-1.267,1.927-2.803,1.838Z" fill="#e51c1c"/><path d="m269.774,636.823c-1.155.143-2.272.405-3.186.085-.452-.158-.839-1.452-.707-2.124.256-1.303,1.162-2.214,2.676-1.835,1.682.42,2.098,1.68,1.217,3.874Z" fill="#217724"/><path d="m353.879,573.555c.915-1.739,2.133-2.906,4.026-2.407,1.017.268,2.194.939,2.733,1.788.9,1.418.972,3.363-.576,4.276-1.201.708-3.08.986-4.402.593-1.706-.508-2.252-2.263-1.782-4.249Z" fill="#217724"/><path d="m350.425,568.934c-1.189-1.209-1.496-2.463-.261-3.517,1.05-.896,2.452-.974,3.242.335.397.658.413,1.847.093,2.571-.562,1.272-1.721,1.47-3.074.611Z" fill="#217724"/><path d="m365.316,582.703c-.386,1.802-1.72,2.13-2.86,1.581-.764-.368-1.613-1.764-1.461-2.501.158-.762,1.458-1.762,2.298-1.8,1.378-.063,2.098,1.095,2.023,2.72Z" fill="#e51c1c"/><path d="m359.872,615.028c-1.705-1.177-2.457-2.571-1.783-4.505.608-1.745,1.818-2.535,3.654-2.354,1.792.177,2.903,1.166,3.348,2.893.671,2.605-1.714,4.499-5.219,3.966Z" fill="#217724"/><path d="m350.365,611.783c.031-1.174-.06-2.356.421-3.217.21-.376,1.773-.406,2.407-.043,1.15.658,1.748,1.882.757,3.137-.992,1.256-2.215,1.619-3.585.123Z" fill="#e51c1c"/><path d="m347.628,633.065c-.817-.844-1.798-1.614-1.995-2.55-.11-.521,1.002-1.728,1.716-1.873.708-.144,1.855.454,2.372,1.086,1.05,1.284.168,2.682-2.092,3.337Z" fill="#e51c1c"/><path d="m306.009,552.734c-1.637.095-2.697-.674-2.67-2.051.016-.812.829-2.055,1.543-2.28.702-.221,2.073.354,2.548,1.014,1.049,1.457.085,2.536-1.421,3.317Z" fill="#cc2f2f"/><path d="m256.074,599.857c3.651,1.208,4.691,4.04,2.413,6.203-1.243,1.18-2.62,1.657-4.309.753-1.552-.831-2.168-2.127-1.905-3.73.322-1.962,1.438-3.264,3.801-3.226Z" fill="#217724"/><path d="m250.237,610.556c-1.978,1.458-4.014,1.001-4.019-.836-.003-.828.475-2.037,1.11-2.382.632-.344,2.062-.121,2.544.403.52.566.346,1.769.366,2.816Z" fill="#e51c1c"/><path d="m284.036,568.751c-.064,2.344-1.211,3.652-2.641,3.004-.759-.344-1.668-1.276-1.72-1.999-.052-.73.704-1.86,1.409-2.221,1.076-.549,2.31-.316,2.952,1.215Z" fill="#cc2f2f"/><path d="m241.277,580.717c-1.679,1.549-2.901,1.572-3.877.153-.899-1.307-.426-2.459.777-3.132.583-.327,1.894-.344,2.202.039.586.731.69,1.85.899,2.94Z" fill="#e51c1c"/><path d="m239.292,545.987c-1.682-1.296-1.959-3.07-1.219-4.558.471-.947,1.958-1.725,3.105-1.927,2.209-.39,3.675,1.098,3.74,3.317.067,2.328-1.384,3.809-3.703,3.695-.599-.029-1.188-.287-1.922-.528Z" fill="#217724"/><path d="m245.233,551.945c-.533-1.489-.574-2.888.935-3.453.706-.264,1.905.028,2.541.513.996.76.939,1.933.109,2.929-1.092,1.31-2.282.953-3.585.011Z" fill="#217724"/><path d="m236.572,537.364c-1.65.761-2.733.031-3.026-1.295-.168-.762.375-2.137,1.013-2.494.659-.369,2.179-.173,2.687.37.996,1.065.905,2.428-.674,3.419Z" fill="#e51c1c"/><path d="m349.624,524.906c2.119.024,3.535,1.003,3.961,2.853.385,1.673.087,3.395-1.754,4.238-1.663.76-3.257.56-4.559-.812-1.832-1.93-.807-4.816,2.353-6.279Z" fill="#217724"/><path d="m341.846,536.67c-1.549-.689-1.949-1.919-1.344-3.106.323-.633,1.542-1.189,2.291-1.115.72.071,1.695.871,1.96,1.575.569,1.512-.761,2.707-2.907,2.646Z" fill="#217724"/><path d="m355.321,523.147c.18-1.58.965-2.595,2.398-2.367.775.123,1.899.989,2,1.652.12.791-.456,2.121-1.137,2.515-1.609.929-2.684-.046-3.261-1.799Z" fill="#217724"/><path d="m299.603,92.462c8.474-.024,16.949-.047,25.684.307,4.819,23.419,9.408,46.451,13.914,69.506,1.343,6.872,3.28,13.771,3.503,20.723.518,16.121.157,32.283.152,48.428-6.354.047-12.709.177-19.06.056-.981-.019-2.145-.956-2.885-1.861-2.915-3.566-5.694-7.289-8.606-11.061-2.992,3.86-5.684,7.556-8.607,10.973-.912,1.066-2.432,1.902-3.697,1.946-5.666.201-11.34.08-17.298-.29-.287-16.282-.302-32.2-.267-48.117.004-1.721.157-3.481.483-5.156,5.539-28.491,11.115-56.972,16.684-85.455Z" fill="#e89908"/><path d="m265.671,231.506c-4.688.021-9.378.136-14.062-.012-1.008-.032-2.233-.734-2.951-1.603-2.941-3.559-5.724-7.303-8.821-11.31-2.827,3.629-5.474,7.299-8.394,10.631-1.055,1.204-2.744,2.177-4.18,2.252-5.069.264-10.155.092-15.505-.286-.271-16.204-.307-32.038-.221-47.87.01-1.759.42-3.704,1.135-5.239,8.525-18.306,17.161-36.539,25.73-54.817,4.799-10.235,9.526-20.518,14.286-30.779,9.93-.029,19.86-.058,30.029.218-4.225,23.041-8.551,45.817-13.211,68.497-2.493,12.133-4.3,24.224-3.849,36.82.399,11.146.038,22.33.013,33.497Z" fill="#e89908"/><path d="m342.674,92.375c9.184-.015,18.368-.043,27.552-.018.726.002,1.451.38,2.424.995,13.371,28.403,26.512,56.383,39.571,84.416.76,1.632,1.208,3.694,1.219,5.561.093,16.052.052,32.105.051,48.157-4.976.028-9.953.143-14.926.011-1.013-.027-2.251-.702-2.969-1.567-3.012-3.629-5.866-7.443-8.911-11.361-2.533,3.276-5.115,6.285-7.356,9.619-1.827,2.719-3.914,3.912-6.781,3.407-.858-.151-1.753-.005-3.046.014-.615.04-.817.072-1.018.104-2.648-.054-5.296-.109-8.22-.536-.276-16.303-.269-32.232-.291-48.161-.002-1.381-.072-2.796-.33-4.136-1.718-8.937-3.499-17.856-5.252-26.783-3.908-19.906-7.812-39.814-11.718-59.721Z" fill="#e89908"/><path d="m390.456,92.424c10.087-.03,20.173-.068,30.26-.069.547,0,1.094.31,1.924.845,18.538,28.514,36.81,56.642,54.996,84.85.917,1.422,1.517,3.525,1.53,5.319.121,16.04.077,32.081.081,48.122-.097.011-.194.032-.291.032-4.484-.002-9.459,1.437-13.31-.424-3.702-1.789-6.236-6.996-9.291-10.692-.465-.563-.974-1.075-1.538-1.693-2.865,3.695-5.551,7.378-8.463,10.788-.911,1.067-2.404,1.881-3.675,1.976-3.496.261-7.015.079-10.803-.301-.278-16.202-.243-32.031-.329-47.859-.01-1.759-.418-3.702-1.128-5.241-5.739-12.433-11.618-24.775-17.409-37.174-7.54-16.145-15.039-32.318-22.555-48.478Z" fill="#e89908"/><path d="m202.802,92.479c10.394-.046,20.788-.091,31.421.142-12.959,28.36-26.187,56.422-39.295,84.562-.98,2.105-1.546,4.764-1.568,7.175-.14,15.698-.076,31.399-.078,47.1-.097.016-.194.031-.29.05-7.698,1.498-14.197-.418-18.51-8.951-.731-1.446-1.95-2.543-3.068-3.958-2.797,3.605-5.55,6.9-8.038,10.457-1.404,2.006-2.917,2.668-5.045,2.568-4.004-.189-8.019-.066-12.306-.446-.276-16.185-.319-31.997-.216-47.808.011-1.696.532-3.693,1.388-5.03,8.881-13.862,17.893-27.606,26.843-41.406,9.601-14.805,19.176-29.634,28.762-44.453Z" fill="#e89908"/><path d="m442.76,92.442c12.692-.012,25.384-.024,38.408.229,18.703,28.507,37.099,56.727,55.385,85.047,1.078,1.669,1.77,4.145,1.79,6.256.146,15.827.077,31.657.076,47.485-6.034,1.282-11.022-.338-14.548-6.853-1.183-2.186-2.993-3.892-4.682-6.027-2.632,3.401-5.255,6.512-7.59,9.904-1.635,2.376-3.435,3.479-6.013,3.129-1.734-.236-3.506-.087-5.533-.472-.273-16.173-.224-31.984-.344-47.793-.014-1.792-.632-3.884-1.548-5.311-9.42-14.687-18.977-29.25-28.461-43.879-9.002-13.885-17.962-27.808-26.941-41.714Z" fill="#e89908"/><path d="m143.476,93.268c1.083-.313,2.165-.892,3.249-.897,11.657-.061,23.314-.032,35.197.243-18.149,28.524-36.549,56.756-54.839,85.089-1.079,1.671-1.78,4.143-1.8,6.254-.151,15.832-.087,31.667-.089,47.501-5.405,1.155-9.854-.25-13.025-6.139-1.289-2.395-3.254-4.275-5.179-6.729-2.571,3.324-5.19,6.401-7.491,9.784-1.697,2.495-3.565,3.632-6.26,3.244-1.827-.263-3.699-.092-5.821-.478-.271-16.076-.32-31.791-.207-47.504.013-1.805.578-3.915,1.484-5.35,6.815-10.788,13.788-21.434,20.695-32.139,11.369-17.62,22.725-35.252,34.086-52.879Z" fill="#e89908"/><path d="m67.181,231.485c-6.397,1.382-11.604-.531-15.244-7.395-1.023-1.93-2.608-3.439-4.222-5.51-2.693,3.479-5.405,6.766-7.892,10.278-1.45,2.048-3.004,2.988-5.274,2.763-2.316-.23-4.66-.051-7.202-.051-.063-1.213-.161-2.22-.162-3.227-.01-14.306.052-28.612-.048-42.917-.025-3.587,1.057-6.205,3.34-8.424,16.042-15.587,29.419-33.997,40.298-54.917,4-7.693,7.433-15.816,10.914-23.872,1.759-4.071,4.096-6.031,8.071-5.954,11.235.218,22.474.101,33.925.374-17.965,28.35-36.125,56.46-54.355,84.506-1.514,2.329-2.216,4.616-2.195,7.592.109,15.584.048,31.169.046,46.754Z" fill="#e89908"/><path d="m200.343,330.929c4.248.015,8.495.03,13.479.044,19.485-.013,38.233-.025,56.981-.037,3.959.016,7.918.045,11.877.045,105.725.002,211.45.002,317.175.002h4.97v8.192H33.455v-8.198c12.953,0,25.831,0,39.445.001,19.615.002,38.495.002,57.375.003,4.103-.002,8.206-.005,13.046-.008,19.499-.015,38.261-.03,57.023-.044Z" fill="#f16b07"/><path d="m501.912,92.409c10.857-.025,21.715-.009,32.572-.097,3.477-.028,5.184,2.45,6.685,5.708,4.413,9.582,8.572,19.371,13.518,28.555,9.876,18.34,21.973,34.491,36.12,48.339,3.705,3.627,5.498,7.464,5.339,13.359-.351,13.027-.109,26.076-.109,39.116v3.838c-4.744.946-8.79.899-11.742-4.431-1.645-2.97-4.025-5.364-6.244-8.237-2.598,3.354-5.234,6.447-7.55,9.849-1.709,2.511-3.61,3.607-6.294,3.202-1.541-.233-3.126-.054-4.965-.434-.274-16.075-.22-31.778-.345-47.478-.015-1.904-.615-4.139-1.581-5.642-10.918-16.995-21.979-33.859-32.962-50.795-7.514-11.587-14.964-23.233-22.443-34.853Z" fill="#e89908"/><path d="m224.645,330.621c-15.634.321-31.255.339-47.179.334.242-11.319.775-22.616,1.338-33.912.361-7.24,1.075-14.48,1.015-21.715-.028-3.407-1.387-6.837-2.367-10.192-.66-2.258.111-3.13,2.267-3.132,14.175-.01,28.351,0,42.526-.016,2.053-.002,3.04,1,2.239,2.879-4.548,10.682-1.819,21.675-1.45,32.545.373,10.974,1.069,21.937,1.611,33.208m-13.274-33.583c-6.656-4.775-14.605-4.823-20.441-.121-6.006,4.838-7.966,12.628-4.932,19.593,2.675,6.138,8.635,9.951,15.423,9.868,6.534-.081,12.429-4.118,14.868-10.181,2.756-6.854,1.197-13.311-4.919-19.158m2.696-13.099c-.072-.931-.144-1.861-.206-2.66h-25.279v8.716c8.15,0,16.026.002,23.902-.006.416,0,.832-.088,1.582-.174,0-1.812,0-3.532,0-5.876Z" fill="#ffc002"/><path d="m168.071,330.756c-13.104.227-26.233.227-39.61.211.19-8.611.607-17.209,1.072-25.804.376-6.951,1.05-13.897,1.098-20.848.019-2.733-1.199-5.51-2.053-8.203-.619-1.953-.109-2.763,1.919-2.76,11.731.015,23.463.015,35.194.008,1.838-.001,2.703.903,1.94,2.581-3.378,7.432-1.649,15.161-1.352,22.77.414,10.613,1.162,21.213,1.791,32.047m-21.77-31.043c-.536.122-1.075.232-1.608.368-7.729,1.976-12.047,9.559-9.834,17.264,2.106,7.329,10.137,11.534,17.494,9.16,6.316-2.038,10.374-8.775,9.272-15.392-1.173-7.044-7.156-11.656-15.325-11.4m12.682-6.473v-3.817h-21.271v7.177h21.271v-3.36Z" fill="#ffc002"/><path d="m283.306,330.63c-15.621.318-31.23.334-47.143.326.24-11.308.771-22.593,1.334-33.876.361-7.232,1.056-14.463,1.025-21.692-.014-3.298-1.244-6.646-2.252-9.868-.779-2.492-.203-3.532,2.401-3.529,13.941.015,27.882.002,41.823.012,1.935.001,3.483.587,2.506,2.926-4.376,10.47-1.635,21.239-1.336,31.877.315,11.181,1.085,22.348,1.644,33.825m-23.447-37.204c-8.376.234-14.432,4.904-16.375,12.626-1.779,7.073,1.517,14.661,7.941,18.28,5.678,3.198,12.841,2.696,17.986-1.26,5.519-4.244,7.939-11.267,5.784-17.935-2.285-7.07-7.315-10.982-15.337-11.711m-7.16-12.406h-5.703v8.722h25.377v-8.722c-6.515,0-12.772,0-19.674,0Z" fill="#ffc002"/><path d="m374.109,260.153c3.794.502,5.803,3.727,6.828,6.428.713,1.879-1.555,4.893-2.508,7.394-.064.167-.262.285-.402.422-1.793,1.767-4.061,6.68-4.345,9.319-1.049,9.728-5.89,16.891-14.824,20.92-9.17,4.135-17.892,2.749-26.007-3.012-.298-.212-.496-.565-.947-1.094,4.354-4.922,8.671-9.805,12.991-14.686,6.478-7.319,12.982-14.616,19.423-21.968,2.17-2.477,4.634-4.17,8.38-3.663.276,1.332.253,2.381-.008,3.425-1.673.402-3.109.81-4.734,1.271,1.413,2.506,2.658,4.569,3.759,6.706,1.232,2.393,2.195,2.608,4.011.716,1.883-1.962,1.777-3.161-.444-5.456-.376-2.36-.775-4.541-1.173-6.722Z" fill="#0454bf"/><path d="m433.427,260.122c3.63.559,5.556,3.596,6.696,6.25.74,1.724-1.125,4.588-1.892,6.918-.141.428-.538.912-.941,1.09-4.054,1.793-4.273,4.965-4.474,9.041-.476,9.694-5.465,17.025-14.409,21.097-9.09,4.138-17.856,3.102-26.023-2.704-.394-.28-.827-.504-1.515-.919,4.526-5.121,8.707-9.857,12.893-14.587,6.668-7.534,13.36-15.048,19.999-22.608,2.109-2.402,4.551-3.953,8.145-3.512.27,1.342.254,2.413.006,3.467-1.658.395-3.084.807-4.618,1.25,1.553,2.857,2.829,5.341,4.263,7.73.284.474,1.261.932,1.769.804,2.679-.675,3.54-3.884,1.574-6.103-.061-.793.238-2.068.061-2.138-2.728-1.077-1.276-3.329-1.535-5.076Z" fill="#0454bf"/><path d="m492.71,260.122c3.63.556,4.912,3.823,6.871,6.208.439.534-.351,2.093-.603,3.174-.671,2.88-1.995,5.444-4.779,6.644-2.1.906-2.226,2.161-2.012,4.122,1.033,9.48-4.809,19.408-14.003,24.064-8.636,4.374-20.298,3.036-27.205-3.131-.129-.115-.155-.344-.363-.837,4.152-4.695,8.401-9.502,12.653-14.307,6.601-7.458,13.234-14.888,19.788-22.388,2.115-2.419,4.525-3.976,8.132-3.484.27,1.342.255,2.413.007,3.467-1.658.395-3.084.807-4.618,1.25,1.553,2.857,2.829,5.341,4.263,7.73.284.474,1.261.932,1.769.804,2.679-.675,3.54-3.884,1.556-6.105-.129-.853.121-2.224-.109-2.309-2.818-1.052-.907-3.293-1.347-4.903Z" fill="#0454bf"/><path d="m432.145,262.068c.016-1.529.031-3.057.014-4.969.041-8.63.116-16.876.214-25.5.208-.374.386-.42.695-.523.19,8.373.243,16.752.328,25.527.29,2.89-1.162,6.105,1.566,7.642.177.1-.122,1.92-.216,3.147-3.032.413-1.613-3.602-2.601-5.325Z" fill="#2f2f2d"/><path d="m491.428,262.068c.016-1.529.031-3.058.013-4.969.042-8.629.116-16.876.214-25.499.208-.374.386-.42.695-.523.19,8.373.243,16.752.328,25.527.472,2.694-1.44,5.893,1.378,7.395.23.123-.019,2.079-.017,3.366-1.952-.562-2.332-2.881-2.612-5.297Z" fill="#2f2f2d"/><path d="m374.068,256.648c.439,3.51.837,6.623,1.036,10.147-.858-1.316-1.517-3.043-2.177-4.77.023-1.498.047-2.995.026-4.867.026-8.623.097-16.872.167-25.488.201-.406.403-.444.751-.423.15,8.374.152,16.689.196,25.401Z" fill="#030303"/><path d="m211.555,297.192c5.932,5.693,7.491,12.151,4.735,19.005-2.438,6.063-8.334,10.101-14.868,10.181-6.789.084-12.749-3.729-15.423-9.868-3.035-6.965-1.074-14.754,4.932-19.593,5.836-4.702,13.784-4.654,20.624.275m-1.007,9.894c.598-2.485.028-4.56-2.202-5.984-2.209-1.41-4.546-1.282-6.396.392-3.243,2.934-6.412,5.991-9.27,9.293-1.909,2.206-1.84,5.05.217,7.211,1.928,2.025,4.73,2.535,6.832.602,3.751-3.448,7.093-7.339,10.819-11.514Z" fill="#fffdfb"/><path d="m214.067,284.251c0,2.032,0,3.753,0,5.564-.751.085-1.167.173-1.582.174-7.876.008-15.752.006-23.902.006v-8.716h25.279c.062.799.134,1.729.206,2.972Z" fill="#13646d"/><path d="m146.538,299.688c7.932-.232,13.915,4.381,15.088,11.424,1.102,6.617-2.957,13.354-9.272,15.392-7.358,2.374-15.389-1.831-17.494-9.16-2.213-7.704,2.105-15.287,9.834-17.264.532-.136,1.072-.246,1.845-.393m-6.266,18.591c1.577,3.068,4.279,4.351,6.564,2.46,3.206-2.654,6.126-5.741,8.704-9.009.731-.926.393-3.551-.445-4.621-.839-1.071-3.387-2.065-4.371-1.547-4.55,2.396-8.082,6.047-10.49,10.662-.224.428-.036,1.071.037,2.055Z" fill="#fffdfb"/><path d="m158.983,293.499v3.101h-21.271v-7.177h21.271v4.076Z" fill="#13646d"/><path d="m260.149,293.432c7.733.722,12.762,4.634,15.047,11.704,2.155,6.668-.265,13.69-5.784,17.935-5.145,3.956-12.308,4.458-17.986,1.26-6.424-3.618-9.721-11.207-7.941-18.28,1.942-7.722,7.999-12.392,16.664-12.62m-4.951,13.07c-1.236,1.249-2.556,2.427-3.691,3.762-2.131,2.506-2.146,5.801-.16,7.782,2.002,1.997,5.441,2.18,7.798.033,3-2.733,5.858-5.644,8.565-8.668,2.302-2.571,2.179-5.551.06-7.714-1.95-1.99-5.303-2.019-7.773.093-1.582,1.353-2.985,2.914-4.799,4.713Z" fill="#fefcf9"/><path d="m253.021,281.02c6.58,0,12.836,0,19.352,0v8.722h-25.377v-8.722c2.009,0,3.856,0,6.025,0Z" fill="#13646d"/><path d="m210.441,307.32c-3.62,3.94-6.962,7.832-10.713,11.279-2.102,1.933-4.904,1.422-6.832-.602-2.057-2.16-2.127-5.005-.217-7.211,2.858-3.302,6.027-6.359,9.27-9.293,1.85-1.674,4.187-1.802,6.396-.392,2.231,1.424,2.8,3.499,2.096,6.218Z" fill="#bf6a40"/><path d="m140.233,318.059c-.035-.763-.222-1.406.001-1.835,2.408-4.615,5.94-8.266,10.49-10.662.985-.518,3.532.475,4.371,1.547.838,1.07,1.176,3.695.445,4.621-2.579,3.268-5.498,6.355-8.704,9.009-2.285,1.891-4.987.609-6.602-2.68Z" fill="#bf6a40"/><path d="m255.363,306.336c1.648-1.633,3.052-3.195,4.633-4.547,2.47-2.112,5.823-2.082,7.773-.093,2.119,2.162,2.243,5.142-.06,7.714-2.707,3.024-5.565,5.935-8.565,8.668-2.357,2.148-5.796,1.964-7.798-.033-1.986-1.98-1.97-5.276.16-7.782,1.135-1.335,2.455-2.513,3.856-3.927Z" fill="#bf6a40"/><path d="m122.294,330.676c-13.058.268-26.105.283-39.406.279.202-9.455.647-18.89,1.118-28.325.301-6.047.898-12.094.848-18.137-.024-2.846-1.159-5.711-1.977-8.512-.551-1.886.093-2.615,1.893-2.616,11.84-.008,23.68,0,35.52-.013,1.715-.002,2.539.835,1.871,2.405-3.798,8.922-1.519,18.104-1.211,27.183.311,9.166.893,18.323,1.345,27.737m-11.087-28.05c-5.56-3.989-12.199-4.028-17.073-.101-5.016,4.041-6.654,10.547-4.119,16.365,2.234,5.127,7.212,8.312,12.882,8.242,5.457-.067,10.382-3.44,12.418-8.504,2.302-5.725,1-11.118-4.108-16.002m2.251-10.941c-.06-.777-.12-1.555-.172-2.222h-21.114v7.28c6.807,0,13.386.002,19.964-.005.347,0,.695-.074,1.322-.145,0-1.513,0-2.95,0-4.908Z" fill="#ffc002"/><path d="m73.533,330.756c-13.104.227-26.233.227-39.61.211.19-8.611.607-17.209,1.072-25.804.376-6.951,1.05-13.897,1.098-20.848.019-2.733-1.199-5.51-2.053-8.203-.619-1.953-.109-2.763,1.919-2.76,11.731.015,23.463.015,35.194.008,1.838-.001,2.703.903,1.94,2.581-3.378,7.432-1.649,15.161-1.352,22.77.414,10.613,1.162,21.213,1.791,32.047m-21.77-31.043c-.536.122-1.075.232-1.608.368-7.729,1.976-12.047,9.559-9.834,17.264,2.106,7.329,10.137,11.534,17.494,9.16,6.316-2.038,10.374-8.775,9.272-15.392-1.173-7.044-7.156-11.656-15.325-11.4m12.682-6.473v-3.817h-21.271v7.177h21.271v-3.36Z" fill="#ffc002"/><path d="m111.36,302.755c4.955,4.755,6.257,10.149,3.955,15.873-2.036,5.064-6.961,8.437-12.418,8.504-5.67.07-10.648-3.115-12.882-8.242-2.535-5.818-.897-12.324,4.119-16.365,4.875-3.927,11.513-3.888,17.226.229m-.841,8.264c.499-2.076.024-3.809-1.84-4.998-1.845-1.178-3.797-1.071-5.342.328-2.709,2.45-5.356,5.004-7.743,7.762-1.595,1.843-1.536,4.218.182,6.023,1.61,1.691,3.95,2.117,5.706.503,3.133-2.88,5.925-6.13,9.037-9.617Z" fill="#fffdfb"/><path d="m113.459,291.946c0,1.698,0,3.135,0,4.648-.627.071-.974.145-1.322.145-6.578.007-13.157.005-19.964.005v-7.28h21.114c.052.667.112,1.444.172,2.482Z" fill="#13646d"/><path d="m51.999,299.688c7.932-.232,13.915,4.381,15.088,11.424,1.102,6.617-2.957,13.354-9.272,15.392-7.358,2.374-15.389-1.831-17.494-9.16-2.213-7.704,2.105-15.287,9.834-17.264.532-.136,1.072-.246,1.845-.393m-6.266,18.591c1.577,3.068,4.279,4.351,6.564,2.46,3.206-2.654,6.126-5.741,8.704-9.009.731-.926.393-3.551-.445-4.621-.839-1.071-3.387-2.065-4.371-1.547-4.55,2.396-8.082,6.047-10.49,10.662-.224.428-.036,1.071.037,2.055Z" fill="#fffdfb"/><path d="m64.445,293.499v3.101h-21.271v-7.177h21.271v4.076Z" fill="#13646d"/><path d="m110.43,311.214c-3.023,3.291-5.815,6.541-8.948,9.421-1.756,1.614-4.096,1.188-5.706-.503-1.718-1.804-1.776-4.18-.182-6.023,2.387-2.758,5.034-5.311,7.743-7.762,1.546-1.398,3.497-1.505,5.342-.328,1.863,1.189,2.339,2.922,1.751,5.194Z" fill="#bf6a40"/><path d="m45.695,318.059c-.035-.763-.222-1.406.001-1.835,2.408-4.615,5.94-8.266,10.49-10.662.985-.518,3.532.475,4.371,1.547.838,1.07,1.176,3.695.445,4.621-2.579,3.268-5.498,6.355-8.704,9.009-2.285,1.891-4.987.609-6.602-2.68Z" fill="#bf6a40"/></g><g id="c"><image width="258" height="68" transform="translate(191.413) scale(.904)" xlink:href="coffeestore1.png"/></g></svg>