<?xml version="1.0" encoding="UTF-8"?><svg id="a" xmlns="http://www.w3.org/2000/svg" viewBox="0 0 627.9 210.514"><path d="m56.208,77.123v8.177c-5.7-2.795-10.943-4.192-15.73-4.192-6.143,0-11.317,1.983-15.522,5.95-4.206,3.967-6.309,8.838-6.309,14.615,0,5.888,2.151,10.801,6.454,14.739,4.302,3.939,9.691,5.909,16.166,5.909,4.704,0,9.684-1.48,14.941-4.441v8.26c-4.787,2.545-9.975,3.818-15.564,3.818-8.19,0-15.19-2.772-21.001-8.315-5.811-5.544-8.716-12.229-8.716-20.053,0-7.687,2.856-14.267,8.57-19.741,5.713-5.475,12.597-8.212,20.648-8.212,5.174,0,10.528,1.162,16.062,3.486Z" fill="#13646d"/><path d="m84.534,73.263l24.965,54.91h-7.568l-6.136-13.53h-22.438l-6.067,13.53h-7.512l24.757-54.91Zm-.019,16.503l-8.458,18.858h17.009l-8.55-18.858Z" fill="#13646d"/><path d="m115.559,75.297h29.302v7.222h-22.163v13.198h22.163v7.139h-22.08v25.317h-7.222v-52.876Z" fill="#13646d"/><path d="m152.788,75.297h29.302v7.222h-22.163v13.198h22.163v7.139h-22.163v18.179h22.163v7.139h-29.302v-52.876Zm8.799-5.271l5.52-11.539h9.795l-9.172,11.539h-6.143Z" fill="#13646d"/><path d="m211.848,101.424c0-7.631,2.877-14.17,8.633-19.616,5.755-5.447,12.672-8.171,20.752-8.171,7.886,0,14.678,2.744,20.378,8.232,5.7,5.488,8.55,12.007,8.55,19.555,0,7.99-2.816,14.744-8.446,20.26-5.631,5.517-12.542,8.274-20.731,8.274-8.08,0-14.956-2.778-20.627-8.336-5.672-5.558-8.508-12.291-8.508-20.198Zm50.635.332c0-5.833-2.103-10.746-6.309-14.74-4.206-3.994-9.38-5.991-15.522-5.991-5.838,0-10.84,2.032-15.004,6.096-4.165,4.063-6.246,8.941-6.246,14.636,0,5.777,2.138,10.663,6.412,14.657,4.275,3.994,9.511,5.99,15.709,5.99,5.7,0,10.618-2.038,14.754-6.115,4.136-4.077,6.205-8.921,6.205-14.532Z" fill="#13646d"/><path d="m280.703,75.297h11.455c5.7,0,10.341,1.418,13.925,4.253,3.583,2.835,5.375,6.466,5.375,10.892,0,3.541-1.16,6.667-3.477,9.378-2.318,2.711-5.934,4.619-10.846,5.726l15.36,22.628h-8.285l-14.667-21.748h-1.619v21.748h-7.222v-52.876Zm7.222,6.392v18.428c10.652.222,15.979-2.863,15.979-9.256,0-2.24-.623-4.073-1.868-5.499-1.245-1.425-2.905-2.393-4.98-2.905-2.075-.512-5.119-.768-9.131-.768Z" fill="#13646d"/><path d="m373.174,83.764l-5.354,5.271c-5.396-5.284-11.635-7.927-18.718-7.927-6.198,0-11.358,1.99-15.481,5.971-4.123,3.98-6.184,8.956-6.184,14.927,0,5.224,1.999,9.93,5.997,14.117,3.998,4.188,9.511,6.281,16.54,6.281,10.542,0,17.168-4.578,19.88-13.737h-14.277v-7.222h22.537c0,3.62-.243,6.507-.726,8.662-.485,2.155-1.488,4.531-3.009,7.128-1.522,2.598-3.548,4.925-6.081,6.983-2.531,2.059-5.244,3.529-8.135,4.413-2.892.885-6.343,1.327-10.355,1.327-9.131,0-16.415-2.869-21.852-8.606-5.437-5.736-8.155-12.297-8.155-19.679,0-7.77,2.781-14.385,8.342-19.845,5.562-5.461,12.299-8.191,20.212-8.191,4.704,0,8.999.713,12.887,2.138,3.887,1.425,7.865,4.088,11.933,7.989Z" fill="#13646d"/><path d="m407.352,73.263l24.965,54.91h-7.568l-6.136-13.53h-22.438l-6.067,13.53h-7.512l24.757-54.91Zm-.019,16.503l-8.458,18.858h17.009l-8.55-18.858Zm-4.442-19.739l5.52-11.539h9.795l-9.172,11.539h-6.143Z" fill="#13646d"/><path d="m438.542,73.181l39.097,40.187v-38.07h7.222v55.325l-39.097-40.01v37.561h-7.222v-54.992Z" fill="#13646d"/><path d="m495.527,75.297h7.139v52.876h-7.139v-52.876Z" fill="#13646d"/><path d="m557.036,77.123v8.177c-5.7-2.795-10.943-4.192-15.73-4.192-6.143,0-11.317,1.983-15.522,5.95-4.206,3.967-6.309,8.838-6.309,14.615,0,5.888,2.151,10.801,6.454,14.739,4.302,3.939,9.691,5.909,16.166,5.909,4.704,0,9.684-1.48,14.941-4.441v8.26c-4.787,2.545-9.975,3.818-15.564,3.818-8.19,0-15.19-2.772-21.001-8.315-5.811-5.544-8.716-12.229-8.716-20.053,0-7.687,2.856-14.267,8.57-19.741,5.713-5.475,12.597-8.212,20.648-8.212,5.174,0,10.528,1.162,16.062,3.486Z" fill="#13646d"/><path d="m563.427,101.424c0-7.631,2.877-14.17,8.633-19.616,5.755-5.447,12.672-8.171,20.752-8.171,7.886,0,14.678,2.744,20.378,8.232,5.7,5.488,8.55,12.007,8.55,19.555,0,7.99-2.816,14.744-8.446,20.26-5.631,5.517-12.542,8.274-20.731,8.274-8.08,0-14.956-2.778-20.627-8.336-5.672-5.558-8.508-12.291-8.508-20.198Zm50.635.332c0-5.833-2.103-10.746-6.309-14.74-4.206-3.994-9.38-5.991-15.522-5.991-5.838,0-10.84,2.032-15.004,6.096-4.165,4.063-6.246,8.941-6.246,14.636,0,5.777,2.138,10.663,6.412,14.657,4.275,3.994,9.511,5.99,15.709,5.99,5.7,0,10.618-2.038,14.754-6.115,4.136-4.077,6.205-8.921,6.205-14.532Z" fill="#13646d"/></svg>