<?xml version="1.0" encoding="utf-8"?>
<!-- Generator: Adobe Illustrator 27.3.1, SVG Export Plug-In . SVG Version: 6.00 Build 0)  -->
<svg version="1.0" id="Layer_1" xmlns="http://www.w3.org/2000/svg" xmlns:xlink="http://www.w3.org/1999/xlink" x="0px" y="0px"
	 viewBox="0 0 710.87 598.06" enable-background="new 0 0 710.87 598.06" xml:space="preserve">
<g>
	<path d="M519.27,260.57c-1.68-1.07-3.42-2.08-5.2-2.96c-1.27-0.63-1.78-1.51-1.62-2.86c0.06-0.56,0.08-1.12,0.13-1.67
		c0.44-5.41,0.91-10.82,1.3-16.23c0.59-8.13,0.94-16.28,1.76-24.39c0.39-3.87-0.13-7.42-1.32-11.04
		c-2.29-6.96-4.94-13.83-5.48-21.26c-0.44-6.14-0.93-12.27-0.47-18.43c0.27-3.69-0.23-7.2-2.6-10.19c-0.86-1.08-0.78-2.06-0.44-3.32
		c0.71-2.69,1.45-5.43,1.65-8.18c0.45-6.05-0.78-11.96-2.51-17.7c-1.47-4.89-3.39-9.64-5.18-14.42c-0.5-1.34-1.09-2.69-1.9-3.86
		c-2.26-3.23-6.74-2.72-8.32,0.88c-0.22,0.49-0.38,1.01-0.63,1.68c-0.45-0.34-0.8-0.52-1.04-0.8c-4.47-5.26-9.58-9.86-14.71-14.43
		c-4.59-4.09-8.99-8.4-14.02-12c-2.26-1.62-4.58-2.51-7.37-2.14c-0.85,0.11-1.79,0.09-2.6-0.16c-6.49-1.99-13.02-3.86-19.41-6.13
		c-8.8-3.13-17.5-6.56-26.21-9.93c-3.02-1.17-5.5-0.46-7.52,1.92c-0.76,0.9-1.45,1.19-2.66,0.96c-7.53-1.45-15.07-2.81-22.61-4.17
		c-7.33-1.32-14.74-1.94-22.16-2c-6.94-0.06-13.91,0.08-20.82,0.62c-5.47,0.42-10.95,1.3-16.32,2.45
		c-8.4,1.81-16.28,5.19-23.94,9.02c-6.37,3.18-12.87,6.02-19.68,8.14c-2.44,0.76-4.85,1.64-7.17,2.69
		c-2.88,1.31-3.92,3.93-3.04,6.97c0.22,0.75,0.48,1.49,0.76,2.34c-0.66,0.56-1.23,1.11-1.86,1.58c-3.47,2.57-6.92,5.15-10.43,7.66
		c-7.42,5.31-14.64,10.83-20.97,17.46c-3.31,3.46-6.79,6.78-10.87,9.38c-0.4,0.26-0.77,0.57-1.12,0.9c-2.41,2.25-2.84,5.46-1.1,8.26
		c0.25,0.4,0.5,0.79,0.86,1.37c-0.65,0.72-1.31,1.38-1.9,2.11c-1.41,1.72-3.06,3.31-4.12,5.23c-2.03,3.7-3.81,7.55-5.52,11.42
		c-1.32,3-1.4,6.21-0.91,9.43c0.2,1.34,0.31,2.7,0.59,4.03c0.32,1.5,0,2.79-0.74,4.12c-5.13,9.17-8.65,19.03-12.22,28.87
		c-1.58,4.37-2.24,8.79-1.06,13.39c1.72,6.73,3.33,13.49,5.03,20.23c3.35,13.23,6.74,26.45,10.1,39.67
		c0.19,0.74,0.25,1.51,0.41,2.48c-0.96,0-1.66,0.01-2.36,0c-2.91-0.07-5.78,0.3-8.46,1.41c-8.16,3.39-11.8,10.31-13.23,18.39
		c-0.74,4.17-0.14,8.59-0.12,12.89c0.02,5.49,1.09,10.84,2.87,15.97c3.15,9.06,6.87,17.89,11.18,26.47
		c1.88,3.74,3.31,7.62,3.07,11.93c-0.21,3.64,0.56,7.16,1.69,10.58c1,3.05,2.38,5.99,4.78,8.21c6.49,5.99,14.01,7.13,22.26,4.4
		c0.71-0.24,1.41-0.51,2.38-0.86c0.21,2.01,0.37,3.67,0.55,5.32c0.41,3.97,0.63,7.98,1.29,11.91c1.26,7.56,2.46,15.12,3.24,22.74
		c1.54-2.59,4.02-4.6,7.05-5.56c0.83-0.27,1.92-0.38,3.09-0.48c-0.58-3.87-1.15-7.74-1.74-11.61c-0.53-3.47-1.13-6.93-1.63-10.4
		c-0.97-6.72-1.86-13.45-2.88-20.16c-0.21-1.39-0.6-2.86-1.32-4.03c-2.1-3.39-5.87-3.77-8.77-1.06c-0.82,0.77-1.64,1.52-2.4,2.34
		c-3.01,3.23-8.87,3.09-12.26,1.05c-1.81-1.09-2.74-2.91-3.38-4.81c-0.89-2.65-1.53-5.38-1.34-8.23c0.42-6.07-1.8-11.46-4.45-16.69
		c-3.99-7.85-7.28-16-10.23-24.28c-1.48-4.14-2.28-8.48-2.42-12.9c-0.09-2.79-0.11-5.59-0.22-8.39c-0.17-4.25,1.64-7.74,4.14-10.96
		c1.03-1.33,2.46-2.18,4.07-2.32c2.21-0.19,4.48-0.29,6.66,0.05c2.18,0.34,4.34,1.1,6.39,1.97c5.44,2.29,9.34,6.28,12.03,11.48
		c0.64,1.25,1.18,2.55,1.41,4.11c-0.48-0.32-1.03-0.58-1.45-0.98c-5.65-5.36-12.51-8.53-19.81-10.81c-2.03-0.63-4.25-0.81-6.39-0.87
		c-2.58-0.07-4.37,1.58-4.69,3.9c-0.32,2.33,1.19,4.48,3.68,5.19c1.11,0.32,2.25,0.56,3.64,0.9c-0.39,1.03-0.65,1.75-0.94,2.47
		c-1.44,3.55-2.93,7.09-4.33,10.66c-0.37,0.95-0.63,2-0.72,3.02c-0.23,2.77,1.24,4.86,3.67,5.43c2.58,0.6,5.03-0.62,6-3.17
		c1.17-3.06,2.16-6.18,3.27-9.26c0.61-1.7,1.32-3.36,2.04-5.16c3.78,1.76,6.42,4.36,9.15,7.26c-0.72,0.68-1.33,1.28-1.96,1.85
		c-6.17,5.7-9.57,12.76-9.81,21.14c-0.2,7.04,3.08,12.23,9.34,15.5c0.99,0.52,2.02,0.96,3.06,1.37c4.22,1.64,7.85-0.95,7.64-5.43
		c-0.02-0.39-0.03-0.77-0.08-1.75c2.12,2.75,5.25,2.94,7.43,4.93c1.65,1.5,3.92,1.09,5.81-0.19c1.51-1.02,2.98-2.11,4.71-3.34
		c0.11,0.68,0.18,1.1,0.26,1.51c0.39,2.16,1.89,3.37,3.82,3.1c1.75-0.25,3.01-1.77,2.92-3.53c-0.1-1.94-1.51-3.16-3.72-3.19
		c-0.31,0-0.62,0-1.24,0c1.55-3.71,0.01-7.12-0.6-10.59c-1.78-10.09-3.13-20.22-1.96-30.48c0.71-6.18,1.73-12.32,2.55-18.49
		c0.19-1.42,1.07-1.82,2.25-2.03c4.48-0.8,8.96-1.62,13.44-2.42c2.83-0.51,5.66-0.97,8.49-1.5c1.47-0.28,2.74-0.29,3.93,0.96
		c1.2,1.26,2.91,1.61,4.65,1.49c1.58-0.11,3.16-0.22,4.98-0.35c0.08,0.96,0.18,1.8,0.21,2.66c0.43,13.59,4.42,25.93,12.97,36.61
		c5.97,7.47,13.49,12.84,22.52,16.11c5.47,1.98,11.11,3.01,16.89,2.91c8.69-0.16,16.94-2.29,24.44-6.75
		c18.75-11.15,28.35-27.99,30.15-49.47c0.3-3.64-0.02-7.34-0.13-11.01c-0.07-2.36,0.02-2.52,2.3-3.07
		c5.59-1.35,11.21-1.53,16.89-0.66c0.3,0.05,0.6,0.16,1.04,0.28c0,1.69,0.08,3.34-0.01,4.99c-0.57,10.54,1.83,20.42,6.24,29.95
		c2.71,5.86,5.3,11.8,7.01,18.07c2.38,8.75,0.93,16.64-5.4,23.31c-2.08,2.19-4.47,4.09-6.76,6.07c-2.78,2.41-5.88,2.65-9.16,1.15
		c-2.4-1.1-4.78-2.23-7.14-3.39c-4.49-2.22-9.28-3.43-14.18-4.25c-0.94-0.16-1.91-0.18-2.87-0.17c-3.37,0.06-5.46,2.08-5.56,5.3
		c-0.09,2.91,2.04,5.06,5.27,5.37c1.91,0.19,3.81,0.41,5.71,0.67c3.93,0.54,7.55,1.99,11.02,3.84l-0.07-0.06
		c1.33,0.71,2.73,1.32,3.96,2.16c1.72,1.18,3.63,1.61,5.62,1.88c2.01,0.28,2.05,0.33,2.52,2.24c0.36,1.47,0.71,2.95,1.11,4.41
		c0.66,2.43,2.56,3.89,4.45,3.45c2.06-0.48,3.16-2.32,2.72-4.9c-0.28-1.64-0.8-3.26-1.3-4.85c-0.35-1.12-0.05-1.75,0.98-2.32
		c3.8-2.1,7.12-4.82,10.19-7.9c2.24-2.25,5.16-3.42,8.26-4.07c1.09-0.23,2.22-0.31,3.29-0.62c2.2-0.63,3.43-2.35,3.44-4.6
		c0.01-2.18-1.3-4.02-3.39-4.69c-0.67-0.22-1.35-0.37-1.93-0.52c0.46-4.56,0.9-8.96,1.35-13.46c21.93,12.96,43.05,12.36,63.2-4.28
		c3.48,20.61,5.37,41.09,3.03,62.21c-0.69-0.55-1.09-0.83-1.45-1.16c-0.65-0.59-1.2-1.31-1.92-1.78c-1.47-0.96-3.21-0.7-4.38,0.5
		c-1.03,1.07-1.26,2.82-0.36,4.21c1.82,2.81,3.67,5.61,5.64,8.32c0.59,0.81,0.79,1.51,0.6,2.42c-1.63,7.9-3.3,15.79-6.1,23.38
		c-1.49,4.04-3.15,8.02-4.75,12.02c-0.17,0.42-0.46,0.78-0.86,1.44c-1.05-1.78-1.97-3.33-2.88-4.88c-0.77-1.31-1.51-2.64-2.3-3.94
		c-0.37-0.61-0.76-1.23-1.24-1.76c-1.31-1.47-3.08-1.8-4.51-0.9c-1.58,0.99-2.15,2.79-1.27,4.62c0.97,2.01,2.14,3.93,3.17,5.92
		c1.43,2.77,2.81,5.56,4.22,8.34c0.49,0.97,0.87,1.91-0.41,2.84c-0.3-0.42-0.6-0.76-0.81-1.14c-2.59-4.96-5.16-9.92-7.76-14.88
		c-0.33-0.63-0.72-1.26-1.2-1.78c-1.07-1.17-2.8-1.42-4.18-0.71c-1.36,0.71-2.12,2.3-1.67,3.87c0.3,1.07,0.83,2.07,1.31,3.09
		c2.91,6.22,5.83,12.44,8.74,18.66c0.47,1.01,1.09,2.05-0.42,3.09c-0.41-0.76-0.86-1.47-1.2-2.23c-1.22-2.69-2.36-5.42-3.62-8.09
		c-0.43-0.92-1.02-1.83-1.74-2.53c-1.1-1.08-2.77-1.17-3.99-0.42c-1.31,0.8-1.82,2.04-1.56,3.49c0.18,1.01,0.58,1.99,0.97,2.94
		c1.91,4.65,3.86,9.3,5.8,13.94c0.41,0.97,0.85,1.94-0.57,2.93c-0.57-0.96-1.11-1.9-1.68-2.81c-0.73-1.17-1.54-2.23-3.1-2.36
		c-2.72-0.23-4.64,2.14-3.62,4.67c0.93,2.29,2.07,4.49,3.08,6.75c0.82,1.85,0.7,2.19-1.2,3.99c-0.62-1.34-1.19-2.64-1.81-3.91
		c-2.67-5.54-5.35-11.08-8.03-16.61c-0.17-0.36-0.39-0.7-0.62-1.02c-1.26-1.75-3.01-2.31-4.56-1.47c-1.77,0.96-2.41,2.93-1.52,4.95
		c1.33,3,2.78,5.94,4.06,8.95c2.25,5.29,4.4,10.62,6.63,15.92c0.52,1.23,0.45,2.31-0.32,3.38c-0.74,1.03-1.44,2.08-2.32,3.36
		c-0.4-0.68-0.66-1.11-0.91-1.55c-0.97-1.72-2.55-2.49-4.16-2.04c-1.52,0.43-2.4,1.81-2.36,3.75c0.04,1.75,0,3.52,0.16,5.26
		c0.19,2.07-0.65,3.36-2.56,4.02c-0.65,0.22-1.29,0.46-2.17,0.78c0-1.54-0.03-2.78,0.01-4.01c0.33-10.37-1.49-20.35-5.57-29.9
		c-0.25-0.59-0.53-1.17-0.89-1.69c-1.1-1.62-2.77-2.15-4.37-1.46c-1.71,0.74-2.46,2.42-1.83,4.4c0.62,1.98,1.46,3.89,2.04,5.89
		c1.77,6.08,2.97,12.27,2.81,18.63c-0.08,3.35-0.38,6.69-0.66,10.03c-0.18,2.11-0.25,2.1-2.95,2.56c0.05-0.96,0.05-1.86,0.17-2.74
		c0.62-4.52,1.04-9.05,0.45-13.6c-0.09-0.7-0.24-1.43-0.55-2.05c-0.74-1.46-2.34-2.2-3.8-1.88c-1.54,0.34-2.75,1.79-2.77,3.47
		c-0.02,1.84,0.11,3.67,0.1,5.51c-0.03,4.18-0.98,8.21-2.06,12.23c-0.3,1.1-0.93,1.6-1.98,1.77c-2.52,0.4-5.03,0.98-7.57,1.2
		c-5.25,0.44-10.51,0.7-15.76,1c-0.78,0.04-1.56-0.09-2.5-0.15c-0.04-0.83-0.06-1.52-0.11-2.22c-0.12-1.69-0.94-2.72-2.46-3.13
		c-1.45-0.38-2.88,0.14-3.76,1.44c-0.31,0.46-0.53,0.98-0.76,1.49c-1.19,2.65-1.4,2.74-4.58,1.88c0.03-0.56-0.03-1.2,0.13-1.77
		c0.63-2.31,1.33-4.6,2-6.9c0.2-0.69,0.47-1.37,0.58-2.08c0.25-1.6-0.6-3.13-1.98-3.75c-1.52-0.68-3.3-0.29-4.21,1.23
		c-0.81,1.35-1.37,2.87-1.9,4.37c-0.79,2.25-1.47,4.54-2.26,7.03c-1.11-0.17-2.07-0.33-3.33-0.52c0.79-2.31,1.47-4.32,2.17-6.33
		c0.26-0.75,0.58-1.49,0.84-2.24c0.69-1.99,0.13-3.56-1.58-4.5c-1.53-0.84-3.51-0.32-4.58,1.36c-0.59,0.93-0.96,2.02-1.39,3.04
		c-0.63,1.47-1.22,2.95-1.84,4.42c-0.15,0.36-0.35,0.69-0.67,1.32c-1.04-0.46-2-0.89-3.26-1.45c0.76-1.77,1.49-3.34,2.1-4.95
		c0.33-0.88,0.61-1.82,0.66-2.75c0.09-1.71-0.78-2.87-2.21-3.29c-1.53-0.45-3.14,0.05-3.99,1.43c-0.71,1.15-1.24,2.41-1.87,3.62
		c-0.43,0.83-0.87,1.65-1.44,2.71c-1-0.62-1.78-1.1-2.7-1.67c0.24-0.69,0.42-1.28,0.66-1.84c1.91-4.48,3.86-8.95,5.73-13.45
		c0.36-0.86,0.46-1.85,0.54-2.79c0.11-1.37-0.72-2.22-1.87-2.8c-1.1-0.55-2.25-0.55-3.15,0.26c-0.8,0.73-1.52,1.65-2,2.62
		c-1.59,3.23-3.02,6.52-4.56,9.77c-0.6,1.27-1.32,2.49-2.1,3.93c-1.03-0.72-1.79-1.26-2.7-1.9c0.4-0.89,0.76-1.66,1.09-2.45
		c0.93-2.21,0.45-4.01-1.31-5c-1.63-0.91-3.42-0.37-4.78,1.45c-0.33,0.44-0.64,0.9-1.11,1.57c-4.41-2.38-8.01-5.73-12.15-8.66
		c1.3-1.71,2.48-3.19,3.57-4.73c1.37-1.94,1.14-3.75-0.56-5.43c-2.4-0.94-3.48-0.73-5.04,1.07c-1.14,1.32-2.22,2.69-3.66,4.45
		c-0.71-0.81-1.25-1.44-1.87-2.15c1.5-2.24,2.89-4.28,4.23-6.34c0.84-1.28,1.19-2.64,0.28-4.04c-1.27-1.94-3.61-2.26-5.35-0.54
		c-1.35,1.34-2.47,2.93-3.62,4.46c-0.79,1.04-1.6,1.78-3,2.1c-3.33,0.76-4.62,4.31-2.63,7.18c1.41,2.02,3.08,3.87,4.7,5.74
		c1.8,2.1,2.05,1.65,0.39,4.47c-0.93,1.58-1.92,3.14-2.87,4.71c-0.29,0.48-0.58,0.96-0.78,1.48c-0.85,2.18-0.3,3.99,1.47,5
		c1.77,1.01,3.99,0.51,5.28-1.36c1.04-1.51,1.89-3.15,2.82-4.73c0.4-0.68,0.8-1.35,1.38-2.32c0.77,0.65,1.39,1.16,2.11,1.77
		c-1.54,2.56-2.98,4.94-4.42,7.32c-0.45,0.75-0.99,1.47-1.36,2.26c-0.8,1.75-0.26,3.7,1.21,4.7c1.48,1,3.51,0.8,4.76-0.72
		c1.06-1.28,1.86-2.78,2.75-4.2c0.8-1.29,1.55-2.61,2.34-3.91c0.12-0.19,0.34-0.33,0.7-0.67c0.87,0.57,1.76,1.15,2.86,1.87
		c-0.44,0.75-0.73,1.38-1.14,1.93c-1.62,2.19-3.29,4.33-4.89,6.53c-0.5,0.7-0.98,1.48-1.21,2.29c-0.42,1.52,0.31,3.12,1.6,3.96
		c1.26,0.83,3.07,0.85,4.21-0.33c1.38-1.42,2.53-3.07,3.72-4.67c1.27-1.72,2.47-3.49,3.85-5.45c1.21,0.91,2.19,1.65,3.12,2.36
		c-1.63,3.75-1.5,5.36,0.4,6.59c1.83,1.19,3.61,0.52,6.2-2.48c0.59,0.37,1.21,0.77,2.01,1.29c-1.39,1.92-2.58,3.71-3.91,5.39
		c-1.52,1.92-2.72,3.83-1.06,6.44c-1.87,0.44-3.62,0.79-4.22,2.59c-0.29,0.87-0.39,1.91-0.21,2.8c0.35,1.64,2.26,2.51,4.04,2.05
		c2.34-0.6,3.07-2.36,2.49-6.27c2.77,0.17,3.99-1.88,5.32-3.8c1.31-1.89,2.65-3.76,4.07-5.76c3.15,1.25,6.15,2.44,9.1,4.3
		c-0.67,1.53-1.24,2.92-1.89,4.27c-1.18,2.45-2.48,4.84-3.57,7.32c-0.49,1.13-0.76,2.43-0.83,3.67c-0.09,1.52,0.86,2.58,2.23,3.09
		c1.36,0.51,2.75,0.37,3.73-0.83c0.7-0.85,1.28-1.83,1.74-2.83c1.58-3.41,3.07-6.85,4.62-10.27c0.25-0.55,0.62-1.04,1.2-2.01
		c0.25,0.99,0.44,1.46,0.48,1.95c0.25,3.46,2.52,4.88,5.53,3.33c0.83-0.43,1.44-0.47,2.19,0.03c0.82,0.55,0.75,1.22,0.64,2.09
		c-0.35,2.75,1.13,4.77,3.42,4.7c0.75-0.03,1.54-0.36,2.22-0.72c0.62-0.33,1.12-0.88,1.8-1.44c0.72,0.46,1.42,0.91,2.23,1.42
		c-0.67,1.17-1.28,2.1-1.76,3.09c-0.67,1.38-0.69,2.78,0.26,4.07c0.93,1.26,2.33,1.63,3.64,1.12c1.03-0.4,1.89-1.37,2.68-2.22
		c0.58-0.63,0.86-1.54,1.41-2.21c0.23-0.28,0.89-0.48,1.2-0.35c0.3,0.13,0.47,0.71,0.56,1.13c0.06,0.28-0.18,0.61-0.21,0.92
		c-0.16,1.64,0.71,3.1,2.14,3.64c1.57,0.59,3.26,0,4.16-1.48c0.32-0.53,0.54-1.13,0.91-1.9c0.32,0.08,0.64,0.15,0.96,0.22
		c-0.04-0.24-0.07-0.48-0.08-0.72c-5.57-0.46-5.25-9.57,0.84-9.99c11.76-0.8,23.28-3.67,34.39-7.51c7.51-2.6,13.38-7.51,19.29-12.49
		c0.1-2.83,0.75-5.4,2.89-7.57c0.33-0.33,0.54-0.79,0.81-1.19c7.75-11.55,15.22-23.28,22.25-35.29
		c6.64-11.34,12.58-22.95,16.74-35.47c2.95-8.89,5.03-17.98,6.69-27.16c0.91-5.02,1.54-10.11,2.04-15.19
		c0.39-3.97,0.52-7.97,0.52-11.96c0-5.59-0.06-11.2-0.4-16.78c-0.34-5.57-0.84-11.16-1.65-16.68c-1.09-7.42-2.53-14.79-3.89-22.16
		c-0.22-1.19-0.04-2.16,0.52-3.19c5.23-9.73,7.53-20.11,6.75-31.15c-0.07-1.01-0.01-2.04-0.01-3.08c0.74-0.27,1.34-0.49,1.93-0.71
		c2.66-1,4.45-2.74,4.96-5.65c0.2-1.1,0.52-2.18,0.8-3.26C522.52,264.12,521.85,262.21,519.27,260.57z M222.53,345.09
		c-4.9-0.5-7.8-3.5-7.54-8.24c0.33-5.98,2.68-11.07,7.75-15.08c0.58,0.71,0.97,1.18,1.44,1.75
		C217.8,330.31,217.93,337.54,222.53,345.09z M231.59,297.9c-0.15,0.04-0.3,0.08-0.45,0.12c-1.04-1.52-2.13-3-3.1-4.56
		c-0.93-1.48-2.56-2.53-2.99-4.59c2.73-0.45,5.28-0.88,8.25-1.37C232.68,291.28,232.14,294.59,231.59,297.9z M378.14,289.63
		c-1.03,6.36-3.22,12.33-6.45,17.92c-5.95,10.32-14.33,17.84-25.78,21.34c-14,4.28-26.71,1.47-37.72-8.26
		c-7.64-6.74-12.1-15.37-14.15-25.26c-1.66-8.02-1.38-16.01,0.66-23.96c0.3-1.16,0.77-1.78,1.89-2.13c6.49-2,12.98-4.02,19.71-4.99
		c5.76-0.83,11.57-1.29,17.36-1.91c9.17,0.07,18.26,0.67,27.16,2.78c4.64,1.1,9.11,2.9,13.66,4.39c0.6,0.2,1.19,0.45,1.8,0.65
		c1.1,0.36,1.73,1.11,1.89,2.25C378.95,278.17,379.06,283.92,378.14,289.63z M413.5,260.79c-7.34-1.85-14.72-1.86-22.11-0.45
		c-2.42,0.46-4.77,1.31-7.17,1.92c-0.65,0.17-1.46,0.35-2.03,0.11c-3.9-1.64-7.76-3.39-11.62-5.11c-0.21-0.09-0.36-0.3-0.4-0.33
		c0.9-2.73,1.98-5.31,2.6-8c1.05-4.57-0.94-7.25-5.54-7.82c-0.79-0.1-1.26-0.38-1.71-1.06c-2.19-3.35-4.11-3.97-7.65-2.46
		c-0.83,0.36-1.56,0.45-2.25-0.06c-2.81-2.09-6.15-2.15-9.39-2.3c-3.82-0.17-7.67,0.03-11.5,0.08c-5.68,0.07-11.3,0.66-16.9,1.63
		c-7.2,1.25-13.88,3.76-19.81,8.02c-3.1,2.23-5.96,4.83-8.83,7.37c-2.93,2.59-3.19,4.56-1.32,8.74c-0.61,0.29-1.22,0.6-1.84,0.89
		c-4.06,1.88-8.32,3.42-12.11,5.74c-2.6,1.59-5.17,2.58-8.1,3.07c-5.75,0.98-11.47,2.09-17.21,3.12c-0.53,0.1-1.08,0.08-1.85,0.14
		c0-1.38-0.01-2.63,0-3.88c0.02-3.58,0.14-7.17,0.04-10.75c-0.06-2.07,0.35-3.5,2.3-4.75c8.98-5.76,15.31-13.88,20.11-23.31
		c2.55-5.01,4.67-10.16,5.82-15.68c0.24-1.14,0.87-1.79,1.87-2.3c7.79-3.93,13.6-9.97,18.26-17.22c3.03-4.71,5.93-9.5,7.43-14.97
		c0.34-1.25,1.2-1.7,2.34-2.09c11.27-3.85,21.2-10.06,30.12-17.83c3.97-3.46,7.4-7.51,11.3-11.05c3.06-2.78,6.44-5.22,9.74-7.72
		c0.58-0.44,1.49-0.54,2.27-0.61c5.64-0.54,11.28-1.28,16.93-1.48c6.78-0.24,13.57-0.08,20.36,0.03c4.47,0.07,8.94,0.33,13.41,0.52
		c0.99,0.04,1.97,0.19,2.96,0.72c-0.35,0.14-0.7,0.31-1.06,0.41c-5.77,1.6-11.61,2.1-17.54,0.96c-0.93-0.18-1.9-0.16-2.85-0.24
		c-2.24-0.17-4.59,2.13-4.84,4.2c-0.34,2.75,1.13,5.31,3.7,5.96c2,0.5,4.07,0.88,6.13,1.02c13.68,0.98,26.1-2.65,37.27-10.54
		c1.82-1.29,3.51-2.78,5.21-4.23c1.61-1.37,1.56-1.36,3.41-0.13c5.9,3.89,10.89,8.88,16.18,13.5c0.78,0.68,1.53,1.41,2.29,2.11
		c4.66,4.32,7.59,9.56,8.77,15.85c1.2,6.43,2.59,12.82,3.95,19.21c1.53,7.18,3.11,14.34,4.68,21.51c1.8,8.26,3.62,16.52,5.41,24.78
		c0.21,0.96,0.24,1.96,0.43,3.49c-0.82-0.58-1.15-0.76-1.41-1.01c-2.52-2.3-5.55-3.43-8.88-3.83c-8.12-0.98-16.27-0.94-24.41-0.47
		c-2.63,0.15-5.19,0.81-7.52,2.23c-0.57,0.35-1.6,0.45-2.19,0.18c-2.75-1.28-5.04-0.51-6.95,1.5c-1.06,1.12-1.95,1.44-3.51,1.05
		c-2.65-0.66-5.43,1.11-6.32,3.91c-0.42,1.32-0.55,2.85-0.37,4.23c0.41,3.07,1.09,6.11,1.74,9.55c-2.16,1.28-4.55,2.85-7.08,4.13
		C415.56,261.34,414.4,261.02,413.5,260.79z M482.39,321.46c-12.04,6.37-24.18,6.21-36.33,0.35c-9.67-4.67-16.58-12.18-21.25-21.68
		c-4.02-8.18-5.54-16.96-4.87-26.09c0.14-1.97,0.92-3.33,2.69-4.42c7.57-4.65,15.71-7.83,24.37-9.67c7.36-1.56,14.8-2.59,22.34-2.26
		c4.14,0.18,8.26,0.79,12.39,1.08c1.41,0.1,1.92,0.75,2.19,2.01c0.7,3.36,1.5,6.7,2.23,10.06c1.32,6.09,2.61,12.18,3.93,18.26
		c1.1,5.06,2.19,10.12,3.34,15.17c0.44,1.94,1.02,3.84,1.59,6C491.74,314.84,487.57,318.72,482.39,321.46z M503.47,285.01
		c-0.08,2.75-0.26,5.49-1.22,8.64c-0.38-0.92-0.62-1.33-0.71-1.77c-0.78-3.59-1.5-7.19-2.31-10.77c-0.25-1.09-0.02-1.8,0.97-2.4
		c0.8-0.48,1.47-1.18,2.21-1.78C503.43,278.44,503.62,279.98,503.47,285.01z"/>
	<path d="M328.47,467.2c-0.23-0.42-0.43-0.86-0.69-1.26c-1.03-1.57-1.02-3.18-0.02-4.72c1.83-2.8,3.73-5.55,5.62-8.31
		c0.22-0.32,0.53-0.6,0.82-0.86c1.37-1.22,3.04-1.4,4.37-0.47c1.4,0.97,1.9,2.8,1.16,4.47c-0.29,0.65-0.71,1.24-1.1,1.84
		c-1.2,1.88-2.61,3.66-3.58,5.65c-1.41,2.91-3.46,4.24-6.68,3.58C328.38,467.13,328.47,467.2,328.47,467.2z"/>
	<path fill="#FFFFFF" d="M222.74,321.77c0.58,0.71,0.97,1.18,1.44,1.75c-6.38,6.78-6.24,14.02-1.65,21.57
		c-4.9-0.5-7.8-3.5-7.54-8.24C215.32,330.87,217.67,325.78,222.74,321.77z"/>
	<path fill="#FFFFFF" d="M225.05,288.87c2.73-0.45,5.28-0.88,8.25-1.37c-0.62,3.78-1.16,7.09-1.71,10.4
		c-0.15,0.04-0.3,0.08-0.45,0.12c-1.04-1.52-2.13-3-3.1-4.56C227.11,291.98,225.48,290.93,225.05,288.87z"/>
	<path d="M330.94,394.19c-2.41,2.77-4.87,3.32-6.49,1.66c-1.26-1.29-1.09-3.75,0.35-4.94c1.8-1.49,4.01-0.85,5.84,1.81
		c0.1-0.5,0.16-0.89,0.26-1.26c0.88-3.29,3.62-5.24,6.87-4.41c3.41,0.87,6.66,0.39,9.95-0.3c5.62-1.18,11.21-2.58,16.86-3.61
		c9.88-1.79,19.82-1.93,29.81-0.82c6.98,0.78,14.01,1.11,21.01-0.1c4.55-0.78,9.1-1.57,13.66-2.25c6.72-1,13.37-0.24,19.99,0.96
		c2.25,0.41,4.39,0.92,6.8,0.3c2.75-0.7,5.6,1.82,5.78,4.72c0.23,3.73-0.57,7.3-2.13,10.7c-3.37,7.33-9.06,12.49-15.8,16.58
		c-7.65,4.64-15.94,7.64-24.71,9.42c-8.01,1.63-16.09,2.56-24.24,2.49c-8.72-0.07-17.36-1.17-25.84-3.27
		c-8.91-2.2-17.3-5.61-24.78-11.04c-4.78-3.47-8.88-7.56-11.49-12.96C332.08,396.74,331.58,395.58,330.94,394.19z M443.56,390.13
		c-3.68-0.28-7.26-0.47-10.81,0.05c-5.29,0.77-10.55,1.77-15.82,2.69c-8.2,1.43-16.41,0.91-24.59,0c-7.35-0.82-14.66-0.98-21.95,0.3
		c-5.66,0.99-11.3,2.09-16.93,3.2c-3.05,0.6-2.28,0.33-3.06,3.16c-0.44,1.6-0.1,2.97,1.55,3.82c2.76,1.43,5.4,3.15,8.26,4.35
		c10.35,4.35,21.2,6.41,32.42,6.67c8.1,0.19,16.15-0.27,24.04-2.15c4.03-0.96,8.02-2.15,11.94-3.5c5.01-1.72,9.64-4.22,13.82-7.53
		c0.77-0.61,1.07-1.27,1.07-2.24c0.01-2.23,0.15-4.47,0.21-6.7C443.73,391.63,443.63,391.01,443.56,390.13z"/>
	<path d="M308.91,386.16c0-5.43,1.45-8.97,3.17-12.41c0.85-1.71,1.9-3.33,2.94-4.93c1.57-2.41,4.26-3.17,6.43-1.91
		c2.28,1.33,3.03,3.86,1.85,6.44c-0.93,2.03-1.95,4.01-2.91,6.03c-1.49,3.14-1.31,6.32-0.27,9.55c0.73,2.28,1.43,4.57,2.05,6.87
		c0.24,0.9,0.4,1.91,0.27,2.82c-0.33,2.36-2.14,4.16-4.34,4.52c-2.29,0.38-4.59-0.8-5.63-3.15c-0.71-1.59-1.23-3.29-1.64-4.99
		C310.01,391.6,309.34,388.17,308.91,386.16z"/>
	<path d="M483.19,379.98c-0.04,2.74-1.59,4.8-3.76,5.4c-2.21,0.62-4.45-0.32-5.68-2.45c-0.31-0.54-0.58-1.15-0.72-1.76
		c-0.95-4.16-2.89-7.91-4.78-11.69c-0.49-0.99-0.95-2.03-1.17-3.11c-0.42-2.05,0.66-4.01,2.52-4.96c1.77-0.9,3.74-0.58,5.27,0.91
		c0.4,0.39,0.77,0.82,1.05,1.3c2.72,4.69,5.37,9.41,6.88,14.66C483,378.97,483.13,379.68,483.19,379.98z"/>
	<path d="M411.32,484.69c0.17,5.6-0.33,11.15-1.4,16.64c-0.13,0.69-0.37,1.4-0.72,2.01c-0.94,1.63-2.58,2.31-4.27,1.89
		c-1.6-0.4-2.83-1.9-2.89-3.69c-0.03-0.79,0.07-1.6,0.25-2.37c1.63-7.05,1.94-14.21,1.9-21.41c0-0.56-0.02-1.13,0.07-1.67
		c0.23-1.47,1.24-2.5,2.61-2.77c1.36-0.27,2.85,0.24,3.5,1.5c0.5,0.96,0.84,2.09,0.91,3.16
		C411.42,480.22,411.32,482.46,411.32,484.69z"/>
	<path d="M267.92,465.11c0.35-1.35,0.74-3.31,1.35-5.2c1.68-5.17,3.62-10.23,6.71-14.75c0.54-0.79,1.05-1.62,1.71-2.29
		c1.21-1.24,3.11-1.42,4.38-0.54c1.32,0.91,1.88,2.67,1.29,4.24c-0.22,0.59-0.58,1.14-0.9,1.69c-3.07,5.19-5.14,10.77-6.5,16.63
		c-0.25,1.07-0.63,2.16-1.18,3.1c-0.9,1.53-2.64,2.16-4.1,1.72C268.97,469.2,267.83,467.56,267.92,465.11z"/>
	<path d="M344.99,481.87c-2.24,0-3.81-1.52-3.79-3.74c0.01-0.62,0.09-1.31,0.38-1.85c3.06-5.87,6.17-11.72,9.28-17.56
		c0.3-0.56,0.71-1.07,1.16-1.52c1.19-1.2,3.08-1.44,4.4-0.62c1.26,0.78,1.87,2.39,1.44,3.99c-0.14,0.53-0.43,1.03-0.67,1.53
		c-2.52,5.07-5.06,10.14-7.58,15.21c-0.43,0.86-0.78,1.76-1.28,2.57C347.56,481.08,346.5,481.87,344.99,481.87z"/>
	<path d="M421.94,489.41c0.04,2.74-1.39,4.61-3.76,4.72c-2.31,0.11-3.93-1.43-4.12-4.03c-0.2-2.87-0.18-5.76-0.46-8.62
		c-0.3-3.01-0.83-6-1.27-9c-0.13-0.87-0.38-1.73-0.42-2.59c-0.08-1.74,0.82-3,2.36-3.47c1.56-0.49,3.38,0.1,4.09,1.65
		c0.72,1.58,1.28,3.29,1.58,5c0.66,3.85,1.13,7.73,1.63,11.6C421.75,486.16,421.81,487.68,421.94,489.41z"/>
	<path d="M278.64,466.89c2.37-0.02,4.04,1.95,3.66,4.22c-0.21,1.26-0.57,2.5-0.97,3.71c-1.39,4.18-1.42,8.47-1.09,12.79
		c0.07,0.95,0.16,1.92,0.08,2.87c-0.17,1.87-1.61,3.3-3.37,3.49c-1.88,0.21-3.39-0.77-4.04-2.67c-0.2-0.6-0.32-1.24-0.38-1.87
		c-0.67-6.8,0.29-13.37,2.84-19.71C276.01,468.11,277,467,278.64,466.89z"/>
	<path d="M285.57,458.21c-2.13-0.03-3.81-2.4-2.92-4.97c0.23-0.67,0.58-1.33,1.02-1.88c2.94-3.67,5.91-7.3,8.88-10.95
		c0.9-1.11,1.84-2.19,2.68-3.34c1.34-1.83,3.25-2.43,4.98-1.47c1.62,0.9,2.21,2.78,1.36,4.79c-0.4,0.94-0.93,1.89-1.62,2.63
		c-3.77,4.03-6.9,8.55-10.07,13.04C288.93,457.4,287.81,458.26,285.57,458.21z"/>
	<path d="M375.26,468.49c-0.13,0.4-0.31,1.09-0.56,1.75c-1.69,4.39-3.38,8.78-5.1,13.15c-0.41,1.04-0.83,2.09-1.38,3.05
		c-1.28,2.2-3.58,2.99-5.47,1.96c-1.82-0.99-2.39-3.11-1.42-5.46c0.58-1.4,1.26-2.76,1.85-4.15c1.38-3.23,2.69-6.48,4.12-9.68
		c0.55-1.23,1.23-2.43,2.07-3.47c1-1.23,2.55-1.46,3.92-0.77C374.63,465.54,375.26,466.69,375.26,468.49z"/>
	<path d="M265.99,454.31c-2.22-0.06-3.87-1.91-3.59-4.18c0.1-0.85,0.44-1.71,0.84-2.47c1.83-3.45,3.66-6.92,5.64-10.29
		c1-1.71,2.21-3.33,3.49-4.85c1.49-1.78,3.47-2,5.1-0.77c1.45,1.1,1.84,3.18,0.54,4.94c-3.35,4.54-5.48,9.73-8.06,14.68
		C269.11,452.99,268.07,454.34,265.99,454.31z"/>
	<path d="M302.42,455.66c-2.96,0.03-4.76-2.43-3.88-4.93c0.21-0.59,0.52-1.18,0.91-1.68c3.63-4.56,7.29-9.1,10.96-13.64
		c0.3-0.37,0.68-0.68,1.07-0.95c1.33-0.91,2.71-0.93,4.04-0.05c1.3,0.86,1.55,2.21,1.26,3.61c-0.16,0.75-0.55,1.51-1.02,2.13
		c-3.33,4.49-6.71,8.94-10.07,13.42C304.79,454.79,303.72,455.69,302.42,455.66z"/>
	<path d="M401.54,480.39c-1.03,5.96-1.98,11.93-3.13,17.87c-0.43,2.21-1.96,3.23-3.91,3.14c-1.7-0.07-3.14-1.19-3.4-2.82
		c-0.15-0.93-0.16-1.93,0.02-2.86c1.03-5.55,2.13-11.1,3.24-16.64c0.12-0.61,0.41-1.21,0.74-1.74c0.77-1.21,1.95-1.59,3.32-1.35
		c1.4,0.25,2.49,1.3,2.74,2.66c0.1,0.54,0.08,1.11,0.11,1.67C401.36,480.36,401.45,480.37,401.54,480.39z"/>
	<path d="M452.84,479.77c0.01,1.71-0.34,2.92-1.34,3.84c-1.51,1.39-4,1.09-5.21-0.75c-0.6-0.91-1.02-2.01-1.22-3.08
		c-0.84-4.58-2.49-8.9-4.11-13.23c-0.31-0.82-0.66-1.64-0.83-2.5c-0.35-1.75,0.48-3.38,1.91-3.98c1.58-0.66,3.47-0.14,4.45,1.35
		c0.56,0.86,1.05,1.81,1.38,2.78c1.57,4.6,3.08,9.21,4.59,13.83C452.69,478.71,452.77,479.43,452.84,479.77z"/>
	<path d="M345.77,363.19c-0.18,0.57-0.38,1.61-0.82,2.52c-1.47,3.06-2.28,6.25-2.43,9.65c-0.07,1.59-0.33,3.18-0.65,4.73
		c-0.53,2.54-2.37,3.82-4.64,3.37c-2.23-0.44-3.33-2.35-2.91-4.95c0.3-1.89,0.55-3.78,0.8-5.68c0.55-4.17,2.09-8.01,4.02-11.68
		c0.87-1.65,2.4-2.21,4.04-1.78C344.69,359.78,345.74,361.14,345.77,363.19z"/>
	<path d="M435.63,353.07c1.33,0.06,2.34,1.12,3.04,2.55c1.55,3.14,3.08,6.3,4.63,9.44c0.78,1.57,1.61,3.12,2.37,4.7
		c0.34,0.71,0.67,1.46,0.82,2.23c0.35,1.73-0.53,3.31-2.18,4.1c-1.42,0.69-2.95,0.42-4.12-0.85c-0.53-0.58-0.99-1.26-1.32-1.97
		c-2.15-4.54-4.3-9.07-6.33-13.66c-0.47-1.05-0.68-2.31-0.66-3.47C431.91,354.38,433.48,353.07,435.63,353.07z"/>
	<path d="M318.21,418.73c-0.38,0.85-0.62,1.81-1.16,2.54c-3.01,4.03-6.05,8.05-9.18,11.98c-0.6,0.76-1.6,1.36-2.54,1.65
		c-1.58,0.5-3.2-0.21-3.95-1.53c-0.87-1.54-0.77-3.1,0.33-4.49c2.33-2.94,4.73-5.83,7.1-8.74c1.11-1.36,2.17-2.77,3.38-4.04
		c1.11-1.17,2.56-1.28,3.98-0.6C317.45,416.11,318.04,417.2,318.21,418.73z"/>
	<path d="M363.47,354.57c2.43,0,4.06,2.18,3.4,4.49c-0.26,0.91-0.69,1.78-1.09,2.65c-1.45,3.22-2.39,6.57-2.83,10.07
		c-0.12,0.94-0.36,1.89-0.67,2.78c-0.68,1.93-2.09,2.74-4.09,2.48c-1.81-0.24-3.11-1.65-3.05-3.67c0.05-1.58,0.4-3.15,0.7-4.71
		c0.81-4.18,2.32-8.1,4.36-11.84C360.96,355.45,362.03,354.65,363.47,354.57z"/>
	<path d="M459.26,360.55c1.39-0.06,2.46,0.99,3.19,2.4c1.46,2.83,2.87,5.7,4.24,8.57c0.58,1.22,1.04,2.5,1.56,3.76
		c0.12,0.3,0.28,0.58,0.38,0.88c0.83,2.45,0.01,4.73-1.97,5.48c-2.17,0.83-4.17-0.3-5.24-2.88c-1.72-4.12-3.47-8.22-5.2-12.33
		c-0.22-0.51-0.49-1.02-0.62-1.55C455.1,362.68,456.69,360.61,459.26,360.55z"/>
	<path d="M329.14,527.03c-2.99,0-4.78-2.7-3.67-5.05c0.43-0.92,1.1-1.76,1.8-2.5c2.93-3.06,5.66-6.26,8.03-9.78
		c1.29-1.91,3.27-2.4,4.98-1.42c1.62,0.93,2.24,3.1,1.1,5.06c-1.32,2.26-2.85,4.42-4.45,6.5c-1.45,1.89-3.09,3.64-4.68,5.43
		C331.32,526.32,330.2,527.05,329.14,527.03z"/>
	<path d="M337.72,443.77c-0.22,0.42-0.56,1.42-1.19,2.18c-2.8,3.38-5.66,6.71-8.56,10c-0.67,0.76-1.5,1.46-2.38,1.95
		c-1.37,0.76-2.83,0.61-4.04-0.4c-1.23-1.03-1.44-2.47-0.97-3.94c0.21-0.67,0.58-1.34,1.05-1.86c3.09-3.45,6.21-6.87,9.36-10.27
		c0.88-0.95,1.94-1.65,3.35-1.6C336.28,439.9,337.68,441.26,337.72,443.77z"/>
	<path d="M258.99,400.11c-0.36,0.86-0.6,1.8-1.1,2.58c-2.71,4.29-6.38,7.74-10.05,11.17c-0.29,0.27-0.65,0.46-1,0.65
		c-1.83,1.01-3.68,0.67-4.92-0.9c-1.08-1.36-0.96-3.41,0.33-4.81c0.7-0.76,1.51-1.42,2.22-2.17c2.62-2.78,5.23-5.57,7.84-8.36
		c0.33-0.35,0.64-0.72,1.02-1c1.12-0.84,2.36-1.01,3.59-0.35C258.14,397.57,258.85,398.59,258.99,400.11z"/>
	<path d="M294.42,480.54c-3.32,0.19-4.42-3.13-3.53-5.12c0.29-0.64,0.72-1.24,1.16-1.8c2.5-3.2,5.02-6.38,7.53-9.56
		c0.25-0.31,0.47-0.64,0.74-0.94c1.47-1.6,3.11-1.91,4.67-0.89c1.5,0.98,2.01,2.79,1.27,4.66c-0.17,0.44-0.42,0.86-0.7,1.24
		c-2.62,3.51-5.25,7.01-7.87,10.52C296.84,479.8,295.83,480.62,294.42,480.54z"/>
	<path d="M298.5,427.03c-0.22,0.47-0.53,1.48-1.12,2.28c-2.48,3.33-5.05,6.59-7.6,9.87c-0.44,0.57-0.89,1.14-1.42,1.61
		c-1.51,1.32-3.37,1.38-4.81,0.23c-1.43-1.15-1.9-3.08-0.94-4.74c0.76-1.3,1.74-2.49,2.7-3.66c2.18-2.65,4.38-5.28,6.61-7.89
		c0.87-1.01,1.99-1.58,3.38-1.51C297.05,423.32,298.46,424.74,298.5,427.03z"/>
	<path d="M381.49,486.6c0.38-1.26,0.91-3.17,1.55-5.04c0.9-2.64,1.89-5.25,2.84-7.88c0.08-0.23,0.17-0.45,0.27-0.67
		c1.03-2.35,2.73-3.35,4.63-2.72c1.99,0.66,2.9,2.73,2.15,5.14c-1.33,4.26-2.69,8.51-4.11,12.74c-0.83,2.48-2.93,3.63-4.97,2.86
		C382.24,490.43,381.46,489.2,381.49,486.6z"/>
	<path d="M323.4,381.78c0.48-4.56,1.55-9.42,4.15-13.84c0.99-1.69,2.59-2.3,4.25-1.72c1.61,0.55,2.45,2.06,2.15,4.03
		c-0.12,0.78-0.32,1.58-0.65,2.29c-1.25,2.71-1.8,5.59-2.21,8.51c-0.1,0.71-0.21,1.42-0.36,2.12c-0.55,2.4-2.06,3.59-4.2,3.35
		C324.4,386.27,323.35,384.85,323.4,381.78z"/>
	<path d="M283.88,412.67c-0.2,0.4-0.48,1.25-0.99,1.92c-2.4,3.18-4.87,6.31-7.31,9.45c-0.8,1.03-1.69,1.88-3.11,1.98
		c-2.53,0.18-4.31-1.72-3.84-4.22c0.12-0.61,0.32-1.28,0.69-1.76c2.62-3.31,5.25-6.61,7.96-9.84c0.83-1,1.99-1.54,3.4-1.44
		C282.58,408.9,283.94,410.32,283.88,412.67z"/>
	<path d="M423.24,360.47c-0.02-2.03,0.76-3.05,2.14-3.64c1.52-0.65,2.87-0.2,3.93,0.9c0.71,0.73,1.28,1.65,1.73,2.57
		c1.46,3.02,2.88,6.05,4.23,9.12c0.6,1.37,0.66,2.78-0.38,4.06c-0.95,1.16-2.19,1.8-3.58,1.33c-0.98-0.33-1.93-1.09-2.6-1.9
		c-0.64-0.77-0.9-1.85-1.33-2.8c-1.14-2.55-2.28-5.1-3.4-7.66C423.63,361.68,423.37,360.85,423.24,360.47z"/>
	<path d="M290.94,486.55c-0.62,2.78-1.2,5.75-1.95,8.68c-0.35,1.36-1.19,2.45-2.72,2.73c-2.74,0.51-4.72-1.33-4.41-4.13
		c0.1-0.87,0.3-1.74,0.55-2.58c0.76-2.56,1.01-5.15,0.89-7.81c-0.11-2.25,0.85-3.52,2.69-3.91c1.8-0.38,3.44,0.66,4.11,2.79
		C290.48,483.6,290.62,484.95,290.94,486.55z"/>
	<path d="M253.46,455.07c-2.69,0.03-4.44-2.35-3.63-4.8c0.22-0.67,0.65-1.27,1.04-1.87c1.79-2.74,3.62-5.46,5.38-8.21
		c1.19-1.86,2.76-2.6,4.39-1.94c1.79,0.72,2.62,2.47,2.08,4.56c-0.22,0.84-0.51,1.71-0.97,2.44c-1.7,2.71-3.46,5.37-5.23,8.03
		C255.77,454.39,254.67,454.99,253.46,455.07z"/>
	<path d="M300.04,511.25c-3.26,0.01-5.05-2.84-3.82-5.28c0.56-1.12,1.4-2.13,2.22-3.09c1.85-2.19,3.73-4.35,5.67-6.46
		c1.49-1.62,3.38-1.8,4.9-0.6c1.57,1.24,1.94,3.05,0.61,4.87c-2.31,3.14-4.75,6.19-7.27,9.16
		C301.69,510.61,300.53,510.97,300.04,511.25z"/>
	<path d="M297.55,486.87c1.74-2.25,3.5-4.48,5.23-6.74c0.58-0.76,1.02-1.63,1.64-2.35c1.29-1.52,3.26-1.86,4.72-0.92
		c1.56,1,2.09,3.02,1.08,4.89c-1.06,1.96-2.29,3.83-3.5,5.71c-0.82,1.27-1.71,2.51-2.62,3.71c-1.5,1.98-3.43,2.53-5.2,1.54
		c-1.74-0.97-2.23-2.62-1.49-4.99c0.09-0.3,0.16-0.61,0.24-0.92C297.63,486.78,297.55,486.87,297.55,486.87z"/>
	<path d="M292.94,417.02c-0.46,0.89-0.8,1.88-1.4,2.67c-2.08,2.72-4.2,5.41-6.41,8.01c-0.68,0.81-1.64,1.57-2.62,1.89
		c-1.48,0.48-2.86-0.13-3.71-1.48c-0.95-1.51-0.84-3.12,0.2-4.48c2.13-2.78,4.37-5.47,6.64-8.14c0.55-0.65,1.32-1.16,2.08-1.55
		c1.52-0.78,3.26-0.37,4.26,0.99C292.37,415.48,292.56,416.18,292.94,417.02z"/>
	<path d="M454.35,366.61c-0.11,1.68-0.93,2.79-2.4,3.38c-1.43,0.57-3.32,0.25-4.04-1.19c-1.92-3.84-3.66-7.77-5.2-11.77
		c-0.57-1.48,0.34-2.67,1.85-3.5c1.34-0.73,2.53-0.63,3.73,0.49c0.62,0.59,1.15,1.34,1.53,2.11c1.35,2.71,2.64,5.46,3.9,8.22
		C454.03,365.06,454.14,365.86,454.35,366.61z"/>
	<path d="M376.41,362.22c-0.04,0.2-0.11,0.76-0.26,1.29c-0.83,2.9-1.66,5.8-2.52,8.69c-0.18,0.6-0.37,1.23-0.7,1.76
		c-0.89,1.41-2.41,1.97-3.92,1.56c-1.55-0.42-2.77-1.87-2.68-3.51c0.07-1.25,0.36-2.52,0.73-3.72c0.79-2.58,1.59-5.18,2.63-7.66
		c0.39-0.93,1.3-1.9,2.22-2.31C374.2,357.28,376.49,359.18,376.41,362.22z"/>
	<path d="M360.9,517.51c-0.14,0.4-0.3,1.29-0.74,2.02c-1.67,2.81-3.31,5.65-5.17,8.34c-1.8,2.61-5.16,2.49-6.48-0.09
		c-0.69-1.35-0.45-2.7,0.29-3.88c1.9-3.04,3.87-6.06,5.9-9.01c1.03-1.5,2.47-1.84,4-1.24C360.04,514.17,360.93,515.55,360.9,517.51z
		"/>
	<path d="M343.98,376.38c0.9-3.46,1.67-6.96,2.73-10.36c0.62-1.99,2.54-2.76,4.45-2.19c1.63,0.48,2.68,2.26,2.32,4.2
		c-0.58,3.13-1.26,6.23-1.9,9.35c-0.03,0.15-0.1,0.3-0.16,0.45c-0.78,2.07-2.33,3.14-4.15,2.86
		C345.44,380.4,344.21,378.69,343.98,376.38z"/>
	<path d="M324.91,413c-0.43,0.2-0.86,0.42-1.3,0.6c-1.63,0.65-3.17,0.37-4.18-0.74c-0.95-1.04-1.34-3.01-0.53-4.26
		c1.82-2.81,3.8-5.51,5.74-8.24c0.27-0.38,0.67-0.68,1.06-0.96c1.56-1.13,3.31-1.07,4.6,0.13c1.22,1.13,1.45,3.03,0.43,4.59
		c-1.75,2.67-3.59,5.28-5.38,7.92c-0.22,0.32-0.35,0.7-0.52,1.05L324.91,413z"/>
	<path d="M386.77,362.63c-0.17,0.77-0.21,1.26-0.39,1.69c-1.09,2.73-2.12,5.5-3.38,8.15c-0.44,0.93-1.33,1.83-2.24,2.32
		c-1.26,0.66-2.65,0.37-3.77-0.63c-1.13-1.02-1.41-2.34-0.95-3.71c0.59-1.73,1.32-3.41,2.04-5.09c0.57-1.31,1.12-2.65,1.85-3.87
		c1.43-2.38,4.15-2.81,5.78-0.92C386.26,361.19,386.49,362.07,386.77,362.63z"/>
	<path d="M257.06,467.46c0.25-3.61,1.17-7,2.6-10.23c0.74-1.67,2.36-2.35,3.95-1.96c1.71,0.42,2.72,1.84,2.68,3.76
		c-0.01,0.32-0.03,0.64-0.1,0.95c-0.62,2.8-1.2,5.61-1.88,8.39c-0.54,2.19-2.28,3.38-4.22,3.04
		C258.24,471.1,257.06,469.52,257.06,467.46z"/>
	<path d="M460.81,460.21c-1.21-0.06-2.39-0.78-3.03-2.21c-1.26-2.83-2.51-5.67-3.65-8.56c-0.68-1.71,0.03-3.55,1.46-4.38
		c1.54-0.89,3.69-0.58,4.61,1.13c1.65,3.06,3.19,6.23,4.37,9.5C465.44,458.13,463.61,460.26,460.81,460.21z"/>
	<path d="M259.84,429.04c-0.08,0.23-0.15,1.01-0.55,1.55c-1.85,2.59-3.76,5.15-5.72,7.66c-0.77,0.99-1.92,1.43-3.2,1.3
		c-2.5-0.26-3.95-2.87-2.88-5.18c0.27-0.57,0.67-1.09,1.06-1.59c1.52-1.95,3.02-3.91,4.62-5.8c0.6-0.71,1.36-1.42,2.2-1.76
		C257.67,424.31,259.92,426.05,259.84,429.04z"/>
	<path d="M401.76,445.65c0,1.27,0.06,2.55-0.02,3.82c-0.04,0.7-0.2,1.44-0.51,2.05c-0.67,1.3-1.77,1.97-3.3,1.91
		c-1.57-0.06-2.56-0.88-2.98-2.3c-0.29-0.97-0.42-2.03-0.4-3.04c0.05-2.3,0.18-4.61,0.39-6.9c0.19-2.08,1.52-3.32,3.37-3.33
		c1.82-0.02,3.25,1.23,3.44,3.27C401.88,442.61,401.77,444.14,401.76,445.65C401.77,445.65,401.76,445.65,401.76,445.65z"/>
	<path d="M391.85,442.39c-0.3,2.3-0.54,4.6-0.93,6.89c-0.13,0.76-0.51,1.54-0.98,2.15c-0.91,1.17-2.19,1.58-3.64,1.21
		c-1.36-0.35-2.27-1.23-2.49-2.62c-0.14-0.85-0.11-1.75-0.01-2.6c0.22-1.9,0.55-3.79,0.81-5.69c0.36-2.63,1.77-4.01,3.98-3.85
		C390.65,438.01,391.98,439.85,391.85,442.39z"/>
	<path d="M247.24,390.42c-0.79,0.52-1.53,1.14-2.38,1.52c-1.51,0.69-3.04,0.27-4.11-0.96c-0.91-1.04-1.27-2.88-0.32-3.99
		c2.12-2.46,4.37-4.82,6.79-6.98c1.22-1.09,3.25-0.58,4.34,0.61c1.1,1.2,1.32,2.73,0.27,4.15c-1.46,1.97-3.12,3.78-4.69,5.66
		C247.15,390.43,247.24,390.42,247.24,390.42z"/>
	<path d="M250.81,373.2c-0.26,0.45-0.65,1.52-1.37,2.28c-1.58,1.68-3.32,3.22-5.02,4.78c-0.4,0.37-0.88,0.7-1.38,0.92
		c-1.57,0.69-3.41,0.26-4.35-0.95c-0.98-1.24-1.19-3.26-0.02-4.43c2.19-2.18,4.46-4.36,7-6.09
		C247.93,368.16,250.79,369.93,250.81,373.2z"/>
	<path d="M475.71,393.24c-0.01,2.21-1.09,3.73-2.69,4.08c-1.65,0.37-3.47-0.42-4.12-2.14c-1.01-2.68-1.91-5.43-2.61-8.21
		c-0.46-1.83,0.67-3.56,2.22-4.03c1.83-0.55,3.55,0.11,4.36,1.99c1.03,2.42,1.84,4.93,2.72,7.42
		C475.72,392.72,475.7,393.14,475.71,393.24z"/>
	<path d="M323.31,445.34c-0.18,0.45-0.38,1.33-0.84,2.03c-1.24,1.85-2.56,3.65-3.91,5.43c-0.42,0.56-0.99,1.05-1.58,1.44
		c-1.45,0.94-3.14,0.77-4.42-0.34c-1.12-0.96-1.65-2.76-0.7-4.13c1.8-2.61,3.8-5.1,5.92-7.46c0.96-1.07,2.5-1,3.8-0.33
		C322.72,442.58,323.24,443.64,323.31,445.34z"/>
	<path d="M470.41,420.57c0.1,1.49-0.58,2.63-1.88,3.31c-1.23,0.64-2.47,0.47-3.62-0.31c-0.26-0.18-0.55-0.36-0.73-0.61
		c-1.95-2.67-3.28-5.66-4.16-8.81c-0.38-1.36,0.67-2.92,1.94-3.54c1.22-0.59,3.03-0.53,3.73,0.63c1.73,2.85,3.17,5.87,4.72,8.83
		C470.47,420.19,470.41,420.38,470.41,420.57z"/>
	<path d="M337.89,463.41c0.09-0.26,0.18-0.83,0.46-1.3c1.21-2.06,2.38-4.15,3.73-6.1c1.18-1.7,3.14-2.1,4.6-1.19
		c1.67,1.04,2.21,2.84,1.28,4.79c-0.89,1.87-1.88,3.68-2.88,5.49c-0.3,0.55-0.71,1.07-1.16,1.5c-1.2,1.15-2.79,1.37-4.18,0.65
		C338.29,466.51,337.8,465.25,337.89,463.41z"/>
	<path d="M300.13,461.08c-0.1,0.3-0.17,1.09-0.57,1.62c-1.6,2.08-3.24,4.14-4.99,6.1c-1.03,1.15-2.42,1.52-3.93,0.84
		c-2.09-0.94-3-3.31-1.65-5.17c1.63-2.24,3.55-4.29,5.5-6.27c1.03-1.05,2.53-1,3.82-0.4C299.46,458.34,300.12,459.34,300.13,461.08z
		"/>
	<path d="M462.48,439.22c-1.4,0.1-2.54-0.69-3.17-2.12c-0.93-2.11-1.83-4.23-2.6-6.4c-0.78-2.18,0-3.99,1.87-4.78
		c1.73-0.73,3.54-0.09,4.56,1.92c1.08,2.12,2.06,4.31,2.8,6.56C466.8,437.04,465.18,439.3,462.48,439.22z"/>
	<path d="M404.31,441.49c-0.1-2.02,0.88-3.52,2.5-3.89c1.72-0.39,3.38,0.35,4.03,2.15c0.83,2.31,1.52,4.69,2.01,7.09
		c0.46,2.23-0.74,4.07-2.55,4.48c-1.94,0.45-3.88-0.72-4.57-2.92c-0.5-1.59-0.79-3.24-1.14-4.87
		C404.44,442.85,404.39,442.13,404.31,441.49z"/>
	<path d="M319.15,434.15c-3.13,0.07-4.94-2.47-3.52-4.93c1.45-2.51,3.46-4.73,5.46-6.85c1.1-1.16,2.93-0.89,4.17,0.1
		c1.1,0.87,1.75,2.61,0.92,3.87c-1.65,2.51-3.57,4.83-5.49,7.15C320.31,433.96,319.44,434.04,319.15,434.15z"/>
	<path d="M393.42,361.62c2.15,1.54,2.42,3.55,1.58,5.91c-0.54,1.5-0.87,3.07-1.45,4.54c-0.87,2.21-2.85,3.2-4.74,2.53
		c-1.9-0.68-2.79-2.64-2.15-4.91c0.46-1.6,0.96-3.2,1.54-4.76c1.04-2.77,2.29-3.5,5.29-3.25
		C393.49,361.68,393.42,361.62,393.42,361.62z"/>
	<path d="M238.55,353.02c3.01-0.06,4.66,2.39,3.61,4.76c-0.28,0.64-0.74,1.23-1.23,1.74c-1.32,1.38-2.63,2.78-4.07,4.03
		c-1.53,1.33-3.65,1.21-4.99-0.1c-1.24-1.21-1.51-3.34-0.23-4.77c1.63-1.83,3.5-3.45,5.35-5.07
		C237.48,353.19,238.28,353.11,238.55,353.02z"/>
	<path d="M316.01,503.22c2.97,0.04,4.74,2.65,3.38,4.91c-1.42,2.35-3.33,4.45-5.27,6.43c-1.1,1.12-2.99,0.85-4.19-0.14
		c-1.23-1.01-1.9-2.79-1-4.06c1.64-2.32,3.57-4.45,5.49-6.56C314.84,503.34,315.72,503.32,316.01,503.22z"/>
	<path d="M468.62,401.61c1.45,0.05,2.62,0.97,3.36,2.37c0.89,1.69,1.72,3.41,2.4,5.19c0.86,2.26,0.06,4.33-1.78,5.03
		c-2.03,0.78-3.99-0.12-4.99-2.35c-0.81-1.81-1.7-3.6-2.34-5.47C464.43,403.96,466.02,401.64,468.62,401.61z"/>
	<path d="M333.08,432.97c-0.03,0.32,0.03,0.67-0.1,0.94c-1.36,2.83-3.19,5.32-5.87,7.01c-1.43,0.9-3.24,0.4-4.32-0.83
		c-1.03-1.19-1.28-2.81-0.24-4.18c1.53-2.02,3.23-3.92,4.99-5.74c1.06-1.09,2.48-0.98,3.78-0.33
		C332.57,430.47,333.17,431.55,333.08,432.97z"/>
	<path d="M424.06,370.85c-0.28,1.8-1.13,3.08-2.63,3.61c-1.41,0.5-3.08,0.05-3.98-1.38c-1.4-2.25-2.18-4.78-2.36-7.41
		c-0.11-1.55,0.96-2.82,2.32-3.25c1.52-0.48,3.3-0.08,3.98,1.35C422.46,366.04,423.18,368.48,424.06,370.85z"/>
	<path d="M377.61,436.2c3.15,0.01,4.77,2.21,3.9,4.6c-0.68,1.86-1.51,3.67-2.43,5.42c-1,1.9-2.89,2.58-4.61,1.88
		c-1.63-0.67-2.64-2.4-2.02-4.33c0.67-2.09,1.64-4.13,2.8-5.99C375.79,436.91,377.11,436.51,377.61,436.2z"/>
	<path d="M422.15,444.07c0.03,1.97-0.61,3.1-2.01,3.69c-1.35,0.57-2.69,0.48-3.77-0.58c-0.55-0.54-1.07-1.21-1.37-1.91
		c-0.66-1.53-1.23-3.11-1.72-4.7c-0.53-1.69,0.13-3.35,1.51-4.16c1.48-0.87,3.38-0.6,4.51,0.88
		C420.93,439.41,421.68,441.93,422.15,444.07z"/>
	<path d="M340.67,472.31c-0.08,0.27-0.16,0.94-0.46,1.47c-0.93,1.67-1.87,3.34-2.95,4.92c-1.1,1.61-3.1,2.08-4.64,1.25
		c-1.43-0.77-2.41-2.74-1.64-4.32c1.06-2.2,2.44-4.27,3.92-6.22c0.86-1.13,2.78-1.24,3.97-0.59
		C340.09,469.5,340.75,470.53,340.67,472.31z"/>
	<path d="M269.59,430.19c-0.08,0.27-0.14,0.95-0.46,1.47c-0.92,1.49-1.83,3-2.95,4.33c-1.47,1.74-3.53,1.93-5.1,0.7
		c-1.63-1.28-1.85-3.07-0.53-5.09c0.87-1.33,1.76-2.66,2.78-3.88c1.04-1.26,2.74-1.61,4.13-1.07
		C268.72,427.13,269.57,428.39,269.59,430.19z"/>
	<path d="M324.83,413.08c0.79-0.75,1.61-1.48,2.37-2.26c1.38-1.41,3.27-1.75,4.72-0.81c1.51,0.99,2.04,3.09,0.96,4.86
		c-0.95,1.55-2.09,3-3.32,4.33c-1.41,1.54-3.19,1.66-4.72,0.57c-1.41-1.01-1.85-2.95-1.03-4.71c0.33-0.71,0.73-1.38,1.1-2.07
		C324.91,413,324.83,413.08,324.83,413.08z"/>
	<path d="M269.27,415.2c-0.2,0.59-0.29,1.26-0.62,1.76c-0.87,1.33-1.77,2.66-2.81,3.87c-1.2,1.4-3.36,1.64-4.78,0.69
		c-1.45-0.97-2.01-3.03-0.99-4.68c0.95-1.55,2.12-2.99,3.38-4.31c1.04-1.09,2.49-1.04,3.81-0.44
		C268.5,412.68,269.25,413.68,269.27,415.2z"/>
	<path d="M429.98,475.78c-0.11,2.14-1.14,3.6-2.96,3.95c-1.89,0.37-3.45-0.48-4.08-2.46c-0.48-1.51-0.82-3.1-1.01-4.67
		c-0.21-1.78,0.85-3.28,2.35-3.75c1.66-0.52,3.39,0.15,4.16,1.93C429.14,472.36,429.48,474.1,429.98,475.78z"/>
	<path d="M369.11,530.37c0.53-1.63,1.31-3.8,2.86-5.54c0.86-0.96,2.06-1.17,3.29-0.73c1.28,0.46,2.25,1.3,2.35,2.72
		c0.21,2.9-1.15,5.24-3.08,7.19c-1,1.01-2.47,1.04-3.79,0.35C369.38,533.65,368.92,532.44,369.11,530.37z"/>
	<path d="M298.57,497.52c-0.04,0.15-0.07,0.86-0.42,1.33c-1.03,1.4-2.07,2.84-3.33,4.02c-1.4,1.31-3.48,1.15-4.77-0.08
		c-1.17-1.12-1.39-3.1-0.32-4.59c0.92-1.29,1.99-2.48,3.07-3.65c1.13-1.23,2.6-1.17,3.98-0.61
		C298.09,494.48,298.63,495.63,298.57,497.52z"/>
	<path d="M245.47,365.78c-2.44,0.03-4.22-2.35-3.16-4.61c0.75-1.61,1.9-3.15,3.21-4.35c1.78-1.62,4.72-0.55,5.37,1.73
		C251.68,361.33,248.37,365.74,245.47,365.78z"/>
	<path d="M426.52,434.4c2.08-0.02,3.15,1.31,3.95,2.97c0.87,1.82,1.79,3.68,0.43,5.64c-1.16,1.67-3.8,1.85-5.27,0.31
		c-1.41-1.47-2.23-3.32-2.41-5.35C423.04,435.91,424.49,434.44,426.52,434.4z"/>
	<path d="M414.07,501.66c0.21-0.81,0.45-2.23,0.94-3.55c0.58-1.55,2.08-2.33,3.62-2.13c1.57,0.21,3.05,1.57,2.96,3.22
		c-0.1,1.7-0.44,3.48-1.11,5.03c-0.71,1.63-2.53,2.22-4.03,1.78C414.99,505.57,414.04,504.08,414.07,501.66z"/>
	<path d="M379.61,484.49c-0.41,0.96-0.91,2.57-1.75,3.99c-0.79,1.33-2.6,1.74-4.06,1.18c-1.42-0.54-2.13-1.66-2.16-3.15
		c-0.04-2.11,0.83-3.89,2.27-5.36c0.93-0.94,2.69-1.11,3.81-0.44C378.88,481.4,379.61,482.41,379.61,484.49z"/>
	<path d="M441.41,436.41c0.06,1.9-0.86,3.36-2.14,3.83c-1.35,0.5-3.02,0.2-3.91-0.94c-0.78-0.99-1.44-2.1-1.98-3.23
		c-0.73-1.54-0.34-3.05,0.88-4.08c1.1-0.93,2.7-1.1,4-0.26C440.09,432.93,440.93,434.8,441.41,436.41z"/>
	<path d="M444.04,424.7c2.2,0.05,4.61,2.27,4.87,4.36c0.32,2.67-2.17,4.69-4.62,3.56c-1.18-0.54-2.23-1.52-3.09-2.52
		c-0.9-1.03-0.85-2.35-0.19-3.58C441.68,425.28,442.83,424.83,444.04,424.7z"/>
	<path d="M371.13,437.21c-0.04,2.26-2.07,4.48-4.12,4.5c-2.04,0.02-3.63-1.63-3.53-3.67c0.12-2.31,2.16-4.4,4.25-4.37
		C369.69,433.71,371.17,435.24,371.13,437.21z"/>
	<path d="M454.03,370.21c2.31-0.04,4.08,1.83,4.12,4.34c0.03,2.11-1.26,3.46-3.37,3.51c-2.24,0.05-4.02-1.85-4.1-4.39
		C450.6,371.57,451.88,370.25,454.03,370.21z"/>
	<path d="M308.99,461.95c-2.03,0.02-3.52-1.46-3.47-3.44c0.06-2.15,2.2-4.4,4.23-4.45c1.95-0.05,3.42,1.45,3.4,3.49
		C313.15,459.81,311.14,461.93,308.99,461.95z"/>
	<path d="M496.36,372.57c2.13,0.02,3.74,1.68,3.76,3.84c0.01,2.14-1.32,3.49-3.4,3.44c-2.03-0.05-3.85-1.86-3.84-3.82
		C492.9,373.98,494.34,372.54,496.36,372.57z"/>
	<path d="M352.55,363.23c-1.94-0.12-3.36-1.75-3.24-3.73c0.13-2.19,1.81-3.79,3.88-3.69c2,0.1,3.33,1.61,3.23,3.68
		C356.32,361.62,354.54,363.35,352.55,363.23z"/>
	<path d="M332.4,419.83c1.82,0,3.42,1.5,3.48,3.25c0.06,2.01-1.7,3.85-3.72,3.89c-2.06,0.04-3.41-1.34-3.36-3.44
		C328.84,421.57,330.53,419.83,332.4,419.83z"/>
	<path d="M450.84,417.83c1.93,0.02,3.49,1.6,3.43,3.49c-0.06,1.79-1.57,3.22-3.43,3.24c-1.96,0.02-3.47-1.52-3.39-3.47
		C447.53,419.22,449.01,417.8,450.84,417.83z"/>
	<path d="M247.24,390.42c0,0-0.1,0.01-0.1,0.02c1.02-0.33,2.04-0.91,3.07-0.95c1.9-0.07,3.23,1.5,3.17,3.39
		c-0.06,1.84-1.54,3.25-3.41,3.28c-1.87,0.02-3.4-1.37-3.35-3.25C246.64,392.07,247.02,391.25,247.24,390.42z"/>
	<path d="M297.63,486.78c-0.44,0.33-0.86,0.73-1.34,0.99c-1.47,0.81-3.07,0.53-4.13-0.67c-1.08-1.22-1.22-2.6-0.41-3.96
		c0.83-1.39,2.29-2.09,3.62-1.72c1.54,0.42,2.73,2,2.61,3.6c-0.04,0.63-0.28,1.24-0.43,1.85
		C297.55,486.87,297.63,486.78,297.63,486.78z"/>
	<path d="M243.31,396.68c1.78-0.01,3.34,1.57,3.34,3.39c0.01,1.88-1.43,3.4-3.27,3.46c-1.92,0.07-3.49-1.53-3.44-3.5
		C239.99,398.18,241.49,396.69,243.31,396.68z"/>
	<path d="M484.14,404.98c-2.11,0.04-3.54-1.28-3.55-3.27c-0.01-1.82,1.43-3.33,3.26-3.43c1.86-0.1,3.52,1.5,3.52,3.4
		C487.37,403.65,486.12,404.94,484.14,404.98z"/>
	<path d="M302.33,418.62c-0.02,2.04-1.48,3.42-3.55,3.35c-1.85-0.06-3.26-1.57-3.23-3.46c0.03-1.83,1.56-3.39,3.34-3.4
		C300.83,415.09,302.35,416.64,302.33,418.62z"/>
	<path d="M406.59,465.25c1.9,0.03,3.27,1.43,3.27,3.33c0,2.03-1.43,3.43-3.46,3.41c-1.95-0.02-3.36-1.57-3.28-3.59
		C403.21,466.52,404.64,465.21,406.59,465.25z"/>
	<path d="M323.17,517.19c-1.95,0.04-3.53-1.51-3.49-3.44c0.03-1.83,1.52-3.29,3.37-3.32c1.93-0.03,3.35,1.3,3.43,3.19
		C326.55,515.66,325.18,517.15,323.17,517.19z"/>
	<path d="M263.61,408.41c0,1.86-1.69,3.51-3.54,3.46c-1.78-0.05-3.32-1.61-3.34-3.39c-0.02-1.93,1.56-3.46,3.51-3.42
		C262.07,405.11,263.61,406.64,263.61,408.41z"/>
	<path d="M491.29,414.88c0.04,1.96-1.26,3.3-3.24,3.35c-1.95,0.04-3.38-1.29-3.43-3.2c-0.05-1.93,1.29-3.4,3.17-3.48
		C489.89,411.45,491.24,412.74,491.29,414.88z"/>
	<path d="M474.53,421.9c-1.94-0.01-3.36-1.41-3.35-3.31c0.01-2,1.51-3.48,3.5-3.45c1.75,0.02,3.28,1.66,3.25,3.48
		C477.9,420.51,476.44,421.91,474.53,421.9z"/>
	<path d="M285.7,461.99c-0.05,1.94-1.45,3.3-3.37,3.27c-1.86-0.03-3.35-1.53-3.33-3.36c0.02-1.98,1.59-3.47,3.55-3.38
		C284.48,458.6,285.75,460,285.7,461.99z"/>
	<path d="M494.18,393.15c-0.03,1.98-1.28,3.2-3.31,3.22c-2.07,0.02-3.58-1.41-3.53-3.33c0.05-1.84,1.76-3.41,3.64-3.32
		C492.81,389.8,494.21,391.3,494.18,393.15z"/>
	<path d="M492.04,406.8c-1.88,0.04-3.36-1.33-3.45-3.21c-0.1-1.95,1.4-3.56,3.33-3.59c1.8-0.03,3.4,1.44,3.49,3.24
		C495.51,405.16,494,406.76,492.04,406.8z"/>
	<path d="M288.85,404.01c-0.03,1.83-1.51,3.28-3.38,3.31c-1.99,0.03-3.44-1.46-3.4-3.49c0.04-1.92,1.41-3.27,3.34-3.29
		C287.38,400.52,288.88,402.04,288.85,404.01z"/>
	<path d="M383.03,472.97c-0.04,1.98-1.34,3.26-3.32,3.27c-1.97,0.01-3.39-1.52-3.32-3.56c0.07-1.86,1.55-3.2,3.48-3.14
		C381.78,469.61,383.07,471.01,383.03,472.97z"/>
	<path d="M289.88,474.61c-0.02,1.89-1.47,3.32-3.37,3.33c-1.84,0.01-3.38-1.49-3.4-3.3c-0.02-2.02,1.49-3.5,3.49-3.44
		C288.48,471.25,289.9,472.73,289.88,474.61z"/>
	<path d="M241.58,369.7c-0.03,1.84-1.52,3.27-3.42,3.27c-2.05,0-3.49-1.48-3.4-3.49c0.09-1.89,1.51-3.16,3.5-3.13
		C240.11,366.39,241.6,367.89,241.58,369.7z"/>
	<path d="M360.15,464.71c2.07-0.02,3.56,1.4,3.54,3.36c-0.02,1.91-1.48,3.35-3.36,3.32c-1.9-0.03-3.38-1.45-3.43-3.29
		C356.85,466.24,358.31,464.72,360.15,464.71z"/>
	<path d="M403.26,369.94c0.03,1.9-1.33,3.28-3.3,3.33c-2.09,0.05-3.53-1.33-3.5-3.36c0.03-1.89,1.46-3.24,3.4-3.23
		C401.81,366.7,403.23,368.07,403.26,369.94z"/>
	<path d="M270.74,476.04c-0.04,1.95-1.43,3.36-3.31,3.36c-1.9,0-3.54-1.68-3.47-3.53c0.07-1.83,1.59-3.19,3.52-3.15
		C269.52,472.75,270.78,474.04,270.74,476.04z"/>
	<path d="M464.84,400.63c-2.02,0.03-3.37-1.24-3.39-3.17c-0.02-2.07,1.34-3.41,3.45-3.42c1.77-0.01,3.42,1.63,3.38,3.35
		C468.23,399.27,466.81,400.6,464.84,400.63z"/>
	<path d="M355.86,429.68c1.86,0.03,3.32,1.5,3.31,3.36c-0.01,1.85-1.48,3.33-3.34,3.35c-1.98,0.03-3.49-1.51-3.42-3.49
		C352.47,431.05,353.97,429.65,355.86,429.68z"/>
	<path d="M342,284.58c-0.41,0.74-0.67,1.22-0.96,1.69c-0.98,1.61-2.42,2.53-4.28,2.75c-0.95,0.11-1.91,0.14-2.87,0.18
		c-3.11,0.14-6.23,0.16-9.33,0.42c-3.55,0.3-6.54-0.36-8.3-3.82c-0.42-0.83-1.12-0.88-1.83-0.53c-2.35,1.18-4.68,2.38-7,3.62
		c-0.77,0.41-1.42,1.05-2.2,1.44c-2.35,1.2-5.14,0.54-6.66-1.51c-1.55-2.09-1.43-4.89,0.44-6.8c0.88-0.9,1.96-1.65,3.01-2.35
		c6.46-4.32,13.66-6.45,21.33-7.25c11.63-1.21,22.54,1.29,33.01,6.2c0.72,0.34,1.43,0.73,2.07,1.2c2.26,1.69,2.86,4.43,1.54,6.82
		c-1.23,2.23-3.85,3.23-6.4,2.29c-2.92-1.08-5.77-2.33-8.66-3.47C344.05,285.13,343.12,284.91,342,284.58z"/>
	<path d="M435.76,283.63c-0.74,0.58-1.4,1.15-2.11,1.65c-2.24,1.56-4.97,1.36-6.79-0.47c-2.01-2.02-2.27-4.65-0.47-6.92
		c3.02-3.81,7.08-6.2,11.54-7.88c9.46-3.57,19.15-4.12,28.96-1.8c3.81,0.9,7.49,2.35,10.61,4.84c0.98,0.78,1.95,1.69,2.61,2.74
		c1.27,1.98,0.94,4.29-0.59,5.98c-1.51,1.66-3.83,2.19-5.9,1.29c-0.65-0.28-1.29-0.64-1.87-1.07c-3.32-2.43-7.15-3.46-11.12-4.14
		c-1.06-0.18-1.67,0.25-1.99,1.23c-1.08,3.37-3.49,4.67-6.92,4.78c-2.54,0.08-5.07,0.52-7.6,0.86
		C441.26,285.1,438.43,285.24,435.76,283.63z"/>
	<path fill="#FFFFFF" d="M443.56,390.13c0.07,0.88,0.17,1.5,0.15,2.11c-0.05,2.23-0.19,4.47-0.21,6.7
		c-0.01,0.97-0.31,1.64-1.07,2.24c-4.18,3.31-8.81,5.81-13.82,7.53c-3.92,1.34-7.91,2.54-11.94,3.5c-7.9,1.87-15.94,2.33-24.04,2.15
		c-11.22-0.26-22.07-2.32-32.42-6.67c-2.86-1.2-5.49-2.92-8.26-4.35c-1.65-0.85-1.99-2.22-1.55-3.82c0.77-2.83,0.01-2.56,3.06-3.16
		c5.64-1.11,11.28-2.21,16.93-3.2c7.29-1.28,14.6-1.12,21.95-0.3c8.18,0.92,16.39,1.43,24.59,0c5.27-0.92,10.53-1.92,15.82-2.69
		C436.3,389.66,439.88,389.85,443.56,390.13z"/>
	<path d="M453.94,511.81c-1.37-1.7-2.45-3.71-3.31-5.75c-2.05,0.36-4.11,0.71-6.17,0.99c-1.74,0.24-1.91,0.08-2.41-1.62
		c-0.95-3.25-1.81-6.53-2.69-9.8c-0.61-2.25-1.19-4.5-1.79-6.75c-0.07-0.27-0.19-0.53-0.3-0.79c-1.2-2.7-3.64-3.97-6.14-3.2
		c-2.54,0.78-3.85,3.13-3.25,6.09c0.99,4.91,2.07,9.81,3.11,14.71c0.1,0.47,0.13,0.95,0.23,1.72c-0.67,0-1.2,0.03-1.72-0.01
		c-5.66-0.43-11.17-1.66-16.62-3.16c-1.06-0.29-2.1-0.62-3.14-0.97c-0.11,0.49-0.2,0.98-0.32,1.47c-0.83,3.5-3.83,4.2-6.3,3.16
		c-0.06,0.08-0.13,0.15-0.2,0.23c0.13,0.29,0.24,0.59,0.3,0.92c0.3,1.47,0.35,2.72,0.19,3.91c3.97,1.39,7.99,2.62,12.13,3.49
		c7.15,1.51,14.31,2.59,21.64,2.18c1.18-0.07,2.38-0.01,3.68-0.01c0.07,0.48,0.21,0.88,0.18,1.26c-0.76,9.93-1.54,19.86-2.32,29.79
		c-0.12,1.48-0.27,2.96-0.31,4.44c-0.04,1.48-0.74,2.29-2.12,2.77c-6,2.11-12.04,4.01-18.32,5.14c-13.58,2.44-27.21,2.87-40.95,1.82
		c-12.85-0.98-25.5-3.12-37.99-6.22c-8.64-2.15-17.1-4.85-25.46-7.9c-11.03-4.02-21.67-8.88-31.96-14.5
		c-8.43-4.61-16.51-9.8-24.13-15.66c-7.8-5.99-15.04-12.61-21.33-20.18c-3.61-4.34-6.83-8.98-9.5-13.99
		c-0.51-0.96-0.53-1.85-0.32-2.85c1.96-9.33,3.88-18.66,5.85-27.99c1.54-7.32,3.16-14.63,4.7-21.95c1.64-7.81,3.22-15.63,4.85-23.44
		c0.35-1.66,0.73-3.31,1.22-4.93c0.13-0.43,0.45-0.89,0.82-1.19c-2.11-0.75-4.03-1.94-5.74-3.54c-1.52-1.42-2.78-3.77-4.62-4.92
		c-0.71,3.46-1.42,6.93-2.15,10.39c-2.37,11.26-4.81,22.51-7.18,33.77c-2.42,11.47-4.83,22.94-7.17,34.42
		c-0.84,4.12-2.11,8.18-1.51,12.54c0.27,1.93,0.66,3.72,1.59,5.42c4.28,7.78,9.65,14.76,15.75,21.18c4.57,4.82,9.5,9.25,14.66,13.44
		c6.04,4.9,12.4,9.33,18.97,13.46c6.52,4.1,13.25,7.81,20.19,11.15c4.58,2.2,9.19,4.35,13.88,6.29c4.49,1.86,9.11,3.43,13.67,5.12
		c8.02,2.96,16.24,5.3,24.55,7.27c5.63,1.34,11.3,2.53,17,3.5c9.27,1.58,18.61,2.5,28.02,2.89c8.99,0.37,17.96,0.05,26.88-0.93
		c8.72-0.96,17.29-2.77,25.57-5.73c3.51-1.26,6.94-2.78,10.32-4.36c2.31-1.08,3.4-3.05,3.31-5.67c-0.08-2.18-0.13-4.37,0.02-6.54
		c0.44-6.34,0.99-12.68,1.48-19.02c0.37-4.72,0.74-9.44,1.06-14.16c0.08-1.12,0.44-1.69,1.63-2.06c0.75-0.23,1.48-0.49,2.23-0.73
		C455.28,514.79,454.54,513.32,453.94,511.81z"/>
</g>
<g>
	<path d="M495.08,159.97c1.2,0.82,2.2,1.48,3.17,2.17c5.67,4.04,11.73,7.39,18.3,9.7c1.88,0.66,2.59,1.69,2.75,3.62
		c0.03,0.33,0.06,0.65,0.08,0.98c9.46,0.56,18.6,1.02,27.33-1.97c-0.04-0.48-0.06-0.96-0.04-1.43c0.02-0.51,0.34-1.17,0.75-1.49
		c1.11-0.87,2.37-1.53,3.5-2.37c4.08-3.07,7.61-6.65,9.81-11.34c2.06-4.41,2.72-9.13,3.01-13.94c0.25-4.19-0.88-8-2.95-11.57
		c-1.45-2.5-3.41-4.34-6.54-4.42c-2.41-0.06-4.29,1.18-5.17,3.44c-0.74,1.91-0.21,4.32,1.5,5.67c1.83,1.44,2.47,3.39,2.48,5.5
		c0.02,3.17-0.32,6.34-1.41,9.34c-0.77,2.13-1.79,4.15-3.65,5.87c-0.12-0.45-0.21-0.69-0.24-0.93c-0.34-3.01-0.63-6.03-1.01-9.03
		c-0.36-2.82-0.99-5.58-2.44-8.07c-0.65-1.12-0.61-2.26-0.44-3.51c0.53-4,0.93-8.02,1.43-12.03c0.1-0.77,0.29-1.59,0.66-2.27
		c1.88-3.37,3.4-6.87,4.26-10.65c1.21-5.31,1.74-10.64,0.64-16.03c-0.81-3.98-2.21-7.74-3.93-11.42
		c-3.78-8.09-9.65-14.39-16.67-19.68c-4.74-3.57-9.9-6.45-15.3-8.95c-6.2-2.87-12.57-5.16-19.29-6.41c-1.03-0.19-1.6-0.73-2.13-1.61
		c-1.35-2.24-2.78-4.45-4.32-6.57c-2.66-3.68-6.03-6.67-9.5-9.56c-5.67-4.73-11.73-8.75-18.72-11.33
		c-9.24-3.42-18.72-5.5-28.56-5.84c-7.1-0.25-14.11,0.5-21.07,1.94c-7.26,1.51-14.43,3.3-21.5,5.53
		c-7.63,2.41-15.25,4.87-22.92,7.18c-3.73,1.12-7.56,1.95-11.34,2.89c-3.85,0.95-7.72,1.84-11.57,2.81
		c-5.81,1.47-11.56,3.19-17.41,4.42c-8.76,1.84-17.6,3.28-26.39,5c-4.55,0.89-9.06,2.04-13.59,3.04c-3.82,0.84-7.55,1.95-11.14,3.52
		c-1.79,0.78-3.61,1.49-5.43,2.19c-4.09,1.58-8.08,3.38-11.68,5.91c-4.2,2.95-7.17,6.86-8.82,11.74c0.11,2.72-1.91,3.75-3.86,4.85
		c-0.23,0.13-0.5,0.22-0.71,0.38c-2.37,1.65-4.94,3.09-7.07,5.02c-7.06,6.42-11.87,14.41-15.22,23.26
		c-1.75,4.61-2.99,9.38-2.71,14.4c0.06,1.01-0.55,1.41-1.21,1.89c-1.67,1.24-3.49,2.34-4.93,3.81c-2.49,2.54-4.86,5.22-7.05,8.02
		c-5.55,7.09-8.42,15.08-7.92,24.2c0.44,7.98,1.82,15.78,4.22,23.4c0.6,1.91,1.58,3.71,2.38,5.56c0.56,1.29,1.39,2.53,1.62,3.88
		c0.59,3.39,1.52,6.62,3.21,9.55c1.66,0.9,3.4,1.72,5.22,2.42c10.77,4.12,22.48,4.52,33.87,3.82c10.66-0.66,21.2-2.4,31.73-4.04
		c2.97-0.46,5.97-1.01,8.98-1.48c0.25-0.41,0.59-0.79,1.04-1.17c4.2-3.48,8.28-7.11,11.68-11.4c3.42-4.31,6.17-8.99,7.15-14.52
		c0.06-0.33,0.15-0.65,0.24-0.98c0.02-0.06,0.07-0.11,0.23-0.33c0.46-0.03,1.04-0.09,1.63-0.09c2.36,0.03,4.72,0.15,7.07,0.11
		c8.11-0.13,15.93-1.66,23.27-5.21c5.58-2.7,9.97-6.8,13.44-11.92c0.41-0.6,0.83-1.21,1.31-1.91c2.18,1.8,4.2,3.57,6.32,5.21
		c6.8,5.24,14.14,9.56,22,13.02c7.44,3.27,15.24,4.28,23.26,4.21c0.27,0,0.54,0.02,0.81-0.03c2.25-0.4,3.81,0.46,5.43,2.14
		c4.37,4.53,9.9,7.13,16.02,8.44c5.24,1.11,10.53,1.41,15.87,0.78c7.54-0.9,14.76-2.9,21.67-6.08c4.72-2.18,9.22-4.71,13.49-7.67
		c4.1-2.85,7.9-6.06,11.37-9.66C493.98,161.3,494.48,160.67,495.08,159.97z M533.93,82.66c3.39,4.67,5.64,9.87,6.39,15.63
		c-4.38-10.43-10.86-19.31-18.97-27.08C526.35,74.15,530.54,77.99,533.93,82.66z M427.74,25.19c-2.47,0.26-4.95,0.42-7.4,0.8
		c-4.64,0.71-9.26,1.55-13.89,2.33c-0.51,0.08-1.02,0.12-1.53,0.17c8.16-2.35,16.4-4.09,24.94-4.03
		C429.28,25.09,428.5,25.11,427.74,25.19z"/>
</g>
<g>
	<path fill="#72C5EE" d="M138.92,235.3c-0.09,1.36-0.19,2.73-0.28,4.09c-1.24,1.54-1.01,3.28-0.72,5.04
		c-0.01,6.96-0.02,13.92-0.03,20.88c0.02,1.53,0.04,3.06,0.08,4.59c0,0.08,0.24,0.15,0.37,0.23c0.11,0.68,0.26,1.35,0.31,2.03
		c0.06,0.83,0.03,1.66,0.05,2.49c0.01,1.09-0.46,2.3,0.71,3.13c0.07,0.88,0.14,1.77,0.22,2.65c0.14,0.4,0.29,0.81,0.43,1.21
		c0.09,0.39,0.18,0.79,0.26,1.18c-0.99,0.35-1.99,0.66-2.95,1.07c-0.19,0.08-0.22,0.54-0.32,0.83c-1.47,0.07-2.56,0.84-3.49,1.9
		c-1.08,0.32-1.24,1.26-1.45,2.16c-0.09,0.24-0.18,0.49-0.27,0.73c-1.07,0.2-1.51,0.93-1.64,1.94c-0.14,0.35-0.3,0.7-0.41,1.06
		c-0.45,1.56-0.88,3.12-1.32,4.68c-0.29,0.31-0.77,0.6-0.81,0.94c-0.09,0.76,0.04,1.54,0.08,2.32c-0.02,3.95-0.06,7.9-0.06,11.85
		c0,4.71,0.04,9.42,0.06,14.13c-0.06,1.08-0.71,2.31,0.76,3c0,0.14,0,0.28,0,0.42c-0.04,0.25-0.09,0.5-0.13,0.75
		c0.63,1.43,1.26,2.86,1.89,4.29c-0.04,1.13,0.62,1.68,1.6,1.98c0.03,0.14,0.05,0.28,0.08,0.42c0.15,0.99,0.41,1.88,1.66,1.93l0,0
		c0.06,1.08,0.54,1.72,1.72,1.61c1.64,0.85,3.29,1.7,4.93,2.55c0.13,1.28,1.04,0.86,1.78,0.82c0.38,0.16,0.76,0.32,1.14,0.49
		c0.17,0.5,0.45,0.99,0.48,1.5c0.09,1.51,0.08,3.03,0.11,4.54c0,0.94-0.56,2.01,0.63,2.66c0,1.04,0.01,2.08,0.01,3.11
		c0.3,0.65-0.62,1.88,0.92,1.95c0.02,0.55,0.04,1.09,0.07,1.64c0.08,0.62-0.53,1.53,0.69,1.69c0.33,1.44,0.66,2.87,0.99,4.31
		c0.03,0.65-0.4,1.49,0.7,1.69c0.01,0.36,0.06,0.72,0.04,1.07c-0.04,0.59-0.25,1.21,0.68,1.36c0.13,0.02,0.18,0.6,0.26,0.92
		c0.01,0.66-0.4,1.51,0.74,1.68c-0.04,1.33,0.61,2.38,1.38,3.38c0.08,0.5,0.25,1,0.22,1.5c-0.05,0.75,0.31,0.95,0.95,0.93
		c0.17,0.51,0.34,1.01,0.5,1.52c0.16,0.51,0.31,1.03,0.56,1.47c0.43,0.76,1.13,1.48,1.24,2.28c0.15,1.1,1.02,1.58,1.49,2.38
		c0.71,1.22,1.85,2.16,2.09,3.69c0.08,0.55,0.59,1.05,0.96,1.52c0.78,0.99,1.59,1.95,2.39,2.93c0.18,0.93,0.37,1.86,1.58,1.98
		c0.61,0.78,1.19,1.58,1.82,2.34c1.65,1.99,3.21,4.07,5,5.93c1.89,1.96,3.85,3.92,6.05,5.5c3.83,2.75,7.89,5.18,11.82,7.8
		c1.17,0.78,2.37,1.33,3.72,1.74c1.27,0.38,2.54,0.96,3.64,1.71c0.88,0.6,1.71,0.94,2.76,0.89c0.17-0.01,0.37,0.42,0.55,0.65
		c-0.02,0.48-0.05,0.95-0.05,1.43c0,8.34,0,16.68,0,25.01c0,0.42,0,0.84,0,1.42c-3.4,0-6.62,0-9.84,0c-1.44,0-2.88,0.01-4.32,0.01
		c-0.56,0.01-1.11,0.03-1.67,0.04c-0.88-0.01-1.77-0.07-2.65,0c-0.26,0.02-0.48,0.43-0.72,0.65c-1.12,0.02-2.25-0.05-3.35,0.08
		c-1.04,0.12-2.06,0.44-3.08,0.68c-0.12,0.03-0.24,0.15-0.33,0.13c-2.16-0.66-4.02,0.78-6.08,0.86c-0.53,0.02-1.06,0.25-1.58,0.4
		c-0.11,0.03-0.18,0.18-0.29,0.21c-2.45,0.66-4.87,1.66-7.36,1.86c-1.74,0.14-3.15,0.89-4.7,1.36c-2.68,0.81-5.28,1.9-7.89,2.92
		c-0.63,0.24-1.17,0.7-1.78,0.99c-2.12,1.03-4.26,2.03-6.39,3.07c-1.63,0.79-3.31,1.51-4.85,2.46c-1.66,1.03-3.16,2.31-4.77,3.43
		c-1.24,0.86-2.53,1.64-3.81,2.45c-0.82,0.52-1.7,0.97-2.47,1.57c-2.23,1.74-4.45,3.49-6.59,5.33c-2.85,2.44-5.65,4.93-8.4,7.48
		c-1.29,1.19-2.39,2.58-3.58,3.88c-0.16,0.15-0.31,0.29-0.47,0.44c-0.55,0.63-1.11,1.26-1.66,1.9c-1.12,1.32-2.31,2.59-3.33,3.98
		c-1.01,1.39-1.85,2.9-2.76,4.36c-0.1,0.17-0.15,0.38-0.27,0.53c-1.03,1.14-2.09,2.26-3.1,3.42c-0.35,0.41-0.62,0.9-0.88,1.38
		c-0.56,1-1.07,2.03-1.64,3.03c-0.73,1.3-1.44,2.63-2.27,3.86c-0.28,0.41-0.9,0.75-1.4,0.81c-0.27,0.03-0.66-0.56-0.93-0.92
		c-0.51-0.65-0.94-1.37-1.45-2.01c-1.06-1.33-2.14-2.64-3.24-3.94c-0.57-0.67-1.28-1.23-1.77-1.94c-1.18-1.74-2.23-3.55-3.39-5.3
		c-0.41-0.62-0.96-1.14-1.44-1.71c-0.06-0.06-0.12-0.12-0.19-0.18c-0.95-1.37-1.93-2.72-2.82-4.13c-0.41-0.66-0.58-1.47-0.97-2.14
		c-0.41-0.69-1.03-1.27-1.43-1.96c-0.36-0.61-0.47-1.36-0.83-1.97c-0.96-1.63-1.99-3.21-3.03-4.73c-0.36-0.84-0.67-1.69-1.08-2.51
		c-0.77-1.53-1.57-3.04-2.38-4.55c-0.18-0.34-0.49-0.62-0.65-0.96c-1.03-2.19-2.03-4.4-3.06-6.59c-0.9-1.91-1.87-3.77-2.71-5.7
		c-1.04-2.39-2.01-4.82-2.93-7.25c-0.43-1.13-0.64-2.35-1.05-3.49c-0.45-1.24-1.06-2.42-1.51-3.67c-0.63-1.77-1.16-3.57-1.74-5.36
		c-0.26-0.81-0.56-1.62-0.77-2.44c-0.26-1.01-0.39-2.06-0.68-3.07c-0.59-2.02-1.24-4.02-1.87-6.03c-0.06-0.18-0.27-0.37-0.24-0.52
		c0.47-2.25-0.83-4.19-1.09-6.31c-0.05-0.43-0.21-0.84-0.27-1.27c-0.29-2.19-0.52-4.39-0.86-6.58c-0.13-0.81-0.64-1.56-0.75-2.37
		c-0.22-1.72-0.02-3.55-0.51-5.17c-0.42-1.36-0.29-2.65-0.4-3.98c-0.23-2.84-0.6-5.68-0.71-8.52c-0.12-3.11,0.01-6.24-0.02-9.35
		c-0.04-3.25-0.13-6.5-0.22-9.75c-0.05-1.64-0.25-3.29-0.19-4.93c0.05-1.27,0.41-2.53,0.61-3.8c0.06-0.35,0.01-0.72,0.05-1.07
		c0.28-2.39,0.58-4.78,0.87-7.17c0.12-0.98,0.17-1.97,0.34-2.94c0.49-2.76,1.08-5.5,1.52-8.27c0.21-1.35,0.17-2.74,0.26-4.11
		c0.02-0.29,0.1-0.58,0.2-0.86c0.52-1.4,1.08-2.79,1.57-4.2c0.11-0.32,0.1-0.73,0.02-1.07c-0.32-1.47-0.03-3.09,0.63-4.15
		c0.8-1.29,0.59-2.75,1.34-3.95c0.23-0.36,0.31-0.81,0.43-1.23c0.43-1.49,0.81-3,1.26-4.49c0.32-1.04,1.16-2.11,1.01-3.05
		c-0.2-1.27,0.85-2.11,0.63-3.26c-0.03-0.14,0-0.37,0.1-0.45c1.44-1.24,1.31-3.12,1.94-4.69c0.79-1.95,1.78-3.81,2.63-5.74
		c0.96-2.17,1.84-4.37,2.78-6.55c0.18-0.42,0.48-0.8,0.68-1.22c1.23-2.56,2.09-5.3,3.97-7.53c0.48-0.56,0.59-1.44,0.85-2.18
		c0.12-0.33,0.1-0.74,0.28-1.02c1.26-1.96,2.55-3.9,3.83-5.84c0.09-0.13,0.23-0.23,0.3-0.37c0.85-1.51,1.74-3.01,2.53-4.56
		c0.66-1.3,1.19-2.66,1.78-3.99c0.03-0.07,0.07-0.17,0.13-0.19c2.23-0.78,2.46-3.21,3.84-4.7c0.78-0.84,1.38-1.85,2.07-2.79
		c0.05-0.06,0.12-0.13,0.13-0.2c0.16-2.22,2.28-3.02,3.36-4.58c1.27-1.83,2.69-3.56,4.05-5.33c0.02-0.03,0.08-0.06,0.08-0.09
		c-0.05-2.01,1.89-2.45,2.92-3.57c4.83-5.2,9.71-10.35,14.69-15.41c1.89-1.92,4.08-3.55,6.13-5.32c0.12-0.1,0.28-0.17,0.38-0.29
		c2.1-2.5,5.04-3.93,7.51-5.95c0.51-0.42,0.94-0.95,1.41-1.42c0.16-0.16,0.33-0.32,0.49-0.49c0.08-0.08,0.15-0.16,0.23-0.24
		c0.25-0.14,0.49-0.28,0.74-0.42c0.17-0.18,0.35-0.35,0.52-0.53c0.23-0.12,0.45-0.24,0.68-0.37c0.24-0.2,0.47-0.4,0.71-0.6
		c0.16-0.13,0.33-0.26,0.49-0.39c0.24-0.19,0.48-0.38,0.72-0.57c0.16-0.16,0.32-0.32,0.48-0.49c0.08-0.08,0.15-0.16,0.23-0.24
		c0.24-0.14,0.49-0.28,0.73-0.42c1.51-1.08,2.98-2.24,4.56-3.21c0.5-0.31,1.39,0.11,1.79-0.68c0.2-0.21,0.41-0.42,0.62-0.63
		c0.78-0.44,1.6-0.83,2.34-1.33c0.87-0.58,1.68-1.25,2.52-1.88c0.14-0.13,0.28-0.25,0.42-0.38c1.72,0.06,2.46-1.46,3.66-2.24
		c0.14-0.06,0.28-0.13,0.43-0.19c0.48-0.26,0.96-0.52,1.44-0.79c0.16-0.06,0.32-0.12,0.48-0.18c0.32-0.18,0.63-0.36,0.95-0.54
		c0.16-0.14,0.33-0.28,0.49-0.43c0.69-0.26,1.4-0.49,2.08-0.77c0.48-0.2,0.93-0.48,1.4-0.72c0.2-0.3,0.4-0.61,0.61-0.91
		c0.8,0.05,1.59,0.11,2.39,0.16c0.01,0.09,0.02,0.17,0.04,0.26c0.01,0.08,0.01,0.17,0.02,0.25c-0.08,0.25-0.15,0.5-0.23,0.76
		c-0.1,0.22-0.2,0.44-0.31,0.66c-0.17,0.39-0.34,0.77-0.51,1.16c-0.68,0.05-1.1,0.28-0.75,1.06c-0.06,0.23-0.12,0.45-0.18,0.68
		c-0.76-0.04-0.78,0.42-0.66,0.98c-0.03,0.23-0.06,0.46-0.09,0.69c-0.24,0.32-0.48,0.65-0.71,0.97c-0.04,0.18-0.08,0.36-0.12,0.54
		c-0.24,0.62-0.49,1.24-0.74,1.86c-0.03,0.23-0.05,0.47-0.08,0.7c-0.27,0.13-0.72,0.22-0.78,0.41c-0.28,0.97-0.45,1.97-0.66,2.96
		c-0.08,0.55-0.17,1.11-0.25,1.66c-1.05,0.21-1.07,0.89-0.76,1.71c-0.12,0.38-0.24,0.76-0.36,1.14c-1,0.56-0.48,1.45-0.5,2.23
		c-0.02,0.55-0.04,1.1-0.06,1.65c-0.95,0.24-1.01,0.93-0.85,1.73c-0.03,0.88-0.06,1.76-0.09,2.64
		C138.56,233.45,138.45,234.32,138.92,235.3z"/>
	<path fill="#72C5EE" d="M568.99,288.85c0.27-1.67,0.54-3.33,0.81-5c0.55-0.44,1.18-0.85,0.86-1.72c0.03-0.87,0.07-1.73,0.1-2.6
		c0.15-0.16,0.3-0.33,0.45-0.49c0.1-1.43,0.19-2.86,0.29-4.3c0.24-0.33,0.64-0.65,0.68-1c0.13-1.12,0.13-2.25,0.17-3.37
		c0.07-0.86,0.15-1.72,0.22-2.58c0.19-0.42,0.51-0.83,0.53-1.26c0.06-1.43,0.02-2.87,0.01-4.31c0-5.03,0-10.07,0-15.1
		c0.01-1.31,0.08-2.63,0-3.94c-0.04-0.57-0.41-1.12-0.63-1.68c-0.05-1.24-0.1-2.49-0.15-3.73c0.2-1.19,0.21-2.32-0.85-3.17
		c-0.02-0.31-0.05-0.62-0.07-0.93c-0.04-0.85,0.39-1.83-0.66-2.41c-0.03-0.63-0.05-1.26-0.08-1.89c0.12-0.96,0.27-1.93-0.86-2.45
		c-0.03-0.31-0.06-0.62-0.09-0.93c0.17-0.65,0.03-1.17-0.64-1.46c-0.02-0.23-0.04-0.46-0.06-0.69c-0.02-0.78,0.49-1.79-0.85-2.03
		c-0.09-0.29-0.18-0.59-0.27-0.88c-0.1-0.32-0.21-0.63-0.31-0.95c-0.08-0.47-0.15-0.95-0.23-1.42c0.49,0.16,0.98,0.31,1.47,0.47
		c0.17,0.06,0.33,0.11,0.5,0.17c0.14,0.13,0.26,0.34,0.43,0.39c4.01,1.17,7.03,4.08,10.59,6.05c0.41,0.23,0.84,0.45,1.22,0.73
		c3.92,2.87,7.83,5.77,11.76,8.63c1.2,0.88,2.46,1.67,3.7,2.5c0.26,0.18,0.59,0.33,0.74,0.58c0.39,0.68,0.64,1.47,1.72,1.22
		c0.18-0.04,0.49,0.24,0.68,0.43c1.18,1.22,2.14,2.81,3.55,3.6c2.62,1.46,4.24,3.88,6.36,5.81c2.13,1.94,4.12,4.02,6.12,6.1
		c1.67,1.74,3.34,3.48,4.85,5.35c4.31,5.33,8.53,10.73,12.81,16.09c0.53,0.66,1.24,1.17,1.86,1.75c0.09,0.08,0.17,0.17,0.23,0.27
		c1.04,1.69,2.1,3.37,3.1,5.08c1.13,1.94,1.95,4.13,3.38,5.8c0.97,1.13,1.14,2.89,2.75,3.49c0.12,0.04,0.15,0.33,0.21,0.51
		c0.34,0.92,0.56,1.9,1.03,2.74c0.83,1.46,2.04,2.74,2.67,4.27c1.07,2.59,2.6,4.95,3.55,7.6c0.5,1.38,1.47,2.59,2.22,3.87
		c0.04,0.07,0.09,0.13,0.11,0.21c0.35,1.33,0.68,2.66,1.05,3.98c0.11,0.38,0.24,0.81,0.51,1.06c1.04,0.96,1.55,2.1,1.62,3.52
		c0.02,0.56,0.46,1.09,0.66,1.65c0.76,2.13,1.51,4.27,2.24,6.41c0.66,1.95,1.26,3.93,1.94,5.88c0.12,0.33,0.66,0.51,0.78,0.84
		c0.27,0.76,0.42,1.57,0.6,2.36c0.28,1.23,0.54,2.46,0.82,3.68c0.27,1.19,0.54,2.39,0.86,3.57c0.19,0.72,0.47,1.42,0.72,2.13
		c0.38,1.04-0.02,2.35,1.11,3.15c0.12,0.08,0.02,0.52-0.03,0.79c-0.18,0.99-0.15,1.84,0.48,2.8c0.51,0.78,0.37,1.97,0.6,2.96
		c0.15,0.64,0.49,1.23,0.7,1.85c0.09,0.27,0.09,0.57,0.11,0.86c0.06,1.5-0.45,2.98,0.51,4.49c0.51,0.8,0.23,2.09,0.37,3.15
		c0.12,0.84,0.35,1.67,0.53,2.51c0.07,0.35,0.17,0.69,0.18,1.04c0.02,1.56-0.06,3.13,0.06,4.68c0.08,1,0.45,1.97,0.68,2.95
		c0.09,0.38,0.21,0.77,0.21,1.16c0.01,9.8,0.01,19.6,0,29.39c0,0.39,0.01,0.84-0.15,1.17c-1.2,2.37-0.63,4.92-0.81,7.4
		c-0.06,0.84-0.44,1.66-0.54,2.51c-0.13,1.06-0.04,2.15-0.19,3.2c-0.12,0.83-0.44,1.63-0.69,2.44c-0.04,0.15-0.22,0.29-0.2,0.42
		c0.34,2.25-0.52,4.36-0.77,6.54c-0.09,0.77-0.39,1.51-0.62,2.25c-0.07,0.22-0.26,0.41-0.29,0.63c-0.27,2.04-0.45,4.09-0.8,6.12
		c-0.21,1.17-0.73,2.28-1.05,3.44c-0.53,1.93-0.8,3.98-1.6,5.78c-0.52,1.17-0.4,2.51-1.41,3.61c-0.76,0.83-0.79,2.33-1.13,3.54
		c-0.52,1.85-0.86,3.78-1.59,5.54c-1.46,3.52-2.4,7.25-4.25,10.62c-1.09,1.99-2.07,4.05-3.03,6.11c-0.88,1.9-1.65,3.86-2.51,5.78
		c-0.14,0.31-0.45,0.54-0.7,0.8c-0.19,0.2-0.55,0.38-0.56,0.58c-0.08,2.13-1.64,3.49-2.62,5.15c-1.16,1.94-2.47,3.8-3.5,5.81
		c-2.6,5.08-5.99,9.63-9.32,14.23c-1.12,1.54-2.28,3.05-3.42,4.58c-0.02,0.03-0.06,0.06-0.07,0.1c-0.63,2.36-2.81,3.44-4.24,5.13
		c-0.46,0.54-0.9,1.1-1.49,1.81c-0.94-1.51-1.87-2.96-2.75-4.44c-0.87-1.47-1.62-3.01-2.56-4.43c-0.42-0.62-1.23-0.94-1.15-1.93
		c0.02-0.3-0.49-0.65-0.76-0.97c-0.13-0.15-0.3-0.28-0.39-0.45c-1.84-3.65-4.73-6.48-7.42-9.45c-3.06-3.4-6.18-6.75-9.44-9.96
		c-2.73-2.69-5.7-5.14-8.57-7.69c-0.06-0.05-0.12-0.13-0.19-0.14c-2.72-0.68-4.24-3.1-6.51-4.44c-3.12-1.84-6.21-3.73-9.3-5.61
		c-1.3-0.79-2.59-1.61-3.89-2.41c-0.24-0.15-0.5-0.38-0.74-0.37c-1.57,0.05-2.65-0.88-3.91-1.62c-1.67-0.98-3.66-1.38-5.5-2.07
		c-0.92-0.35-1.79-0.8-2.69-1.2c-0.64-0.29-1.25-0.62-1.91-0.85c-1.94-0.66-3.86-1.39-5.84-1.89c-1.94-0.49-3.94-0.72-5.91-1.09
		c-1.05-0.2-2.08-0.53-3.14-0.68c-3.55-0.51-6.99-1.75-10.65-1.48c-0.33,0.02-0.67-0.17-1.01-0.27c-0.1-0.43-0.2-0.85-0.32-1.33
		c-0.58,0.29-0.98,0.48-1.38,0.68c-0.54-0.02-1.09-0.04-1.63-0.05c-2.25,0-4.5,0.01-6.75,0.01c-3.02,0-6.05,0-9.16,0
		c0-9.38,0-18.57,0-27.76c0.8-0.29,1.61-0.58,2.41-0.87c0.83,0.22,1.48,0.1,1.73-0.85c1.15-0.46,2.39-0.65,3.39-1.56
		c0.59-0.53,1.53-0.67,2.31-0.98c0.92-0.13,1.66-0.46,1.74-1.54c1.15,0.34,1.69-0.81,2.59-1.07c0.8-0.28,1.7-0.44,1.74-1.56
		c0.31-0.09,0.62-0.18,0.92-0.27c0.57-0.47,1.14-0.94,1.71-1.41c1.3-0.95,2.64-1.84,3.87-2.88c1.65-1.38,3.26-2.83,4.79-4.34
		c1.4-1.39,2.68-2.9,4-4.36c0.49-0.54,0.98-1.08,1.47-1.62c0.49-0.45,1.01-0.87,1.45-1.37c0.64-0.73,1.2-1.51,1.8-2.28
		c0.78-1.12,1.56-2.23,2.32-3.36c0.12-0.18,0.14-0.44,0.2-0.66c1.2-0.12,1.16-1.23,1.59-1.97c0.34-0.71,0.69-1.43,1.03-2.14
		c0.87-0.37,1.43-0.99,1.56-1.95c0.48-0.82,0.98-1.62,1.43-2.45c0.25-0.47,0.43-0.98,0.64-1.47c0.72-1.72,1.44-3.44,2.16-5.15
		c0.08-0.24,0.16-0.48,0.24-0.72l-0.01,0.01c0.14-0.17,0.28-0.33,0.43-0.5c0.1-0.24,0.19-0.47,0.29-0.71
		c0.06-0.03,0.11-0.06,0.17-0.09c-0.06-0.06-0.11-0.12-0.17-0.18c0-0.15,0-0.29,0-0.44c0.14-0.25,0.28-0.5,0.43-0.75
		c0.1-0.23,0.2-0.46,0.3-0.69c0.94-0.25,1.05-0.92,0.87-1.73c0.02-0.39,0.05-0.78,0.07-1.17c0.21-0.32,0.43-0.65,0.64-0.97
		c0.03-0.39,0.06-0.78,0.09-1.17c1.11-0.3,1.02-1.12,0.85-1.98c0.03-0.23,0.06-0.46,0.09-0.7c0.55-0.35,0.99-0.74,0.48-1.44
		c0.09-0.63,0.17-1.26,0.26-1.89c1-0.23,1.06-0.91,0.83-1.74c0.04-0.55,0.08-1.1,0.12-1.65c1.35-0.5,0.53-1.59,0.66-2.42
		c0.02-0.87,0.05-1.73,0.07-2.6c1.16-0.92,0.82-2.21,0.85-3.41c0.11-1.81,0.22-3.63,0.35-5.44c0.01-0.12,0.17-0.23,0.26-0.34
		c0.38,0,0.75,0,1.13,0c1.39,0.29,2.12-0.75,2.99-1.5c0.35-0.07,0.74-0.06,1.03-0.23c2.77-1.61,4.91-3.9,6.87-6.38
		c0.14-0.25,0.28-0.49,0.41-0.74c0.43-0.93,0.86-1.87,1.28-2.8c1.27-0.12,0.83-1.05,0.84-1.77c0.04-0.31,0.08-0.62,0.12-0.93
		c1.03-0.98,0.55-2.23,0.61-3.39c0-8.86,0-17.72,0-26.59c0.01-0.66,0.09-1.32,0-1.96c-0.04-0.27-0.4-0.5-0.62-0.75
		c-0.04-0.53-0.08-1.06-0.11-1.6c0.11-0.84,0.16-1.65-0.88-1.98c-0.26-0.88-0.4-1.82-0.81-2.62c-0.32-0.64-0.95-1.14-1.49-1.64
		c-0.27-0.25-0.65-0.38-0.98-0.57c-0.05-0.22-0.1-0.44-0.15-0.66c0.05-1.25-0.46-2.15-1.66-2.6c-0.07-0.03-0.14-0.06-0.21-0.08
		c0-0.08-0.02-0.15-0.05-0.22c-0.07-0.06-0.13-0.13-0.2-0.19c-0.4-0.08-0.8-0.16-1.21-0.24c-0.41-0.09-0.82-0.18-1.23-0.26
		c-0.1-0.2-0.15-0.51-0.31-0.58c-1.06-0.48-2.15-0.91-3.22-1.36c-0.09-0.47-0.17-0.94-0.26-1.41
		C568.75,290.17,569.28,289.71,568.99,288.85z"/>
	<path fill="#78C7EF" d="M760.81,415.36c0.06,0.06,0.12,0.12,0.19,0.18C760.93,415.48,760.87,415.42,760.81,415.36z"/>
</g>
</svg>
