<?xml version="1.0" encoding="UTF-8" standalone="no"?>
<!-- Generator: Adobe Illustrator 27.3.1, SVG Export Plug-In . SVG Version: 6.00 Build 0)  -->

<svg
   version="1.0"
   id="Layer_1"
   x="0px"
   y="0px"
   viewBox="0 0 710.87 598.06"
   enable-background="new 0 0 710.87 598.06"
   xml:space="preserve"
   sodipodi:docname="minimal-avatars_new.svg"
   inkscape:version="1.3 (0e150ed6c4, 2023-07-21)"
   xmlns:inkscape="http://www.inkscape.org/namespaces/inkscape"
   xmlns:sodipodi="http://sodipodi.sourceforge.net/DTD/sodipodi-0.dtd"
   xmlns="http://www.w3.org/2000/svg"
   xmlns:svg="http://www.w3.org/2000/svg"><defs
   id="defs116" /><sodipodi:namedview
   id="namedview116"
   pagecolor="#505050"
   bordercolor="#ffffff"
   borderopacity="1"
   inkscape:showpageshadow="0"
   inkscape:pageopacity="0"
   inkscape:pagecheckerboard="1"
   inkscape:deskcolor="#505050"
   inkscape:zoom="1.0174564"
   inkscape:cx="217.69974"
   inkscape:cy="301.2414"
   inkscape:window-width="2560"
   inkscape:window-height="1494"
   inkscape:window-x="-11"
   inkscape:window-y="-11"
   inkscape:window-maximized="1"
   inkscape:current-layer="Layer_1" />&#10;&#10;&#10;<g
   id="g116">&#10;	<path
   fill="#72C5EE"
   d="M138.92,235.3c-0.09,1.36-0.19,2.73-0.28,4.09c-1.24,1.54-1.01,3.28-0.72,5.04   c-0.01,6.96-0.02,13.92-0.03,20.88c0.02,1.53,0.04,3.06,0.08,4.59c0,0.08,0.24,0.15,0.37,0.23c0.11,0.68,0.26,1.35,0.31,2.03   c0.06,0.83,0.03,1.66,0.05,2.49c0.01,1.09-0.46,2.3,0.71,3.13c0.07,0.88,0.14,1.77,0.22,2.65c0.14,0.4,0.29,0.81,0.43,1.21   c0.09,0.39,0.18,0.79,0.26,1.18c-0.99,0.35-1.99,0.66-2.95,1.07c-0.19,0.08-0.22,0.54-0.32,0.83c-1.47,0.07-2.56,0.84-3.49,1.9   c-1.08,0.32-1.24,1.26-1.45,2.16c-0.09,0.24-0.18,0.49-0.27,0.73c-1.07,0.2-1.51,0.93-1.64,1.94c-0.14,0.35-0.3,0.7-0.41,1.06   c-0.45,1.56-0.88,3.12-1.32,4.68c-0.29,0.31-0.77,0.6-0.81,0.94c-0.09,0.76,0.04,1.54,0.08,2.32c-0.02,3.95-0.06,7.9-0.06,11.85   c0,4.71,0.04,9.42,0.06,14.13c-0.06,1.08-0.71,2.31,0.76,3c0,0.14,0,0.28,0,0.42c-0.04,0.25-0.09,0.5-0.13,0.75   c0.63,1.43,1.26,2.86,1.89,4.29c-0.04,1.13,0.62,1.68,1.6,1.98c0.03,0.14,0.05,0.28,0.08,0.42c0.15,0.99,0.41,1.88,1.66,1.93l0,0   c0.06,1.08,0.54,1.72,1.72,1.61c1.64,0.85,3.29,1.7,4.93,2.55c0.13,1.28,1.04,0.86,1.78,0.82c0.38,0.16,0.76,0.32,1.14,0.49   c0.17,0.5,0.45,0.99,0.48,1.5c0.09,1.51,0.08,3.03,0.11,4.54c0,0.94-0.56,2.01,0.63,2.66c0,1.04,0.01,2.08,0.01,3.11   c0.3,0.65-0.62,1.88,0.92,1.95c0.02,0.55,0.04,1.09,0.07,1.64c0.08,0.62-0.53,1.53,0.69,1.69c0.33,1.44,0.66,2.87,0.99,4.31   c0.03,0.65-0.4,1.49,0.7,1.69c0.01,0.36,0.06,0.72,0.04,1.07c-0.04,0.59-0.25,1.21,0.68,1.36c0.13,0.02,0.18,0.6,0.26,0.92   c0.01,0.66-0.4,1.51,0.74,1.68c-0.04,1.33,0.61,2.38,1.38,3.38c0.08,0.5,0.25,1,0.22,1.5c-0.05,0.75,0.31,0.95,0.95,0.93   c0.17,0.51,0.34,1.01,0.5,1.52c0.16,0.51,0.31,1.03,0.56,1.47c0.43,0.76,1.13,1.48,1.24,2.28c0.15,1.1,1.02,1.58,1.49,2.38   c0.71,1.22,1.85,2.16,2.09,3.69c0.08,0.55,0.59,1.05,0.96,1.52c0.78,0.99,1.59,1.95,2.39,2.93c0.18,0.93,0.37,1.86,1.58,1.98   c0.61,0.78,1.19,1.58,1.82,2.34c1.65,1.99,3.21,4.07,5,5.93c1.89,1.96,3.85,3.92,6.05,5.5c3.83,2.75,7.89,5.18,11.82,7.8   c1.17,0.78,2.37,1.33,3.72,1.74c1.27,0.38,2.54,0.96,3.64,1.71c0.88,0.6,1.71,0.94,2.76,0.89c0.17-0.01,0.37,0.42,0.55,0.65   c-0.02,0.48-0.05,0.95-0.05,1.43c0,8.34,0,16.68,0,25.01c0,0.42,0,0.84,0,1.42c-3.4,0-6.62,0-9.84,0c-1.44,0-2.88,0.01-4.32,0.01   c-0.56,0.01-1.11,0.03-1.67,0.04c-0.88-0.01-1.77-0.07-2.65,0c-0.26,0.02-0.48,0.43-0.72,0.65c-1.12,0.02-2.25-0.05-3.35,0.08   c-1.04,0.12-2.06,0.44-3.08,0.68c-0.12,0.03-0.24,0.15-0.33,0.13c-2.16-0.66-4.02,0.78-6.08,0.86c-0.53,0.02-1.06,0.25-1.58,0.4   c-0.11,0.03-0.18,0.18-0.29,0.21c-2.45,0.66-4.87,1.66-7.36,1.86c-1.74,0.14-3.15,0.89-4.7,1.36c-2.68,0.81-5.28,1.9-7.89,2.92   c-0.63,0.24-1.17,0.7-1.78,0.99c-2.12,1.03-4.26,2.03-6.39,3.07c-1.63,0.79-3.31,1.51-4.85,2.46c-1.66,1.03-3.16,2.31-4.77,3.43   c-1.24,0.86-2.53,1.64-3.81,2.45c-0.82,0.52-1.7,0.97-2.47,1.57c-2.23,1.74-4.45,3.49-6.59,5.33c-2.85,2.44-5.65,4.93-8.4,7.48   c-1.29,1.19-2.39,2.58-3.58,3.88c-0.16,0.15-0.31,0.29-0.47,0.44c-0.55,0.63-1.11,1.26-1.66,1.9c-1.12,1.32-2.31,2.59-3.33,3.98   c-1.01,1.39-1.85,2.9-2.76,4.36c-0.1,0.17-0.15,0.38-0.27,0.53c-1.03,1.14-2.09,2.26-3.1,3.42c-0.35,0.41-0.62,0.9-0.88,1.38   c-0.56,1-1.07,2.03-1.64,3.03c-0.73,1.3-1.44,2.63-2.27,3.86c-0.28,0.41-0.9,0.75-1.4,0.81c-0.27,0.03-0.66-0.56-0.93-0.92   c-0.51-0.65-0.94-1.37-1.45-2.01c-1.06-1.33-2.14-2.64-3.24-3.94c-0.57-0.67-1.28-1.23-1.77-1.94c-1.18-1.74-2.23-3.55-3.39-5.3   c-0.41-0.62-0.96-1.14-1.44-1.71c-0.06-0.06-0.12-0.12-0.19-0.18c-0.95-1.37-1.93-2.72-2.82-4.13c-0.41-0.66-0.58-1.47-0.97-2.14   c-0.41-0.69-1.03-1.27-1.43-1.96c-0.36-0.61-0.47-1.36-0.83-1.97c-0.96-1.63-1.99-3.21-3.03-4.73c-0.36-0.84-0.67-1.69-1.08-2.51   c-0.77-1.53-1.57-3.04-2.38-4.55c-0.18-0.34-0.49-0.62-0.65-0.96c-1.03-2.19-2.03-4.4-3.06-6.59c-0.9-1.91-1.87-3.77-2.71-5.7   c-1.04-2.39-2.01-4.82-2.93-7.25c-0.43-1.13-0.64-2.35-1.05-3.49c-0.45-1.24-1.06-2.42-1.51-3.67c-0.63-1.77-1.16-3.57-1.74-5.36   c-0.26-0.81-0.56-1.62-0.77-2.44c-0.26-1.01-0.39-2.06-0.68-3.07c-0.59-2.02-1.24-4.02-1.87-6.03c-0.06-0.18-0.27-0.37-0.24-0.52   c0.47-2.25-0.83-4.19-1.09-6.31c-0.05-0.43-0.21-0.84-0.27-1.27c-0.29-2.19-0.52-4.39-0.86-6.58c-0.13-0.81-0.64-1.56-0.75-2.37   c-0.22-1.72-0.02-3.55-0.51-5.17c-0.42-1.36-0.29-2.65-0.4-3.98c-0.23-2.84-0.6-5.68-0.71-8.52c-0.12-3.11,0.01-6.24-0.02-9.35   c-0.04-3.25-0.13-6.5-0.22-9.75c-0.05-1.64-0.25-3.29-0.19-4.93c0.05-1.27,0.41-2.53,0.61-3.8c0.06-0.35,0.01-0.72,0.05-1.07   c0.28-2.39,0.58-4.78,0.87-7.17c0.12-0.98,0.17-1.97,0.34-2.94c0.49-2.76,1.08-5.5,1.52-8.27c0.21-1.35,0.17-2.74,0.26-4.11   c0.02-0.29,0.1-0.58,0.2-0.86c0.52-1.4,1.08-2.79,1.57-4.2c0.11-0.32,0.1-0.73,0.02-1.07c-0.32-1.47-0.03-3.09,0.63-4.15   c0.8-1.29,0.59-2.75,1.34-3.95c0.23-0.36,0.31-0.81,0.43-1.23c0.43-1.49,0.81-3,1.26-4.49c0.32-1.04,1.16-2.11,1.01-3.05   c-0.2-1.27,0.85-2.11,0.63-3.26c-0.03-0.14,0-0.37,0.1-0.45c1.44-1.24,1.31-3.12,1.94-4.69c0.79-1.95,1.78-3.81,2.63-5.74   c0.96-2.17,1.84-4.37,2.78-6.55c0.18-0.42,0.48-0.8,0.68-1.22c1.23-2.56,2.09-5.3,3.97-7.53c0.48-0.56,0.59-1.44,0.85-2.18   c0.12-0.33,0.1-0.74,0.28-1.02c1.26-1.96,2.55-3.9,3.83-5.84c0.09-0.13,0.23-0.23,0.3-0.37c0.85-1.51,1.74-3.01,2.53-4.56   c0.66-1.3,1.19-2.66,1.78-3.99c0.03-0.07,0.07-0.17,0.13-0.19c2.23-0.78,2.46-3.21,3.84-4.7c0.78-0.84,1.38-1.85,2.07-2.79   c0.05-0.06,0.12-0.13,0.13-0.2c0.16-2.22,2.28-3.02,3.36-4.58c1.27-1.83,2.69-3.56,4.05-5.33c0.02-0.03,0.08-0.06,0.08-0.09   c-0.05-2.01,1.89-2.45,2.92-3.57c4.83-5.2,9.71-10.35,14.69-15.41c1.89-1.92,4.08-3.55,6.13-5.32c0.12-0.1,0.28-0.17,0.38-0.29   c2.1-2.5,5.04-3.93,7.51-5.95c0.51-0.42,0.94-0.95,1.41-1.42c0.16-0.16,0.33-0.32,0.49-0.49c0.08-0.08,0.15-0.16,0.23-0.24   c0.25-0.14,0.49-0.28,0.74-0.42c0.17-0.18,0.35-0.35,0.52-0.53c0.23-0.12,0.45-0.24,0.68-0.37c0.24-0.2,0.47-0.4,0.71-0.6   c0.16-0.13,0.33-0.26,0.49-0.39c0.24-0.19,0.48-0.38,0.72-0.57c0.16-0.16,0.32-0.32,0.48-0.49c0.08-0.08,0.15-0.16,0.23-0.24   c0.24-0.14,0.49-0.28,0.73-0.42c1.51-1.08,2.98-2.24,4.56-3.21c0.5-0.31,1.39,0.11,1.79-0.68c0.2-0.21,0.41-0.42,0.62-0.63   c0.78-0.44,1.6-0.83,2.34-1.33c0.87-0.58,1.68-1.25,2.52-1.88c0.14-0.13,0.28-0.25,0.42-0.38c1.72,0.06,2.46-1.46,3.66-2.24   c0.14-0.06,0.28-0.13,0.43-0.19c0.48-0.26,0.96-0.52,1.44-0.79c0.16-0.06,0.32-0.12,0.48-0.18c0.32-0.18,0.63-0.36,0.95-0.54   c0.16-0.14,0.33-0.28,0.49-0.43c0.69-0.26,1.4-0.49,2.08-0.77c0.48-0.2,0.93-0.48,1.4-0.72c0.2-0.3,0.4-0.61,0.61-0.91   c0.8,0.05,1.59,0.11,2.39,0.16c0.01,0.09,0.02,0.17,0.04,0.26c0.01,0.08,0.01,0.17,0.02,0.25c-0.08,0.25-0.15,0.5-0.23,0.76   c-0.1,0.22-0.2,0.44-0.31,0.66c-0.17,0.39-0.34,0.77-0.51,1.16c-0.68,0.05-1.1,0.28-0.75,1.06c-0.06,0.23-0.12,0.45-0.18,0.68   c-0.76-0.04-0.78,0.42-0.66,0.98c-0.03,0.23-0.06,0.46-0.09,0.69c-0.24,0.32-0.48,0.65-0.71,0.97c-0.04,0.18-0.08,0.36-0.12,0.54   c-0.24,0.62-0.49,1.24-0.74,1.86c-0.03,0.23-0.05,0.47-0.08,0.7c-0.27,0.13-0.72,0.22-0.78,0.41c-0.28,0.97-0.45,1.97-0.66,2.96   c-0.08,0.55-0.17,1.11-0.25,1.66c-1.05,0.21-1.07,0.89-0.76,1.71c-0.12,0.38-0.24,0.76-0.36,1.14c-1,0.56-0.48,1.45-0.5,2.23   c-0.02,0.55-0.04,1.1-0.06,1.65c-0.95,0.24-1.01,0.93-0.85,1.73c-0.03,0.88-0.06,1.76-0.09,2.64   C138.56,233.45,138.45,234.32,138.92,235.3z"
   id="path114" />&#10;	<path
   fill="#72C5EE"
   d="M568.99,288.85c0.27-1.67,0.54-3.33,0.81-5c0.55-0.44,1.18-0.85,0.86-1.72c0.03-0.87,0.07-1.73,0.1-2.6   c0.15-0.16,0.3-0.33,0.45-0.49c0.1-1.43,0.19-2.86,0.29-4.3c0.24-0.33,0.64-0.65,0.68-1c0.13-1.12,0.13-2.25,0.17-3.37   c0.07-0.86,0.15-1.72,0.22-2.58c0.19-0.42,0.51-0.83,0.53-1.26c0.06-1.43,0.02-2.87,0.01-4.31c0-5.03,0-10.07,0-15.1   c0.01-1.31,0.08-2.63,0-3.94c-0.04-0.57-0.41-1.12-0.63-1.68c-0.05-1.24-0.1-2.49-0.15-3.73c0.2-1.19,0.21-2.32-0.85-3.17   c-0.02-0.31-0.05-0.62-0.07-0.93c-0.04-0.85,0.39-1.83-0.66-2.41c-0.03-0.63-0.05-1.26-0.08-1.89c0.12-0.96,0.27-1.93-0.86-2.45   c-0.03-0.31-0.06-0.62-0.09-0.93c0.17-0.65,0.03-1.17-0.64-1.46c-0.02-0.23-0.04-0.46-0.06-0.69c-0.02-0.78,0.49-1.79-0.85-2.03   c-0.09-0.29-0.18-0.59-0.27-0.88c-0.1-0.32-0.21-0.63-0.31-0.95c-0.08-0.47-0.15-0.95-0.23-1.42c0.49,0.16,0.98,0.31,1.47,0.47   c0.17,0.06,0.33,0.11,0.5,0.17c0.14,0.13,0.26,0.34,0.43,0.39c4.01,1.17,7.03,4.08,10.59,6.05c0.41,0.23,0.84,0.45,1.22,0.73   c3.92,2.87,7.83,5.77,11.76,8.63c1.2,0.88,2.46,1.67,3.7,2.5c0.26,0.18,0.59,0.33,0.74,0.58c0.39,0.68,0.64,1.47,1.72,1.22   c0.18-0.04,0.49,0.24,0.68,0.43c1.18,1.22,2.14,2.81,3.55,3.6c2.62,1.46,4.24,3.88,6.36,5.81c2.13,1.94,4.12,4.02,6.12,6.1   c1.67,1.74,3.34,3.48,4.85,5.35c4.31,5.33,8.53,10.73,12.81,16.09c0.53,0.66,1.24,1.17,1.86,1.75c0.09,0.08,0.17,0.17,0.23,0.27   c1.04,1.69,2.1,3.37,3.1,5.08c1.13,1.94,1.95,4.13,3.38,5.8c0.97,1.13,1.14,2.89,2.75,3.49c0.12,0.04,0.15,0.33,0.21,0.51   c0.34,0.92,0.56,1.9,1.03,2.74c0.83,1.46,2.04,2.74,2.67,4.27c1.07,2.59,2.6,4.95,3.55,7.6c0.5,1.38,1.47,2.59,2.22,3.87   c0.04,0.07,0.09,0.13,0.11,0.21c0.35,1.33,0.68,2.66,1.05,3.98c0.11,0.38,0.24,0.81,0.51,1.06c1.04,0.96,1.55,2.1,1.62,3.52   c0.02,0.56,0.46,1.09,0.66,1.65c0.76,2.13,1.51,4.27,2.24,6.41c0.66,1.95,1.26,3.93,1.94,5.88c0.12,0.33,0.66,0.51,0.78,0.84   c0.27,0.76,0.42,1.57,0.6,2.36c0.28,1.23,0.54,2.46,0.82,3.68c0.27,1.19,0.54,2.39,0.86,3.57c0.19,0.72,0.47,1.42,0.72,2.13   c0.38,1.04-0.02,2.35,1.11,3.15c0.12,0.08,0.02,0.52-0.03,0.79c-0.18,0.99-0.15,1.84,0.48,2.8c0.51,0.78,0.37,1.97,0.6,2.96   c0.15,0.64,0.49,1.23,0.7,1.85c0.09,0.27,0.09,0.57,0.11,0.86c0.06,1.5-0.45,2.98,0.51,4.49c0.51,0.8,0.23,2.09,0.37,3.15   c0.12,0.84,0.35,1.67,0.53,2.51c0.07,0.35,0.17,0.69,0.18,1.04c0.02,1.56-0.06,3.13,0.06,4.68c0.08,1,0.45,1.97,0.68,2.95   c0.09,0.38,0.21,0.77,0.21,1.16c0.01,9.8,0.01,19.6,0,29.39c0,0.39,0.01,0.84-0.15,1.17c-1.2,2.37-0.63,4.92-0.81,7.4   c-0.06,0.84-0.44,1.66-0.54,2.51c-0.13,1.06-0.04,2.15-0.19,3.2c-0.12,0.83-0.44,1.63-0.69,2.44c-0.04,0.15-0.22,0.29-0.2,0.42   c0.34,2.25-0.52,4.36-0.77,6.54c-0.09,0.77-0.39,1.51-0.62,2.25c-0.07,0.22-0.26,0.41-0.29,0.63c-0.27,2.04-0.45,4.09-0.8,6.12   c-0.21,1.17-0.73,2.28-1.05,3.44c-0.53,1.93-0.8,3.98-1.6,5.78c-0.52,1.17-0.4,2.51-1.41,3.61c-0.76,0.83-0.79,2.33-1.13,3.54   c-0.52,1.85-0.86,3.78-1.59,5.54c-1.46,3.52-2.4,7.25-4.25,10.62c-1.09,1.99-2.07,4.05-3.03,6.11c-0.88,1.9-1.65,3.86-2.51,5.78   c-0.14,0.31-0.45,0.54-0.7,0.8c-0.19,0.2-0.55,0.38-0.56,0.58c-0.08,2.13-1.64,3.49-2.62,5.15c-1.16,1.94-2.47,3.8-3.5,5.81   c-2.6,5.08-5.99,9.63-9.32,14.23c-1.12,1.54-2.28,3.05-3.42,4.58c-0.02,0.03-0.06,0.06-0.07,0.1c-0.63,2.36-2.81,3.44-4.24,5.13   c-0.46,0.54-0.9,1.1-1.49,1.81c-0.94-1.51-1.87-2.96-2.75-4.44c-0.87-1.47-1.62-3.01-2.56-4.43c-0.42-0.62-1.23-0.94-1.15-1.93   c0.02-0.3-0.49-0.65-0.76-0.97c-0.13-0.15-0.3-0.28-0.39-0.45c-1.84-3.65-4.73-6.48-7.42-9.45c-3.06-3.4-6.18-6.75-9.44-9.96   c-2.73-2.69-5.7-5.14-8.57-7.69c-0.06-0.05-0.12-0.13-0.19-0.14c-2.72-0.68-4.24-3.1-6.51-4.44c-3.12-1.84-6.21-3.73-9.3-5.61   c-1.3-0.79-2.59-1.61-3.89-2.41c-0.24-0.15-0.5-0.38-0.74-0.37c-1.57,0.05-2.65-0.88-3.91-1.62c-1.67-0.98-3.66-1.38-5.5-2.07   c-0.92-0.35-1.79-0.8-2.69-1.2c-0.64-0.29-1.25-0.62-1.91-0.85c-1.94-0.66-3.86-1.39-5.84-1.89c-1.94-0.49-3.94-0.72-5.91-1.09   c-1.05-0.2-2.08-0.53-3.14-0.68c-3.55-0.51-6.99-1.75-10.65-1.48c-0.33,0.02-0.67-0.17-1.01-0.27c-0.1-0.43-0.2-0.85-0.32-1.33   c-0.58,0.29-0.98,0.48-1.38,0.68c-0.54-0.02-1.09-0.04-1.63-0.05c-2.25,0-4.5,0.01-6.75,0.01c-3.02,0-6.05,0-9.16,0   c0-9.38,0-18.57,0-27.76c0.8-0.29,1.61-0.58,2.41-0.87c0.83,0.22,1.48,0.1,1.73-0.85c1.15-0.46,2.39-0.65,3.39-1.56   c0.59-0.53,1.53-0.67,2.31-0.98c0.92-0.13,1.66-0.46,1.74-1.54c1.15,0.34,1.69-0.81,2.59-1.07c0.8-0.28,1.7-0.44,1.74-1.56   c0.31-0.09,0.62-0.18,0.92-0.27c0.57-0.47,1.14-0.94,1.71-1.41c1.3-0.95,2.64-1.84,3.87-2.88c1.65-1.38,3.26-2.83,4.79-4.34   c1.4-1.39,2.68-2.9,4-4.36c0.49-0.54,0.98-1.08,1.47-1.62c0.49-0.45,1.01-0.87,1.45-1.37c0.64-0.73,1.2-1.51,1.8-2.28   c0.78-1.12,1.56-2.23,2.32-3.36c0.12-0.18,0.14-0.44,0.2-0.66c1.2-0.12,1.16-1.23,1.59-1.97c0.34-0.71,0.69-1.43,1.03-2.14   c0.87-0.37,1.43-0.99,1.56-1.95c0.48-0.82,0.98-1.62,1.43-2.45c0.25-0.47,0.43-0.98,0.64-1.47c0.72-1.72,1.44-3.44,2.16-5.15   c0.08-0.24,0.16-0.48,0.24-0.72l-0.01,0.01c0.14-0.17,0.28-0.33,0.43-0.5c0.1-0.24,0.19-0.47,0.29-0.71   c0.06-0.03,0.11-0.06,0.17-0.09c-0.06-0.06-0.11-0.12-0.17-0.18c0-0.15,0-0.29,0-0.44c0.14-0.25,0.28-0.5,0.43-0.75   c0.1-0.23,0.2-0.46,0.3-0.69c0.94-0.25,1.05-0.92,0.87-1.73c0.02-0.39,0.05-0.78,0.07-1.17c0.21-0.32,0.43-0.65,0.64-0.97   c0.03-0.39,0.06-0.78,0.09-1.17c1.11-0.3,1.02-1.12,0.85-1.98c0.03-0.23,0.06-0.46,0.09-0.7c0.55-0.35,0.99-0.74,0.48-1.44   c0.09-0.63,0.17-1.26,0.26-1.89c1-0.23,1.06-0.91,0.83-1.74c0.04-0.55,0.08-1.1,0.12-1.65c1.35-0.5,0.53-1.59,0.66-2.42   c0.02-0.87,0.05-1.73,0.07-2.6c1.16-0.92,0.82-2.21,0.85-3.41c0.11-1.81,0.22-3.63,0.35-5.44c0.01-0.12,0.17-0.23,0.26-0.34   c0.38,0,0.75,0,1.13,0c1.39,0.29,2.12-0.75,2.99-1.5c0.35-0.07,0.74-0.06,1.03-0.23c2.77-1.61,4.91-3.9,6.87-6.38   c0.14-0.25,0.28-0.49,0.41-0.74c0.43-0.93,0.86-1.87,1.28-2.8c1.27-0.12,0.83-1.05,0.84-1.77c0.04-0.31,0.08-0.62,0.12-0.93   c1.03-0.98,0.55-2.23,0.61-3.39c0-8.86,0-17.72,0-26.59c0.01-0.66,0.09-1.32,0-1.96c-0.04-0.27-0.4-0.5-0.62-0.75   c-0.04-0.53-0.08-1.06-0.11-1.6c0.11-0.84,0.16-1.65-0.88-1.98c-0.26-0.88-0.4-1.82-0.81-2.62c-0.32-0.64-0.95-1.14-1.49-1.64   c-0.27-0.25-0.65-0.38-0.98-0.57c-0.05-0.22-0.1-0.44-0.15-0.66c0.05-1.25-0.46-2.15-1.66-2.6c-0.07-0.03-0.14-0.06-0.21-0.08   c0-0.08-0.02-0.15-0.05-0.22c-0.07-0.06-0.13-0.13-0.2-0.19c-0.4-0.08-0.8-0.16-1.21-0.24c-0.41-0.09-0.82-0.18-1.23-0.26   c-0.1-0.2-0.15-0.51-0.31-0.58c-1.06-0.48-2.15-0.91-3.22-1.36c-0.09-0.47-0.17-0.94-0.26-1.41   C568.75,290.17,569.28,289.71,568.99,288.85z"
   id="path115" />&#10;	<path
   fill="#78C7EF"
   d="M760.81,415.36c0.06,0.06,0.12,0.12,0.19,0.18C760.93,415.48,760.87,415.42,760.81,415.36z"
   id="path116" />&#10;</g><g
   id="g42"
   style="display:inline"
   transform="matrix(0.70024958,0,0,0.70024958,-114.94978,76.847993)"><path
     id="path120"
     style="fill:#000000"
     d="m 608.95898,57.914062 c -0.34374,-0.02879 -0.7132,-0.01412 -1.10351,0.03906 -5.20414,0.709071 -14.01287,8.407582 -12.23633,15.238281 6.80043,21.021153 -15.60211,5.046788 -16.71484,22.279297 4.82931,10.11237 -11.51794,8.66326 -9.84571,14.55664 1.39296,2.477 -7.06515,-6.48194 -6.87304,1.43164 -1.99811,13.45213 -14.38789,4.3335 -13.28321,-8.67578 C 550.28423,92.012195 548.342,82.350174 560,90.654297 c -0.86218,-15.120088 -5.991,-11.443909 -11.79297,-7.144531 7.5653,-7.946002 5.25129,-24.990808 -4.07226,-15.542969 -8.7833,20.259528 -24.91286,-0.898718 -33.13477,5.03125 -21.91208,8.031201 -32.57611,20.821912 -5.5,31.091793 16.70061,24.71636 25.25532,1.37316 30.08203,-6.271481 5.58462,1.305751 11.79888,21.710511 5.875,23.990231 -7.83531,12.81023 -25.36707,5.67605 -39.50781,17.24219 -7.9364,17.07946 -11.74317,8.67573 -20.94922,0.16211 -11.49144,-1.94384 -18.68159,-31.24903 -22.88867,-7.41797 6.36293,4.01881 22.5536,7.67258 14.88867,17.94141 -17.56084,-7.77629 1.97318,16.32378 -12.72656,19.80859 -13.93993,7.16468 10.48323,-2.05883 6.33203,4.36719 -8.50102,6.93524 -1.41196,51.82009 -10.21094,39.29883 -6.86018,1.93831 29.96144,34.29533 10.57617,38.92383 -11.40356,-11.78168 -21.19398,-17.63293 -6.9707,3.375 9.50235,9.65865 -11.84738,12.53893 -17.74805,6.5664 -1.15636,19.19102 23.64233,27.27217 31.19532,39.08203 0.762,0.69518 1.42689,1.78805 1.83789,3.32618 0.39763,1.48802 1.04647,2.88766 1.58593,4.32617 1.57605,4.20264 -0.57791,6.73496 -2.97656,6.30468 0.0247,0.0806 0.0522,0.16013 0.0781,0.24024 0.40868,1.42419 1.14558,2.71568 1.82422,4.02344 0.54237,1.34811 1.41176,2.71597 1.60937,4.18164 0.1579,1.17129 0.0975,2.21041 0.0625,3.35742 0.0456,0.90944 0.12264,1.8168 0.19531,2.72461 7.83998,4.1509 15.29387,7.20509 24.97266,8.56054 0.17368,-19.11056 23.26037,-34.87956 19.00781,-50.20312 -2.75621,-9.32874 -2.42851,-22.36969 3.10547,-34.5 7.47593,-9.12694 -0.40483,-10.26627 13.98242,-21.2832 11.6999,-5.82733 25.31779,-22.40678 36.37696,-27.56055 13.80744,-10.20911 30.67792,-6.71918 47.5,-12.58398 11.91319,-4.53223 21.40421,-7.76387 34.23046,-6.47461 11.50533,-2.70556 19.14081,1.73179 25.76172,8.15234 1.4356,3.03985 8.77531,-4.47871 12.83985,0.25 10.86929,-7.52646 31.53171,3.12556 38.9082,-13 8.98343,-2.40755 7.62744,3.17237 13.65039,5.46875 11.44873,-11.51801 15.7741,9.60519 20.34766,12.93945 -2.31961,-13.22172 5.31716,-18.63124 12.41992,-13.4082 4.95136,5.09864 9.54626,18.45892 19.46484,29 3.37047,5.62635 19.82605,11.8013 26.76758,18 11.26672,10.18379 13.34873,-6.12765 13.49219,-15.99414 -9.69998,4.7776 -2.74065,0.63023 -5.95703,-4.06445 -7.92081,-4.26747 -9.88151,-20.27739 -19.59766,-29.78516 -0.62113,-22.43027 -22.40022,1.52954 -28.40625,-20.96875 -10.39062,-10.1047 -11.14358,-2.44511 -13.44727,8.5 -4.31598,11.49622 -17.62615,-5.03458 -17.96679,-11.6875 -6.17715,-2.91381 13.58882,-17.57387 -0.93555,-14.80078 -5.91857,9.83137 -18.98396,-11.67587 -30.60156,-7.34961 -5.17324,12.22858 -31.67617,-13.71623 -16.8711,-15.13086 1.17558,4.10442 11.17679,-22.701889 8.17383,-25 -10.69293,-2.563915 -15.06414,8.36176 -22.66797,10.28125 1.52078,9.58475 -8.96539,14.09577 -18.13476,13.93555 -7.85434,7.64194 -20.3372,-5.48053 -17.44727,-11.83008 2.87437,-18.629955 4.74148,4.69802 8.49414,4.91015 6.30294,-5.45947 -0.95479,-15.95981 -7.70507,-16.951167 -6.59456,-4.624457 -8.13301,-0.760803 -15.24219,-3.697265 1.98194,-13.918935 -10.84533,-6.243218 -14.38672,5.677734 -11.99929,4.503528 -8.34755,-10.086555 -3.29297,-15.453125 11.2601,-14.386219 -24.96417,-1.072078 -15.89844,-10.65625 18.83824,-8.261134 -2.32642,-4.416449 1.66211,-7.011719 2.22076,-5.516298 1.1015,-7.808206 -1.30469,-8.009766 z M 445,208 v 0.5 0.5 h 0.5 0.5 v -0.5 -0.5 h -0.5 z m -4,13 v 0.92383 0.92187 l 2.89062,2.82813 2.89258,2.82617 1.85742,1.51367 1.85938,1.51563 3.3457,2.37109 3.34375,2.37109 2.55078,2.36329 L 462.29297,241 H 463.14648 464 v -1.65625 -1.6543 l -2.5,-3.27929 -2.5,-3.27735 v -0.86914 -0.87109 l -3.25,-3.01172 -3.25,-3.01172 -2.5,0.19922 -2.5,0.20117 -2.70117,-1.38476 L 442.09961,221 h -0.55078 z m 366.29492,28.5 0.10352,3.25781 0.10156,3.25977 1.19922,-0.45899 1.19922,-0.45703 -0.5,1.30078 -0.49805,1.30078 -2.45117,-0.46874 L 804,256.76758 V 258.38281 260 h 1.96875 1.96875 l -0.52734,1.37109 -0.52539,1.3711 1.6289,1.6289 1.62891,1.62891 h 0.82031 0.82031 l 1.5586,-3.89648 1.56054,-3.89844 1.75391,0.14844 1.75391,0.14648 0.23437,-2.75 0.23633,-2.75 -1.19141,-0.006 -1.18945,-0.006 -2.88477,-1.50586 -2.88476,-1.5039 -1.26758,1.05273 -1.26758,1.05273 -0.45117,-1.29296 z M 811,255 h 0.5 0.5 v 0.5 0.5 h -0.5 -0.5 v -0.5 z m -3.95508,13.95312 0.58399,1.52344 L 808.21484,272 H 809.60742 811 v -0.46484 -0.46485 l -1.97656,-1.05859 z m -227.25976,50.61915 -1.44727,1.96289 -1.44922,1.96484 -1.4082,-0.28516 -1.4082,-0.28711 -1.96485,1.78711 c -3.59882,3.27207 -4.74241,4.03553 -7.18359,4.79297 -1.33276,0.41353 -4.59904,1.84515 -7.25781,3.18164 l -4.83399,2.42969 0.54492,1.41992 0.54493,1.41992 -4.3418,2.98438 c -2.38715,1.6424 -4.61434,3.70154 -4.94922,4.57422 l -0.60742,1.58594 0.82226,-0.50782 c 0.45249,-0.27965 2.35958,-0.77863 4.23828,-1.10742 1.87871,-0.32879 4.31602,-1.16688 5.41602,-1.86328 1.1,-0.6964 5.24712,-1.8664 9.21484,-2.59961 l 7.21289,-1.33203 -0.52343,-0.84766 c -0.71533,-1.15742 0.32541,-1.06069 2.78906,0.25782 l 2.06055,1.10351 0.6582,-1.06445 0.65625,-1.0625 6.4668,-0.11914 c 3.5561,-0.0652 8.03984,-0.0485 9.96484,0.0351 1.925,0.0836 6.17731,0.10824 9.44922,0.0566 l 5.94922,-0.0937 0.78711,1.40821 c 0.80114,1.43156 5.34975,3.11439 7.48828,2.76953 0.64603,-0.10418 1.46162,0.27135 1.81055,0.83594 0.34891,0.56459 1.18484,1.02734 1.85742,1.02734 h 1.22265 l 0.21875,-2.64844 c 0.12058,-1.45689 0.66438,-3.18559 1.20899,-3.84179 l 0.99023,-1.19336 -0.58398,-0.58399 -0.58399,-0.58398 4.61328,0.31054 4.61133,0.31055 -0.17383,-2.13476 c -0.0964,-1.1743 -0.10698,-2.92227 -0.0215,-3.88477 L 632,328 l 1.75,-0.0312 1.75,-0.0312 -2.75586,-2.05664 -2.75391,-2.05469 0.51368,-0.83203 0.51367,-0.83203 -3.25781,-1.05664 -3.25977,-1.05664 -22.35742,-0.23828 z M 828,325 v 0.5 0.5 h 0.5 0.5 v -0.5 -0.5 h -0.5 z m -243,20.66602 -0.66602,0.66796 L 583.66602,347 H 585 h 1.33398 l -0.66796,-0.66602 z M 576.32031,346 l -7.41015,1.91797 -7.41016,1.91992 -4.70898,2.10938 -4.70899,2.10937 -0.59961,0.97266 -0.59961,0.9707 h 1 1 l 0.57813,-0.93555 0.57617,-0.93554 5.73242,-2.15039 5.73047,-2.14844 7.89648,-1.39453 7.89454,-1.39258 0.52148,-0.52149 L 582.33398,346 h -3.00781 z M 595,346 v 0.5 0.5 h 0.5 0.5 v -0.5 -0.5 h -0.5 z m 5,0.83398 -1.25,0.50391 -1.25,0.50391 h 2.5 2.5 l -1.25,-0.50391 z m 6.01172,4.03516 0.60156,1.56641 L 607.21484,354 H 604.10742 601 v -1 c 0,-0.55 -0.45,-1 -1,-1 h -1 v 1.375 1.375 l -3.125,0.625 c -1.71875,0.34375 -4.6056,0.625 -6.41602,0.625 h -3.29296 l -0.50586,1.25 -0.50782,1.25 -1.06054,-1.5 -1.06055,-1.5 -0.0156,1.16016 -0.0156,1.16211 -4.31641,2.08789 C 576.30996,361.05923 573.85075,362 573.21875,362 c -0.632,0 -1.63005,0.9 -2.21875,2 l -1.07031,2 h -1.85742 -1.85743 l -0.60156,1.5625 -0.59961,1.56445 -0.89258,-0.55273 -0.89453,-0.55078 -0.54492,2.08789 -0.54687,2.08984 -1.06836,-0.66015 L 560,370.88281 v 1.5586 V 374 h -1 c -0.55,0 -1,0.43601 -1,0.96875 v 0.96875 l 1.41992,-0.54492 1.41992,-0.54492 -0.28711,2.61914 -0.28711,2.61914 -1.57812,1.20703 c -0.86796,0.66405 -1.85681,2.36544 -2.19727,3.78125 l -0.61914,2.57422 1.5586,1.29297 1.56054,1.29492 2.00586,-0.52539 2.00782,-0.52539 0.81445,1.45507 0.81445,1.45704 1.9336,0.0859 c 1.06325,0.0483 3.18238,-0.41659 4.70898,-1.0332 l 2.77539,-1.12109 0.47461,-1.51368 c 0.68834,-2.19835 1.38246,-3.72101 2.88281,-6.32031 l 1.33008,-2.30273 0.5,1.91211 0.5,1.91211 2.63086,0.5039 2.63086,0.50196 v -1.03516 -1.03516 l 2.29688,2.15625 2.29687,2.15821 9.50391,0.19922 9.5039,0.19921 1.30078,-0.80468 c 0.7158,-0.44238 1.93034,-2.31022 2.69922,-4.15039 L 614,379.06445 V 375.53125 372 h 1.92773 1.92774 l 2.16601,2.75 2.16602,2.75 -0.62891,4.75 -0.62695,4.75 h 1.0332 c 0.56894,0 1.03516,0.43601 1.03516,0.96875 v 0.96875 l -1.5,-0.57617 -1.5,-0.57617 v 1.5 1.49804 l -2.54102,0.63868 -2.54101,0.63671 0.59961,0.97071 0.59961,0.9707 H 615 613.88281 l 0.65625,1.0625 0.65625,1.06445 -1.75195,1.93555 L 611.68945,400 H 613.8457 616 l 0.0781,-1.25 0.0801,-1.25 0.50391,1.25 0.50391,1.25 h 3.35742 3.35937 l 0.61719,-1 0.61719,-1 h 3.47265 3.47266 l 0.60156,-1.56641 0.60156,-1.56836 -1.13281,-1.13281 L 631,392.59961 V 393.80078 395 h -1.5 -1.5 v -1.3457 c 0,-0.73976 -0.91636,-2.17323 -2.03711,-3.1875 l -2.03906,-1.84571 1.54687,-0.86523 1.54492,-0.86328 1.05469,0.65039 1.05664,0.65234 1.93555,-1.75195 L 633,384.68945 V 385.8457 387 h 2 2 v -1.46094 c 0,-1.7632 3.03815,-4.72041 6.76758,-6.58789 1.50322,-0.75272 3.28499,-1.77262 3.96094,-2.26562 l 1.22851,-0.89649 -1.11523,-2.08594 C 646.26111,370.7496 640.51744,365 639.14844,365 638.5165,365 638,364.56979 638,364.04297 c 0,-1.203 -7.991,-5.93132 -12.84375,-7.59961 l -3.6543,-1.25586 -0.73633,1.15625 -0.73437,1.15625 -0.0156,-1.73047 -0.0156,-1.73047 -2.5,-0.51953 c -1.375,-0.28548 -3.7375,-0.76529 -5.25,-1.06641 -1.5125,-0.3011 -3.5351,-0.78155 -4.49414,-1.0664 z M 772,352.89453 l -5.25,0.36914 -5.25,0.36719 h 10.5 10.5 l -5.25,-0.36719 z m 17.1543,0.39258 -1.02539,0.63281 -1.02539,0.63477 6.66015,1.9082 6.66211,1.90625 8.03711,4.4043 8.03711,4.40234 2.47656,2.41211 2.47852,2.41211 h 0.80273 0.80469 l 0.56445,-1.4707 0.56446,-1.47071 -2.02735,-2.57812 -2.02929,-2.57813 -3.81641,-2.59961 -3.81836,-2.59961 -3.5,-1.4707 -3.5,-1.46875 -3.5,-0.35156 -3.5,-0.35156 -4.67383,-0.88672 z M 755.91602,356 l -7.57618,1.56445 c -4.16678,0.86067 -10.03106,2.65169 -13.03125,3.97852 l -5.45507,2.41211 0.625,1.01172 0.625,1.00976 -1.42188,-0.54492 -1.42383,-0.54687 -1.40039,1.40039 c -0.76976,0.76977 -2.38444,1.92715 -3.58984,2.57226 -1.2054,0.64511 -3.47207,3.07897 -5.03711,5.4082 l -2.8457,4.23438 -0.18555,2.80469 -0.18555,2.80469 0.83008,-0.51368 0.83008,-0.51172 2.20312,1.54297 2.20313,1.54297 -0.5957,1.88086 -0.59766,1.88281 2.57226,0.64649 c 2.52601,0.63399 4.21579,0.39569 7.87891,-1.10742 l 1.83789,-0.75391 -0.33789,2.375 -0.33789,2.375 -3.21094,2.01563 -3.21289,2.01562 -0.0371,1.36719 -0.0391,1.36523 1.96484,-0.51367 1.9668,-0.51367 -0.2168,1.02344 c -0.11869,0.56234 0.34766,1.22838 1.03516,1.48046 l 1.25,0.45704 v -1.08204 C 731,400.48815 731.45,400 732,400 h 1 v 1.62305 1.62109 l 1.48828,-1.23437 1.49024,-1.23633 -0.63672,-1.13672 -0.63477,-1.13672 1.3457,1.25 c 0.74068,0.6875 1.7622,1.25 2.26954,1.25 h 0.92187 l -1.26367,-1.52344 -1.26367,-1.52148 1.64258,0.6289 1.64062,0.63086 v -1.10742 C 740,397.49857 739.55,397 739,397 c -0.55,0 -1,-0.45 -1,-1 v -1 h 1.5 c 2.10035,0 1.86742,-1.2891 -0.5,-2.76758 l -2,-1.25 v -1.95508 -1.95703 l 2.16016,-1.15625 2.16015,-1.15625 -1.66015,-0.92773 L 738,382.90039 v -2.39453 -2.39453 l 2.42969,-2.80469 2.43164,-2.80664 0.91015,1 c 0.50123,0.55 1.45525,3.5421 2.11914,6.64844 l 1.20704,5.64648 3.66406,0.6875 c 2.01544,0.3781 6.5484,0.66567 10.07226,0.63867 l 6.40625,-0.0488 2.24219,-1.46875 2.24024,-1.46875 0.63867,-3.19141 C 772.71253,379.18736 773,376.23125 773,374.375 V 371 l 2.25,0.0332 2.25,0.0332 2.19727,1.83398 c 1.20825,1.0087 3.16486,3.6938 4.34961,5.9668 1.18474,2.273 2.50396,4.13281 2.92968,4.13281 0.42572,0 2.17969,0.28125 3.89844,0.625 l 3.125,0.625 -0.0156,-1.375 -0.0176,-1.375 -5.23242,-5.71289 L 783.5,370.07421 779,368.3828 c -2.475,-0.9309 -5.22985,-2.31574 -6.12109,-3.07617 l -1.61914,-1.38281 -4.38086,-0.0625 c -2.40876,-0.0352 -5.7874,0.24898 -7.50977,0.63281 L 756.23633,365.1914 755.5,364 l -0.73633,-1.19141 1.58399,-1.58398 1.58398,-1.58399 4.7832,1.05469 4.78516,1.05664 3.59961,-0.46875 3.59961,-0.46679 6.90039,2.72265 c 3.79511,1.49743 7.68789,3.40775 8.65039,4.2461 l 1.75,1.52539 v -1.79493 -1.79492 l -1.75,-1.38281 c -0.9625,-0.76052 -3.45323,-2.28974 -5.53516,-3.39844 l -3.78515,-2.01562 0.51953,-0.83985 0.51758,-0.83984 -3.10742,-0.62305 C 777.14956,356.27913 771.28647,356 765.83203,356 Z m 68.94336,14.5 0.5625,5 0.56445,5 -0.97852,-1.5 -0.97656,-1.5 0.084,3.5 0.084,3.5 0.80078,2.5 0.80078,2.5 0.0996,-2.49023 0.0996,-2.49024 2.5,2.69727 2.5,2.69531 V 390.95703 392 h 0.60547 0.60547 l -0.38282,-4 -0.38085,-4 h 0.83593 0.83399 l -0.53516,-0.86719 -0.53515,-0.86523 1.97656,-1.78906 L 836,378.68945 V 377.3457 376 l -2.25,-0.1582 -2.25,-0.15821 -1.54688,0.10938 -1.54687,0.11133 -1.77344,-2.70118 z M 838,374.66602 837.33398,375.33398 836.66602,376 H 838 h 1.33398 l -0.66796,-0.66602 z m -163.25,3.12109 -0.85938,1.35547 -0.85937,1.35742 -0.0156,0.75 L 673,382 h 0.875 0.875 l 3.125,-0.625 3.125,-0.625 v -0.79492 -0.79688 l -3.125,-0.68554 z m 22.25,1.0957 -1,0.61719 -1,0.61719 v 0.9414 V 382 h 1 1 v -1.55859 z M 825.21484,391 l -0.57617,1.5 -0.57617,1.5 H 825.03125 826 v -1.5 -1.5 h -0.39258 z M 824,395.66602 V 397 v 1.33398 l 0.66602,-0.66796 0.66796,-0.66602 -0.66796,-0.66602 z M 824.80078,403.5 824,406 l -0.80078,2.5 -0.0996,-2.30859 -0.0996,-2.3086 -1,0.61719 -1,0.61719 v 2.4414 V 410 h 1.39258 1.39258 l 0.60742,-1.58203 0.60742,-1.58203 -0.0996,-1.66797 z M 825,416 v 0.5 0.5 h 0.5 0.5 v -0.5 -0.5 h -0.5 z m -1,2 v 0.5 0.5 h 0.5 0.5 v -0.5 -0.5 h -0.5 z m -101.91406,20.0957 1.14844,2.70313 1.14648,2.70117 2.06055,2.33789 2.05859,2.33594 6,3.33398 6,3.33203 5.07422,1.63868 5.07617,1.63671 4.92383,0.78711 4.92578,0.78516 5.73047,-0.35352 5.72851,-0.35351 7.07227,-1.48633 7.07031,-1.48828 3.07227,-2.87109 3.07226,-2.8711 -3.11523,-0.45703 -3.11524,-0.45898 0.50196,0.50195 0.5,0.50195 -3.46289,1.19141 -3.46289,1.18945 -6.99024,0.68946 -6.99218,0.6875 -8.30469,-1.10157 -8.30469,-1.10156 -5.98438,-2.0332 -5.98632,-2.03321 -6.01368,-4.25 -6.01562,-4.24804 -1.70703,-0.62305 z M 844,440 v 1.05859 1.0586 l -0.88672,-0.54688 -0.88672,-0.54687 -0.50586,1.93945 -0.50781,1.94141 1.05664,0.35156 1.05469,0.35352 0.43945,1.94531 0.4375,1.94531 -0.0879,5.25 -0.0898,5.25 h 1.00781 1.00781 l -0.66992,2.75 -0.66797,2.75 -1.34961,1.97266 L 842,469.44531 v 1.28516 1.28711 l 1.97266,-1.23242 1.97265,-1.23243 0.48047,-4.02539 0.48047,-4.02734 0.51367,-8.21289 0.51172,-8.21094 -0.9668,-0.59765 L 846,443.88281 V 441.94141 440 h -1 z m -3,7.59961 -1.11328,1.11328 -1.11328,1.11328 0.67187,1.08594 0.67188,1.08789 h 0.4414 H 841 v -2.19922 z m -226.5,1.53125 -7,0.55664 -7,0.55859 -0.41602,0.37696 -0.41796,0.37695 4.41796,-0.11914 4.41602,-0.11719 3,-0.8164 z m 76.95117,0.36914 3.70899,3.64844 3.70898,3.65039 -0.53516,0.53515 -0.53515,0.53516 2.59961,3.41016 2.60156,3.41015 v 1.11328 1.11329 l 4.35352,2.55078 4.35351,2.55078 1.80078,1.99219 1.80274,1.99023 h 0.72265 0.72266 l 0.98437,-1.25 0.98438,-1.25 0.65625,-2.75 0.6582,-2.75 h -1.93554 -1.93555 L 713.08398,464.10547 710,460.21289 709.992,459.35547 709.984,458.5 707.29259,457.25 704.60118,456 h -0.84375 -0.8457 l -2.69531,-2.5 -2.69727,-2.5 h -2.05859 -2.06055 l -0.97461,-0.75 z M 596,449.83398 l -1.25,0.50391 -1.25,0.50391 h 2.5 2.5 l -1.25,-0.50391 z M 722.76758,468 l 0.48242,2.52344 0.48242,2.52344 -1.05078,0.65039 -1.04883,0.64843 1.9336,0.75586 1.93359,0.75782 1.14258,0.0703 1.14258,0.0703 0.63086,-1.64062 0.6289,-1.64063 L 727.5,470.35938 725.95312,468 h -1.59179 z m -212.91211,11.00781 -1.81055,0.96875 c -1.66967,0.89357 -3.07101,3.07479 -3.54687,5.52344 -0.10689,0.55 -0.3171,1.225 -0.46875,1.5 -0.56917,1.03207 -0.64885,9 -0.0898,9 0.62615,0 0.48466,9.26663 -0.18945,12.38867 -0.22425,1.03859 -1.15907,2.43733 -2.07812,3.10938 -2.3407,1.71156 -2.12993,2.60334 1.67382,7.07226 1.83978,2.1615 3.88186,4.94703 4.53907,6.18946 l 1.19531,2.25781 -0.23242,3.93164 -0.15039,2.54492 c 0.25037,-0.1221 0.51247,-0.21448 0.79492,-0.24023 1.67347,-0.15259 3.78445,1.39462 4.84765,4.74609 0.59776,1.88429 0.95161,3.91562 1.90039,5.66602 1.95402,3.0321 2.67374,6.54526 3.28907,10.04296 0.53886,2.99503 0.93113,6.01287 1.63086,8.97657 0.23971,1.44472 1.15873,2.54932 1.85546,3.78711 0.71391,1.26818 0.82455,1.56945 1.43165,2.87109 1.39462,3.53574 1.93857,7.34104 2.63476,11.06055 1.01499,4.37014 1.14038,8.80393 1.08008,13.26367 -0.0874,3.0731 1.08249,5.9438 1.60351,8.91601 0.1427,0.81402 0.20594,1.6409 0.3086,2.46094 0.1764,0.91782 0.35705,1.84108 0.5332,2.76367 1.85649,3.83984 3.50643,7.8519 3.68164,9 0.17967,1.17729 0.63674,2.45122 1.01758,2.83203 0.21227,0.21227 0.38639,0.67046 0.51367,1.19922 0.0886,0.13584 0.17828,0.27103 0.26758,0.40625 1.07538,1.84574 1.3157,2.25874 1.59766,2.77735 1.23855,0.047 1.4999,0.53979 1.71484,3.22656 0.055,0.6875 0.66211,1.84548 1.34961,2.57227 0.6875,0.72675 1.25,2.18928 1.25,3.25 V 635 h 1.08398 1.08204 l -0.44922,1.25 -0.45118,1.25 1.61719,3 c 0.88959,1.65 1.84219,3.2319 2.11719,3.51562 1.70169,1.75583 6.33942,7.34457 5.5918,6.73829 l -0.90821,-0.73633 -1.34179,1.11328 C 549.60364,651.74343 549,652.91647 549,653.73828 v 1.49414 l 2,-0.52148 2,-0.52344 v 0.82227 c 0,0.45267 -0.5625,1.02784 -1.25,1.27734 l -1.25,0.45312 1.53711,2.87696 1.53516,2.875 2.96484,0.63672 c 2.84466,0.60971 2.65248,1.06487 -0.53711,1.27539 l -1.5,0.0976 0.21094,1 c 0.11571,0.54927 1.1547,1.14624 2.30859,1.32617 l 2.09766,0.32618 -1.07617,1.29687 -1.07618,1.29492 0.56641,1.47657 0.56641,1.47656 2.82812,0.0801 2.82813,0.0801 -0.0352,-1.17969 c -0.0191,-0.64879 0.0363,-1.96719 0.12305,-2.92969 L 564,667 h 1 1 v 2.5 2.5 h 1 1 v 1.46875 1.46875 l 1.5,-0.57617 1.5,-0.57617 V 675 v 1.21484 l 1.39648,-0.53711 1.39844,-0.53515 0.46289,2.42773 0.46485,2.42969 h -0.86133 C 573.3876,680 573,679.2588 573,678.35352 v -1.64649 l -2.5,2.69922 c -2.95237,3.18565 -3.12628,3.92303 -0.75,3.18359 l 1.75,-0.54492 1.5,0.94141 c 0.825,0.51739 1.5097,1.51899 1.52148,2.22656 l 0.0215,1.28711 2.72851,-0.28711 L 580,685.92383 v 1.65429 1.6543 l -2.4082,-0.45898 -2.41016,-0.46094 0.53711,1.39453 0.53516,1.39649 2.99804,-0.65821 2.99805,-0.66015 -0.64648,1.04687 -0.64649,1.04688 1.77149,2.81054 L 584.5,697.5 h 2.5 2.5 l 0.0156,1.58789 c 0.0228,2.25461 2.47957,4.42448 6.51368,5.75586 l 3.47461,1.14648 4.25195,-0.24414 L 608.00977,705.5 607.5,704 l -0.50977,-1.5 2.45704,2.75 2.45703,2.75 h 1.97851 1.97852 l 0.31836,2.24023 0.32031,2.24024 2,0.25 2,0.25195 -2,-0.91992 -2,-0.92188 1.75,-0.0703 L 620,711 v -1.30078 c 0,-0.715 -0.45673,-1.75749 -1.01562,-2.31641 l -1.01758,-1.01562 4.26758,0.26172 c 5.51765,0.33836 5.74187,0.43707 2.83984,1.24804 -1.33422,0.37285 -2.60988,1.22806 -2.83399,1.90039 L 621.83398,711 h 1.47657 1.47461 l 0.66601,1.73047 0.66406,1.73047 -1.05859,0.35351 c -1.59657,0.53219 -1.28137,2.08312 1.02148,5.02735 l 2.08008,2.6582 2.16992,0.59766 c 2.57134,0.70743 7.95229,0.46586 9.38868,-0.42188 l 1.01562,-0.6289 -0.51172,-2.77344 -0.51172,-2.77344 -1.51953,-0.89258 -1.52148,-0.89258 1.74023,-1.27148 1.74024,-1.27344 -3.94336,0.5293 -3.94531,0.5293 -0.68165,-1.10352 -0.68164,-1.10156 1.42188,0.54492 1.42383,0.54687 0.59765,-1.55859 0.59766,-1.55664 1.78125,-0.0625 1.78125,-0.0644 -2.5,-1.00586 -2.5,-1.00781 2.29297,-1.23829 2.29297,-1.23632 -2.53321,-1.35743 -2.5332,-1.35546 -1.91015,1.72851 -1.91016,1.73047 -0.6582,-1.06641 C 628.17896,703.47857 627.43281,703 626.88281,703 h -1 l 0.61719,1 0.61719,1 -0.8086,-0.0156 c -0.44496,-0.008 -1.48236,-0.44108 -2.30468,-0.96094 l -1.49414,-0.94532 1.99414,-1.49218 1.99609,-1.49414 1.24023,1.63086 1.23829,1.63086 0.67382,-0.67188 0.67188,-0.67383 -1.14063,-2.5039 L 628.04297,697 H 626.52148 625 v -1.39258 -1.39258 l 1.72266,-0.66211 1.7207,-0.66015 -1.4707,-1.02344 -1.47266,-1.02148 1.5,0.57617 c 0.825,0.31651 2.2875,0.8519 3.25,1.1914 l 1.75,0.61719 v 2.1836 c 0,1.20082 -0.53922,2.72476 -1.19922,3.38476 L 629.59961,700 h 1.29492 1.29297 l 0.52344,-2 0.52148,-2 1.63477,-0.0156 1.63281,-0.0156 -1.5,-0.99219 -1.5,-0.99218 2.5,-1.96876 c 3.15253,-2.4847 3.71552,-2.48733 4.5,-0.0156 l 0.63477,2 h 3.02539 3.02734 l 0.52344,2 c 0.28766,1.1 0.96702,2 1.51172,2 h 0.99218 l -0.57617,-1.5 -0.57617,-1.5 h 1.0625 1.0625 l 0.52344,2 c 0.57418,2.19568 1.12135,2.39194 3.12304,1.12305 l 1.33399,-0.84571 -1.51953,-0.58203 -1.51758,-0.58203 1.1543,-3.05664 C 654.91971,691.37548 655.84237,690 656.33594,690 h 0.89648 l -0.52148,2 c -0.64159,2.45348 -0.55479,2.45528 3.84765,0.0957 l 3.55274,-1.90429 3.58203,0.99023 3.58398,0.98828 0.95508,-1.33398 0.95703,-1.33594 -0.55273,1.72266 -0.55274,1.72461 1.62305,0.9082 1.625,0.91015 2.82031,-0.80859 2.82032,-0.81055 0.57226,0.92774 c 0.81513,1.31891 3.38757,1.14496 4.80078,-0.32422 l 1.20118,-1.25 -0.0234,-2.6543 -0.0234,-2.65429 -0.75,0.46289 -0.75,0.46289 V 687.05859 686 h 2.05859 2.0586 l -0.57227,0.92773 -0.57422,0.92774 1.81641,0.57812 1.81836,0.57618 4.33594,-2.09571 4.33593,-2.09375 2.11133,0.46094 c 1.16145,0.25385 2.92656,0.80354 3.92188,1.2207 l 1.80859,0.75782 0.55274,-2.11329 0.55273,-2.11132 2.9043,-1.44922 2.90429,-1.44922 -0.57617,0.93164 -0.5743,0.93164 h 1.43555 c 0.79011,0 1.97801,-0.65122 2.63867,-1.44727 1.20278,-1.44923 7.27856,-3.9343 12.12305,-4.95898 l 2.57812,-0.54687 4.42188,-3.51368 c 2.43146,-1.93273 4.75893,-3.51843 5.17383,-3.52343 0.41489,-0.005 4.23989,-2.93266 8.5,-6.50586 4.26007,-3.57324 8.26041,-6.498 8.88867,-6.5 C 762.17506,654.9996 773,643.2352 773,641.57422 c 0,-0.72128 2.025,-3.33555 4.5,-5.81055 2.475,-2.475 4.5,-4.73618 4.5,-5.02539 0,-0.2892 1.33851,-1.95949 2.97461,-3.71094 l 2.97461,-3.18554 0.9414,-3.40821 c 0.51764,-1.87471 1.63454,-4.10135 2.48243,-4.94921 l 1.54101,-1.54297 -0.52734,-1.37696 -0.5293,-1.3789 2.51953,-3.99024 2.51953,-3.99023 -0.33398,-2.85352 c -0.18366,-1.56878 -0.38652,-4.08906 -0.44922,-5.60156 L 796,592 h -1.51367 -1.51367 l -2.95704,3.25 c -1.6261,1.7875 -2.97022,3.8125 -2.98632,4.5 -0.0161,0.6875 -0.4793,1.25 -1.0293,1.25 -0.55,0 -1,0.42756 -1,0.94922 0,1.64268 -4.36692,5.65438 -7.76172,7.13086 l -3.26172,1.41797 -0.55664,1.75195 -0.55469,1.75 h -1.84961 -1.8496 l -0.48243,-1.25 -0.48242,-1.25 -2.51562,2.80664 -2.51367,2.80469 -2.08594,0.15625 c -2.12082,0.15976 -2.61393,0.87045 -1.42774,2.05664 l 0.65821,0.6582 1.34179,-1.11328 1.3418,-1.11328 v 1.5957 1.59766 l -2.85156,1.47461 -2.85156,1.47461 -1.0293,-1.0293 -1.0293,-1.0293 -1.36328,3.08008 L 752.51172,628 H 751.25586 750 v 2.67383 2.67383 l -2.31445,-2.17383 C 746.4126,629.97796 744.8376,629 744.18555,629 H 743 v 3.375 3.375 h -2.54102 c -3.29853,0 -3.63333,0.41636 -3.7539,4.66992 l -0.10156,3.5586 -0.82227,-1.24024 -0.82227,-1.23828 -1.72851,2.13086 c -0.95132,1.17228 -2.29962,2.97228 -2.99609,4 l -1.26758,1.86914 0.59179,-3.22461 0.58985,-3.22656 -1.57422,-2.2461 L 727,638.55469 v 1.3457 1.34375 l -1.40234,-1.16406 -1.40235,-1.16406 -1.01953,2.79296 -1.01758,2.79102 -0.19726,-3.5 -0.19727,-3.5 -0.76367,3 c -0.41985,1.65 -0.86917,4.8 -0.99805,7 l -0.23437,4 -0.45703,-1.75 c -0.25152,-0.9625 -0.8751,-1.75 -1.38477,-1.75 H 717 v -2.28906 c 0,-1.25871 -0.9,-4.05335 -2,-6.21094 -1.1,-2.15759 -2,-4.93824 -2,-6.17969 v -2.25781 l -1.55078,0.5957 -1.54883,0.59375 -0.57227,2.85743 -0.57226,2.85742 -0.69922,-0.43164 c -0.38492,-0.2379 -1.41635,0.40586 -2.29297,1.42968 l -1.59375,1.86133 -0.2793,3.33594 c -0.15299,1.8355 -0.50853,3.78366 -0.79101,4.32812 l -0.51367,0.99024 -0.69336,-2.49024 c -0.38117,-1.36943 -0.73817,-3.92144 -0.79297,-5.67187 L 701,638.13477 703,637.5 l 2,-0.63477 v -1.31054 c 0,-0.7206 -0.675,-1.87 -1.5,-2.55469 -0.825,-0.68469 -1.5,-1.80915 -1.5,-2.49805 V 629.25 l -2.25,-0.0879 c -1.2375,-0.0481 -3.15,-0.25747 -4.25,-0.46484 l -2,-0.37696 -0.32617,-2.91015 c -0.17982,-1.60077 -0.74232,-3.33688 -1.25,-3.85938 C 691.41615,621.02829 691,619.64013 691,618.4668 c 0,-1.17334 -0.26419,-2.39699 -0.58594,-2.71875 l -0.58398,-0.58399 -3.02344,1.05274 -3.02148,1.05468 -0.87696,-1.38671 c -0.48252,-0.76189 -0.88458,-1.03146 -0.89258,-0.59961 -0.008,0.43185 0.68418,1.85348 1.53907,3.1582 l 1.55469,2.37109 -1.1504,0.71094 -1.15039,0.71094 -1.37304,-1.37305 c -0.75507,-0.75507 -1.54439,-2.26968 -1.75391,-3.36719 -0.3824,-2.00299 -1.05673,-4.02478 -2.76367,-8.29297 C 676.41271,607.93977 676,605.62582 676,604.06055 v -2.84571 l 1.58203,-0.60742 c 0.86998,-0.33385 2.89498,-0.60742 4.5,-0.60742 H 685 v -0.90039 -0.90234 l 4.89258,0.15234 4.89258,0.15039 1.93554,-1.75 1.9375,-1.75 h 2.34375 c 1.289,0 4.0904,-0.7875 6.22657,-1.75 l 3.88476,-1.75 -0.51758,-3.5 c -0.75983,-5.13662 -1.06704,-6.3629 -1.93359,-7.75 l -0.7793,-1.25 0.56641,-0.91992 0.56836,-0.91797 -1.58008,-1.58203 C 706.56816,574.71074 705.06475,574 704.0957,574 c -0.96905,0 -2.09922,-0.3375 -2.51172,-0.75 -0.4125,-0.4125 -2.40133,-0.79702 -4.41796,-0.85352 -2.01667,-0.0565 -8.16605,-0.22003 -13.66602,-0.36328 l -10,-0.25976 -1.5,-0.76758 -1.5,-0.76563 -3.25,0.49219 -3.25,0.49414 v 1.4961 1.49414 l -2.28906,-0.57422 -2.28906,-0.57422 -2.81446,1.46094 c -1.54851,0.80338 -3.17718,1.23604 -3.61914,0.96289 -0.44197,-0.27314 -1.85818,-0.0728 -3.14648,0.44336 l -2.3418,0.9375 1.75,0.0644 L 651,577 v 1.41992 c 0,0.78043 0.64804,2.69293 1.43945,4.25 0.79141,1.55707 1.96058,4.26594 2.59766,6.02149 l 1.1582,3.19336 3.09571,0.67968 c 1.70282,0.37401 3.71669,1.2987 4.4746,2.05664 0.75794,0.75795 2.02093,1.37891 2.80665,1.37891 H 668 v 1.5 1.5 h 1.14062 c 0.62686,0 1.68297,-0.74331 2.34766,-1.65234 l 1.20899,-1.65235 1.15039,0.71094 1.15234,0.71094 v 2.9414 V 603 h -1.41016 -1.4082 l 1.95898,4.05469 1.95704,4.05273 -0.34375,3.00977 c -0.18905,1.65547 -0.77321,3.31989 -1.29883,3.69726 C 673.46927,618.52222 671,622.57586 671,623.48633 671,623.76879 671.675,624 672.5,624 h 1.5 v 1.88281 1.88477 l -2.5,0.47656 -2.5,0.47852 v -1.16211 c 0,-0.63873 0.53922,-1.70133 1.19922,-2.36133 L 671.40039,624 h -1.25977 -1.25976 l 0.54883,-0.88672 0.54883,-0.88672 -1.50977,-1.2539 -1.50977,-1.25196 -1.10156,-4.37304 -1.10156,-4.375 -2.37695,2.76367 -2.37696,2.76367 v 3.41602 l -0.002,3.41796 -0.6582,-0.6582 -0.65821,-0.6582 -1.51562,1.24023 -1.51563,1.24219 0.55078,-2.13867 0.55274,-2.14063 -0.82422,-1.33008 c -1.05403,-1.70542 -1.60978,-1.10962 -2.43164,2.61133 l -0.66211,2.99805 1.06641,-1.5 1.06445,-1.5 0.0156,1.73047 0.0156,1.73047 -2.25,0.45703 c -1.2375,0.25042 -2.98878,0.40816 -3.89258,0.35156 l -1.64453,-0.10351 -0.64062,-4.83204 L 645.93164,616 h -2.10547 -2.10547 l -1.15039,1.57422 -1.15039,1.57226 -3.25976,-1.82226 -3.25977,-1.82422 -1.31055,1.75 C 630.16473,619.15292 628,619.6052 628,618 v -1 h -2.44141 c -1.34251,0 -2.6629,0.36153 -2.93554,0.80273 l -0.4961,0.80079 -5.81445,-0.0508 -5.8125,-0.0527 0.13867,-1.75 0.13867,-1.75 h -2.21484 -2.2168 l 0.44141,-3 0.43945,-3 h -1.67187 -1.67188 l 0.61719,-1 0.61719,-1 h -3.89844 -3.89844 l -1.33203,-2.75 c -0.73344,-1.5125 -1.23619,-3.31881 -1.11523,-4.01367 l 0.2207,-1.26367 -1.54687,-0.59375 L 592,597.78516 v -2.33399 -2.33398 L 593,592.5 c 0.55,-0.33992 1,-1.07235 1,-1.62695 v -1.00782 l -1.96289,0.62305 -1.96094,0.62305 -2.03906,-1.0918 L 586,588.92969 v -1.30469 -1.30469 l -2.5,-1.13867 -2.5,-1.13867 v -2.09375 -2.0918 l -1.5293,1.5293 -1.52929,1.52734 -1.63477,-0.62695 -1.63476,-0.62695 0.6582,1.06445 0.6582,1.06641 -1.57617,0.60351 c -0.86683,0.33263 -2.32662,0.59782 -3.24414,0.58985 l -1.66797,-0.0156 1.20508,-0.76563 1.20312,-0.76562 -0.16992,-2.27148 -0.17187,-2.27344 -2.25586,0.5664 -2.25782,0.56641 0.55079,-1.43359 0.54882,-1.4336 -2.28515,-0.32812 -2.28516,-0.33008 -0.5625,-2.5 -0.56055,-2.5 -3.20898,-1.5 -3.20898,-1.5 -0.63282,-3.26172 -0.63476,-3.25976 1.36328,-1.68164 1.36328,-1.68165 -1.25,0.75196 -1.25,0.75 v -0.85742 c 0,-0.47246 0.50406,-1.3654 1.12109,-1.98243 l 1.12305,-1.12109 1.37695,0.5293 1.37891,0.52929 v -0.67382 c 0,-0.37 -0.47319,-1.55552 -1.05078,-2.63477 l -1.04883,-1.96289 -0.95117,0.58789 L 556,553.11719 v -2.17383 -2.17578 l -2.55469,0.48828 -2.55273,0.48828 0.30273,-2.62305 L 551.5,544.5 l 2.5,0.22461 2.5,0.22461 -1.25,-0.5586 c -0.6875,-0.30678 -1.25,-1.01706 -1.25,-1.58007 v -1.02539 l 1.5,0.57617 1.5,0.57617 -0.0312,-0.71875 c -0.16649,-3.76176 -4.27109,-5.05172 -6.40039,-2.01172 l -1.54688,2.20508 -1.43945,-1.95508 -1.43945,-1.95703 -0.67774,1.75 c -0.37312,0.9625 -1.10724,1.75 -1.63086,1.75 h -0.95117 l 0.61719,-1 0.61719,-1 h -1.44141 -1.44336 l -0.54883,2.10156 -0.54882,2.09961 -0.95118,-0.58789 -0.95312,-0.58789 0.32031,-4.73828 0.31836,-4.73828 -1.01367,-1.22266 c -0.55753,-0.67179 -1.1515,-2.93204 -1.32031,-5.02344 l -0.30664,-3.80273 1.01562,-0.63867 1.01563,-0.64063 -3.09766,0.15625 -3.09961,0.15625 -1.46094,1.98242 -1.45898,1.98438 -0.70313,-1.81836 -0.70507,-1.81641 1.38281,-2.5957 1.38281,-2.59765 -1.25,-0.41797 -1.25,-0.41993 v -2.8457 -2.8457 l -1.29102,-1.32031 c -0.7107,-0.72679 -1.86261,-2.71503 -2.55859,-4.41797 l -1.26562,-3.09766 0.66015,-2.62305 0.6582,-2.625 -1.60156,-1.59961 c -0.88055,-0.88051 -1.60633,-2.35803 -1.61133,-3.28125 L 520.98047,490.5 517,487 l -3.98047,-3.5 -0.01,-1.64258 -0.01,-1.64258 -1.57227,-0.60351 z m 139.33789,12.78711 -5.34766,0.5957 c -10.69967,1.19291 -10.36677,0.95582 -9.44336,6.73047 l 0.58008,3.61914 1.50781,1.25196 c 0.82992,0.68878 1.50977,1.66707 1.50977,2.17383 v 0.92187 l -1.25,-0.20117 c -1.72529,-0.2782 -4.75,1.13584 -4.75,2.2207 V 510 h 1.89258 1.89258 l 0.60156,1.5625 0.59961,1.56445 1.02344,-0.63281 1.02343,-0.63281 L 638.5,511 l -0.5332,-0.86133 0.76758,-0.45312 c 0.42145,-0.24843 1.77544,-0.0681 3.00976,0.39843 l 2.24414,0.84766 -1.14062,2.50195 -1.14063,2.50391 -0.85351,-0.52734 L 640,514.88281 v 1.0586 V 517 h -2.38281 -2.38477 l -0.55469,2.12305 -0.55468,2.125 -2.65821,-0.66797 -2.65625,-0.66602 -1.40429,1.16602 c -0.77239,0.64105 -1.4043,0.88532 -1.4043,0.54297 0,-1.32239 -0.40176,-2.16933 -1.60352,-3.3711 l -1.24804,-1.24609 -1.57422,0.60352 L 620,518.21484 v -1.55078 -1.55078 l -2.25,-1.64844 -2.25,-1.65039 2.25,0.66016 2.25,0.66016 -0.002,-1.31641 -0.002,-1.31836 -2.96484,-0.20703 -2.9668,-0.20703 -0.59179,0.95703 C 613.14729,511.56943 612.14604,512 611.24609,512 h -1.63671 l -2.72266,2.60938 -2.72461,2.60937 -1.14844,-0.71094 -1.15039,-0.71093 0.52539,-1.36524 0.52344,-1.36719 -0.81445,-0.5039 c -0.44872,-0.27733 -1.96573,0.0369 -3.36914,0.69922 l -2.55079,1.20507 -1.14453,3.82032 -1.14453,3.82031 -2.19531,0.85547 -2.19336,0.85547 -1.10938,-1.40821 -1.11132,-1.4082 -2.88868,-0.0312 -2.89062,-0.0293 1.75,-1.01953 c 0.9625,-0.5606 1.75,-1.44608 1.75,-1.96875 V 517 h -2.60742 -2.60742 l 0.57617,1.49805 0.57422,1.5 -0.7168,1.84179 c -2.06421,5.29224 -9.1889,11.76991 -9.25,8.41016 l -0.0332,-1.75 -1.4668,1.94141 C 567.59796,532.91479 567.60711,534 569.5,534 h 1.5 v 1.12305 1.12109 l 1.58984,-1.31836 1.5918,-1.32031 -0.24219,2.94726 c -0.1326,1.62111 -0.17274,4.40977 -0.0898,6.19727 L 574,546 h 1.46875 1.46875 l -0.56836,1.47852 -0.56641,1.47851 3.1836,3.18359 3.18555,3.1836 -0.44727,2.33203 -0.44531,2.33008 1.36132,1.1289 C 583.38868,561.73607 584,562.8654 584,563.62305 584,564.38071 584.41363,565 584.91992,565 h 0.92188 l 0.6582,-3 0.6582,-3 h 1.72071 c 0.94629,0 2.25143,-0.52878 2.89843,-1.17578 l 1.17578,-1.17774 1.87891,1.70313 1.88086,1.70117 1.26563,-1.52539 C 598.67471,557.68651 599.62739,557 600.09375,557 c 0.46636,0 3.22321,-1.08158 6.12695,-2.40234 l 5.2793,-2.40039 2.5,0.35546 c 1.375,0.19544 4.36931,1.03379 6.6543,1.86329 2.28497,0.82948 5.65999,1.68986 7.5,1.9121 1.84001,0.22227 4.15245,0.74563 5.13867,1.16211 l 1.79297,0.75586 0.58398,-0.58203 0.58399,-0.58398 3.31054,1.38281 3.31055,1.38281 2.0625,-0.53906 2.0625,-0.53906 0.0703,-1.13477 0.0703,-1.13281 0.7461,1.9043 0.74805,1.90429 2.12109,-2.27734 2.12305,-2.27734 4.31054,-0.83399 c 2.37103,-0.45832 6.22305,-0.85295 8.56055,-0.87695 L 670,554 l 2,2 2,2 2.5,0.15039 c 1.375,0.0825 3.0625,0.195 3.75,0.25 0.6875,0.055 1.84548,0.66211 2.57227,1.34961 0.72676,0.6875 1.76541,1.25 2.30859,1.25 h 0.98633 l -0.5293,-0.85938 -0.53125,-0.85742 3.59961,0.28516 3.59766,0.28516 -1.12696,-1.12696 C 690.50706,558.10667 690,557.25477 690,556.83203 v -0.76953 l 1.5,0.57617 1.5,0.57617 v -1.4707 -1.46875 l 8.5,-0.68945 c 4.67474,-0.3793 11.53724,-1.38156 15.25,-2.22656 3.71277,-0.84501 7.95768,-1.76742 9.43359,-2.05079 l 2.6836,-0.51562 -0.49024,1.87305 -0.49023,1.87304 3.80664,0.084 c 2.09345,0.0466 6.95664,0.6134 10.80664,1.25976 l 7,1.17578 1.35156,1.94141 1.35352,1.94141 3.51953,-1.47071 c 4.31842,-1.80435 4.33994,-1.80544 3.66211,-0.0391 l -0.54883,1.43359 3.08203,1.59375 3.08008,1.5918 v 1.08203 1.08203 l 1.47266,-0.5664 1.47265,-0.56446 1.48633,2.1211 1.48438,2.12109 -0.50391,0.81641 c -0.27749,0.449 -0.003,1.75365 0.60937,2.89844 l 1.11329,2.08007 1.18359,-0.39453 1.18164,-0.39648 0.0898,-9.41406 0.0899,-9.41602 -0.96485,-4.27539 -0.96484,-4.27734 -2.3418,-1.83985 c -1.28747,-1.01272 -2.11008,-2.07351 -1.82812,-2.35547 0.28196,-0.28196 -0.6492,-0.80347 -2.07031,-1.16015 l -2.58399,-0.64844 0.28711,-1.69922 0.28711,-1.69922 -1.16016,-0.0234 C 762.02533,535.49604 758,530.71263 758,529.17578 v -1.00976 l -3.51562,0.27929 -3.51368,0.2793 -3.42773,3.5293 c -1.8851,1.94101 -3.18802,3.76901 -2.89453,4.0625 0.29349,0.29348 0.23747,1.46734 -0.125,2.60937 l -0.65821,2.07617 -2.10546,1.12696 -2.10547,1.12695 -5.07618,-0.20313 c -2.79256,-0.11111 -7.55536,-0.30367 -10.58203,-0.42968 l -5.50195,-0.23047 -3.24805,-1.61914 L 712,539.1543 l -0.0312,1.17187 -0.0332,1.17383 -1.23828,-1.62695 -1.23829,-1.62696 -6.47851,0.29493 -6.48047,0.29687 -3,1.57422 -3,1.57617 -2.70117,0.006 -2.69922,0.006 -0.97656,1.74414 -0.97461,1.74414 -2.32422,-2.18359 -2.32422,-2.1836 -2.91406,0.32032 -2.91406,0.32031 -3.37891,-1.41211 -3.38086,-1.41406 -1,0.61914 -1,0.61719 -1.45508,-1.20899 -1.45703,-1.20703 -1.41016,1.16992 -1.41211,1.17188 L 657.5,539 l -0.67773,-1.09766 -1.22266,1.01368 -1.2207,1.01367 -6.93946,0.70703 c -3.81669,0.38871 -11.50882,0.68731 -17.09375,0.66211 l -10.15429,-0.0469 -3.06641,-1.35742 -3.06836,-1.35742 -0.32422,-1.51758 -0.32422,-1.51953 1.98438,-2.75 c 2.11232,-2.92723 4.15089,-3.55237 4.89258,-1.5 l 0.45117,1.25 2.88281,-2.63477 2.88086,-2.63476 2,0.24609 c 1.1,0.13507 2.7875,0.58199 3.75,0.99219 l 1.75,0.74609 1.42773,-0.54882 1.42774,-0.54883 0.32226,-2.58985 0.32227,-2.58984 1,0.0312 c 0.55,0.0171 1.0562,0.48125 1.125,1.03125 0.0688,0.55 0.1812,1.28672 0.25,1.63672 0.0688,0.35 1.30668,-0.54495 2.75,-1.98828 l 2.62305,-2.625 2.59961,0.65234 2.59765,0.65234 1.66211,2.05469 1.66406,2.05274 1.64844,-1.36914 1.64844,-1.36719 2.45703,1.31445 2.45703,1.31445 2.47852,-1.1289 2.47851,-1.12891 0.78125,1.21485 c 1.44951,2.25755 9.25624,6.19844 13.99024,7.0625 l 3.21094,0.58593 1.3125,-1.21679 c 1.6778,-1.55608 2.94684,-1.85785 10.26562,-2.44727 l 6,-0.48437 0.33398,-0.89258 C 703.01732,527.4014 703.78995,527 704.55078,527 h 1.38281 l 3.53321,-3.5332 3.5332,-3.53321 v -2.03906 -2.03711 L 711.57227,514.42773 710.14258,513 h -2.17774 -2.17968 l 0.53906,-1.40234 c 0.76248,-1.987 -0.28505,-2.68919 -2.35742,-1.58008 l -1.76953,0.94726 0.51757,-1.98242 L 703.23242,507 H 701.61719 700 v -1.58008 -1.57812 l -3.25,0.70898 c -1.7875,0.38987 -5.67572,1.99931 -8.64062,3.57813 -6.68589,3.56024 -7.06289,3.55688 -11.22461,-0.11914 -1.86203,-1.64472 -4.28477,-3.28535 -5.38477,-3.64454 -1.1,-0.35918 -2.58294,-1.48066 -3.29492,-2.49218 -0.71197,-1.01151 -3.18697,-3.12023 -5.5,-4.6875 L 658.5,494.33594 653.8457,493.06445 Z M 841.03906,499 l -0.64062,2.55078 -0.64063,2.55078 1.8711,1.41797 1.87109,1.41602 0.25,0.0332 L 844,507 v -4 -4 h -1.48047 z" /></g>&#10;</svg>
