<?xml version="1.0" encoding="UTF-8" standalone="no"?>
<!-- Created with Inkscape (http://www.inkscape.org/) -->

<svg
   width="90.125717mm"
   height="42.789524mm"
   viewBox="0 0 90.125717 42.789525"
   version="1.1"
   id="svg1"
   sodipodi:docname="path_art_evocar_1.svg"
   inkscape:version="1.3 (0e150ed6c4, 2023-07-21)"
   xmlns:inkscape="http://www.inkscape.org/namespaces/inkscape"
   xmlns:sodipodi="http://sodipodi.sourceforge.net/DTD/sodipodi-0.dtd"
   xmlns="http://www.w3.org/2000/svg"
   xmlns:svg="http://www.w3.org/2000/svg">
  <sodipodi:namedview
     id="namedview1"
     pagecolor="#ffffff"
     bordercolor="#999999"
     borderopacity="1"
     inkscape:showpageshadow="2"
     inkscape:pageopacity="0"
     inkscape:pagecheckerboard="true"
     inkscape:deskcolor="#d1d1d1"
     inkscape:document-units="mm"
     inkscape:export-bgcolor="#ffffff00"
     inkscape:zoom="2.4924212"
     inkscape:cx="154.46827"
     inkscape:cy="74.826838"
     inkscape:window-width="2560"
     inkscape:window-height="1494"
     inkscape:window-x="-11"
     inkscape:window-y="-11"
     inkscape:window-maximized="1"
     inkscape:current-layer="layer1" />
  <defs
     id="defs1">
    <clipPath
       clipPathUnits="userSpaceOnUse"
       id="clipPath23526">
      <path
         d="M 0,1020.472 H 1162.205 V 0 H 0 Z"
         transform="translate(-697.56272,-531.86451)"
         id="path23526" />
    </clipPath>
    <clipPath
       clipPathUnits="userSpaceOnUse"
       id="clipPath23528">
      <path
         d="M 0,1020.472 H 1162.205 V 0 H 0 Z"
         transform="translate(-722.06152,-540.53451)"
         id="path23528" />
    </clipPath>
    <clipPath
       clipPathUnits="userSpaceOnUse"
       id="clipPath23530">
      <path
         d="M 0,1020.472 H 1162.205 V 0 H 0 Z"
         transform="translate(-743.88402,-555.04021)"
         id="path23530" />
    </clipPath>
    <clipPath
       clipPathUnits="userSpaceOnUse"
       id="clipPath23532">
      <path
         d="M 0,1020.472 H 1162.205 V 0 H 0 Z"
         transform="translate(-766.37552,-548.71392)"
         id="path23532" />
    </clipPath>
    <clipPath
       clipPathUnits="userSpaceOnUse"
       id="clipPath23534">
      <path
         d="M 0,1020.472 H 1162.205 V 0 H 0 Z"
         transform="translate(-782.73159,-547.96051)"
         id="path23534" />
    </clipPath>
    <clipPath
       clipPathUnits="userSpaceOnUse"
       id="clipPath23536">
      <path
         d="M 0,1020.472 H 1162.205 V 0 H 0 Z"
         transform="translate(-799.42869,-527.65141)"
         id="path23536" />
    </clipPath>
    <clipPath
       clipPathUnits="userSpaceOnUse"
       id="clipPath23538">
      <path
         d="M 0,1020.472 H 1162.205 V 0 H 0 Z"
         transform="translate(-705.71842,-510.59011)"
         id="path23538" />
    </clipPath>
    <clipPath
       clipPathUnits="userSpaceOnUse"
       id="clipPath23540">
      <path
         d="M 0,1020.472 H 1162.205 V 0 H 0 Z"
         transform="translate(-708.52702,-510.59011)"
         id="path23540" />
    </clipPath>
    <clipPath
       clipPathUnits="userSpaceOnUse"
       id="clipPath23542">
      <path
         d="M 0,1020.472 H 1162.205 V 0 H 0 Z"
         transform="translate(-711.33462,-510.59011)"
         id="path23542" />
    </clipPath>
    <clipPath
       clipPathUnits="userSpaceOnUse"
       id="clipPath23544">
      <path
         d="M 0,1020.472 H 1162.205 V 0 H 0 Z"
         transform="translate(-720.14122,-509.13891)"
         id="path23544" />
    </clipPath>
    <clipPath
       clipPathUnits="userSpaceOnUse"
       id="clipPath23546">
      <path
         d="M 0,1020.472 H 1162.205 V 0 H 0 Z"
         transform="translate(-722.49482,-509.33082)"
         id="path23546" />
    </clipPath>
    <clipPath
       clipPathUnits="userSpaceOnUse"
       id="clipPath23548">
      <path
         d="M 0,1020.472 H 1162.205 V 0 H 0 Z"
         transform="translate(-730.70082,-514.71561)"
         id="path23548" />
    </clipPath>
    <clipPath
       clipPathUnits="userSpaceOnUse"
       id="clipPath23550">
      <path
         d="M 0,1020.472 H 1162.205 V 0 H 0 Z"
         transform="translate(-731.19492,-514.30791)"
         id="path23550" />
    </clipPath>
    <clipPath
       clipPathUnits="userSpaceOnUse"
       id="clipPath23552">
      <path
         d="M 0,1020.472 H 1162.205 V 0 H 0 Z"
         transform="translate(-740.23112,-509.33082)"
         id="path23552" />
    </clipPath>
    <clipPath
       clipPathUnits="userSpaceOnUse"
       id="clipPath23554">
      <path
         d="M 0,1020.472 H 1162.205 V 0 H 0 Z"
         transform="translate(-746.72232,-508.22781)"
         id="path23554" />
    </clipPath>
    <clipPath
       clipPathUnits="userSpaceOnUse"
       id="clipPath23556">
      <path
         d="M 0,1020.472 H 1162.205 V 0 H 0 Z"
         transform="translate(-754.82292,-509.33082)"
         id="path23556" />
    </clipPath>
    <clipPath
       clipPathUnits="userSpaceOnUse"
       id="clipPath23558">
      <path
         d="M 0,1020.472 H 1162.205 V 0 H 0 Z"
         transform="translate(-760.99082,-509.13891)"
         id="path23558" />
    </clipPath>
    <clipPath
       clipPathUnits="userSpaceOnUse"
       id="clipPath23560">
      <path
         d="M 0,1020.472 H 1162.205 V 0 H 0 Z"
         transform="translate(-763.72622,-509.13891)"
         id="path23560" />
    </clipPath>
    <clipPath
       clipPathUnits="userSpaceOnUse"
       id="clipPath23562">
      <path
         d="M 0,1020.472 H 1162.205 V 0 H 0 Z"
         transform="translate(-769.50842,-509.13891)"
         id="path23562" />
    </clipPath>
    <clipPath
       clipPathUnits="userSpaceOnUse"
       id="clipPath23564">
      <path
         d="M 0,1020.472 H 1162.205 V 0 H 0 Z"
         transform="translate(-769.93134,-514.15221)"
         id="path23564" />
    </clipPath>
    <clipPath
       clipPathUnits="userSpaceOnUse"
       id="clipPath23566">
      <path
         d="M 0,1020.472 H 1162.205 V 0 H 0 Z"
         transform="translate(-776.97519,-509.33082)"
         id="path23566" />
    </clipPath>
    <clipPath
       clipPathUnits="userSpaceOnUse"
       id="clipPath23568">
      <path
         d="M 0,1020.472 H 1162.205 V 0 H 0 Z"
         transform="translate(-785.25452,-510.59011)"
         id="path23568" />
    </clipPath>
    <clipPath
       clipPathUnits="userSpaceOnUse"
       id="clipPath23570">
      <path
         d="M 0,1020.472 H 1162.205 V 0 H 0 Z"
         transform="translate(-788.06312,-510.59011)"
         id="path23570" />
    </clipPath>
    <clipPath
       clipPathUnits="userSpaceOnUse"
       id="clipPath23572">
      <path
         d="M 0,1020.472 H 1162.205 V 0 H 0 Z"
         transform="translate(-790.87074,-510.59011)"
         id="path23572" />
    </clipPath>
  </defs>
  <g
     inkscape:label="Layer 1"
     inkscape:groupmode="layer"
     id="layer1"
     transform="translate(-59.801959,-34.994508)">
    <path
       id="path23525"
       d="M 0,0 4.255,5.212 7.109,2.88 2.854,-2.333 4.723,-3.859 10.981,3.808 13.835,1.475 5.195,-9.111 -7.123,0.953 1.547,11.575 4.42,9.228 -1.869,1.527 Z"
       style="fill:#951610 icc-color(sRGB-IEC61966-2, 0.1, 0.58399963, 0.08599854, 0.06298828);fill-opacity:1;fill-rule:nonzero;stroke:none"
       transform="matrix(0.79486235,0,0,-0.79486235,65.463764,59.056849)"
       clip-path="url(#clipPath23526)"
       inkscape:export-filename="path_art_evocar_1.svg"
       inkscape:export-xdpi="96"
       inkscape:export-ydpi="96" />
    <path
       id="path23527"
       d="m 0,0 -3.838,-2.323 -14.814,9.609 3.56,2.156 11.155,-7.222 -1.141,13.281 3.561,2.156 z"
       style="fill:#951610 icc-color(sRGB-IEC61966-2, 0.1, 0.58399963, 0.08599854, 0.06298828);fill-opacity:1;fill-rule:nonzero;stroke:none"
       transform="matrix(0.79486235,0,0,-0.79486235,84.936941,52.165394)"
       clip-path="url(#clipPath23528)" />
    <path
       id="path23529"
       d="m 0,0 c -0.35,2.295 -3.386,3.787 -6.631,3.292 -3.247,-0.497 -5.696,-2.827 -5.346,-5.122 0.346,-2.271 3.386,-3.786 6.632,-3.291 C -2.099,-4.625 0.348,-2.271 0,0 m 3.702,0.566 c 0.664,-4.341 -3.141,-8.513 -8.49,-9.33 -5.371,-0.821 -10.251,2.024 -10.915,6.365 -0.664,4.342 3.139,8.536 8.512,9.356 C -1.843,7.776 3.04,4.908 3.702,0.566"
       style="fill:#951610 icc-color(sRGB-IEC61966-2, 0.1, 0.58399963, 0.08599854, 0.06298828);fill-opacity:1;fill-rule:nonzero;stroke:none"
       transform="matrix(0.79486235,0,0,-0.79486235,102.28282,40.63536)"
       clip-path="url(#clipPath23530)" />
    <path
       id="path23531"
       d="m 0,0 0.911,-3.602 c -2.074,-0.499 -4.395,-0.501 -6.721,0.01 -6.232,1.37 -10.363,5.841 -9.403,10.197 0.96,4.355 6.589,6.705 12.823,5.336 2.326,-0.512 4.431,-1.487 6.105,-2.81 L 1.376,6.244 C 0.166,7.208 -1.449,7.936 -3.187,8.319 -6.71,9.093 -10.989,8.262 -11.533,5.796 -12.07,3.351 -8.541,0.782 -5.017,0.008 -3.279,-0.374 -1.502,-0.369 0,0"
       style="fill:#951610 icc-color(sRGB-IEC61966-2, 0.1, 0.58399963, 0.08599854, 0.06298828);fill-opacity:1;fill-rule:nonzero;stroke:none"
       transform="matrix(0.79486235,0,0,-0.79486235,120.16047,45.663896)"
       clip-path="url(#clipPath23532)" />
    <path
       id="path23533"
       d="m 0,0 -5.078,-2.923 4.264,-2.858 z m -1.856,-13.19 0.469,3.356 -7.261,4.867 -2.928,-1.708 -3.477,2.331 L 0.303,4.48 0.316,4.499 4.062,1.988 4.048,1.969 1.602,-15.508 Z"
       style="fill:#951610 icc-color(sRGB-IEC61966-2, 0.1, 0.58399963, 0.08599854, 0.06298828);fill-opacity:1;fill-rule:nonzero;stroke:none"
       transform="matrix(0.79486235,0,0,-0.79486235,133.1613,46.262748)"
       clip-path="url(#clipPath23534)" />
    <path
       id="path23535"
       d="M 0,0 C 1.343,0.94 1.015,2.8 -0.788,5.377 L -2.658,8.051 -6.667,5.244 -4.796,2.571 C -2.993,-0.007 -1.342,-0.94 0,0 m -6.691,-7.507 c -1.724,2.464 -0.575,7.136 -1.623,8.634 l -1.393,1.99 -2.964,-2.075 -2.161,3.089 13.052,9.136 4.03,-5.763 C 5.486,2.88 4.741,-1.257 2.148,-3.071 -0.443,-4.885 -3.215,-3.86 -4.083,-3.255 -4.471,-4.09 -3.526,-6.394 -2.395,-6.62 -1.819,-8.871 -4.966,-9.972 -6.691,-7.507"
       style="fill:#951610 icc-color(sRGB-IEC61966-2, 0.1, 0.58399963, 0.08599854, 0.06298828);fill-opacity:1;fill-rule:nonzero;stroke:none"
       transform="matrix(0.79486235,0,0,-0.79486235,146.43321,62.405686)"
       clip-path="url(#clipPath23536)" />
    <path
       id="path23537"
       d="m 0,0 c 0,-0.192 -0.168,-0.36 -0.359,-0.36 h -0.096 -1.751 c -0.204,0 -0.36,0.168 -0.36,0.36 0,0.204 0.156,0.36 0.36,0.36 h 0.084 1.763 C -0.168,0.36 0,0.204 0,0"
       style="fill:#1e324d icc-color(sRGB-IEC61966-2, 0.1, 0.11799622, 0.19599915, 0.30198669);fill-opacity:1;fill-rule:nonzero;stroke:none"
       transform="matrix(0.628261,0,0,-0.628261,79.356765,70.992459)"
       clip-path="url(#clipPath23538)" />
    <path
       id="path23539"
       d="m 0,0 c 0,-0.192 -0.168,-0.36 -0.36,-0.36 h -0.096 -1.751 c -0.204,0 -0.359,0.168 -0.359,0.36 0,0.204 0.155,0.36 0.359,0.36 h 0.084 1.763 C -0.168,0.36 0,0.204 0,0"
       style="fill:#1e324d icc-color(sRGB-IEC61966-2, 0.1, 0.11799622, 0.19599915, 0.30198669);fill-opacity:1;fill-rule:nonzero;stroke:none"
       transform="matrix(0.628261,0,0,-0.628261,81.121298,70.992459)"
       clip-path="url(#clipPath23540)" />
    <path
       id="path23541"
       d="m 0,0 c 0,-0.192 -0.168,-0.36 -0.359,-0.36 h -0.096 -1.751 c -0.204,0 -0.36,0.168 -0.36,0.36 0,0.204 0.156,0.36 0.36,0.36 h 0.084 1.763 C -0.168,0.36 0,0.204 0,0"
       style="fill:#1e324d icc-color(sRGB-IEC61966-2, 0.1, 0.11799622, 0.19599915, 0.30198669);fill-opacity:1;fill-rule:nonzero;stroke:none"
       transform="matrix(0.628261,0,0,-0.628261,82.8852,70.992459)"
       clip-path="url(#clipPath23542)" />
    <path
       id="path23543"
       d="m 0,0 c -0.072,-0.252 -0.132,-0.516 -0.229,-0.756 -0.107,-0.264 -0.25,-0.515 -0.455,-0.707 -0.215,-0.192 -0.456,-0.324 -0.731,-0.396 -0.576,-0.144 -1.319,-0.06 -1.739,0.408 -0.084,0.096 -0.157,0.204 -0.216,0.324 -0.204,-0.24 -0.456,-0.468 -0.744,-0.6 -0.3,-0.132 -0.612,-0.204 -0.948,-0.192 -0.299,0.012 -0.624,0.084 -0.887,0.252 -0.239,0.168 -0.42,0.396 -0.516,0.672 -0.096,0.264 -0.096,0.539 -0.048,0.815 0.025,0.216 0.096,0.431 0.157,0.636 0.107,0.347 0.204,0.683 0.311,1.031 0.096,0.348 0.204,0.683 0.3,1.032 0.059,0.179 0.108,0.359 0.168,0.527 0.143,0.42 0.336,0.816 0.636,1.127 0.372,0.408 0.899,0.636 1.451,0.648 0.311,0 0.624,-0.048 0.911,-0.18 0.24,-0.108 0.444,-0.3 0.564,-0.515 0.3,-0.516 0.24,-1.152 0.072,-1.704 -0.06,-0.179 -0.252,-0.299 -0.444,-0.252 -0.192,0.049 -0.311,0.265 -0.252,0.444 0.048,0.144 0.084,0.3 0.108,0.444 0.012,0.132 0.012,0.264 0,0.396 -0.012,0.084 -0.035,0.156 -0.06,0.228 -0.024,0.036 -0.036,0.084 -0.072,0.12 0,0.012 0,0.012 -0.012,0.024 -0.012,0.024 -0.036,0.036 -0.048,0.06 -0.024,0.011 -0.036,0.035 -0.059,0.048 -0.013,0 -0.013,0.012 -0.025,0.012 -0.036,0.024 -0.084,0.048 -0.12,0.072 -0.084,0.036 -0.179,0.06 -0.263,0.071 -0.144,0.013 -0.3,0.013 -0.456,0 C -3.767,4.065 -3.874,4.042 -3.982,3.994 -4.042,3.97 -4.09,3.946 -4.138,3.921 -4.162,3.897 -4.198,3.886 -4.222,3.862 -4.233,3.85 -4.246,3.85 -4.258,3.838 -4.354,3.754 -4.437,3.67 -4.521,3.574 V 3.562 C -4.546,3.538 -4.569,3.502 -4.582,3.478 -4.617,3.43 -4.642,3.382 -4.678,3.334 -4.726,3.238 -4.773,3.142 -4.81,3.046 -4.834,2.986 -4.857,2.926 -4.882,2.866 -4.941,2.687 -5.001,2.506 -5.05,2.327 -5.146,1.979 -5.253,1.643 -5.35,1.295 -5.457,0.947 -5.553,0.611 -5.661,0.264 -5.709,0.072 -5.781,-0.12 -5.817,-0.324 c -0.012,-0.096 -0.012,-0.192 0,-0.287 0.012,-0.073 0.024,-0.132 0.048,-0.193 0.024,-0.036 0.036,-0.071 0.06,-0.107 0.012,-0.013 0.012,-0.013 0.012,-0.025 0.024,-0.011 0.036,-0.036 0.048,-0.047 0.024,-0.025 0.036,-0.037 0.06,-0.048 0,-0.012 0.012,-0.012 0.024,-0.025 0.036,-0.023 0.084,-0.048 0.12,-0.071 0.095,-0.024 0.179,-0.049 0.263,-0.06 0.132,-0.012 0.264,-0.024 0.384,-0.012 0.109,0.023 0.204,0.048 0.3,0.084 0.072,0.036 0.144,0.072 0.204,0.107 0.036,0.025 0.072,0.049 0.096,0.072 h 0.012 c 0.012,0.012 0.024,0.025 0.036,0.025 0.108,0.107 0.216,0.203 0.3,0.323 0.012,0.025 0.048,0.061 0.06,0.072 0.023,0.037 0.048,0.073 0.072,0.108 0.035,0.06 0.084,0.133 0.119,0.204 0.061,0.108 0.12,0.216 0.168,0.324 0.013,0.024 0.013,0.047 0.025,0.072 h 0.011 c 0.037,0.084 0.132,0.143 0.216,0.167 0,0 0.013,0.013 0.025,0.013 h 0.011 c 0.048,0.012 0.096,0 0.157,-0.013 0.011,0 0.023,0 0.036,-0.011 0.012,0 0.023,-0.013 0.048,-0.024 0.071,-0.048 0.131,-0.12 0.168,-0.216 V 0.072 c 0.011,-0.048 0.011,-0.108 -0.013,-0.156 -0.012,-0.072 -0.035,-0.144 -0.048,-0.216 -0.012,-0.096 -0.012,-0.191 0,-0.275 0.013,-0.072 0.024,-0.145 0.048,-0.204 0.024,-0.048 0.049,-0.084 0.072,-0.12 0.012,-0.012 0.012,-0.012 0.012,-0.025 0.024,-0.012 0.036,-0.035 0.06,-0.048 0.012,-0.023 0.037,-0.036 0.048,-0.059 0.012,-0.012 0.024,-0.012 0.036,-0.025 0.048,-0.023 0.084,-0.048 0.132,-0.071 0.084,-0.024 0.168,-0.049 0.264,-0.06 0.132,-0.024 0.252,-0.024 0.384,0 0.095,0.011 0.192,0.036 0.288,0.072 0.059,0.023 0.132,0.059 0.191,0.107 l 0.013,0.013 c 0.012,0.012 0.023,0.012 0.023,0.023 0.037,0.025 0.061,0.048 0.084,0.084 0.025,0.013 0.036,0.036 0.06,0.048 0,0.013 0,0.013 0.013,0.025 0.011,0.023 0.023,0.036 0.036,0.059 0.048,0.061 0.071,0.132 0.107,0.193 0.048,0.12 0.084,0.251 0.12,0.372 0.036,0.131 0.073,0.251 0.12,0.383 0.048,0.18 0.24,0.3 0.432,0.251 C -0.061,0.396 0.06,0.192 0,0"
       style="fill:#1e324d icc-color(sRGB-IEC61966-2, 0.1, 0.11799622, 0.19599915, 0.30198669);fill-opacity:1;fill-rule:nonzero;stroke:none"
       transform="matrix(0.628261,0,0,-0.628261,88.418048,71.90419)"
       clip-path="url(#clipPath23544)" />
    <path
       id="path23545"
       d="m 0,0 c 0.023,0.048 0.048,0.108 0.072,0.167 0.06,0.192 0.119,0.396 0.18,0.588 0.107,0.372 0.227,0.732 0.336,1.104 0.071,0.216 0.132,0.432 0.191,0.647 0.036,0.12 0.073,0.24 0.084,0.36 C 0.888,2.998 0.888,3.13 0.875,3.262 0.863,3.346 0.84,3.418 0.815,3.49 0.791,3.526 0.768,3.574 0.743,3.61 0.743,3.622 0.731,3.622 0.731,3.634 0.72,3.658 0.695,3.67 0.684,3.694 0.659,3.706 0.647,3.73 0.624,3.742 0.611,3.742 0.611,3.754 0.6,3.754 0.563,3.778 0.516,3.802 0.468,3.826 0.384,3.862 0.3,3.886 0.216,3.897 0.06,3.91 -0.096,3.91 -0.24,3.897 -0.36,3.874 -0.468,3.85 -0.588,3.802 -0.636,3.778 -0.684,3.754 -0.731,3.73 -0.756,3.706 -0.792,3.694 -0.815,3.67 -0.827,3.658 -0.84,3.658 -0.852,3.646 -0.947,3.562 -1.031,3.478 -1.115,3.382 c 0,0 0,-0.012 -0.013,-0.012 C -1.14,3.346 -1.163,3.31 -1.176,3.286 -1.211,3.238 -1.247,3.19 -1.271,3.142 -1.319,3.046 -1.367,2.95 -1.415,2.854 -1.439,2.794 -1.463,2.734 -1.476,2.674 -1.547,2.495 -1.595,2.314 -1.644,2.135 -1.751,1.787 -1.847,1.451 -1.943,1.103 -2.051,0.755 -2.146,0.419 -2.255,0.072 c -0.059,-0.192 -0.12,-0.384 -0.156,-0.588 -0.012,-0.096 -0.012,-0.192 0,-0.287 0.013,-0.072 0.024,-0.132 0.049,-0.193 0.011,-0.036 0.035,-0.071 0.059,-0.107 0,-0.013 0.012,-0.013 0.012,-0.024 l 0.048,-0.048 c 0.013,-0.025 0.036,-0.036 0.06,-0.048 0,-0.012 0.012,-0.012 0.012,-0.025 0.048,-0.023 0.084,-0.047 0.132,-0.071 0.084,-0.024 0.18,-0.049 0.264,-0.06 0.131,-0.012 0.252,-0.024 0.383,-0.012 0.109,0.023 0.205,0.048 0.3,0.084 0.072,0.036 0.132,0.072 0.193,0.107 0.036,0.025 0.072,0.049 0.107,0.073 h 0.013 c 0.011,0.011 0.023,0.024 0.023,0.036 0.072,0.048 0.132,0.107 0.193,0.179 0.036,0.025 0.059,0.061 0.084,0.096 0.023,0.013 0.047,0.061 0.059,0.072 C -0.252,-0.516 -0.108,-0.264 0,0 M 3.43,-0.192 C 3.37,-0.408 3.298,-0.612 3.238,-0.828 3.106,-1.284 2.807,-1.703 2.375,-1.918 2.087,-2.063 1.763,-2.123 1.427,-2.111 c -0.3,0.012 -0.623,0.072 -0.887,0.252 -0.216,0.144 -0.372,0.324 -0.492,0.552 -0.252,-0.3 -0.575,-0.552 -0.972,-0.695 -0.227,-0.084 -0.491,-0.121 -0.731,-0.109 -0.3,0.012 -0.636,0.084 -0.888,0.252 -0.239,0.168 -0.42,0.396 -0.516,0.672 -0.095,0.264 -0.095,0.539 -0.059,0.815 0.036,0.216 0.107,0.432 0.168,0.636 0.107,0.347 0.204,0.683 0.311,1.031 0.096,0.348 0.204,0.684 0.3,1.032 0.048,0.179 0.109,0.36 0.168,0.527 0.144,0.42 0.336,0.816 0.636,1.127 0.372,0.408 0.899,0.636 1.451,0.648 0.312,0 0.624,-0.048 0.911,-0.18 C 0.995,4.377 1.151,4.246 1.271,4.102 1.308,4.186 1.331,4.27 1.355,4.354 1.415,4.545 1.607,4.653 1.799,4.605 1.979,4.557 2.099,4.354 2.051,4.162 1.919,3.754 0.659,-0.335 0.636,-0.492 c -0.012,-0.095 -0.012,-0.191 0,-0.275 0.011,-0.072 0.023,-0.145 0.048,-0.204 0.024,-0.048 0.047,-0.084 0.072,-0.12 0,-0.012 0.012,-0.012 0.012,-0.025 0.011,-0.011 0.036,-0.035 0.047,-0.048 0.025,-0.023 0.048,-0.036 0.06,-0.059 0.013,-0.012 0.024,-0.012 0.036,-0.025 0.036,-0.023 0.084,-0.047 0.132,-0.071 0.084,-0.024 0.168,-0.049 0.265,-0.06 0.119,-0.024 0.251,-0.024 0.383,0 0.096,0.011 0.192,0.036 0.276,0.072 0.072,0.023 0.132,0.059 0.204,0.107 l 0.012,0.013 c 0.011,0.012 0.011,0.012 0.024,0.023 0.036,0.025 0.06,0.048 0.084,0.084 0.023,0.013 0.035,0.037 0.048,0.048 0.012,0.013 0.012,0.013 0.012,0.025 0.024,0.023 0.036,0.036 0.047,0.059 0.037,0.061 0.073,0.132 0.109,0.193 0.048,0.12 0.071,0.252 0.12,0.372 C 2.662,-0.251 2.698,-0.132 2.734,0 2.794,0.18 2.986,0.3 3.178,0.251 3.37,0.204 3.49,0 3.43,-0.192"
       style="fill:#1e324d icc-color(sRGB-IEC61966-2, 0.1, 0.11799622, 0.19599915, 0.30198669);fill-opacity:1;fill-rule:nonzero;stroke:none"
       transform="matrix(0.628261,0,0,-0.628261,89.896722,71.783625)"
       clip-path="url(#clipPath23546)" />
    <path
       id="path23547"
       d="M 0,0 C -0.048,-0.084 -0.12,-0.144 -0.216,-0.168 -0.3,-0.192 -0.407,-0.18 -0.491,-0.132 -0.563,-0.084 -0.636,0 -0.659,0.084 -0.672,0.18 -0.695,0.288 -0.731,0.372 -0.756,0.432 -0.779,0.492 -0.815,0.54 -0.827,0.552 -0.827,0.552 -0.84,0.564 V 0.576 C -0.863,0.6 -0.888,0.624 -0.911,0.647 -0.936,0.66 -0.947,0.684 -0.972,0.696 -0.983,0.708 -1.007,0.731 -1.02,0.731 c -0.059,0.037 -0.107,0.061 -0.155,0.084 -0.096,0.037 -0.192,0.06 -0.3,0.084 -0.144,0.013 -0.299,0.013 -0.456,0 C -2.051,0.875 -2.158,0.852 -2.267,0.804 -2.314,0.792 -2.362,0.768 -2.41,0.731 -2.435,0.72 -2.471,0.696 -2.494,0.684 -2.507,0.672 -2.519,0.66 -2.519,0.66 -2.614,0.588 -2.698,0.504 -2.771,0.408 -2.771,0.396 -2.782,0.396 -2.782,0.396 -2.794,0.372 -2.818,0.348 -2.83,0.324 -2.866,0.276 -2.902,0.216 -2.926,0.168 c -0.049,-0.084 -0.096,-0.18 -0.133,-0.264 -0.059,-0.156 -0.107,-0.312 -0.155,-0.467 -0.144,-0.457 -0.288,-0.912 -0.42,-1.368 -0.048,-0.156 -0.095,-0.312 -0.143,-0.48 0.035,0.013 0.084,0.013 0.131,0.013 0.42,0.071 0.816,0.215 1.223,0.287 0.252,0.036 0.492,0.06 0.744,0.012 0.252,-0.048 0.468,-0.168 0.648,-0.324 0.156,-0.119 0.132,-0.371 0,-0.503 -0.06,-0.072 -0.156,-0.108 -0.252,-0.108 -0.096,0 -0.18,0.048 -0.252,0.108 0,0 -0.012,0 -0.012,0.011 -0.024,0.013 -0.036,0.025 -0.06,0.037 -0.024,0.012 -0.048,0.023 -0.072,0.036 -0.06,0.024 -0.12,0.035 -0.179,0.048 -0.109,0.012 -0.216,0 -0.336,-0.013 -0.229,-0.035 -0.445,-0.095 -0.672,-0.155 -0.324,-0.084 -0.66,-0.168 -0.995,-0.168 h -0.145 c -0.096,-0.324 -0.204,-0.66 -0.3,-0.996 -0.215,-0.683 -0.42,-1.355 -0.623,-2.039 -0.096,-0.299 -0.18,-0.599 -0.276,-0.899 -0.06,-0.191 -0.252,-0.3 -0.443,-0.252 -0.181,0.048 -0.313,0.252 -0.252,0.444 0.107,0.336 0.204,0.66 0.299,0.996 0.216,0.683 0.432,1.378 0.636,2.074 0.096,0.288 0.18,0.576 0.264,0.863 -0.156,0.084 -0.3,0.181 -0.408,0.313 -0.203,0.228 -0.312,0.515 -0.276,0.827 0.012,0.096 0.036,0.18 0.108,0.252 0.06,0.072 0.156,0.108 0.252,0.108 0.096,0 0.192,-0.036 0.252,-0.108 0.06,-0.06 0.12,-0.168 0.108,-0.252 0,-0.06 -0.013,-0.108 0,-0.168 0,-0.024 0.012,-0.06 0.023,-0.084 0,-0.012 0.013,-0.024 0.013,-0.036 0.012,-0.012 0.024,-0.036 0.035,-0.048 0.025,-0.024 0.049,-0.048 0.084,-0.072 v -0.012 c 0.013,0 0.025,-0.011 0.025,-0.011 0.059,0.203 0.131,0.395 0.191,0.599 0.133,0.432 0.265,0.863 0.397,1.295 0.191,0.636 0.491,1.272 1.067,1.655 0.204,0.132 0.455,0.24 0.72,0.276 0.323,0.048 0.671,0.048 0.995,-0.036 0.288,-0.084 0.576,-0.24 0.767,-0.468 C -0.144,0.864 0,0.576 0.036,0.276 0.061,0.18 0.061,0.084 0,0"
       style="fill:#1e324d icc-color(sRGB-IEC61966-2, 0.1, 0.11799622, 0.19599915, 0.30198669);fill-opacity:1;fill-rule:nonzero;stroke:none"
       transform="matrix(0.628261,0,0,-0.628261,95.052229,68.400566)"
       clip-path="url(#clipPath23548)" />
    <path
       id="path23549"
       d="m 0,0 c -0.132,0.12 -0.144,0.372 0,0.504 0.396,0.335 0.792,0.671 1.187,1.007 0.157,0.132 0.36,0.144 0.516,0 0.132,-0.132 0.144,-0.384 0,-0.504 C 1.308,0.671 0.912,0.336 0.516,0 0.36,-0.132 0.145,-0.156 0,0 m -1.739,-3.874 c 0,-0.012 -0.012,-0.024 -0.012,-0.036 0.156,0.072 0.3,0.144 0.468,0.216 0.347,0.144 0.708,0.264 1.067,0.42 0.277,0.107 0.54,0.252 0.779,0.419 0.013,0.013 0.025,0.024 0.037,0.037 0.024,0.024 0.06,0.047 0.084,0.071 0.047,0.048 0.108,0.097 0.156,0.157 0,0.011 0,0.011 0.012,0.011 v 0.013 c 0.024,0.035 0.047,0.059 0.06,0.095 0.035,0.048 0.06,0.108 0.083,0.156 0.049,0.108 0.072,0.216 0.084,0.324 0.013,0.096 0.013,0.18 0.013,0.276 -0.013,0.072 -0.036,0.144 -0.061,0.204 -0.023,0.048 -0.048,0.096 -0.071,0.132 0,0.012 -0.013,0.012 -0.013,0.024 -0.023,0.012 -0.035,0.036 -0.059,0.06 -0.012,0.012 -0.036,0.036 -0.06,0.047 -0.013,0.013 -0.024,0.025 -0.036,0.037 -0.036,0.024 -0.084,0.047 -0.132,0.06 -0.072,0.036 -0.156,0.06 -0.24,0.071 -0.156,0.013 -0.3,0.013 -0.456,0 -0.108,-0.024 -0.228,-0.047 -0.336,-0.095 -0.048,-0.024 -0.096,-0.048 -0.144,-0.073 -0.036,-0.023 -0.059,-0.035 -0.095,-0.059 -0.012,-0.012 -0.025,-0.012 -0.036,-0.024 -0.096,-0.084 -0.18,-0.168 -0.252,-0.264 -0.012,0 -0.012,-0.012 -0.012,-0.012 -0.025,-0.024 -0.036,-0.06 -0.061,-0.084 -0.035,-0.048 -0.059,-0.096 -0.095,-0.144 -0.048,-0.096 -0.096,-0.192 -0.132,-0.288 -0.025,-0.06 -0.048,-0.12 -0.072,-0.18 -0.06,-0.179 -0.108,-0.36 -0.168,-0.539 -0.096,-0.348 -0.204,-0.684 -0.3,-1.032 M 3.622,-5.169 C 3.538,-5.421 3.479,-5.685 3.382,-5.925 3.274,-6.189 3.143,-6.44 2.927,-6.632 2.723,-6.824 2.471,-6.956 2.195,-7.028 1.619,-7.172 0.876,-7.088 0.456,-6.62 0.372,-6.524 0.3,-6.416 0.252,-6.296 0.168,-6.404 0.072,-6.488 -0.023,-6.572 c -0.229,-0.204 -0.493,-0.36 -0.792,-0.444 -0.325,-0.096 -0.648,-0.096 -0.972,-0.036 -0.539,0.108 -1.02,0.516 -1.115,1.079 -0.048,0.277 -0.036,0.552 0.036,0.828 0.023,0.072 0.036,0.132 0.059,0.204 0.193,0.659 0.397,1.319 0.588,1.979 0.156,0.527 0.288,1.091 0.588,1.571 0.264,0.432 0.648,0.779 1.14,0.935 0.275,0.096 0.587,0.12 0.875,0.096 0.36,-0.036 0.683,-0.144 0.947,-0.371 0.456,-0.384 0.565,-1.02 0.42,-1.584 -0.096,-0.408 -0.336,-0.768 -0.659,-1.031 -0.636,-0.516 -1.44,-0.732 -2.183,-1.044 -0.24,-0.108 -0.48,-0.215 -0.696,-0.371 0,-0.012 0,-0.012 -0.012,-0.012 -0.024,-0.024 -0.048,-0.048 -0.072,-0.061 l -0.132,-0.131 c 0,-0.012 0,-0.012 -0.012,-0.024 -0.011,-0.024 -0.024,-0.048 -0.048,-0.072 -0.012,-0.036 -0.036,-0.072 -0.06,-0.108 0,-0.024 -0.012,-0.048 -0.023,-0.084 v -0.012 c -0.025,-0.084 -0.048,-0.156 -0.061,-0.228 0,-0.096 -0.012,-0.192 0,-0.287 0.013,-0.073 0.036,-0.132 0.049,-0.193 0.023,-0.036 0.048,-0.071 0.059,-0.107 0.012,-0.013 0.012,-0.013 0.024,-0.025 0.012,-0.011 0.024,-0.036 0.036,-0.047 0.024,-0.025 0.036,-0.037 0.06,-0.048 0.012,-0.012 0.012,-0.012 0.024,-0.025 0.036,-0.023 0.084,-0.047 0.132,-0.071 0.084,-0.024 0.168,-0.049 0.264,-0.06 0.12,-0.012 0.251,-0.024 0.372,-0.012 0.108,0.023 0.215,0.048 0.312,0.084 0.06,0.036 0.132,0.072 0.191,0.107 0.037,0.025 0.073,0.049 0.109,0.072 0.012,0.012 0.023,0.025 0.035,0.025 0.108,0.107 0.217,0.203 0.312,0.323 0.012,0.025 0.037,0.061 0.048,0.072 0.024,0.037 0.048,0.073 0.073,0.108 0.047,0.06 0.084,0.133 0.119,0.204 0.06,0.108 0.12,0.216 0.168,0.324 0.012,0.024 0.024,0.048 0.036,0.072 0.036,0.084 0.132,0.143 0.216,0.167 0.012,0 0.024,0.013 0.024,0.013 h 0.012 c 0.048,0.012 0.108,0 0.156,-0.013 0.012,0 0.023,0 0.036,-0.011 0.012,0 0.035,-0.013 0.048,-0.024 0.084,-0.048 0.144,-0.12 0.168,-0.216 0,-0.012 0,-0.024 0.012,-0.036 0,-0.048 0,-0.108 -0.012,-0.156 C 0.852,-5.325 0.828,-5.397 0.815,-5.469 V -5.744 C 0.828,-5.816 0.852,-5.889 0.876,-5.948 0.888,-5.996 0.912,-6.032 0.936,-6.068 0.947,-6.08 0.947,-6.08 0.947,-6.093 0.972,-6.105 0.983,-6.128 1.008,-6.141 1.02,-6.164 1.044,-6.177 1.067,-6.2 1.079,-6.212 1.092,-6.212 1.092,-6.225 1.14,-6.248 1.176,-6.272 1.224,-6.296 c 0.084,-0.024 0.179,-0.049 0.263,-0.06 0.132,-0.024 0.264,-0.024 0.396,0 0.096,0.011 0.18,0.036 0.276,0.072 0.071,0.023 0.132,0.059 0.192,0.107 l 0.012,0.013 c 0.012,0.012 0.024,0.012 0.035,0.023 0.025,0.025 0.049,0.048 0.084,0.084 l 0.048,0.048 c 0,0.013 0.013,0.013 0.013,0.025 0.012,0.023 0.036,0.036 0.048,0.059 0.036,0.061 0.072,0.132 0.096,0.193 0.047,0.12 0.084,0.252 0.12,0.372 0.036,0.131 0.084,0.251 0.12,0.383 0.059,0.18 0.252,0.3 0.443,0.251 0.18,-0.047 0.3,-0.251 0.252,-0.443"
       style="fill:#1e324d icc-color(sRGB-IEC61966-2, 0.1, 0.11799622, 0.19599915, 0.30198669);fill-opacity:1;fill-rule:nonzero;stroke:none"
       transform="matrix(0.628261,0,0,-0.628261,95.362657,68.656709)"
       clip-path="url(#clipPath23550)" />
    <path
       id="path23551"
       d="M 0,0 C 0.023,0.048 0.048,0.108 0.06,0.167 0.204,0.635 0.359,1.115 0.504,1.595 0.6,1.931 0.708,2.267 0.815,2.603 0.827,2.698 0.852,2.782 0.863,2.866 0.875,2.998 0.888,3.13 0.863,3.262 0.852,3.346 0.84,3.418 0.804,3.49 0.791,3.526 0.768,3.574 0.743,3.61 0.731,3.622 0.731,3.622 0.731,3.634 0.708,3.658 0.695,3.67 0.672,3.694 0.659,3.706 0.636,3.73 0.624,3.742 0.611,3.742 0.6,3.754 0.6,3.754 0.552,3.778 0.516,3.802 0.468,3.826 0.384,3.862 0.3,3.886 0.216,3.897 0.06,3.91 -0.096,3.91 -0.252,3.897 -0.36,3.874 -0.479,3.85 -0.588,3.802 -0.636,3.778 -0.684,3.754 -0.731,3.73 -0.768,3.706 -0.792,3.694 -0.827,3.67 -0.84,3.658 -0.84,3.658 -0.852,3.646 -0.947,3.562 -1.044,3.478 -1.115,3.382 L -1.128,3.37 C -1.151,3.346 -1.163,3.31 -1.187,3.286 -1.211,3.238 -1.247,3.19 -1.271,3.142 -1.331,3.046 -1.367,2.95 -1.415,2.854 -1.439,2.794 -1.463,2.734 -1.487,2.674 -1.547,2.495 -1.595,2.314 -1.655,2.135 -1.751,1.787 -1.847,1.451 -1.955,1.103 -2.051,0.755 -2.159,0.419 -2.255,0.072 -2.314,-0.12 -2.387,-0.312 -2.411,-0.516 c -0.012,-0.096 -0.012,-0.192 -0.012,-0.287 0.012,-0.072 0.036,-0.132 0.061,-0.193 0.011,-0.036 0.035,-0.071 0.059,-0.107 0,-0.013 0,-0.013 0.012,-0.024 0.012,-0.012 0.024,-0.037 0.048,-0.048 0.013,-0.025 0.036,-0.036 0.048,-0.048 0.012,-0.012 0.012,-0.012 0.024,-0.025 0.036,-0.023 0.084,-0.047 0.132,-0.071 0.084,-0.024 0.168,-0.049 0.264,-0.06 0.12,-0.012 0.252,-0.024 0.383,-0.012 0.097,0.023 0.205,0.048 0.3,0.084 0.061,0.036 0.132,0.072 0.193,0.107 0.036,0.025 0.072,0.049 0.107,0.073 0.013,0.011 0.024,0.024 0.036,0.036 0.072,0.048 0.132,0.107 0.193,0.179 0.023,0.025 0.059,0.061 0.084,0.096 0.011,0.013 0.047,0.061 0.059,0.072 0.168,0.228 0.3,0.48 0.42,0.744 M 3.43,-0.192 C 3.37,-0.396 3.311,-0.587 3.25,-0.78 3.178,-1.007 3.094,-1.223 2.95,-1.403 2.854,-1.523 2.771,-1.631 2.65,-1.727 2.494,-1.847 2.351,-1.931 2.183,-1.991 1.907,-2.111 1.583,-2.135 1.283,-2.099 1.127,-2.086 0.972,-2.063 0.815,-2.002 0.659,-1.931 0.516,-1.859 0.384,-1.751 0.24,-1.619 0.12,-1.475 0.048,-1.307 -0.216,-1.619 -0.54,-1.859 -0.924,-2.002 c -0.239,-0.084 -0.491,-0.121 -0.731,-0.109 -0.312,0.012 -0.636,0.084 -0.888,0.252 -0.252,0.168 -0.42,0.396 -0.516,0.672 -0.095,0.264 -0.095,0.539 -0.059,0.815 0.036,0.216 0.107,0.432 0.168,0.636 0.096,0.347 0.204,0.683 0.3,1.031 0.107,0.348 0.204,0.684 0.311,1.032 0.048,0.179 0.096,0.36 0.156,0.527 0.144,0.42 0.336,0.816 0.636,1.127 0.384,0.408 0.9,0.636 1.451,0.648 0.324,0 0.636,-0.048 0.911,-0.18 C 0.995,4.377 1.151,4.257 1.271,4.102 1.439,4.677 1.619,5.253 1.799,5.829 1.883,6.128 1.979,6.416 2.063,6.704 2.123,6.896 2.314,7.016 2.507,6.956 2.687,6.908 2.818,6.704 2.759,6.512 2.734,6.428 2.698,6.333 2.675,6.249 2.507,5.709 2.351,5.181 2.183,4.641 1.955,3.897 0.815,0.132 0.756,-0.036 0.743,-0.06 0.743,-0.083 0.731,-0.108 0.695,-0.24 0.647,-0.36 0.636,-0.492 0.624,-0.587 0.624,-0.683 0.624,-0.767 c 0.012,-0.072 0.035,-0.145 0.06,-0.204 0.024,-0.048 0.036,-0.084 0.072,-0.12 0,-0.012 0,-0.012 0.012,-0.025 0.011,-0.011 0.023,-0.035 0.047,-0.048 0.025,-0.023 0.037,-0.036 0.06,-0.059 0.013,-0.012 0.024,-0.012 0.036,-0.025 0.036,-0.023 0.084,-0.047 0.12,-0.071 0.084,-0.024 0.18,-0.049 0.264,-0.06 0.132,-0.024 0.264,-0.024 0.396,0 0.096,0.011 0.192,0.036 0.276,0.072 0.072,0.023 0.132,0.059 0.192,0.107 0.012,0 0.012,0.013 0.024,0.013 0,0.012 0.011,0.012 0.024,0.023 0.023,0.025 0.06,0.048 0.084,0.084 0.012,0.013 0.035,0.037 0.048,0.048 0,0.013 0.012,0.013 0.012,0.025 0.011,0.023 0.036,0.036 0.047,0.059 0.037,0.061 0.073,0.132 0.096,0.193 0.049,0.12 0.084,0.252 0.12,0.372 C 2.662,-0.251 2.698,-0.132 2.734,0 2.794,0.18 2.986,0.3 3.178,0.251 3.358,0.204 3.49,0 3.43,-0.192"
       style="fill:#1e324d icc-color(sRGB-IEC61966-2, 0.1, 0.11799622, 0.19599915, 0.30198669);fill-opacity:1;fill-rule:nonzero;stroke:none"
       transform="matrix(0.628261,0,0,-0.628261,101.03975,71.783625)"
       clip-path="url(#clipPath23552)" />
    <path
       id="path23553"
       d="M 0,0 H 0.012 C -0.036,0.06 -0.012,0.023 0,0 M -2.675,2.206 C -2.687,2.194 -2.687,2.182 -2.687,2.17 c 0.144,0.072 0.3,0.144 0.457,0.216 0.359,0.144 0.719,0.264 1.079,0.42 0.263,0.108 0.54,0.252 0.779,0.42 0.013,0.012 0.024,0.024 0.036,0.036 0.024,0.024 0.048,0.048 0.084,0.071 0.048,0.048 0.096,0.097 0.145,0.157 l 0.011,0.011 0.012,0.013 c 0.024,0.035 0.036,0.059 0.061,0.095 0.035,0.048 0.059,0.108 0.083,0.156 0.036,0.109 0.072,0.216 0.084,0.324 0.012,0.096 0.012,0.18 0,0.276 C 0.132,4.437 0.12,4.509 0.096,4.569 0.072,4.617 0.048,4.665 0.024,4.701 0.012,4.713 0.012,4.713 0.012,4.725 c -0.024,0.012 -0.035,0.036 -0.06,0.06 -0.024,0.012 -0.036,0.036 -0.059,0.048 -0.013,0.012 -0.025,0.024 -0.037,0.036 -0.047,0.024 -0.084,0.048 -0.131,0.06 -0.084,0.036 -0.168,0.06 -0.252,0.072 -0.145,0.012 -0.3,0.012 -0.445,0 C -1.092,4.977 -1.199,4.953 -1.308,4.905 -1.367,4.881 -1.415,4.857 -1.463,4.833 -1.487,4.809 -1.523,4.797 -1.547,4.773 -1.559,4.761 -1.571,4.761 -1.583,4.749 -1.679,4.665 -1.763,4.581 -1.847,4.485 c 0,0 0,-0.012 -0.012,-0.012 C -1.871,4.449 -1.895,4.413 -1.907,4.389 -1.942,4.341 -1.967,4.293 -2.003,4.245 -2.051,4.149 -2.099,4.053 -2.135,3.957 -2.171,3.897 -2.183,3.837 -2.207,3.777 -2.267,3.598 -2.326,3.417 -2.375,3.238 -2.471,2.89 -2.578,2.554 -2.675,2.206 M 2.675,0.911 C 2.603,0.659 2.543,0.396 2.446,0.155 2.339,-0.108 2.195,-0.36 1.991,-0.552 1.775,-0.744 1.523,-0.876 1.26,-0.948 c -0.588,-0.144 -1.32,-0.06 -1.739,0.408 -0.084,0.096 -0.157,0.204 -0.205,0.324 -0.084,-0.108 -0.179,-0.192 -0.275,-0.276 -0.24,-0.204 -0.504,-0.36 -0.804,-0.444 -0.312,-0.096 -0.647,-0.096 -0.96,-0.036 -0.551,0.108 -1.019,0.516 -1.115,1.079 -0.048,0.277 -0.036,0.552 0.036,0.829 0.012,0.071 0.036,0.131 0.06,0.203 0.192,0.659 0.384,1.319 0.576,1.979 0.168,0.528 0.3,1.091 0.588,1.571 0.275,0.432 0.659,0.779 1.151,0.936 C -1.151,5.72 -0.84,5.744 -0.552,5.72 -0.204,5.684 0.12,5.576 0.396,5.349 0.852,4.965 0.947,4.329 0.815,3.765 0.72,3.357 0.479,2.998 0.156,2.734 -0.479,2.218 -1.283,2.002 -2.039,1.69 -2.278,1.583 -2.507,1.475 -2.723,1.319 -2.723,1.307 -2.734,1.307 -2.734,1.307 -2.759,1.283 -2.782,1.259 -2.807,1.247 -2.854,1.199 -2.902,1.163 -2.938,1.115 -2.938,1.103 -2.95,1.103 -2.95,1.091 -2.962,1.067 -2.986,1.043 -2.998,1.02 -3.022,0.983 -3.034,0.947 -3.059,0.911 -3.07,0.887 -3.082,0.863 -3.082,0.827 L -3.094,0.815 C -3.106,0.731 -3.13,0.659 -3.143,0.587 -3.154,0.491 -3.154,0.396 -3.143,0.3 -3.13,0.228 -3.118,0.168 -3.094,0.107 -3.07,0.071 -3.059,0.036 -3.034,0 c 0,-0.013 0.012,-0.013 0.012,-0.024 0.024,-0.012 0.036,-0.037 0.047,-0.048 0.025,-0.025 0.037,-0.036 0.061,-0.048 0,-0.012 0.012,-0.012 0.012,-0.025 0.048,-0.023 0.095,-0.047 0.131,-0.071 0.096,-0.024 0.18,-0.049 0.264,-0.06 0.132,-0.012 0.264,-0.024 0.384,-0.012 0.108,0.023 0.204,0.048 0.3,0.084 0.072,0.036 0.144,0.072 0.204,0.107 0.036,0.025 0.072,0.049 0.096,0.073 h 0.012 C -1.499,-0.013 -1.487,0 -1.487,0 c 0.12,0.107 0.228,0.203 0.312,0.323 0.012,0.025 0.048,0.061 0.06,0.073 0.023,0.036 0.048,0.072 0.072,0.107 0.035,0.06 0.084,0.133 0.119,0.204 0.061,0.108 0.12,0.216 0.168,0.324 0.013,0.024 0.013,0.048 0.025,0.072 h 0.011 c 0.036,0.084 0.132,0.144 0.216,0.168 0,0 0.013,0.012 0.025,0.012 h 0.011 c 0.048,0.012 0.096,0 0.144,-0.012 0.024,0 0.036,0 0.049,-0.012 0.011,0 0.023,-0.012 0.047,-0.024 0.072,-0.048 0.132,-0.12 0.168,-0.215 V 0.983 C -0.048,0.936 -0.048,0.875 -0.072,0.827 -0.084,0.755 -0.107,0.684 -0.12,0.611 -0.132,0.516 -0.132,0.42 -0.12,0.336 -0.107,0.264 -0.096,0.191 -0.072,0.132 -0.048,0.084 -0.023,0.048 0,0.012 0,0 0.012,0 0.012,-0.013 0.036,-0.024 0.048,-0.048 0.072,-0.061 0.084,-0.084 0.108,-0.097 0.12,-0.12 0.132,-0.132 0.144,-0.132 0.156,-0.145 0.204,-0.168 0.24,-0.192 0.288,-0.216 c 0.084,-0.024 0.168,-0.049 0.264,-0.06 0.132,-0.024 0.252,-0.024 0.384,0 0.095,0.011 0.192,0.036 0.288,0.072 0.059,0.023 0.131,0.059 0.191,0.107 l 0.013,0.013 c 0.011,0.012 0.023,0.012 0.023,0.023 0.036,0.025 0.061,0.048 0.084,0.084 0.025,0.013 0.036,0.037 0.06,0.048 0,0.013 0,0.013 0.012,0.025 0.012,0.023 0.024,0.036 0.037,0.059 0.047,0.061 0.071,0.132 0.107,0.193 0.048,0.12 0.084,0.252 0.12,0.372 0.036,0.132 0.072,0.251 0.12,0.383 0.048,0.18 0.239,0.3 0.432,0.251 C 2.614,1.307 2.734,1.103 2.675,0.911"
       style="fill:#1e324d icc-color(sRGB-IEC61966-2, 0.1, 0.11799622, 0.19599915, 0.30198669);fill-opacity:1;fill-rule:nonzero;stroke:none"
       transform="matrix(0.628261,0,0,-0.628261,105.11792,72.476599)"
       clip-path="url(#clipPath23554)" />
    <path
       id="path23555"
       d="m 0,0 c 0.023,0.048 0.048,0.108 0.072,0.167 0.06,0.192 0.119,0.396 0.18,0.588 0.107,0.372 0.227,0.732 0.336,1.104 0.071,0.216 0.132,0.432 0.191,0.647 0.036,0.12 0.073,0.24 0.084,0.36 C 0.888,2.998 0.888,3.13 0.875,3.262 0.863,3.346 0.84,3.418 0.815,3.49 0.791,3.526 0.768,3.574 0.743,3.61 0.743,3.622 0.731,3.622 0.731,3.634 0.72,3.658 0.695,3.67 0.684,3.694 0.659,3.706 0.647,3.73 0.624,3.742 0.611,3.742 0.611,3.754 0.6,3.754 0.563,3.778 0.516,3.802 0.468,3.826 0.384,3.862 0.3,3.886 0.216,3.897 0.06,3.91 -0.096,3.91 -0.24,3.897 -0.36,3.874 -0.468,3.85 -0.588,3.802 -0.636,3.778 -0.684,3.754 -0.731,3.73 -0.756,3.706 -0.792,3.694 -0.815,3.67 -0.827,3.658 -0.84,3.658 -0.852,3.646 -0.947,3.562 -1.031,3.478 -1.115,3.382 c 0,0 0,-0.012 -0.013,-0.012 C -1.14,3.346 -1.163,3.31 -1.176,3.286 -1.211,3.238 -1.247,3.19 -1.271,3.142 -1.319,3.046 -1.367,2.95 -1.415,2.854 -1.439,2.794 -1.463,2.734 -1.476,2.674 -1.547,2.495 -1.595,2.314 -1.644,2.135 -1.751,1.787 -1.847,1.451 -1.943,1.103 -2.051,0.755 -2.146,0.419 -2.255,0.072 c -0.059,-0.192 -0.12,-0.384 -0.156,-0.588 -0.012,-0.096 -0.012,-0.192 0,-0.287 0.013,-0.072 0.024,-0.132 0.049,-0.193 0.011,-0.036 0.035,-0.071 0.059,-0.107 0,-0.013 0.012,-0.013 0.012,-0.024 l 0.048,-0.048 c 0.013,-0.025 0.036,-0.036 0.06,-0.048 0,-0.012 0.012,-0.012 0.012,-0.025 0.048,-0.023 0.084,-0.047 0.132,-0.071 0.084,-0.024 0.18,-0.049 0.264,-0.06 0.131,-0.012 0.252,-0.024 0.383,-0.012 0.109,0.023 0.205,0.048 0.3,0.084 0.072,0.036 0.132,0.072 0.193,0.107 0.036,0.025 0.072,0.049 0.107,0.073 h 0.013 c 0.011,0.011 0.023,0.024 0.023,0.036 0.072,0.048 0.132,0.107 0.193,0.179 0.036,0.025 0.059,0.061 0.084,0.096 0.023,0.013 0.047,0.061 0.059,0.072 C -0.252,-0.516 -0.108,-0.264 0,0 M 3.43,-0.192 C 3.37,-0.408 3.298,-0.612 3.238,-0.828 3.106,-1.284 2.807,-1.703 2.375,-1.918 2.087,-2.063 1.763,-2.123 1.427,-2.111 c -0.3,0.012 -0.623,0.072 -0.887,0.252 -0.216,0.144 -0.372,0.324 -0.492,0.552 -0.252,-0.3 -0.575,-0.552 -0.972,-0.695 -0.227,-0.084 -0.491,-0.121 -0.731,-0.109 -0.3,0.012 -0.636,0.084 -0.888,0.252 -0.239,0.168 -0.42,0.396 -0.516,0.672 -0.095,0.264 -0.095,0.539 -0.059,0.815 0.036,0.216 0.107,0.432 0.168,0.636 0.107,0.347 0.204,0.683 0.311,1.031 0.096,0.348 0.204,0.684 0.3,1.032 0.048,0.179 0.109,0.36 0.168,0.527 0.144,0.42 0.336,0.816 0.636,1.127 0.372,0.408 0.899,0.636 1.451,0.648 0.312,0 0.624,-0.048 0.911,-0.18 C 0.995,4.377 1.151,4.246 1.271,4.102 1.308,4.186 1.331,4.27 1.355,4.354 1.415,4.545 1.607,4.653 1.799,4.605 1.979,4.557 2.099,4.354 2.051,4.162 1.919,3.754 0.659,-0.335 0.636,-0.492 c -0.012,-0.095 -0.012,-0.191 0,-0.275 0.011,-0.072 0.023,-0.145 0.048,-0.204 0.024,-0.048 0.047,-0.084 0.072,-0.12 0,-0.012 0.012,-0.012 0.012,-0.025 0.011,-0.011 0.036,-0.035 0.047,-0.048 0.025,-0.023 0.048,-0.036 0.06,-0.059 0.013,-0.012 0.024,-0.012 0.036,-0.025 0.036,-0.023 0.084,-0.047 0.132,-0.071 0.084,-0.024 0.168,-0.049 0.265,-0.06 0.119,-0.024 0.251,-0.024 0.383,0 0.096,0.011 0.192,0.036 0.276,0.072 0.072,0.023 0.132,0.059 0.204,0.107 l 0.012,0.013 c 0.011,0.012 0.011,0.012 0.024,0.023 0.036,0.025 0.06,0.048 0.084,0.084 0.023,0.013 0.035,0.037 0.048,0.048 0.012,0.013 0.012,0.013 0.012,0.025 0.024,0.023 0.036,0.036 0.047,0.059 0.037,0.061 0.073,0.132 0.109,0.193 0.048,0.12 0.071,0.252 0.12,0.372 C 2.662,-0.251 2.698,-0.132 2.734,0 2.794,0.18 2.986,0.3 3.178,0.251 3.37,0.204 3.49,0 3.43,-0.192"
       style="fill:#1e324d icc-color(sRGB-IEC61966-2, 0.1, 0.11799622, 0.19599915, 0.30198669);fill-opacity:1;fill-rule:nonzero;stroke:none"
       transform="matrix(0.628261,0,0,-0.628261,110.20721,71.783625)"
       clip-path="url(#clipPath23556)" />
    <path
       id="path23557"
       d="m 0,0 c -0.06,-0.204 -0.12,-0.396 -0.18,-0.588 -0.06,-0.227 -0.156,-0.443 -0.288,-0.623 -0.095,-0.12 -0.192,-0.228 -0.311,-0.324 -0.145,-0.12 -0.288,-0.204 -0.456,-0.264 -0.288,-0.12 -0.6,-0.144 -0.9,-0.108 -0.168,0.012 -0.324,0.036 -0.468,0.096 -0.168,0.072 -0.299,0.144 -0.431,0.251 -0.445,0.361 -0.552,0.972 -0.445,1.5 0.025,0.12 0.061,0.24 0.097,0.36 0.155,0.492 0.312,0.995 0.455,1.487 0.229,0.743 0.456,1.487 0.684,2.218 0.204,0.672 0.408,1.344 0.612,2.016 0.096,0.299 0.18,0.587 0.276,0.875 0.047,0.192 0.24,0.312 0.431,0.252 C -0.731,7.1 -0.611,6.896 -0.672,6.704 -0.695,6.62 -0.72,6.524 -0.744,6.44 -0.911,5.9 -1.079,5.373 -1.235,4.833 -1.463,4.089 -1.691,3.346 -1.919,2.603 -2.123,1.943 -2.314,1.295 -2.519,0.647 -2.579,0.456 -2.639,0.276 -2.687,0.084 -2.734,-0.048 -2.771,-0.168 -2.795,-0.3 c -0.012,-0.096 -0.012,-0.191 0,-0.275 0.013,-0.072 0.024,-0.145 0.049,-0.204 0.023,-0.048 0.048,-0.084 0.071,-0.12 0.012,-0.012 0.012,-0.012 0.012,-0.025 0.024,-0.012 0.036,-0.035 0.06,-0.048 0.012,-0.023 0.037,-0.036 0.048,-0.059 0.012,-0.012 0.025,-0.012 0.036,-0.025 0.048,-0.023 0.084,-0.048 0.132,-0.071 0.084,-0.024 0.168,-0.049 0.264,-0.06 0.132,-0.024 0.252,-0.024 0.384,0 0.095,0.011 0.192,0.036 0.288,0.072 0.059,0.023 0.132,0.059 0.191,0.107 l 0.013,0.013 c 0.012,0.012 0.023,0.012 0.023,0.023 0.037,0.025 0.061,0.048 0.084,0.084 0.025,0.013 0.036,0.036 0.061,0.048 0,0.013 0,0.013 0.012,0.025 0.011,0.023 0.023,0.036 0.036,0.059 0.048,0.061 0.071,0.132 0.107,0.193 0.048,0.12 0.084,0.251 0.12,0.372 0.036,0.131 0.073,0.251 0.12,0.383 0.048,0.18 0.241,0.3 0.432,0.251 C -0.06,0.396 0.06,0.192 0,0"
       style="fill:#1e324d icc-color(sRGB-IEC61966-2, 0.1, 0.11799622, 0.19599915, 0.30198669);fill-opacity:1;fill-rule:nonzero;stroke:none"
       transform="matrix(0.628261,0,0,-0.628261,114.08226,71.90419)"
       clip-path="url(#clipPath23558)" />
    <path
       id="path23559"
       d="m 0,0 c -0.06,-0.204 -0.119,-0.396 -0.18,-0.588 -0.071,-0.227 -0.155,-0.443 -0.299,-0.623 -0.096,-0.12 -0.18,-0.228 -0.3,-0.324 -0.157,-0.12 -0.288,-0.204 -0.468,-0.264 -0.275,-0.12 -0.6,-0.144 -0.899,-0.108 -0.157,0.012 -0.312,0.036 -0.468,0.096 -0.157,0.072 -0.288,0.144 -0.432,0.251 -0.443,0.361 -0.54,0.972 -0.432,1.5 0.024,0.12 0.06,0.24 0.096,0.36 0.156,0.492 0.3,0.995 0.456,1.487 0.228,0.743 0.455,1.487 0.672,2.218 0.012,0.037 0.024,0.06 0.035,0.097 h -0.527 c -0.192,0 -0.359,0.155 -0.359,0.359 0,0.192 0.167,0.36 0.359,0.36 h 0.264 0.479 c 0.12,0.396 0.252,0.804 0.372,1.2 0.084,0.299 0.18,0.587 0.264,0.875 0.06,0.192 0.252,0.312 0.444,0.252 C -0.743,7.1 -0.611,6.896 -0.671,6.704 -0.695,6.62 -0.731,6.524 -0.755,6.44 -0.923,5.9 -1.079,5.373 -1.247,4.833 V 4.821 h 0.552 c 0.192,0 0.36,-0.168 0.36,-0.36 0,-0.204 -0.168,-0.359 -0.36,-0.359 H -0.947 -1.475 C -1.619,3.598 -1.774,3.094 -1.931,2.603 -2.122,1.943 -2.326,1.295 -2.519,0.647 -2.578,0.456 -2.638,0.276 -2.698,0.084 -2.734,-0.048 -2.771,-0.168 -2.794,-0.3 c -0.012,-0.096 -0.012,-0.191 0,-0.275 0.012,-0.072 0.023,-0.145 0.048,-0.204 0.024,-0.048 0.048,-0.084 0.072,-0.12 0,-0.012 0,-0.012 0.012,-0.025 0.012,-0.012 0.036,-0.035 0.048,-0.048 0.024,-0.023 0.036,-0.036 0.06,-0.059 0.012,-0.012 0.024,-0.012 0.035,-0.025 0.037,-0.023 0.084,-0.048 0.121,-0.071 0.084,-0.024 0.179,-0.049 0.263,-0.06 0.132,-0.024 0.265,-0.024 0.397,0 0.095,0.011 0.191,0.036 0.275,0.072 0.072,0.023 0.132,0.059 0.192,0.107 0.012,0 0.012,0.013 0.024,0.013 0,0.012 0.012,0.012 0.024,0.023 0.024,0.025 0.06,0.048 0.084,0.084 0.012,0.013 0.036,0.036 0.048,0.048 0,0.013 0.012,0.013 0.012,0.025 0.024,0.023 0.036,0.036 0.048,0.059 0.036,0.061 0.072,0.132 0.095,0.193 0.049,0.12 0.084,0.251 0.121,0.372 0.047,0.131 0.084,0.251 0.12,0.383 0.06,0.18 0.252,0.3 0.444,0.251 C -0.071,0.396 0.061,0.192 0,0"
       style="fill:#1e324d icc-color(sRGB-IEC61966-2, 0.1, 0.11799622, 0.19599915, 0.30198669);fill-opacity:1;fill-rule:nonzero;stroke:none"
       transform="matrix(0.628261,0,0,-0.628261,115.80081,71.90419)"
       clip-path="url(#clipPath23560)" />
    <path
       id="path23561"
       d="m 0,0 c -0.06,-0.216 -0.119,-0.42 -0.191,-0.636 -0.132,-0.456 -0.432,-0.875 -0.864,-1.091 -0.288,-0.144 -0.612,-0.204 -0.935,-0.192 -0.313,0.012 -0.636,0.072 -0.9,0.252 -0.215,0.144 -0.372,0.324 -0.48,0.552 -0.276,-0.312 -0.6,-0.564 -1.007,-0.708 -0.228,-0.084 -0.492,-0.108 -0.744,-0.096 -0.3,0.024 -0.623,0.084 -0.863,0.276 -0.241,0.167 -0.42,0.396 -0.516,0.671 -0.084,0.264 -0.084,0.552 -0.036,0.816 0.024,0.18 0.084,0.336 0.132,0.504 0.084,0.263 0.156,0.527 0.24,0.791 0.227,0.732 0.443,1.464 0.672,2.195 0.119,0.408 0.239,0.815 0.359,1.223 0.06,0.18 0.252,0.3 0.444,0.252 C -4.497,4.761 -4.377,4.545 -4.437,4.365 -4.558,3.946 -4.689,3.538 -4.809,3.13 -5.037,2.386 -5.253,1.655 -5.48,0.923 -5.553,0.66 -5.637,0.408 -5.709,0.144 c -0.048,-0.156 -0.107,-0.312 -0.132,-0.468 -0.012,-0.096 -0.012,-0.192 0,-0.287 0.013,-0.073 0.025,-0.132 0.049,-0.193 0.023,-0.036 0.035,-0.071 0.06,-0.107 0.011,-0.013 0.011,-0.013 0.011,-0.025 0.025,-0.011 0.036,-0.036 0.048,-0.047 0.025,-0.025 0.036,-0.037 0.061,-0.048 0,-0.012 0.011,-0.012 0.023,-0.025 0.036,-0.023 0.084,-0.048 0.12,-0.071 0.096,-0.024 0.18,-0.049 0.264,-0.06 0.132,-0.012 0.264,-0.024 0.384,-0.012 0.108,0.023 0.204,0.048 0.312,0.084 0.06,0.036 0.119,0.072 0.18,0.107 0.036,0.025 0.072,0.049 0.107,0.072 h 0.013 c 0.012,0.012 0.023,0.025 0.035,0.037 0.061,0.047 0.12,0.107 0.181,0.179 0.036,0.025 0.059,0.061 0.096,0.096 0.011,0.013 0.047,0.061 0.059,0.072 0.168,0.228 0.3,0.48 0.408,0.732 0.036,0.084 0.06,0.155 0.084,0.228 0.073,0.239 1.152,3.73 1.272,4.137 0.059,0.192 0.252,0.3 0.443,0.252 0.18,-0.048 0.312,-0.252 0.252,-0.443 -0.12,-0.408 -1.224,-4.03 -1.283,-4.187 V 0.156 C -2.71,0 -2.771,-0.144 -2.794,-0.3 c -0.012,-0.096 -0.012,-0.191 0,-0.275 0.012,-0.072 0.036,-0.145 0.06,-0.204 0.012,-0.048 0.036,-0.084 0.06,-0.12 0.012,-0.012 0.012,-0.012 0.012,-0.025 0.023,-0.012 0.036,-0.035 0.059,-0.048 0.013,-0.023 0.037,-0.036 0.048,-0.059 0.013,-0.012 0.025,-0.012 0.036,-0.025 0.048,-0.023 0.084,-0.048 0.132,-0.071 0.084,-0.024 0.168,-0.049 0.265,-0.06 0.132,-0.024 0.264,-0.024 0.384,0 0.095,0.011 0.191,0.036 0.287,0.072 0.06,0.023 0.132,0.059 0.192,0.107 l 0.012,0.013 c 0.012,0.012 0.024,0.012 0.024,0.023 0.036,0.025 0.06,0.048 0.084,0.084 0.024,0.013 0.035,0.036 0.06,0.048 0,0.013 0,0.013 0.012,0.025 0.012,0.023 0.024,0.036 0.047,0.059 0.037,0.061 0.061,0.132 0.097,0.193 0.048,0.12 0.084,0.251 0.12,0.372 0.035,0.131 0.072,0.251 0.119,0.383 0.048,0.18 0.241,0.3 0.445,0.251 C -0.06,0.396 0.061,0.192 0,0"
       style="fill:#1e324d icc-color(sRGB-IEC61966-2, 0.1, 0.11799622, 0.19599915, 0.30198669);fill-opacity:1;fill-rule:nonzero;stroke:none"
       transform="matrix(0.628261,0,0,-0.628261,119.43354,71.90419)"
       clip-path="url(#clipPath23562)" />
    <path
       id="path23563"
       d="m 0,0 v -0.012 c 0,0 0.013,0 0.013,-0.012 C 0,-0.012 0,-0.012 0,0 M 0.097,0.695 C 0.084,0.695 0.084,0.684 0.072,0.671 0.061,0.647 0.048,0.624 0.036,0.611 0,0.516 -0.023,0.432 -0.036,0.335 c -0.012,-0.071 -0.012,-0.131 0,-0.203 0,-0.036 0.013,-0.072 0.024,-0.108 0.012,-0.012 0.025,-0.036 0.036,-0.06 0,0 0.012,-0.012 0.024,-0.024 0.013,-0.012 0.013,-0.012 0.024,-0.024 0,0 0.012,0 0.012,-0.012 C 0.108,-0.108 0.132,-0.12 0.168,-0.132 0.24,-0.156 0.312,-0.18 0.384,-0.192 0.42,-0.084 0.456,0.012 0.48,0.12 0.516,0.228 0.564,0.348 0.588,0.456 V 0.54 C 0.588,0.563 0.576,0.587 0.576,0.611 0.564,0.636 0.552,0.66 0.54,0.671 H 0.528 C 0.528,0.684 0.516,0.695 0.504,0.708 0.492,0.719 0.492,0.719 0.48,0.731 H 0.468 C 0.456,0.744 0.432,0.755 0.42,0.768 0.396,0.779 0.372,0.779 0.336,0.792 H 0.264 C 0.24,0.779 0.216,0.779 0.192,0.768 L 0.12,0.731 C 0.108,0.719 0.108,0.708 0.097,0.695 M 4.689,-5.013 C 4.618,-5.265 4.546,-5.529 4.45,-5.769 4.354,-6.033 4.21,-6.285 3.994,-6.476 3.79,-6.668 3.538,-6.8 3.263,-6.873 2.687,-7.016 1.943,-6.932 1.535,-6.464 1.151,-6.033 1.08,-5.433 1.248,-4.905 c 0.167,0.527 0.323,1.055 0.491,1.583 0.096,0.323 0.193,0.659 0.3,0.983 0.061,0.192 0.12,0.384 0.156,0.588 0.012,0.096 0.012,0.204 0,0.3 -0.012,0.059 -0.024,0.108 -0.048,0.168 -0.012,0.035 -0.024,0.059 -0.047,0.096 -0.025,0.023 -0.037,0.036 -0.049,0.06 -0.012,0.011 -0.024,0.023 -0.048,0.023 0,0.012 -0.012,0.012 -0.024,0.024 -0.036,0.024 -0.072,0.048 -0.12,0.06 C 1.764,-0.983 1.667,-0.948 1.56,-0.936 1.344,-0.912 1.128,-0.912 0.912,-0.912 0.852,-1.104 0.792,-1.295 0.744,-1.487 0.528,-2.171 0.312,-2.867 0.108,-3.55 c -0.215,-0.708 -0.431,-1.415 -0.647,-2.111 -0.097,-0.324 -0.204,-0.647 -0.3,-0.971 -0.06,-0.192 -0.252,-0.312 -0.444,-0.252 -0.18,0.048 -0.312,0.252 -0.252,0.444 0.036,0.084 0.06,0.18 0.084,0.275 0.18,0.577 0.36,1.14 0.528,1.715 0.228,0.744 0.455,1.488 0.684,2.243 0.143,0.444 0.275,0.875 0.407,1.319 -0.144,0.036 -0.288,0.084 -0.42,0.156 -0.227,0.132 -0.407,0.36 -0.468,0.624 -0.071,0.24 -0.048,0.504 0.013,0.744 0.071,0.311 0.252,0.635 0.563,0.767 0.132,0.048 0.228,0.084 0.36,0.096 0.096,0.012 0.18,0 0.264,-0.012 C 0.66,1.463 0.828,1.367 0.972,1.259 1.248,1.02 1.367,0.624 1.283,0.264 1.26,0.144 1.212,0.012 1.164,-0.108 c 0,-0.036 -0.013,-0.06 -0.024,-0.096 h 0.095 c 0.252,0 0.516,-0.012 0.768,-0.096 0.12,-0.048 0.252,-0.096 0.36,-0.168 C 2.495,-0.564 2.591,-0.66 2.687,-0.78 2.975,-1.151 2.963,-1.691 2.843,-2.123 2.807,-2.315 2.734,-2.495 2.687,-2.687 2.579,-3.035 2.471,-3.382 2.363,-3.73 2.255,-4.066 2.159,-4.402 2.051,-4.75 1.991,-4.929 1.919,-5.121 1.896,-5.313 c -0.013,-0.096 -0.013,-0.191 0,-0.275 0.011,-0.073 0.023,-0.145 0.047,-0.205 0.024,-0.047 0.048,-0.083 0.073,-0.12 0,-0.011 0,-0.011 0.011,-0.024 0.012,-0.012 0.036,-0.035 0.048,-0.048 0.025,-0.023 0.036,-0.036 0.06,-0.059 0.012,-0.012 0.024,-0.012 0.036,-0.025 0.036,-0.023 0.084,-0.048 0.12,-0.071 0.084,-0.025 0.18,-0.049 0.264,-0.061 0.132,-0.023 0.263,-0.023 0.395,0 0.097,0.012 0.193,0.036 0.277,0.073 0.072,0.023 0.131,0.059 0.191,0.107 0.013,0 0.013,0.013 0.024,0.013 0,0.011 0.012,0.011 0.025,0.023 0.023,0.025 0.059,0.048 0.084,0.084 0.012,0.013 0.035,0.036 0.048,0.048 0,0.013 0.011,0.013 0.011,0.024 0.025,0.024 0.036,0.036 0.048,0.06 0.036,0.06 0.072,0.132 0.096,0.192 0.048,0.12 0.084,0.252 0.12,0.372 0.048,0.132 0.084,0.251 0.12,0.384 0.06,0.179 0.252,0.299 0.443,0.251 0.181,-0.048 0.313,-0.251 0.252,-0.443"
       style="fill:#1e324d icc-color(sRGB-IEC61966-2, 0.1, 0.11799622, 0.19599915, 0.30198669);fill-opacity:1;fill-rule:nonzero;stroke:none"
       transform="matrix(0.628261,0,0,-0.628261,119.69925,68.754529)"
       clip-path="url(#clipPath23564)" />
    <path
       id="path23565"
       d="m 0,0 c 0.023,0.048 0.048,0.108 0.072,0.167 0.06,0.192 0.119,0.396 0.18,0.588 0.107,0.372 0.227,0.732 0.336,1.104 0.071,0.216 0.132,0.432 0.191,0.647 0.036,0.12 0.073,0.24 0.084,0.36 C 0.888,2.998 0.888,3.13 0.875,3.262 0.863,3.346 0.84,3.418 0.815,3.49 0.791,3.526 0.768,3.574 0.743,3.61 0.743,3.622 0.731,3.622 0.731,3.634 0.72,3.658 0.695,3.67 0.684,3.694 0.659,3.706 0.647,3.73 0.624,3.742 0.611,3.742 0.611,3.754 0.6,3.754 0.563,3.778 0.516,3.802 0.468,3.826 0.384,3.862 0.3,3.886 0.216,3.897 0.06,3.91 -0.096,3.91 -0.24,3.897 -0.36,3.874 -0.468,3.85 -0.588,3.802 -0.636,3.778 -0.684,3.754 -0.731,3.73 -0.756,3.706 -0.792,3.694 -0.815,3.67 -0.827,3.658 -0.84,3.658 -0.852,3.646 -0.947,3.562 -1.031,3.478 -1.115,3.382 c 0,0 0,-0.012 -0.013,-0.012 C -1.14,3.346 -1.163,3.31 -1.176,3.286 -1.211,3.238 -1.247,3.19 -1.271,3.142 -1.319,3.046 -1.367,2.95 -1.415,2.854 -1.439,2.794 -1.463,2.734 -1.476,2.674 -1.547,2.495 -1.595,2.314 -1.644,2.135 -1.751,1.787 -1.847,1.451 -1.943,1.103 -2.051,0.755 -2.146,0.419 -2.255,0.072 c -0.059,-0.192 -0.12,-0.384 -0.156,-0.588 -0.012,-0.096 -0.012,-0.192 0,-0.287 0.013,-0.072 0.024,-0.132 0.049,-0.193 0.011,-0.036 0.035,-0.071 0.059,-0.107 0,-0.013 0.012,-0.013 0.012,-0.024 l 0.048,-0.048 c 0.013,-0.025 0.036,-0.036 0.06,-0.048 0,-0.012 0.012,-0.012 0.012,-0.025 0.048,-0.023 0.084,-0.047 0.132,-0.071 0.084,-0.024 0.18,-0.049 0.264,-0.06 0.131,-0.012 0.252,-0.024 0.383,-0.012 0.109,0.023 0.205,0.048 0.3,0.084 0.072,0.036 0.132,0.072 0.193,0.107 0.036,0.025 0.072,0.049 0.107,0.073 h 0.013 c 0.011,0.011 0.023,0.024 0.023,0.036 0.072,0.048 0.132,0.107 0.193,0.179 0.036,0.025 0.059,0.061 0.084,0.096 0.023,0.013 0.047,0.061 0.059,0.072 C -0.252,-0.516 -0.108,-0.264 0,0 M 3.43,-0.192 C 3.37,-0.408 3.298,-0.612 3.238,-0.828 3.106,-1.284 2.807,-1.703 2.375,-1.918 2.087,-2.063 1.763,-2.123 1.427,-2.111 c -0.3,0.012 -0.623,0.072 -0.887,0.252 -0.216,0.144 -0.372,0.324 -0.492,0.552 -0.252,-0.3 -0.575,-0.552 -0.972,-0.695 -0.227,-0.084 -0.491,-0.121 -0.731,-0.109 -0.3,0.012 -0.636,0.084 -0.888,0.252 -0.239,0.168 -0.42,0.396 -0.516,0.672 -0.095,0.264 -0.095,0.539 -0.059,0.815 0.036,0.216 0.107,0.432 0.168,0.636 0.107,0.347 0.204,0.683 0.311,1.031 0.096,0.348 0.204,0.684 0.3,1.032 0.048,0.179 0.109,0.36 0.168,0.527 0.144,0.42 0.336,0.816 0.636,1.127 0.372,0.408 0.899,0.636 1.451,0.648 0.312,0 0.624,-0.048 0.911,-0.18 C 0.995,4.377 1.151,4.246 1.271,4.102 1.308,4.186 1.331,4.27 1.355,4.354 1.415,4.545 1.607,4.653 1.799,4.605 1.979,4.557 2.099,4.354 2.051,4.162 1.919,3.754 0.659,-0.335 0.636,-0.492 c -0.012,-0.095 -0.012,-0.191 0,-0.275 0.011,-0.072 0.023,-0.145 0.048,-0.204 0.024,-0.048 0.047,-0.084 0.072,-0.12 0,-0.012 0.012,-0.012 0.012,-0.025 0.011,-0.011 0.036,-0.035 0.047,-0.048 0.025,-0.023 0.048,-0.036 0.06,-0.059 0.013,-0.012 0.024,-0.012 0.036,-0.025 0.036,-0.023 0.084,-0.047 0.132,-0.071 0.084,-0.024 0.168,-0.049 0.265,-0.06 0.119,-0.024 0.251,-0.024 0.383,0 0.096,0.011 0.192,0.036 0.276,0.072 0.072,0.023 0.132,0.059 0.204,0.107 l 0.012,0.013 c 0.011,0.012 0.011,0.012 0.024,0.023 0.036,0.025 0.06,0.048 0.084,0.084 0.023,0.013 0.035,0.037 0.048,0.048 0.012,0.013 0.012,0.013 0.012,0.025 0.024,0.023 0.036,0.036 0.047,0.059 0.037,0.061 0.073,0.132 0.109,0.193 0.048,0.12 0.071,0.252 0.12,0.372 C 2.662,-0.251 2.698,-0.132 2.734,0 2.794,0.18 2.986,0.3 3.178,0.251 3.37,0.204 3.49,0 3.43,-0.192"
       style="fill:#1e324d icc-color(sRGB-IEC61966-2, 0.1, 0.11799622, 0.19599915, 0.30198669);fill-opacity:1;fill-rule:nonzero;stroke:none"
       transform="matrix(0.628261,0,0,-0.628261,124.12462,71.783625)"
       clip-path="url(#clipPath23566)" />
    <path
       id="path23567"
       d="m 0,0 c 0,-0.192 -0.168,-0.36 -0.359,-0.36 h -0.096 -1.751 c -0.204,0 -0.36,0.168 -0.36,0.36 0,0.204 0.156,0.36 0.36,0.36 h 0.084 1.763 C -0.168,0.36 0,0.204 0,0"
       style="fill:#1e324d icc-color(sRGB-IEC61966-2, 0.1, 0.11799622, 0.19599915, 0.30198669);fill-opacity:1;fill-rule:nonzero;stroke:none"
       transform="matrix(0.628261,0,0,-0.628261,129.32619,70.992459)"
       clip-path="url(#clipPath23568)" />
    <path
       id="path23569"
       d="m 0,0 c 0,-0.192 -0.168,-0.36 -0.359,-0.36 h -0.096 -1.751 c -0.204,0 -0.36,0.168 -0.36,0.36 0,0.204 0.156,0.36 0.36,0.36 h 0.084 1.763 C -0.168,0.36 0,0.204 0,0"
       style="fill:#1e324d icc-color(sRGB-IEC61966-2, 0.1, 0.11799622, 0.19599915, 0.30198669);fill-opacity:1;fill-rule:nonzero;stroke:none"
       transform="matrix(0.628261,0,0,-0.628261,131.09074,70.992459)"
       clip-path="url(#clipPath23570)" />
    <path
       id="path23571"
       d="m 0,0 c 0,-0.192 -0.168,-0.36 -0.359,-0.36 h -0.096 -1.751 c -0.204,0 -0.36,0.168 -0.36,0.36 0,0.204 0.156,0.36 0.36,0.36 h 0.084 1.763 C -0.168,0.36 0,0.204 0,0"
       style="fill:#1e324d icc-color(sRGB-IEC61966-2, 0.1, 0.11799622, 0.19599915, 0.30198669);fill-opacity:1;fill-rule:nonzero;stroke:none"
       transform="matrix(0.628261,0,0,-0.628261,132.85465,70.992459)"
       clip-path="url(#clipPath23572)" />
  </g>
</svg>
